<?xml version="1.0" encoding="iso-8859-1"?>
<!-- Generator: Adobe Illustrator 19.1.0, SVG Export Plug-In . SVG Version: 6.00 Build 0)  -->
<svg version="1.1" id="Calque_1" xmlns="http://www.w3.org/2000/svg" xmlns:xlink="http://www.w3.org/1999/xlink" x="0px" y="0px"
	 viewBox="0 0 1200 400" style="enable-background:new 0 0 1200 400;" xml:space="preserve">
<g>
	<g>
		<g>
			<defs>
				<rect id="SVGID_1_" x="748.418" y="22.437" width="350.659" height="350.659"/>
			</defs>
			<clipPath id="SVGID_2_">
				<use xlink:href="#SVGID_1_"  style="overflow:visible;"/>
			</clipPath>
			<g style="clip-path:url(#SVGID_2_);">
				<defs>
					<rect id="SVGID_3_" x="748.418" y="22.437" width="350.659" height="350.659"/>
				</defs>
				<clipPath id="SVGID_4_">
					<use xlink:href="#SVGID_3_"  style="overflow:visible;"/>
				</clipPath>
				<path style="clip-path:url(#SVGID_4_);fill:#0066FF;" d="M856.847,83.635c-3.462,9.076-2.317,58.33,2.58,67.895
					c3.846,7.511,72.572,17.417,78.7,15.159c6.128-2.258,44.041-53.337,43.221-60.315c-1.29-10.966-44.527-47.174-52.091-48.704
					C914.905,54.767,860.395,74.334,856.847,83.635"/>
				<path style="clip-path:url(#SVGID_4_);fill:#0066FF;" d="M960.813,234.315c7.956-2.366,63.863,3.441,67.948,7.741
					c4.086,4.3-7.31,55.692-10.751,60.207c-3.441,4.516-58.918,30.104-67.734,28.814c-8.816-1.29-39.565-34.405-39.565-40.856
					C910.711,283.772,952.857,236.681,960.813,234.315"/>
				<path style="clip-path:url(#SVGID_4_);fill:#0066FF;" d="M774.76,188.299c-2.58,2.258-0.807,43.705-0.807,43.705l13.744,37.902
					l26.09,31.606c0,0,31.286-19.675,32.738-26.287c1.451-6.612-21.288-67.25-27.094-72.088
					C813.626,198.298,777.34,186.042,774.76,188.299"/>
				<path style="clip-path:url(#SVGID_4_);fill:#0066FF;" d="M1042.47,91.053c0,0-7.741,24.029-7.741,31.609
					s19.676,65.055,24.352,68.975c4.677,3.92,18.546,4.726,18.546,4.726l-4.516-46.446l-8.386-23.384L1042.47,91.053z"/>
				<path style="clip-path:url(#SVGID_4_);fill:#0066FF;" d="M802.982,95.407c0,0-2.024,2.349-5.277,7.12
					c-3.257,4.76-7.677,12.007-12.17,21.722c-4.474,9.706-8.893,21.986-11.572,36.494c-1.333,7.248-2.181,15.049-2.351,23.269
					c-0.082,2.053-0.019,4.136-0.002,6.24l0.008,0.79l0.004,0.396l0.001,0.198c0.001-0.14,0.007,0.079,0.01,0.1
					c0.029,0.544,0.058,1.089,0.087,1.635c0.059,1.094,0.117,2.194,0.177,3.301c0.059,1.107,0.118,2.22,0.178,3.339
					c0.075,1.107,0.22,2.161,0.326,3.253c0.115,1.083,0.231,2.171,0.346,3.266c0.122,1.095,0.204,2.189,0.407,3.304
					c0.348,2.222,0.699,4.467,1.054,6.734c0.435,2.25,0.931,4.51,1.397,6.795c0.126,0.569,0.221,1.147,0.372,1.713
					c0.149,0.566,0.299,1.133,0.45,1.702c0.299,1.137,0.601,2.279,0.903,3.425c0.547,2.309,1.356,4.562,2.075,6.86
					c3.009,9.144,6.959,18.297,12.054,27.102c5.09,8.8,11.21,17.307,18.412,25.142c7.205,7.827,15.458,14.986,24.546,21.249
					c18.137,12.586,39.799,21.328,62.626,25.097c1.429,0.222,2.859,0.443,4.291,0.665c1.432,0.217,2.88,0.328,4.32,0.499
					l2.164,0.236l1.083,0.119l1.087,0.069c1.45,0.091,2.901,0.182,4.353,0.273c1.45,0.122,2.907,0.121,4.363,0.147l4.188,0.072
					l4.603-0.12l2.303-0.059c0.76-0.025,1.43-0.1,2.15-0.147l4.249-0.311c0.701-0.034,1.436-0.143,2.159-0.227l2.177-0.262
					l2.178-0.26l1.089-0.13l1.082-0.181l4.331-0.725c1.449-0.21,2.875-0.553,4.307-0.856c1.43-0.315,2.867-0.602,4.294-0.937
					l4.25-1.123l2.126-0.559l2.098-0.657c11.213-3.401,22.097-7.977,32.172-13.88l3.774-2.212l3.662-2.382
					c2.477-1.534,4.786-3.303,7.163-4.97c0.6-0.41,1.169-0.858,1.734-1.313l1.706-1.347l1.706-1.346
					c0.568-0.449,1.145-0.886,1.68-1.373l3.267-2.847c0.54-0.479,1.1-0.936,1.624-1.431l1.558-1.498l3.116-2.99
					c1.001-1.03,1.974-2.086,2.962-3.126c2.019-2.043,3.818-4.27,5.683-6.431c0.959-1.061,1.797-2.215,2.678-3.334
					c0.873-1.124,1.746-2.248,2.617-3.37c0.812-1.165,1.623-2.328,2.433-3.49c0.804-1.166,1.651-2.302,2.369-3.519
					c6.112-9.507,10.99-19.638,14.677-30.023c3.69-10.392,6.048-21.07,7.372-31.674c0.292-2.656,0.511-5.309,0.773-7.944
					c0.179-2.641,0.244-5.279,0.374-7.898l0.043-0.982c0.001-0.253,0.013,0.072,0.008-0.057l-0.003-0.255l-0.006-0.509l-0.026-2.032
					c-0.017-1.353-0.034-2.701-0.05-4.046c-0.03-1.333-0.009-2.708-0.069-3.994c-0.089-1.257-0.178-2.511-0.267-3.76
					c-0.086-1.25-0.172-2.497-0.257-3.74c-0.049-0.623-0.068-1.241-0.141-1.865c-0.083-0.626-0.166-1.25-0.248-1.874
					c-0.337-2.494-0.639-4.979-0.993-7.437c-0.476-2.435-0.949-4.851-1.417-7.248c-0.201-1.209-0.532-2.379-0.835-3.551
					c-0.302-1.174-0.602-2.343-0.9-3.507c-2.497-9.287-5.857-18.007-9.794-26.061c-3.993-8.03-8.626-15.333-13.493-21.964
					c-0.615-0.825-1.227-1.645-1.834-2.46c-0.304-0.407-0.607-0.814-0.91-1.218c-0.321-0.389-0.642-0.778-0.96-1.165
					c-1.281-1.549-2.544-3.077-3.789-4.583c-1.312-1.452-2.605-2.885-3.879-4.295c-0.626-0.718-1.297-1.382-1.951-2.054
					c-0.656-0.67-1.307-1.336-1.952-1.997c-5.214-5.234-10.411-9.854-15.451-13.852c-5.043-3.992-9.86-7.453-14.337-10.402
					c-8.977-5.865-16.452-9.882-21.657-12.38c-5.197-2.529-8.093-3.627-8.093-3.627s0.749,0.192,2.18,0.638
					c1.432,0.443,3.556,1.114,6.276,2.136c5.44,2.028,13.37,5.251,22.959,10.452c9.558,5.22,20.849,12.372,32.388,22.49
					c0.717,0.636,1.44,1.277,2.169,1.924c0.729,0.647,1.475,1.288,2.171,1.992c1.42,1.383,2.861,2.787,4.324,4.211
					c1.415,1.473,2.821,2.997,4.264,4.53c0.36,0.384,0.721,0.77,1.084,1.156c0.344,0.403,0.689,0.808,1.035,1.213
					c0.692,0.813,1.389,1.631,2.09,2.455c5.557,6.635,10.87,14.107,15.621,22.413c4.676,8.344,8.71,17.531,11.903,27.379
					c0.384,1.237,0.769,2.478,1.155,3.725c0.387,1.248,0.787,2.499,1.064,3.785c0.613,2.561,1.232,5.142,1.854,7.743
					c0.496,2.624,0.936,5.282,1.41,7.956c0.116,0.669,0.233,1.34,0.349,2.011c0.107,0.676,0.163,1.372,0.247,2.06
					c0.154,1.381,0.308,2.767,0.462,4.157c0.152,1.393,0.305,2.791,0.458,4.193c0.123,1.377,0.149,2.684,0.223,4.037
					c0.063,1.342,0.127,2.69,0.191,4.041l0.096,2.03l0.024,0.508l0.012,0.254c0.006,0.042,0.009,0.537,0.006,0.453l-0.008,1.057
					c-0.037,2.822-0.013,5.665-0.108,8.524c-0.178,2.856-0.32,5.734-0.539,8.623c-0.994,11.555-3.341,23.292-7.059,34.836
					c-3.705,11.549-8.916,22.855-15.483,33.52c-6.51,10.71-14.629,20.591-23.785,29.502c-9.142,8.939-19.505,16.75-30.671,23.253
					c-11.136,6.569-23.142,11.699-35.541,15.488l-2.324,0.714l-2.354,0.613l-4.707,1.221c-1.579,0.365-3.169,0.68-4.753,1.021
					c-1.586,0.33-3.165,0.696-4.77,0.928l-4.795,0.783l-1.199,0.194l-1.206,0.141l-2.411,0.281l-2.41,0.279
					c-0.806,0.089-1.596,0.201-2.433,0.243l-4.956,0.34c-0.814,0.048-1.675,0.126-2.451,0.147l-2.304,0.051l-4.603,0.097
					c-0.053,0.003-0.55,0.006-0.483,0l-0.302-0.008l-0.603-0.017l-1.206-0.034l-2.412-0.069c-1.607-0.048-3.214-0.071-4.813-0.219
					c-1.6-0.119-3.199-0.238-4.797-0.357l-1.198-0.093l-1.192-0.142l-2.382-0.285c-1.586-0.206-3.178-0.352-4.753-0.607
					c-1.574-0.262-3.146-0.524-4.717-0.785c-12.565-2.129-24.712-5.888-36.194-10.738l-2.156-0.901
					c-0.718-0.299-1.412-0.654-2.118-0.978c-1.405-0.663-2.808-1.326-4.209-1.988l-1.048-0.499l-1.026-0.542l-2.049-1.085
					c-1.36-0.731-2.736-1.424-4.073-2.185c-5.322-3.086-10.509-6.329-15.371-9.945c-1.218-0.9-2.45-1.774-3.646-2.691
					c-1.173-0.947-2.343-1.893-3.511-2.837c-2.373-1.838-4.545-3.9-6.776-5.864c-1.128-0.968-2.166-2.031-3.223-3.065
					c-1.052-1.04-2.102-2.077-3.148-3.111c-1.022-1.06-1.992-2.164-2.984-3.239c-0.977-1.091-1.992-2.14-2.926-3.258
					c-7.566-8.853-13.991-18.333-19.097-28.138c-5.114-9.799-9.018-19.852-11.755-29.822c-0.652-2.502-1.391-4.956-1.859-7.452
					c-0.262-1.24-0.523-2.475-0.783-3.704c-0.13-0.614-0.259-1.227-0.388-1.838c-0.129-0.611-0.203-1.231-0.307-1.844
					c-0.379-2.457-0.785-4.884-1.127-7.293c-0.245-2.42-0.489-4.815-0.73-7.186c-0.144-1.175-0.171-2.384-0.236-3.573
					c-0.057-1.189-0.115-2.373-0.172-3.549c-0.047-1.169-0.132-2.359-0.144-3.49c0.003-1.121,0.008-2.236,0.011-3.344
					c0.003-1.108,0.007-2.21,0.01-3.305c0.002-0.548,0.003-1.093,0.006-1.638l-0.001-0.308l0.009-0.209l0.02-0.419l0.038-0.835
					c0.1-2.222,0.191-4.415,0.409-6.573c0.095-1.079,0.19-2.15,0.284-3.215c0.13-1.06,0.26-2.114,0.389-3.161
					c0.226-2.095,0.595-4.143,0.908-6.165c0.319-2.021,0.756-3.993,1.121-5.943c0.447-1.934,0.869-3.842,1.349-5.702
					c3.84-14.9,9.364-27.148,14.759-36.633c2.689-4.756,5.339-8.845,7.786-12.293c2.441-3.453,4.658-6.279,6.517-8.515
					c1.854-2.241,3.375-3.87,4.41-4.955C802.418,95.935,802.982,95.407,802.982,95.407"/>
			</g>
		</g>
	</g>
	<g>
		<path style="fill:#0066FF;" d="M191.75,80.116h102.539c0,14.648-19.532,21.973-58.594,21.973h-21.973v18.311h73.242
			c0,14.648-19.532,21.973-58.594,21.973h-15.308c-2.051,26.855-9.155,40.283-21.313,40.283V80.116z"/>
		<path style="fill:#0066FF;" d="M388.962,95.131c10.009,10.011,15.015,22.096,15.015,36.255c0,14.161-5.006,26.246-15.015,36.255
			c-10.01,10.01-22.095,15.015-36.255,15.015c-14.161,0-26.246-5.005-36.255-15.015c-10.01-10.009-15.015-22.094-15.015-36.255
			c0-14.159,5.004-26.244,15.015-36.255c10.009-10.009,22.094-15.015,36.255-15.015C366.867,80.116,378.952,85.122,388.962,95.131z
			 M352.707,102.089c-8.106,0-15.015,2.856-20.728,8.569s-8.569,12.623-8.569,20.728c0,8.106,2.856,15.015,8.569,20.728
			s12.622,8.569,20.728,8.569c8.104,0,15.015-2.856,20.728-8.569s8.569-12.621,8.569-20.728c0-8.104-2.856-15.015-8.569-20.728
			S360.812,102.089,352.707,102.089z"/>
		<path style="fill:#0066FF;" d="M498.649,95.131c10.009,10.011,15.015,22.096,15.015,36.255c0,14.161-5.006,26.246-15.015,36.255
			c-10.01,10.01-22.095,15.015-36.255,15.015c-14.161,0-26.246-5.005-36.255-15.015c-10.01-10.009-15.015-22.094-15.015-36.255
			c0-14.159,5.004-26.244,15.015-36.255c10.009-10.009,22.094-15.015,36.255-15.015C476.554,80.116,488.639,85.122,498.649,95.131z
			 M462.395,102.089c-8.106,0-15.015,2.856-20.728,8.569s-8.569,12.623-8.569,20.728c0,8.106,2.856,15.015,8.569,20.728
			s12.622,8.569,20.728,8.569c8.104,0,15.015-2.856,20.728-8.569s8.569-12.621,8.569-20.728c0-8.104-2.856-15.015-8.569-20.728
			S470.499,102.089,462.395,102.089z"/>
		<path style="fill:#0066FF;" d="M583.068,101.43v22.632c0,39.063-7.324,58.594-21.973,58.594v-80.566h-40.283V80.116h102.539
			C623.352,92.274,609.923,99.379,583.068,101.43z"/>
		<path style="fill:#0066FF;" d="M300.645,265.625c2.285,0,4.229-0.802,5.833-2.406c1.604-1.604,2.406-3.548,2.406-5.833
			s-0.802-4.229-2.406-5.834c-1.604-1.604-3.549-2.406-5.833-2.406H256.15v19.775c0,35.157-6.592,52.734-19.775,52.734V229.37h64.27
			c7.734,0,14.337,2.735,19.808,8.207c5.472,5.471,8.207,12.074,8.207,19.809c0,6.943-2.22,12.985-6.658,18.127
			c4.438,5.142,6.658,11.185,6.658,18.127c0,7.735-2.735,14.338-8.207,19.809c-5.471,5.472-12.074,8.207-19.808,8.207H256.15
			c0-13.184,8.789-19.775,26.367-19.775h18.127c2.285,0,4.229-0.802,5.833-2.406c1.604-1.604,2.406-3.548,2.406-5.834
			c0-2.284-0.802-4.229-2.406-5.833c-1.604-1.604-3.549-2.406-5.833-2.406H256.15c0-13.184,8.789-19.775,26.367-19.775H300.645z"/>
		<path style="fill:#0066FF;" d="M407.406,272.217c-0.659-5.889-3.164-11.009-7.515-15.358c-5.142-5.143-11.36-7.713-18.655-7.713
			c-7.295,0-13.513,2.57-18.655,7.713c-5.142,5.141-7.712,11.36-7.712,18.654v16.479c0,19.775-6.592,29.663-19.775,29.663v-46.143
			c0-12.744,4.504-23.62,13.513-32.629c9.008-9.009,19.885-13.514,32.629-13.514c12.744,0,23.62,4.505,32.629,13.514
			c9.008,9.009,13.513,19.885,13.513,32.629v46.143c-13.184,0-19.775-9.888-19.775-29.663v-0.856
			c-21.973-2.197-32.959-8.504-32.959-18.919H407.406z"/>
		<path style="fill:#0066FF;" d="M453.588,301.88h72.51c0,13.184-17.579,19.775-52.734,19.775h-39.551V229.37
			c13.184,0,19.775,17.578,19.775,52.734V301.88z"/>
		<path style="fill:#0066FF;" d="M552.307,301.88h72.51c0,13.184-17.579,19.775-52.734,19.775h-39.551V229.37
			c13.184,0,19.775,17.578,19.775,52.734V301.88z"/>
	</g>
</g>
</svg>
