<?xml version="1.0" encoding="iso-8859-1"?>
<!-- Generator: Adobe Illustrator 19.1.0, SVG Export Plug-In . SVG Version: 6.00 Build 0)  -->
<svg version="1.1" id="Calque_2" xmlns="http://www.w3.org/2000/svg" xmlns:xlink="http://www.w3.org/1999/xlink" x="0px" y="0px"
	 viewBox="0 0 1200 400" style="enable-background:new 0 0 1200 400;" xml:space="preserve">
<g>
	<g>
		<path d="M162.629,159.394v-21.973c0-39.062,7.324-58.594,21.973-58.594v102.539H82.062v-43.945
			c0-39.062,7.324-58.594,21.973-58.594v80.566h18.311v-14.648c0-39.062,7.324-58.594,21.973-58.594v73.242H162.629z"/>
		<path d="M272.097,126.435c-0.732-6.542-3.516-12.231-8.35-17.065c-5.713-5.713-12.623-8.569-20.728-8.569
			c-8.106,0-15.015,2.856-20.728,8.569s-8.569,12.623-8.569,20.728v18.311c0,21.973-7.324,32.959-21.973,32.959v-51.27
			c0-14.16,5.004-26.245,15.015-36.255c10.009-10.009,22.094-15.015,36.255-15.015c14.16,0,26.245,5.006,36.255,15.015
			c10.009,10.01,15.015,22.095,15.015,36.255v51.27c-14.648,0-21.973-10.986-21.973-32.959v-0.952
			c-24.415-2.441-36.621-9.448-36.621-21.021H272.097z"/>
		<path d="M363.693,100.141v22.632c0,39.063-7.324,58.594-21.973,58.594V100.8h-40.283V78.828h102.539
			C403.977,90.986,390.548,98.09,363.693,100.141z"/>
		<path d="M499.016,78.828c0,14.648-19.532,21.973-58.594,21.973h-29.297V78.828H499.016z M506.34,119.111
			c0,14.648-19.532,21.973-58.594,21.973h-36.621v-21.973H506.34z M513.664,159.394c0,14.648-19.532,21.973-58.594,21.973h-43.945
			v-21.973H513.664z"/>
		<path d="M567.541,141.083h-24.756c0-14.648,9.765-21.973,29.297-21.973h20.142c2.538,0,4.699-0.89,6.482-2.673
			c1.782-1.782,2.673-3.942,2.673-6.482c0-2.538-0.892-4.699-2.673-6.482c-1.783-1.782-3.944-2.673-6.482-2.673h-49.438v21.973
			c0,39.063-7.324,58.594-21.973,58.594V78.828h71.411c8.593,0,15.93,3.04,22.009,9.119s9.119,13.416,9.119,22.009
			c0,8.595-3.028,15.919-9.082,21.973c-4.688,4.688-10.084,7.569-16.187,8.643c16.846,16.846,25.269,35.621,25.269,56.323
			L567.541,141.083z"/>
		<path d="M213.723,239.801v21.973c0,39.063-7.324,58.594-21.973,58.594V217.828h71.411c8.593,0,15.93,3.039,22.009,9.119
			c6.079,6.078,9.119,13.415,9.119,22.009c0,8.595-3.04,15.931-9.119,22.009c-6.079,6.08-13.416,9.119-22.009,9.119h-49.438
			c0-14.648,9.765-21.973,29.297-21.973h20.142c2.538,0,4.699-0.891,6.482-2.674c1.782-1.781,2.673-3.942,2.673-6.481
			c0-2.538-0.892-4.699-2.673-6.481c-1.783-1.782-3.944-2.674-6.482-2.674H213.723z"/>
		<path d="M388.962,232.843c10.009,10.01,15.015,22.095,15.015,36.255c0,14.161-5.006,26.246-15.015,36.255
			c-10.01,10.01-22.095,15.015-36.255,15.015c-14.161,0-26.246-5.005-36.255-15.015c-10.01-10.009-15.015-22.094-15.015-36.255
			c0-14.16,5.004-26.245,15.015-36.255c10.009-10.009,22.094-15.015,36.255-15.015C366.867,217.828,378.952,222.834,388.962,232.843
			z M352.707,239.801c-8.106,0-15.015,2.856-20.728,8.569s-8.569,12.623-8.569,20.728c0,8.105,2.856,15.015,8.569,20.728
			s12.622,8.569,20.728,8.569c8.104,0,15.015-2.856,20.728-8.569s8.569-12.622,8.569-20.728c0-8.104-2.856-15.015-8.569-20.728
			S360.812,239.801,352.707,239.801z"/>
		<path d="M433.098,298.395h80.566c0,14.648-19.532,21.973-58.594,21.973h-43.945V217.828c14.648,0,21.973,19.531,21.973,58.594
			V298.395z"/>
		<path d="M608.337,232.843c10.009,10.01,15.015,22.095,15.015,36.255c0,14.161-5.006,26.246-15.015,36.255
			c-10.01,10.01-22.095,15.015-36.255,15.015c-14.161,0-26.246-5.005-36.255-15.015c-10.01-10.009-15.015-22.094-15.015-36.255
			c0-14.16,5.004-26.245,15.015-36.255c10.009-10.009,22.094-15.015,36.255-15.015C586.242,217.828,598.327,222.834,608.337,232.843
			z M572.082,239.801c-8.106,0-15.015,2.856-20.728,8.569s-8.569,12.623-8.569,20.728c0,8.105,2.856,15.015,8.569,20.728
			s12.622,8.569,20.728,8.569c8.104,0,15.015-2.856,20.728-8.569s8.569-12.622,8.569-20.728c0-8.104-2.856-15.015-8.569-20.728
			S580.187,239.801,572.082,239.801z"/>
	</g>
	<g>
		<g>
			<defs>
				<rect id="SVGID_1_" x="719.614" y="-28.81" width="397.913" height="397.913"/>
			</defs>
			<clipPath id="SVGID_2_">
				<use xlink:href="#SVGID_1_"  style="overflow:visible;"/>
			</clipPath>
			<g style="clip-path:url(#SVGID_2_);">
				<defs>
					<rect id="SVGID_3_" x="719.614" y="-28.81" width="397.913" height="397.913"/>
				</defs>
				<clipPath id="SVGID_4_">
					<use xlink:href="#SVGID_3_"  style="overflow:visible;"/>
				</clipPath>
				<path style="clip-path:url(#SVGID_4_);" d="M729.712,282.052c0,0,1.283,0.981,3.802,2.618c2.509,1.647,6.307,3.881,11.278,6.351
					c4.978,2.447,11.181,5.073,18.496,7.2c7.305,2.122,15.737,3.736,24.926,4.01c1.147,0.044,2.309,0.013,3.476,0.038
					c1.168,0.003,2.348-0.057,3.536-0.081l0.223-0.006l0.111-0.003c0.097-0.002-0.008-0.001,0.047-0.004l0.47-0.028l0.945-0.056
					c0.648-0.034,1.15-0.102,1.735-0.15c1.153-0.115,2.359-0.269,3.549-0.448c4.78-0.732,9.688-1.947,14.665-3.608
					c9.979-3.272,20.216-8.179,31.001-13.391c5.387-2.632,10.937-5.309,16.7-7.899c5.763-2.592,11.737-5.109,18.029-7.215
					c6.278-2.115,12.853-3.928,19.707-4.957c3.425-0.516,6.912-0.849,10.429-0.976c1.752-0.062,3.557-0.067,5.212-0.018
					c1.885,0.057,3.597,0.155,5.365,0.323c7.034,0.669,13.905,2.295,20.4,4.455c6.507,2.154,12.616,4.915,18.443,7.763
					c2.915,1.427,5.764,2.884,8.561,4.333c2.762,1.454,5.51,2.902,8.241,4.34c5.417,2.84,10.73,5.469,15.988,7.797
					c10.517,4.633,21.015,7.651,31.31,8.582c1.284,0.127,2.563,0.227,3.838,0.287l0.887,0.051l1.014,0.027l1.011,0.027l0.918,0.006
					c2.427,0.025,4.932-0.098,7.299-0.312c4.773-0.434,9.268-1.428,13.395-2.953c8.309-2.978,14.965-8.282,21.005-13.237
					c3.041-2.461,5.943-4.847,8.862-6.806c2.902-1.973,5.771-3.56,8.493-4.655c5.46-2.235,10.082-2.551,13.103-2.625
					c1.526-0.017,2.688,0.053,3.469,0.112c0.778,0.064,1.18,0.098,1.18,0.098s-0.4,0.046-1.175,0.137
					c-0.773,0.089-1.915,0.271-3.382,0.537c-1.464,0.291-3.252,0.72-5.264,1.424c-2.005,0.727-4.236,1.705-6.547,3.097
					c-2.306,1.405-4.692,3.193-7.103,5.407c-2.412,2.212-4.892,4.795-7.579,7.652c-2.696,2.845-5.665,5.919-9.181,8.928
					c-3.509,2.999-7.637,5.858-12.347,8.149c-4.706,2.304-9.972,3.949-15.468,4.972c-2.766,0.519-5.526,0.839-8.451,1.05
					l-1.093,0.076l-1.009,0.051l-1.013,0.052l-1.148,0.028c-1.444,0.042-2.901,0.042-4.368,0.012
					c-5.872-0.119-11.905-0.863-17.93-2.137c-6.034-1.258-12.01-3.179-17.883-5.402c-5.88-2.219-11.608-4.87-17.259-7.568
					c-2.795-1.349-5.607-2.707-8.433-4.071c-2.79-1.37-5.571-2.718-8.356-4.008c-5.566-2.591-11.163-4.897-16.795-6.757
					c-5.638-1.834-11.349-3.106-17.094-3.638c-11.462-1.197-23.187,0.883-34.63,4.48c-2.863,0.893-5.703,1.903-8.538,2.949
					c-2.836,1.041-5.657,2.147-8.463,3.292c-5.611,2.298-11.168,4.74-16.728,7.09c-11.092,4.747-22.197,9.272-33.439,12.097
					c-5.615,1.388-11.241,2.4-16.785,2.732c-1.391,0.081-2.75,0.132-4.141,0.145c-0.689-0.004-1.453,0.012-2.068-0.013l-0.946-0.029
					l-0.471-0.015c-0.024-0.001-0.207-0.002-0.188-0.006l-0.123-0.007l-0.247-0.016c-1.314-0.089-2.615-0.144-3.898-0.262
					c-1.282-0.134-2.551-0.249-3.8-0.423c-10.008-1.312-18.828-4.083-26.207-7.286c-7.389-3.214-13.382-6.823-18.049-10.105
					c-4.683-3.268-8.028-6.243-10.256-8.297c-1.114-1.029-1.916-1.873-2.457-2.437C729.977,282.356,729.712,282.052,729.712,282.052
					"/>
				<path style="clip-path:url(#SVGID_4_);" d="M808.662,339.533c0,0,0.625-0.188,1.799-0.54c0.294-0.084,0.621-0.177,0.981-0.281
					c0.36-0.105,0.763-0.19,1.16-0.363c0.808-0.316,1.719-0.66,2.711-1.025c0.992-0.442,2.091-0.933,3.286-1.466
					c1.169-0.619,2.434-1.211,3.756-1.935c1.318-0.769,2.728-1.472,4.19-2.38c0.735-0.431,1.489-0.871,2.261-1.323
					c0.773-0.465,1.565-0.94,2.372-1.425c3.254-1.944,6.822-4.078,10.842-6.193c4.036-2.099,8.577-4.143,13.774-5.578
					c0.65-0.175,1.293-0.372,1.962-0.528c0.681-0.132,1.365-0.265,2.051-0.397c0.69-0.127,1.382-0.253,2.076-0.38
					c0.716-0.068,1.434-0.137,2.155-0.206c0.723-0.058,1.449-0.117,2.177-0.175l0.137-0.01c0.186,0.002-0.32-0.014,0.435,0.004
					l0.058,0.001l0.231,0.002l0.463,0.005l0.928,0.01c0.619,0.01,1.24,0.022,1.862,0.032l0.238,0.006l0.299,0.031l0.599,0.064
					l1.203,0.135c0.803,0.095,1.609,0.194,2.414,0.31c0.749,0.139,1.446,0.306,2.174,0.462c0.719,0.162,1.447,0.315,2.161,0.491
					l2.076,0.637c0.684,0.222,1.403,0.415,2.06,0.665l1.98,0.752c1.346,0.493,2.567,1.062,3.829,1.609
					c4.964,2.249,9.383,4.707,13.574,6.749c4.188,2.053,8.147,3.711,12.089,4.727c0.986,0.259,1.97,0.425,2.948,0.659
					c0.245,0.052,0.489,0.116,0.734,0.158l0.738,0.088c0.492,0.066,0.982,0.132,1.469,0.197c0.453,0.064,0.904,0.127,1.352,0.189
					c0.567,0.034,1.131,0.068,1.692,0.101c0.448,0.015,0.894,0.03,1.337,0.045c0.421,0.028,0.925,0.002,1.385,0.007
					c3.747-0.062,7.29-0.674,10.545-1.725c6.539-2.057,11.898-5.641,16.14-7.633c2.11-1.019,3.978-1.586,5.272-1.658
					c0.316-0.037,0.603-0.026,0.845-0.012c0.24,0.003,0.441,0.03,0.602,0.064c0.313,0.056,0.474,0.085,0.474,0.085
					s-0.154,0.05-0.455,0.146c-0.147,0.042-0.326,0.109-0.529,0.215c-0.204,0.097-0.435,0.197-0.681,0.357
					c-0.501,0.275-1.062,0.725-1.686,1.255c-0.616,0.559-1.289,1.244-2.026,2.044c-1.471,1.612-3.202,3.701-5.445,6.032
					c-2.251,2.317-5.061,4.864-8.669,7.134c-1.799,1.135-3.803,2.165-5.972,3.059c-2.17,0.89-4.518,1.579-6.967,2.109
					c-0.625,0.119-1.206,0.275-1.89,0.357c-0.659,0.09-1.323,0.181-1.99,0.271c-0.559,0.06-1.12,0.119-1.685,0.18l-0.212,0.022
					l-0.383,0.011l-0.486,0.013l-0.979,0.022c-2.626,0.134-5.314-0.068-8.031-0.391c-5.429-0.719-10.787-2.442-15.685-4.523
					c-4.917-2.073-9.446-4.433-13.738-6.358c-1.063-0.47-2.138-0.987-3.174-1.369l-1.561-0.631
					c-0.519-0.218-1.025-0.355-1.538-0.539l-1.53-0.525l-1.508-0.407c-0.497-0.131-1.015-0.286-1.492-0.401
					c-0.435-0.069-0.867-0.154-1.3-0.245l-0.649-0.141l-0.325-0.074l-0.162-0.038l-0.228-0.021c-0.62-0.052-1.238-0.104-1.856-0.156
					l-0.924-0.084l-0.462-0.042l-0.23-0.021l-0.058-0.006c0.716,0.018,0.172,0.006,0.319,0.01l-0.094,0.001
					c-0.501,0.003-1.002,0.006-1.501,0.008c-0.502-0.006-1.003-0.014-1.502-0.02c-0.51,0.045-1.018,0.089-1.525,0.134
					c-0.51,0.037-1.018,0.075-1.524,0.113c-0.511,0.056-1.027,0.157-1.539,0.232c-4.104,0.598-8.245,1.721-12.273,2.929
					c-4.03,1.246-7.963,2.547-11.68,3.662c-3.726,1.115-7.271,2.008-10.46,2.597c-0.786,0.162-1.591,0.243-2.339,0.36
					c-0.754,0.107-1.474,0.211-2.176,0.279c-1.428,0.084-2.705,0.184-3.878,0.196c-1.204-0.033-2.253-0.079-3.151-0.136
					c-0.894-0.045-1.619-0.238-2.225-0.325C809.303,339.653,808.662,339.533,808.662,339.533"/>
			</g>
			<g style="clip-path:url(#SVGID_2_);">
				<defs>
					<path id="SVGID_5_" d="M726.312-5.05v266.267c0,0,26.367,24.917,65.916,24.917c39.55,0,77.302-35.925,119.848-35.925
						c42.547,0,68.912,35.925,115.654,35.925c46.74,0,45.529-35.925,79.698-35.925V-5.05H726.312z"/>
				</defs>
				<clipPath id="SVGID_6_">
					<use xlink:href="#SVGID_5_"  style="overflow:visible;"/>
				</clipPath>
				<path style="clip-path:url(#SVGID_6_);" d="M859.086,276.643c0,0-2.086-0.989-5.775-3.262
					c-3.657-2.307-9.001-5.812-15.164-11.121c-6.18-5.268-13.308-12.253-20.099-21.471c-3.397-4.599-6.745-9.726-9.773-15.435
					c-3.028-5.708-5.697-12.005-7.879-18.793c-2.177-6.79-3.776-14.094-4.712-21.752c-0.184-1.918-0.453-3.851-0.564-5.808
					c-0.095-1.959-0.19-3.934-0.286-5.924c0.011-1.965,0.021-3.944,0.033-5.938l0.004-0.731l0.048-0.778l0.097-1.561
					c0.066-1.044,0.133-2.092,0.2-3.143c0.672-8.285,2.321-16.657,4.987-24.974c2.664-8.304,6.402-16.489,11.182-24.203
					c4.758-7.731,10.54-14.993,17.111-21.607l1.224-1.251l1.279-1.198c0.855-0.797,1.711-1.595,2.569-2.394
					c0.85-0.809,1.773-1.534,2.659-2.306c0.9-0.755,1.782-1.536,2.702-2.271c3.704-2.908,7.515-5.728,11.543-8.248
					c8.006-5.113,16.594-9.485,25.661-12.755c4.504-1.713,9.166-3.028,13.852-4.248l3.553-0.785l1.777-0.391l1.796-0.316
					l3.595-0.622l3.626-0.462l1.815-0.223l1.826-0.142l3.655-0.265l3.672-0.091l0.918-0.021l0.459-0.01l0.229-0.005
					c-0.064-0.002,0.345-0.004,0.381-0.001l1.722,0.045l3.444,0.089l0.861,0.022l0.925,0.065l1.849,0.132l3.695,0.271l3.588,0.433
					c9.56,1.176,18.957,3.42,27.898,6.691c17.916,6.456,34.043,16.874,46.687,29.832c6.329,6.467,11.879,13.488,16.436,20.897
					c4.567,7.4,8.199,15.139,10.896,22.935c2.692,7.801,4.505,15.64,5.507,23.295c0.987,7.656,1.154,15.135,0.795,22.208
					c-0.058,0.875-0.064,1.69-0.163,2.6c-0.084,0.891-0.166,1.778-0.249,2.66c-0.137,1.775-0.405,3.468-0.633,5.156
					c-0.483,3.37-1.113,6.636-1.877,9.781c-1.519,6.292-3.495,12.106-5.725,17.39c-4.444,10.595-9.988,18.959-15.002,25.36
					c-5.02,6.426-9.671,10.833-12.905,13.707c-1.623,1.436-2.932,2.46-3.818,3.14c-0.889,0.677-1.366,1.001-1.366,1.001
					s1.743-1.517,4.655-4.682c2.918-3.151,6.943-8.026,11.305-14.69c4.331-6.672,8.883-15.246,12.424-25.628
					c3.506-10.369,5.798-22.637,5.728-35.958c-0.072-6.71-0.575-13.64-1.885-20.689c-1.307-7.037-3.277-14.178-6.083-21.2
					c-2.804-7.016-6.336-13.959-10.756-20.517c-4.422-6.55-9.583-12.801-15.502-18.469c-5.926-5.651-12.487-10.851-19.692-15.22
					c-3.615-2.158-7.313-4.235-11.186-6.004c-0.965-0.449-1.92-0.919-2.893-1.357l-2.957-1.23c-1.955-0.867-3.996-1.534-6.008-2.28
					c-8.098-2.866-16.603-4.714-25.221-5.774l-3.237-0.38l-3.167-0.217l-1.584-0.113l-0.792-0.057l-0.861-0.019l-3.444-0.074
					l-1.722-0.037l-1.458,0.045l-3.221,0.09l-3.223,0.251l-1.611,0.128l-1.608,0.201l-3.217,0.393l-3.203,0.543l-1.602,0.272
					l-1.59,0.345l-3.181,0.686c-4.204,1.084-8.399,2.236-12.466,3.769c-4.097,1.444-8.074,3.196-11.995,5.027l-2.894,1.467
					l-1.447,0.731l-1.413,0.792l-2.822,1.584c-0.937,0.532-1.835,1.126-2.754,1.684c-7.303,4.543-14.113,9.767-20.157,15.633
					c-6.055,5.852-11.391,12.282-15.902,19.093c-8.998,13.65-14.303,28.984-16.172,43.906c-0.103,0.918-0.204,1.832-0.306,2.743
					l-0.154,1.366l-0.078,0.681l-0.037,0.731c-0.099,1.902-0.198,3.79-0.295,5.663c0.005,1.848,0.01,3.682,0.014,5.502
					c0.025,1.82,0.17,3.618,0.245,5.409c0.473,7.148,1.628,14.006,3.264,20.47c3.286,12.939,8.605,24.228,14.49,33.499
					c5.907,9.273,12.151,16.716,17.742,22.399c5.594,5.692,10.418,9.773,13.816,12.407c1.707,1.308,3.036,2.29,3.948,2.931
					C858.601,276.332,859.086,276.643,859.086,276.643"/>
				<path style="clip-path:url(#SVGID_6_);" d="M917.072,174.667c0,0,0.118-0.029,0.347-0.088c0.228-0.058,0.569-0.145,1.015-0.234
					c0.896-0.201,2.21-0.437,3.889-0.678c0.844-0.14,1.768-0.217,2.785-0.333c1.015-0.116,2.115-0.212,3.287-0.281
					c1.174-0.084,2.421-0.119,3.743-0.185c1.32-0.052,2.696-0.014,4.145-0.024c2.898-0.015,6.007,0.214,9.314,0.445
					c1.652,0.119,3.325,0.376,5.054,0.567c1.727,0.198,3.486,0.44,5.257,0.769c3.551,0.624,7.224,1.307,10.887,2.277
					c1.834,0.474,3.693,0.926,5.533,1.464c1.833,0.567,3.663,1.165,5.495,1.762c3.678,1.147,7.237,2.649,10.745,4.087
					c0.873,0.368,1.744,0.734,2.609,1.097c0.845,0.415,1.686,0.826,2.522,1.236c1.668,0.824,3.322,1.623,4.918,2.469
					c0.801,0.415,1.594,0.828,2.38,1.236c0.781,0.419,1.531,0.885,2.275,1.339c1.485,0.913,2.949,1.775,4.344,2.668
					c0.698,0.444,1.386,0.883,2.063,1.315c0.672,0.442,1.357,0.827,1.974,1.316c1.254,0.937,2.473,1.821,3.62,2.703
					c2.285,1.782,4.395,3.354,6.134,4.949c1.732,1.607,3.21,3.034,4.398,4.237c2.386,2.395,3.639,3.876,3.639,3.876
					s-1.913-0.528-5.067-1.649c-1.58-0.555-3.467-1.263-5.593-2.105c-1.052-0.44-2.223-0.817-3.432-1.247
					c-1.212-0.425-2.463-0.906-3.775-1.387c-1.308-0.489-2.647-1.033-4.04-1.574c-1.393-0.542-2.867-1.031-4.357-1.571
					c-1.497-0.528-3.003-1.126-4.555-1.705c-0.771-0.297-1.551-0.597-2.339-0.899c-0.798-0.276-1.604-0.555-2.418-0.836
					c-3.264-1.089-6.515-2.466-9.95-3.544c-3.409-1.142-6.804-2.461-10.292-3.537c-1.729-0.581-3.457-1.16-5.17-1.767
					c-1.732-0.553-3.457-1.103-5.168-1.65c-0.854-0.283-1.705-0.564-2.551-0.844c-0.84-0.303-1.686-0.573-2.532-0.822
					c-1.688-0.513-3.358-1.019-4.989-1.572c-3.293-1.029-6.476-2.025-9.495-2.968c-1.517-0.465-3-0.888-4.43-1.352
					c-1.426-0.485-2.82-0.863-4.155-1.278c-2.682-0.832-5.141-1.596-7.321-2.271c-2.202-0.692-4.122-1.295-5.704-1.791
					c-1.592-0.489-2.849-0.914-3.709-1.185C917.535,174.819,917.072,174.667,917.072,174.667"/>
				<path style="clip-path:url(#SVGID_6_);" d="M890.279,61.494c0,0,0.1,0.464,0.289,1.335c0.173,0.858,0.477,2.122,0.793,3.704
					c0.687,3.125,1.667,7.588,2.844,12.945c0.302,1.32,0.615,2.695,0.941,4.118c0.169,0.709,0.313,1.432,0.466,2.163
					c0.149,0.732,0.351,1.472,0.527,2.223c0.376,1.499,0.687,3.043,1.044,4.614c0.375,1.567,0.758,3.168,1.148,4.796
					c0.407,1.623,0.719,3.285,1.167,4.948c0.427,1.666,0.849,3.35,1.239,5.054c0.363,1.709,0.866,3.405,1.286,5.124
					c0.442,1.714,0.855,3.441,1.269,5.168c0.931,3.431,1.826,6.872,2.668,10.277c0.483,1.685,0.939,3.364,1.369,5.033
					c0.436,1.666,0.883,3.308,1.261,4.948c0.94,3.217,1.775,6.363,2.53,9.372c0.333,1.522,0.784,2.956,1.166,4.369
					c0.372,1.417,0.752,2.781,1.082,4.107c0.678,2.645,1.19,5.132,1.793,7.281c0.555,2.17,1.01,4.087,1.351,5.687
					c0.696,3.195,0.962,5.108,0.962,5.108s-1.3-1.385-3.346-3.961c-1.03-1.285-2.241-2.872-3.595-4.721
					c-1.397-1.83-2.715-4.022-4.188-6.412c-1.418-2.413-3.052-5.001-4.468-7.879c-1.422-2.875-2.89-5.933-4.321-9.138
					c-0.674-1.618-1.296-3.288-1.94-4.973c-0.653-1.684-1.292-3.397-1.912-5.133c-1.124-3.508-2.182-7.104-3.167-10.718
					c-0.422-1.826-0.846-3.653-1.237-5.478c-0.392-1.826-0.808-3.637-1.073-5.468c-0.299-1.823-0.56-3.638-0.809-5.43
					c-0.285-1.784-0.438-3.572-0.58-5.328c-0.133-1.756-0.33-3.471-0.386-5.168c-0.04-1.699-0.118-3.354-0.121-4.969
					c-0.026-1.612-0.006-3.186,0.069-4.708c0.082-1.523,0.103-2.984,0.231-4.394c0.261-2.821,0.521-5.389,0.923-7.662
					c0.345-2.268,0.801-4.239,1.179-5.844c0.418-1.611,0.778-2.857,1.078-3.706C890.092,61.931,890.279,61.494,890.279,61.494"/>
				<path style="clip-path:url(#SVGID_6_);" d="M845.889,268.645c0,0,1.206-1.553,3.317-4.157c1.053-1.29,2.332-2.856,3.798-4.653
					c1.46-1.769,3.106-3.765,4.903-5.942c3.546-4.289,7.684-9.291,12.116-14.652c1.07-1.357,2.2-2.694,3.317-4.069
					c1.106-1.382,2.226-2.779,3.354-4.188c0.565-0.702,1.133-1.406,1.702-2.112c0.559-0.713,1.121-1.428,1.684-2.144
					c1.141-1.421,2.249-2.871,3.372-4.311c1.144-1.425,2.207-2.906,3.337-4.332c1.093-1.452,2.183-2.897,3.264-4.332
					c0.53-0.724,1.058-1.446,1.583-2.164c0.533-0.713,1.08-1.413,1.596-2.127c1.019-1.434,2.036-2.848,3.054-4.231
					c0.991-1.397,1.945-2.789,2.924-4.126c0.946-1.356,1.846-2.703,2.777-3.987c1.764-2.621,3.484-5.092,5.008-7.423
					c0.394-0.579,0.78-1.144,1.157-1.697c0.36-0.563,0.703-1.117,1.062-1.648c0.711-1.07,1.386-2.085,2.021-3.039
					c1.218-1.938,2.356-3.618,3.275-5.019c1.783-2.823,2.962-4.424,2.962-4.424s-0.072,1.95-0.481,5.342
					c-0.219,1.691-0.604,3.713-1.057,6.049c-0.245,1.16-0.578,2.369-0.892,3.666c-0.315,1.296-0.707,2.637-1.146,4.027
					c-0.443,1.388-0.9,2.843-1.436,4.322c-0.542,1.475-1.145,2.985-1.748,4.551c-0.648,1.54-1.37,3.096-2.08,4.707
					c-0.727,1.6-1.583,3.172-2.395,4.81c-1.704,3.225-3.604,6.483-5.665,9.708c-1.066,1.586-2.125,3.199-3.249,4.773
					c-1.138,1.562-2.271,3.142-3.471,4.665c-1.206,1.519-2.396,3.052-3.663,4.509c-1.235,1.485-2.514,2.921-3.808,4.321
					c-1.27,1.421-2.612,2.755-3.922,4.085c-1.316,1.324-2.639,2.607-3.974,3.833c-2.667,2.456-5.326,4.738-7.94,6.788
					c-1.305,1.027-2.59,2.005-3.852,2.925c-1.28,0.902-2.494,1.791-3.707,2.59c-4.817,3.233-9.08,5.556-12.154,7.018
					C847.766,268.032,845.889,268.645,845.889,268.645"/>
				<path style="clip-path:url(#SVGID_6_);" d="M885.356,279.016c0,0,0.435-0.286,1.206-0.846c0.774-0.555,1.879-1.402,3.238-2.495
					c1.358-1.096,2.968-2.449,4.736-4.061c1.774-1.6,3.724-3.434,5.758-5.512c2.053-2.048,4.195-4.334,6.381-6.805
					c2.219-2.434,4.409-5.138,6.687-7.896c2.209-2.829,4.508-5.72,6.693-8.792c2.24-3.022,4.403-6.185,6.552-9.363
					c1.099-1.571,2.093-3.222,3.17-4.804c1.048-1.604,2.04-3.241,3.072-4.835c0.526-0.79,1.002-1.61,1.491-2.416
					c0.499-0.802,0.996-1.6,1.49-2.392c0.501-0.789,0.984-1.584,1.439-2.387c0.457-0.803,0.948-1.581,1.417-2.363
					c0.47-0.781,0.954-1.548,1.401-2.325c0.438-0.783,0.883-1.553,1.339-2.309c0.895-1.52,1.796-2.997,2.621-4.468
					c1.683-2.924,3.329-5.681,4.786-8.273c1.527-2.56,2.882-4.943,4.118-7.053c0.634-1.048,1.206-2.04,1.779-2.944
					c0.542-0.915,1.025-1.764,1.495-2.52c1.832-3.041,3.033-4.749,3.033-4.749s-0.097,2.063-0.536,5.622
					c-0.101,0.893-0.24,1.873-0.391,2.944c-0.166,1.065-0.395,2.202-0.614,3.428c-0.221,1.226-0.502,2.517-0.775,3.89
					c-0.286,1.368-0.68,2.774-1.043,4.265c-0.388,1.48-0.789,3.026-1.263,4.608c-0.482,1.579-1.023,3.196-1.559,4.873
					c-0.516,1.684-1.218,3.345-1.851,5.082c-0.628,1.741-1.366,3.477-2.14,5.238c-0.768,1.764-1.54,3.561-2.443,5.328
					c-0.883,1.776-1.744,3.592-2.734,5.362c-1.001,1.764-1.963,3.569-3.047,5.318c-1.09,1.746-2.158,3.513-3.328,5.221
					c-2.325,3.424-4.782,6.77-7.419,9.9c-0.664,0.78-1.3,1.573-1.977,2.33c-0.688,0.747-1.372,1.491-2.052,2.23
					c-1.333,1.496-2.776,2.877-4.165,4.245c-2.846,2.685-5.703,5.165-8.595,7.302c-0.715,0.541-1.426,1.066-2.149,1.559
					c-0.717,0.499-1.413,0.997-2.121,1.458c-1.444,0.892-2.793,1.795-4.176,2.546c-1.359,0.776-2.693,1.473-3.97,2.106
					c-1.304,0.596-2.508,1.195-3.703,1.651c-2.35,0.968-4.461,1.655-6.227,2.114c-1.76,0.471-3.168,0.726-4.136,0.85
					C885.874,279.005,885.356,279.016,885.356,279.016"/>
				<path style="clip-path:url(#SVGID_6_);" d="M923.769,281.093c0,0,0.46-0.189,1.287-0.566c0.828-0.378,2.02-0.964,3.494-1.724
					c1.473-0.766,3.219-1.751,5.162-2.914c1.947-1.155,4.07-2.557,6.322-4.112c0.554-0.409,1.129-0.801,1.71-1.206
					c0.578-0.411,1.15-0.859,1.738-1.296c1.182-0.86,2.362-1.819,3.578-2.772c2.402-1.968,4.874-4.078,7.333-6.371
					c0.632-0.55,1.214-1.174,1.834-1.757c0.614-0.591,1.246-1.168,1.857-1.779c0.601-0.621,1.206-1.245,1.814-1.873l0.924-0.93
					l0.895-0.972c0.602-0.644,1.207-1.289,1.814-1.937c0.604-0.65,1.173-1.341,1.774-2.001c0.59-0.672,1.192-1.331,1.775-2.013
					l1.727-2.071c2.318-2.75,4.539-5.599,6.687-8.449c2.142-2.855,4.238-5.7,6.182-8.534c0.497-0.702,0.991-1.398,1.479-2.088
					c0.459-0.71,0.922-1.41,1.397-2.095c0.928-1.382,1.875-2.714,2.734-4.056c1.737-2.673,3.452-5.185,4.943-7.575
					c0.778-1.184,1.522-2.319,2.231-3.398c0.698-1.09,1.339-2.137,1.984-3.107c0.645-0.969,1.229-1.888,1.812-2.724
					c0.552-0.848,1.039-1.639,1.514-2.341c1.853-2.827,3.068-4.414,3.068-4.414s-0.118,1.966-0.596,5.358
					c-0.111,0.851-0.259,1.787-0.426,2.805c-0.184,1.013-0.43,2.092-0.67,3.259c-0.242,1.167-0.544,2.393-0.84,3.699
					c-0.318,1.297-0.742,2.629-1.14,4.042c-0.197,0.707-0.431,1.416-0.653,2.146c-0.224,0.731-0.455,1.474-0.727,2.216
					c-0.527,1.491-1.115,3.015-1.7,4.598c-0.279,0.798-0.624,1.578-0.976,2.368c-0.349,0.793-0.7,1.595-1.057,2.407
					c-0.353,0.814-0.72,1.633-1.109,2.45c-0.412,0.808-0.828,1.623-1.248,2.446c-0.831,1.652-1.705,3.316-2.695,4.948
					c-0.974,1.641-1.908,3.335-3.026,4.94c-2.144,3.264-4.497,6.481-7.065,9.539l-1.943,2.278c-0.652,0.755-1.362,1.464-2.039,2.194
					c-1.343,1.472-2.784,2.847-4.227,4.197c-2.89,2.69-5.93,5.144-9.021,7.306c-1.56,1.065-3.074,2.129-4.66,3.027
					c-1.546,0.948-3.117,1.791-4.648,2.587c-3.106,1.533-6.11,2.816-8.973,3.759c-2.866,0.934-5.526,1.634-7.931,2.05
					c-2.402,0.422-4.505,0.653-6.25,0.711c-1.74,0.072-3.107,0.013-4.033-0.071C924.254,281.19,923.769,281.093,923.769,281.093"/>
				<path style="clip-path:url(#SVGID_6_);" d="M861.977,70.339c0,0-0.105,2.503-0.16,6.793c-0.022,2.146-0.046,4.738-0.008,7.697
					c0.015,2.956,0.099,6.281,0.225,9.883c0.084,1.804,0.121,3.674,0.253,5.609c0.09,1.933,0.221,3.927,0.356,5.973
					c0.304,4.09,0.647,8.383,1.146,12.801c0.234,2.21,0.52,4.449,0.797,6.714c0.125,1.133,0.312,2.267,0.484,3.407
					c0.162,1.14,0.326,2.286,0.489,3.437c0.75,4.587,1.519,9.24,2.495,13.852l0.702,3.464c0.263,1.148,0.527,2.294,0.789,3.438
					c0.271,1.143,0.505,2.293,0.789,3.426c0.288,1.132,0.575,2.263,0.861,3.388c1.13,4.506,2.361,8.917,3.658,13.166
					c0.324,1.062,0.597,2.135,0.962,3.163c0.352,1.033,0.688,2.062,1.006,3.087c0.327,1.023,0.65,2.036,0.969,3.036
					c0.354,0.987,0.711,1.959,1.036,2.933c1.28,3.904,2.723,7.511,3.929,10.926c0.66,1.678,1.315,3.282,1.904,4.831
					c0.294,0.776,0.582,1.532,0.86,2.267c0.302,0.726,0.594,1.43,0.877,2.113c0.556,1.375,1.101,2.653,1.565,3.862
					c0.237,0.602,0.464,1.181,0.681,1.733c0.233,0.545,0.456,1.065,0.667,1.557c1.688,3.953,2.544,6.33,2.544,6.33
					s-1.807-1.711-4.779-4.913c-0.371-0.401-0.771-0.818-1.171-1.269c-0.386-0.461-0.789-0.943-1.21-1.446
					c-0.851-1.002-1.73-2.115-2.694-3.296c-0.481-0.591-0.977-1.203-1.46-1.849c-0.474-0.654-0.961-1.327-1.462-2.017
					c-1-1.384-2.017-2.863-3.101-4.402c-1.993-3.169-4.215-6.598-6.215-10.417c-0.526-0.943-1.033-1.912-1.553-2.89
					c-0.484-0.996-0.974-2.004-1.469-3.023c-1-2.037-1.97-4.145-2.86-6.329c-0.918-2.173-1.844-4.391-2.633-6.689
					c-0.412-1.144-0.826-2.295-1.242-3.452c-0.423-1.156-0.752-2.347-1.127-3.53c-0.357-1.188-0.716-2.382-1.076-3.579
					c-0.359-1.198-0.64-2.419-0.957-3.635c-0.306-1.218-0.628-2.435-0.913-3.662l-0.778-3.701
					c-1.033-4.939-1.725-9.942-2.271-14.872c-0.208-2.473-0.435-4.923-0.531-7.352c-0.052-1.213-0.103-2.419-0.154-3.616
					c-0.065-1.195-0.018-2.389-0.032-3.568c-0.047-4.715,0.234-9.271,0.606-13.566c0.423-4.296,0.993-8.332,1.692-12.025
					c0.711-3.692,1.49-7.043,2.331-9.977c0.821-2.935,1.667-5.457,2.438-7.505c0.753-2.052,1.456-3.628,1.945-4.692
					C861.674,70.887,861.977,70.339,861.977,70.339"/>
				<path style="clip-path:url(#SVGID_6_);" d="M833.168,95.231c0,0-0.065,0.649-0.187,1.868c-0.113,1.216-0.275,2.989-0.443,5.237
					c-0.173,2.246-0.348,4.965-0.503,8.067c-0.164,3.101-0.267,6.591-0.345,10.374c0.01,1.897-0.076,3.857-0.028,5.893
					c0.021,1.018,0.014,2.048,0.014,3.094c0.025,1.046,0.052,2.107,0.079,3.184c0.037,2.149,0.149,4.353,0.233,6.599
					c0.174,2.247,0.225,4.537,0.438,6.858c0.356,4.644,0.848,9.418,1.505,14.237c0.29,2.415,0.743,4.824,1.076,7.258
					c0.222,1.208,0.446,2.418,0.669,3.629c0.22,1.211,0.408,2.43,0.693,3.63c0.526,2.407,0.968,4.833,1.588,7.207
					c0.286,1.194,0.572,2.384,0.858,3.572c0.281,1.189,0.652,2.349,0.957,3.523c0.318,1.172,0.635,2.34,0.95,3.501
					c0.353,1.151,0.703,2.296,1.051,3.435c0.354,1.137,0.682,2.278,1.051,3.395c0.403,1.105,0.763,2.217,1.139,3.315
					c0.374,1.101,0.746,2.192,1.113,3.272c0.42,1.06,0.824,2.117,1.21,3.17c0.392,1.053,0.779,2.094,1.162,3.122
					c0.396,1.024,0.853,2.006,1.245,3.005c1.566,4.001,3.31,7.674,4.83,11.147c0.825,1.705,1.617,3.339,2.37,4.894
					c0.372,0.786,0.735,1.553,1.086,2.297c0.353,0.746,0.755,1.433,1.101,2.13c0.708,1.383,1.393,2.668,1.993,3.887
					c0.303,0.608,0.595,1.191,0.874,1.748c0.298,0.545,0.583,1.066,0.852,1.559c2.168,3.951,3.315,6.344,3.315,6.344
					s-2.029-1.638-5.417-4.738c-0.422-0.389-0.882-0.789-1.333-1.232c-0.44-0.454-0.901-0.928-1.381-1.422
					c-0.97-0.986-1.981-2.085-3.085-3.249c-0.546-0.587-1.128-1.18-1.67-1.834c-0.544-0.654-1.102-1.327-1.676-2.017
					c-1.143-1.388-2.337-2.861-3.559-4.421c-1.162-1.597-2.339-3.288-3.58-5.034c-0.306-0.439-0.616-0.882-0.927-1.328
					c-0.287-0.462-0.576-0.926-0.867-1.394c-0.582-0.941-1.172-1.895-1.771-2.863c-0.599-0.97-1.211-1.953-1.778-2.975
					c-0.554-1.031-1.114-2.074-1.681-3.128c-0.572-1.054-1.137-2.126-1.694-3.218c-0.516-1.109-1.037-2.23-1.562-3.36
					c-0.518-1.134-1.06-2.272-1.565-3.435c-0.488-1.169-0.936-2.364-1.409-3.559c-0.469-1.198-0.94-2.403-1.413-3.615
					c-0.408-1.234-0.819-2.474-1.231-3.72c-0.403-1.249-0.832-2.497-1.192-3.767c-0.346-1.276-0.694-2.555-1.043-3.837
					c-0.742-2.554-1.231-5.178-1.814-7.779c-0.548-2.61-0.927-5.25-1.364-7.868c-0.158-1.317-0.317-2.632-0.475-3.943
					c-0.149-1.311-0.325-2.615-0.397-3.924c-0.093-1.306-0.186-2.606-0.279-3.901c-0.099-1.293-0.091-2.586-0.14-3.867
					c-0.025-1.281-0.092-2.553-0.083-3.818c0.003-1.264,0.043-2.519,0.063-3.762c0.009-1.243,0.082-2.474,0.144-3.693
					c0.059-1.218,0.125-2.425,0.224-3.615c0.113-1.189,0.225-2.365,0.336-3.527c0.096-1.161,0.238-2.305,0.404-3.431
					c0.557-4.508,1.403-8.722,2.258-12.576c0.922-3.847,1.889-7.331,2.909-10.37c1.012-3.041,2.005-5.648,2.921-7.757
					c0.892-2.115,1.701-3.734,2.268-4.824C832.822,95.79,833.168,95.231,833.168,95.231"/>
				<path style="clip-path:url(#SVGID_6_);" d="M894.109,97.929c0,0,2.005-1.043,5.676-2.417c1.834-0.682,4.083-1.463,6.694-2.233
					c2.609-0.788,5.584-1.547,8.858-2.282c3.277-0.692,6.852-1.378,10.667-1.879c3.812-0.532,7.862-0.904,12.069-1.129
					c2.105-0.085,4.247-0.185,6.421-0.161c1.087,0.002,2.181,0.004,3.28,0.006c1.1,0.004,2.204,0.08,3.315,0.117
					c4.441,0.166,8.953,0.637,13.448,1.261c2.243,0.359,4.485,0.739,6.708,1.182c1.107,0.248,2.212,0.497,3.315,0.744
					c1.101,0.251,2.2,0.495,3.28,0.817c2.166,0.61,4.318,1.177,6.398,1.939c1.044,0.357,2.081,0.712,3.112,1.065
					c1.031,0.349,2.021,0.808,3.018,1.205c0.992,0.411,1.974,0.818,2.948,1.221c0.962,0.439,1.904,0.898,2.831,1.361
					c0.926,0.458,1.842,0.913,2.746,1.361c0.886,0.496,1.76,0.978,2.609,1.481c0.849,0.496,1.687,0.985,2.512,1.467
					c0.804,0.524,1.595,1.038,2.357,1.566c1.528,1.049,3.015,2.024,4.338,3.133c0.667,0.536,1.32,1.062,1.959,1.576
					c0.633,0.519,1.269,0.99,1.825,1.55c1.135,1.078,2.217,2.076,3.2,3.046c0.244,0.244,0.491,0.473,0.722,0.716
					c0.224,0.25,0.445,0.496,0.661,0.737c0.434,0.479,0.844,0.948,1.234,1.401c0.781,0.906,1.499,1.722,2.119,2.485
					c2.346,3.205,3.517,5.093,3.517,5.093s-2.018-1.091-5.254-3.098c-0.842-0.454-1.774-0.957-2.789-1.505
					c-0.505-0.271-1.024-0.556-1.554-0.86c-0.266-0.15-0.536-0.302-0.812-0.458c-0.281-0.147-0.579-0.281-0.874-0.425
					c-1.19-0.564-2.419-1.199-3.72-1.842c-1.296-0.65-2.725-1.223-4.164-1.876c-0.736-0.3-1.432-0.692-2.212-0.972
					c-0.766-0.298-1.545-0.602-2.339-0.912c-0.795-0.301-1.581-0.644-2.391-0.965c-0.828-0.286-1.667-0.576-2.519-0.87
					c-0.852-0.288-1.701-0.606-2.56-0.921c-0.88-0.271-1.771-0.546-2.671-0.824c-0.902-0.27-1.803-0.561-2.711-0.859
					c-0.926-0.252-1.86-0.508-2.802-0.766c-3.746-1.073-7.686-1.955-11.696-2.799c-1.994-0.462-4.055-0.753-6.085-1.175
					c-2.054-0.335-4.115-0.683-6.184-0.999c-4.149-0.581-8.309-1.148-12.443-1.538c-2.062-0.228-4.118-0.407-6.152-0.592
					c-1.015-0.102-2.029-0.173-3.037-0.233c-1.007-0.062-2.007-0.161-3-0.239c-3.976-0.24-7.837-0.502-11.517-0.65
					c-0.921-0.045-1.83-0.09-2.725-0.134c-0.895-0.029-1.778-0.05-2.648-0.099c-1.742-0.107-3.422-0.103-5.046-0.189
					C902.883,98.18,894.109,97.929,894.109,97.929"/>
				<path style="clip-path:url(#SVGID_6_);" d="M902.168,134.894c0,0,2.2-0.889,6.181-1.943c1.989-0.527,4.422-1.109,7.235-1.643
					c1.405-0.299,2.908-0.505,4.496-0.784c1.588-0.238,3.263-0.463,5.015-0.67c3.504-0.401,7.318-0.704,11.367-0.841
					c1.013-0.06,2.039-0.062,3.077-0.067c1.04-0.006,2.094-0.012,3.158-0.018c1.065,0.014,2.142,0.031,3.229,0.073
					c1.087,0.03,2.185,0.07,3.291,0.142c1.106,0.067,2.225,0.115,3.348,0.201c1.124,0.084,2.251,0.215,3.389,0.322
					c1.137,0.122,2.285,0.206,3.432,0.362c1.147,0.159,2.3,0.318,3.457,0.478c1.16,0.145,2.315,0.36,3.475,0.569
					c1.159,0.212,2.323,0.425,3.488,0.638c2.319,0.503,4.649,1.003,6.96,1.597c2.299,0.647,4.621,1.202,6.878,1.98
					c1.133,0.369,2.263,0.739,3.389,1.106c1.123,0.381,2.227,0.817,3.331,1.234c1.099,0.429,2.2,0.834,3.282,1.277
					c1.069,0.478,2.133,0.954,3.19,1.428c2.126,0.909,4.169,1.955,6.157,3.009c3.987,2.091,7.696,4.396,11.064,6.777
					c1.708,1.148,3.272,2.422,4.788,3.627c0.75,0.614,1.5,1.195,2.207,1.806c0.693,0.631,1.381,1.236,2.033,1.855
					c2.683,2.375,4.86,4.861,6.799,6.995c0.937,1.107,1.763,2.189,2.522,3.181c0.751,1.002,1.466,1.887,2.044,2.747
					c2.265,3.488,3.393,5.534,3.393,5.534s-2.02-1.299-5.265-3.665c-1.674-1.098-3.705-2.431-6.035-3.961
					c-2.4-1.402-4.967-3.101-7.949-4.663c-0.739-0.399-1.47-0.832-2.224-1.258c-0.763-0.414-1.569-0.792-2.37-1.199
					c-1.614-0.795-3.209-1.714-4.971-2.457c-1.747-0.763-3.446-1.693-5.315-2.406c-1.857-0.73-3.662-1.635-5.619-2.315
					c-1.937-0.715-3.857-1.536-5.88-2.196c-1-0.349-2.007-0.7-3.019-1.054c-1.015-0.345-2.05-0.656-3.08-0.988
					c-1.035-0.318-2.054-0.69-3.104-0.99c-1.048-0.304-2.099-0.609-3.153-0.915c-2.093-0.649-4.246-1.156-6.371-1.74
					c-1.058-0.31-2.144-0.531-3.215-0.797c-1.074-0.261-2.146-0.523-3.215-0.783c-2.163-0.438-4.294-0.983-6.442-1.391
					c-4.28-0.895-8.526-1.676-12.662-2.373c-2.063-0.39-4.114-0.621-6.11-0.99c-2.009-0.291-3.975-0.577-5.888-0.855
					c-1.919-0.278-3.791-0.522-5.607-0.755c-1.815-0.267-3.575-0.446-5.268-0.669c-3.386-0.419-6.509-0.777-9.29-1.083
					c-2.796-0.306-5.232-0.571-7.239-0.79C904.491,135.141,902.168,134.894,902.168,134.894"/>
			</g>
		</g>
	</g>
</g>
</svg>
