<?xml version="1.0" encoding="iso-8859-1"?>
<!-- Generator: Adobe Illustrator 19.1.0, SVG Export Plug-In . SVG Version: 6.00 Build 0)  -->
<svg version="1.1" id="Calque_2" xmlns="http://www.w3.org/2000/svg" xmlns:xlink="http://www.w3.org/1999/xlink" x="0px" y="0px"
	 viewBox="0 0 1200 400" style="enable-background:new 0 0 1200 400;" xml:space="preserve">
<g>
	<g>
		<g>
			<defs>
				<rect id="SVGID_1_" x="708.766" y="-17.065" width="434.129" height="434.129"/>
			</defs>
			<clipPath id="SVGID_2_">
				<use xlink:href="#SVGID_1_"  style="overflow:visible;"/>
			</clipPath>
			<polygon style="clip-path:url(#SVGID_2_);" points="887.541,118.161 897.581,126.134 943.943,94.241 934.001,86.957 
				897.384,88.631 899.835,97.829 919.434,96.604 			"/>
			<g style="clip-path:url(#SVGID_2_);">
				<defs>
					<rect id="SVGID_3_" x="708.766" y="-17.065" width="434.129" height="434.129"/>
				</defs>
				<clipPath id="SVGID_4_">
					<use xlink:href="#SVGID_3_"  style="overflow:visible;"/>
				</clipPath>
				<path style="clip-path:url(#SVGID_4_);" d="M940.695,158.026l9.646-7.284c0,0,5.611,3.248,16.34,4.134
					c23.415,1.429,28.743-3.691,29.333-8.268c0.444-3.691-1.456-5.39-4.528-6.004c-3.937-0.788-12.697,2.658-12.697,2.658
					l-3.037-9.323c0,0,7.023-4.261,15.144-4.261c8.121,0,16.537,5.118,17.719,12.107c2.362,19.392-20.788,25.218-29.235,25.1
					c-7.451-0.103-10.729-1.181-10.729-1.181l15.355,12.009l-9.68,7.456L940.695,158.026z"/>
				<path style="clip-path:url(#SVGID_4_);" d="M1033.395,204.758l-9.49,6.537c0,0,6.414,27.25,28.266,27.25
					c11.468,0,16.59-7.826,16.59-11.784c0.59-5.463-1.677-7.115-1.677-7.115s0.541,1.526,7.776,1.526
					c5.463,0,12.747-6.398,12.747-14.814c0-15.65-23.993-24.141-23.993-24.141l-9.006,6.792c0,0,18.973,7.457,18.973,17.053
					c0,3.248-1.723,4.577-5.118,4.577c-4.135,0-9.499-6.053-9.499-6.053l-8.22,5.856c0,0,5.646,4.038,5.646,10.436
					c0,1.35-1.019,5.263-7.024,5.263C1040.704,226.142,1033.395,204.758,1033.395,204.758"/>
				<polygon style="clip-path:url(#SVGID_4_);" points="916.974,53.094 721.383,192.625 905.849,44.631 				"/>
				<polygon style="clip-path:url(#SVGID_4_);" points="982.627,103.039 712.524,310.443 971.907,94.883 				"/>
				<polygon style="clip-path:url(#SVGID_4_);" points="1058.095,160.45 809.357,342.311 1047.055,152.052 				"/>
				<polygon style="clip-path:url(#SVGID_4_);" points="1135.114,218.932 939.219,358.617 1124.047,210.519 				"/>
				<polygon style="clip-path:url(#SVGID_4_);" points="993.702,219.966 1046.634,260.791 1039.621,266.721 985.716,225.763 				"/>
				<polygon style="clip-path:url(#SVGID_4_);" points="850.879,112.189 896.252,146.584 889.171,152.408 843.331,117.579 				"/>
				<polygon style="clip-path:url(#SVGID_4_);" points="919.304,164.177 969.842,202.577 962.709,208.283 912.133,169.855 				"/>
				<polygon style="clip-path:url(#SVGID_4_);" points="1135.114,218.932 905.85,44.631 909.984,41.383 1139.137,216.163 				"/>
			</g>
		</g>
	</g>
	<g>
		<path d="M59.343,217.176c-0.449-4.013-2.156-7.502-5.121-10.467c-3.504-3.504-7.742-5.256-12.713-5.256
			c-4.972,0-9.209,1.752-12.713,5.256s-5.256,7.742-5.256,12.713v11.23c0,13.477-4.492,20.215-13.477,20.215v-31.445
			c0-8.685,3.069-16.097,9.209-22.237c6.139-6.139,13.551-9.209,22.236-9.209c8.685,0,16.097,3.07,22.236,9.209
			c6.139,6.14,9.209,13.552,9.209,22.237v31.445c-8.984,0-13.477-6.738-13.477-20.215v-0.584
			c-14.975-1.497-22.461-5.795-22.461-12.893H59.343z"/>
		<path d="M115.522,201.049v13.881c0,23.959-4.492,35.938-13.477,35.938v-49.414H77.339v-13.477h62.891
			C140.229,195.433,131.993,199.791,115.522,201.049z"/>
		<path d="M194.028,212.684v-24.708h13.477v26.954c0,23.959-4.492,35.938-13.477,35.938V226.16h-36.342
			c-1.258,16.472-5.615,24.707-13.072,24.707v-62.891h13.477v24.708H194.028z"/>
		<path d="M225.366,237.391h49.414c0,8.984-11.979,13.477-35.938,13.477h-26.953v-62.891c8.984,0,13.477,11.979,13.477,35.938
			V237.391z"/>
		<path d="M333.07,187.976c0,8.984-11.979,13.477-35.938,13.477h-17.969v-13.477H333.07z M337.562,212.684
			c0,8.984-11.979,13.477-35.938,13.477h-22.461v-13.477H337.562z M342.055,237.391c0,8.984-11.979,13.477-35.938,13.477h-26.953
			v-13.477H342.055z"/>
		<path d="M384.623,201.049v13.881c0,23.959-4.492,35.938-13.477,35.938v-49.414h-24.707v-13.477h62.891
			C409.33,195.433,401.093,199.791,384.623,201.049z"/>
		<path d="M413.714,187.976h13.477v26.954c0,23.959-4.492,35.938-13.477,35.938V187.976z"/>
		<path d="M475.374,212.684c5.271,0,9.771,1.864,13.499,5.593s5.593,8.229,5.593,13.499c0,5.271-1.864,9.771-5.593,13.499
			s-8.229,5.593-13.499,5.593h-43.799c0-8.984,8.235-13.477,24.707-13.477h19.092c1.557,0,2.882-0.546,3.976-1.64
			c1.093-1.093,1.64-2.418,1.64-3.976c0-1.557-0.547-2.882-1.64-3.976c-1.094-1.093-2.419-1.64-3.976-1.64h-24.707
			c-5.271,0-9.771-1.864-13.499-5.593s-5.593-8.228-5.593-13.499c0-5.271,1.864-9.771,5.593-13.5s8.228-5.593,13.499-5.593h43.799
			c0,8.984-8.236,13.477-24.707,13.477h-19.092c-1.558,0-2.883,0.547-3.976,1.64c-1.094,1.094-1.64,2.419-1.64,3.976
			c0,1.558,0.546,2.883,1.64,3.976c1.093,1.094,2.418,1.64,3.976,1.64H475.374z"/>
		<path d="M512.327,201.453v13.477c0,23.959-4.492,35.938-13.477,35.938v-62.891h62.891v26.954c0,23.959-4.492,35.938-13.477,35.938
			v-49.414h-11.23v8.984c0,23.959-4.492,35.938-13.477,35.938v-44.922H512.327z"/>
		<path d="M620.031,187.976c0,8.984-11.979,13.477-35.938,13.477h-17.969v-13.477H620.031z M624.523,212.684
			c0,8.984-11.979,13.477-35.938,13.477h-22.461v-13.477H624.523z M629.016,237.391c0,8.984-11.979,13.477-35.938,13.477h-26.953
			v-13.477H629.016z"/>
	</g>
</g>
</svg>
