<?xml version="1.0" encoding="iso-8859-1"?>
<!-- Generator: Adobe Illustrator 19.1.0, SVG Export Plug-In . SVG Version: 6.00 Build 0)  -->
<svg version="1.1" id="Calque_2" xmlns="http://www.w3.org/2000/svg" xmlns:xlink="http://www.w3.org/1999/xlink" x="0px" y="0px"
	 viewBox="0 0 1200 400" style="enable-background:new 0 0 1200 400;" xml:space="preserve">
<g>
	<g>
		<g>
			<defs>
				<rect id="SVGID_1_" x="693.366" y="-30.291" width="458.583" height="458.583"/>
			</defs>
			<clipPath id="SVGID_2_">
				<use xlink:href="#SVGID_1_"  style="overflow:visible;"/>
			</clipPath>
			<polygon style="clip-path:url(#SVGID_2_);" points="1050.497,270.616 1008.605,205.451 1065.218,258.332 			"/>
			<polygon style="clip-path:url(#SVGID_2_);" points="1118.589,170.489 1008.897,197.327 1112.468,152.32 			"/>
			<polygon style="clip-path:url(#SVGID_2_);" points="1013.433,81.253 1005.168,192.1 994.262,81.482 			"/>
			<polygon style="clip-path:url(#SVGID_2_);" points="941.953,148.729 1002.526,193.564 932.6,165.465 			"/>
			<line style="clip-path:url(#SVGID_2_);" x1="786.158" y1="288.602" x2="995.535" y2="203.184"/>
			<polygon style="clip-path:url(#SVGID_2_);" points="787.064,290.774 785.252,286.429 994.629,201.011 996.442,205.356 			"/>
			<g style="clip-path:url(#SVGID_2_);">
				<defs>
					<rect id="SVGID_3_" x="693.366" y="-30.291" width="458.583" height="458.583"/>
				</defs>
				<clipPath id="SVGID_4_">
					<use xlink:href="#SVGID_3_"  style="overflow:visible;"/>
				</clipPath>
				<path style="clip-path:url(#SVGID_4_);" d="M875.752,202.659c0,0-0.05-0.792-0.149-2.324c-0.049-0.767-0.11-1.719-0.182-2.85
					c-0.032-0.566-0.085-1.176-0.107-1.832c-0.013-0.656-0.026-1.356-0.04-2.101c-0.018-1.488-0.08-3.154-0.073-4.987
					c0.046-1.832,0.096-3.832,0.15-5.993c0.112-2.159,0.293-4.477,0.459-6.955c0.263-2.465,0.556-5.089,0.916-7.856
					c1.602-11.024,4.526-24.383,10.35-38.888c2.917-7.238,6.497-14.769,10.939-22.35c4.438-7.58,9.793-15.175,16.135-22.488
					c6.346-7.304,13.717-14.306,22.166-20.533l1.584-1.175c0.525-0.4,1.06-0.785,1.62-1.14c1.107-0.727,2.218-1.457,3.334-2.19
					l1.679-1.099c0.572-0.35,1.16-0.676,1.742-1.015c1.167-0.673,2.339-1.349,3.515-2.027c1.159-0.711,2.408-1.267,3.623-1.897
					c1.224-0.614,2.453-1.231,3.686-1.849c1.267-0.548,2.538-1.097,3.814-1.649l1.92-0.825l0.963-0.413l0.987-0.357
					c10.463-4.003,21.798-6.647,33.538-7.65l1.101-0.111l0.55-0.056l0.662-0.028l2.153-0.079c1.437-0.053,2.878-0.106,4.323-0.161
					c1.468-0.025,3.028,0.075,4.545,0.114l2.294,0.081c0.768,0.023,1.535,0.049,2.28,0.144c1.503,0.155,3.01,0.31,4.521,0.465
					c0.755,0.087,1.514,0.139,2.266,0.254l2.254,0.384c1.504,0.258,3.011,0.516,4.522,0.775c1.497,0.326,2.985,0.704,4.484,1.057
					c3.017,0.634,5.936,1.66,8.907,2.549c0.748,0.211,1.472,0.489,2.198,0.766l2.181,0.823l2.186,0.826l1.094,0.414l1.068,0.477
					c2.844,1.281,5.737,2.497,8.489,4.011l2.091,1.087c0.697,0.364,1.404,0.713,2.072,1.129c1.354,0.802,2.71,1.604,4.069,2.408
					c1.378,0.775,2.67,1.683,3.99,2.554c1.308,0.889,2.653,1.731,3.934,2.664c2.527,1.909,5.145,3.725,7.557,5.801
					c1.224,1.017,2.474,2.009,3.668,3.065c1.177,1.075,2.355,2.151,3.535,3.227c1.2,1.058,2.323,2.194,3.45,3.328
					c1.125,1.136,2.276,2.252,3.381,3.411c8.764,9.342,16.667,19.621,23.28,30.74c3.39,5.51,6.351,11.283,9.151,17.134l2.001,4.437
					c0.692,1.469,1.245,2.999,1.873,4.497c1.272,2.99,2.315,6.073,3.431,9.128c0.525,1.54,0.983,3.103,1.477,4.653l0.724,2.331
					l0.635,2.36c0.41,1.577,0.874,3.138,1.237,4.727l1.069,4.772c1.287,6.395,2.26,12.865,2.674,19.403l0.026,0.305
					c0.005,0.024,0.023,0.31,0.024,0.389l0.023,0.592l0.045,1.183l0.092,2.364l0.091,2.364l0.046,1.181v1.222
					c-0.026,3.249,0.063,6.528-0.127,9.72c-0.066,1.605-0.133,3.208-0.199,4.811c-0.127,1.599-0.253,3.195-0.38,4.791
					c-0.204,3.196-0.65,6.363-1.024,9.531c-1.615,12.66-4.649,25.021-8.722,36.849c-4.039,11.846-9.401,23.075-15.702,33.494
					c-12.584,20.832-29.878,38.071-49.531,48.917c-9.782,5.456-20.044,9.461-30.322,11.749c-1.289,0.265-2.571,0.529-3.848,0.792
					c-0.638,0.131-1.276,0.261-1.911,0.392c-0.636,0.124-1.281,0.191-1.92,0.289c-1.278,0.181-2.551,0.36-3.817,0.538
					c-0.634,0.087-1.265,0.173-1.896,0.26c-0.634,0.05-1.267,0.099-1.898,0.149c-1.261,0.098-2.518,0.196-3.768,0.293l-0.936,0.072
					l-0.467,0.036l-0.234,0.018l-0.302,0.009c-0.61,0.011-1.218,0.023-1.824,0.035c-1.213,0.023-2.42,0.046-3.622,0.07
					c-0.603,0.006-1.192,0.036-1.804,0.021c-0.615-0.021-1.23-0.042-1.843-0.063c-2.444-0.11-4.886-0.103-7.237-0.379
					c-2.364-0.228-4.708-0.376-6.999-0.771c-1.147-0.17-2.288-0.338-3.423-0.506c-1.138-0.14-2.245-0.432-3.358-0.639
					c-1.11-0.228-2.212-0.455-3.307-0.68c-1.093-0.237-2.16-0.559-3.229-0.83c-8.543-2.243-16.359-5.342-23.343-8.9
					c-14.007-7.125-24.56-16.018-32.37-23.959c-3.915-3.984-7.156-7.775-9.816-11.188c-2.665-3.41-4.771-6.427-6.406-8.918
					c-1.635-2.49-2.789-4.462-3.544-5.801c-0.754-1.339-1.106-2.05-1.106-2.05s0.39,0.691,1.212,1.987
					c0.823,1.295,2.076,3.198,3.834,5.589c3.506,4.778,9.014,11.565,17.056,19.119c8.045,7.502,18.803,15.717,32.626,22.176
					c6.904,3.21,14.568,5.929,22.871,7.79c1.039,0.224,2.075,0.498,3.135,0.687c1.06,0.184,2.128,0.37,3.202,0.557
					c1.077,0.168,2.145,0.421,3.246,0.524c1.094,0.129,2.196,0.26,3.304,0.393c2.209,0.319,4.469,0.393,6.744,0.55
					c2.283,0.205,4.556,0.123,6.863,0.167c0.577,0.006,1.154,0.01,1.733,0.015c0.582-0.001,1.19-0.049,1.788-0.072
					c1.2-0.057,2.406-0.115,3.618-0.172c0.606-0.028,1.213-0.057,1.822-0.086c0.043-0.003,0.227-0.009,0.154-0.008l0.223-0.024
					l0.445-0.048l0.892-0.095c1.19-0.127,2.386-0.254,3.587-0.382c0.601-0.063,1.202-0.128,1.806-0.191
					c0.598-0.1,1.198-0.201,1.799-0.301c1.201-0.205,2.406-0.409,3.617-0.615c0.604-0.11,1.215-0.189,1.817-0.325
					c0.601-0.141,1.201-0.283,1.805-0.426c1.205-0.283,2.415-0.568,3.63-0.854c9.684-2.432,19.313-6.374,28.445-11.731
					c9.134-5.348,17.807-12.08,25.517-20.116c7.714-8.016,14.77-17.051,20.61-27.078c5.875-9.993,10.864-20.766,14.581-32.135
					c0.459-1.422,0.92-2.846,1.381-4.272c0.462-1.426,0.822-2.886,1.239-4.331c0.387-1.453,0.845-2.888,1.177-4.36
					c0.346-1.467,0.693-2.938,1.039-4.409c0.169-0.736,0.368-1.467,0.516-2.209l0.441-2.229c0.295-1.487,0.591-2.975,0.886-4.465
					c0.24-1.5,0.478-3.003,0.717-4.507c0.227-1.505,0.504-3.006,0.654-4.525c0.342-3.032,0.76-6.063,0.941-9.123
					c0.116-1.527,0.23-3.055,0.346-4.585l0.171-4.603c0.172-3.086,0.067-6.104,0.088-9.156l-0.002-1.143l-0.05-1.18l-0.101-2.364
					l-0.101-2.364l-0.05-1.183l-0.026-0.592l-0.04-0.486c-0.409-6.073-1.347-12.141-2.582-18.156
					c-1.257-6.018-3.002-11.945-4.928-17.808c-1.051-2.905-2.024-5.837-3.226-8.686c-0.593-1.427-1.109-2.885-1.765-4.287
					l-1.888-4.234c-2.646-5.582-5.444-11.1-8.656-16.364c-6.259-10.628-13.752-20.44-22.024-29.337
					c-4.227-4.356-8.546-8.607-13.21-12.391c-2.253-1.993-4.696-3.722-7.053-5.555c-1.194-0.894-2.449-1.696-3.667-2.547
					c-1.23-0.835-2.434-1.708-3.717-2.446c-1.265-0.77-2.527-1.539-3.788-2.307c-0.622-0.401-1.279-0.732-1.928-1.08l-1.945-1.04
					c-2.56-1.455-5.248-2.614-7.89-3.849l-0.992-0.46l-1.016-0.397l-2.03-0.793l-2.026-0.794c-0.673-0.268-1.345-0.537-2.04-0.74
					c-2.759-0.855-5.468-1.857-8.27-2.475c-1.391-0.344-2.774-0.715-4.164-1.038c-1.403-0.257-2.804-0.514-4.202-0.77l-2.094-0.386
					c-0.699-0.116-1.406-0.171-2.108-0.26c-1.406-0.163-2.808-0.326-4.207-0.487c-0.703-0.102-1.393-0.129-2.081-0.157l-2.065-0.098
					c-1.388-0.052-2.723-0.167-4.144-0.178c-1.445,0.024-2.887,0.048-4.325,0.072l-2.154,0.036l-0.27,0.005
					c-0.034,0-0.304,0.006-0.143,0.002l-0.52,0.042l-1.037,0.084c-11.08,0.724-21.804,2.994-31.772,6.573
					c-9.994,3.538-19.109,8.581-27.341,14.265c-8.228,5.713-15.501,12.233-21.822,19.108c-6.333,6.874-11.692,14.121-16.279,21.335
					c-4.587,7.222-8.351,14.452-11.463,21.441c-6.174,14.016-9.676,27.026-11.728,37.862c-1.981,10.863-2.601,19.58-2.703,25.503
					c-0.025,0.741-0.049,1.44-0.071,2.095c-0.012,0.656,0.009,1.268,0.012,1.834c0.013,1.134,0.024,2.087,0.033,2.855
					C875.743,201.866,875.752,202.659,875.752,202.659"/>
				<path style="clip-path:url(#SVGID_4_);" d="M983.162,91.563c-1.876,0.588-3.718,1.237-5.521,1.949
					c-0.926,0.316-1.798,0.765-2.693,1.14c-0.887,0.394-1.771,0.787-2.652,1.178c-0.857,0.44-1.71,0.879-2.561,1.315
					c-0.844,0.448-1.71,0.846-2.515,1.347c-0.815,0.482-1.628,0.96-2.437,1.437c-0.403,0.241-0.811,0.472-1.207,0.72l-1.163,0.777
					c-1.552,1.028-3.087,2.051-4.52,3.185c-5.832,4.399-10.895,9.317-15.236,14.427c-4.335,5.119-7.99,10.405-10.979,15.685
					c-2.993,5.281-5.387,10.509-7.323,15.524c-3.879,10.045-5.712,19.268-6.679,26.85c-0.214,1.903-0.382,3.706-0.532,5.4
					c-0.083,1.701-0.173,3.293-0.221,4.773c-0.007,1.481-0.015,2.851-0.021,4.107c0.021,1.256,0.085,2.397,0.119,3.416
					c0.031,1.02,0.074,1.917,0.16,2.687c0.07,0.771,0.128,1.421,0.176,1.944c0.094,1.046,0.143,1.586,0.143,1.586
					s0.008-0.542,0.023-1.592c0.036-1.048-0.011-2.614,0.129-4.634c0.148-4.036,0.707-9.972,2.183-17.335
					c1.529-7.348,4.085-16.135,8.4-25.57c2.181-4.701,4.804-9.555,7.977-14.385c3.175-4.824,6.837-9.674,11.159-14.244
					c4.311-4.575,9.25-8.891,14.807-12.647c5.56-3.736,11.678-7.041,18.366-9.322c1.457-0.503,2.941-0.959,4.441-1.381
					L983.162,91.563z"/>
				<path style="clip-path:url(#SVGID_4_);" d="M1087.443,138.032c-1.122-1.954-2.401-3.809-3.617-5.698
					c-0.634-0.929-1.301-1.835-1.949-2.751c-0.649-0.917-1.301-1.831-2.003-2.707l-2.065-2.656
					c-0.706-0.871-1.442-1.718-2.161-2.576c-1.413-1.737-2.987-3.338-4.487-4.992c-6.208-6.428-13.108-12.18-20.689-16.749
					c-0.953-0.56-1.906-1.12-2.856-1.678c-0.948-0.561-1.953-1.03-2.924-1.546c-1.933-1.054-3.967-1.904-5.966-2.796
					c-0.496-0.231-1.003-0.437-1.52-0.621l-1.538-0.573c-1.031-0.364-2.034-0.793-3.083-1.096c-2.093-0.613-4.147-1.317-6.272-1.752
					c-0.417-0.095-0.833-0.194-1.249-0.291l-1.86,9.586c0.239,0.063,0.478,0.127,0.717,0.188c7.346,1.91,14.454,5.165,21.11,9.35
					c0.85,0.493,1.648,1.078,2.464,1.634c0.808,0.57,1.64,1.104,2.432,1.702c1.563,1.227,3.184,2.38,4.68,3.715
					c3.096,2.53,5.964,5.379,8.775,8.295c5.506,5.955,10.463,12.549,14.659,19.649c2.041,3.341,3.826,6.839,5.518,10.378
					l9.544-5.533C1091.362,144.936,1089.521,141.412,1087.443,138.032"/>
				<path style="clip-path:url(#SVGID_4_);" d="M1104.581,194.296l-0.062-1.614l-0.062-1.615l-0.031-0.808l-0.016-0.404
					c0-0.042-0.018-0.346-0.019-0.32l-0.018-0.215c-0.083-1.305-0.204-2.605-0.347-3.9l-10.891,1.363
					c0.121,1.082,0.223,2.164,0.295,3.244l0.016,0.188c0.011,0.161,0.005-0.009,0.008,0.083l0.017,0.404l0.034,0.808l0.069,1.614
					l0.069,1.614l0.034,0.807l0.001,0.758c-0.017,2.027,0.07,4.012-0.041,6.089l-0.102,3.084l-0.22,3.073
					c-0.112,2.051-0.386,4.081-0.607,6.115c-0.095,1.019-0.278,2.024-0.427,3.034l-0.468,3.021l-0.582,2.994
					c-0.189,0.998-0.381,1.994-0.63,2.976c-0.228,0.987-0.457,1.972-0.685,2.956c-0.218,0.988-0.523,1.949-0.779,2.924
					c-0.276,0.968-0.512,1.948-0.819,2.904c-0.305,0.956-0.61,1.91-0.914,2.864c-2.461,7.624-5.786,14.834-9.65,21.551
					c-3.854,6.735-8.52,12.802-13.627,18.187c-5.101,5.406-10.857,9.912-16.9,13.545c-6.043,3.639-12.431,6.334-18.877,8.039
					c-3.224,0.849-6.447,1.519-9.654,1.934c-0.803,0.095-1.603,0.191-2.399,0.286l-1.107,0.131l-1.244,0.073
					c-0.828,0.05-1.651,0.098-2.471,0.147c-0.405,0.02-0.827,0.058-1.216,0.063l-1.152,0.004c-1.537-0.012-3.042,0.065-4.582-0.054
					c-1.528-0.087-3.049-0.116-4.534-0.314c-1.489-0.158-2.968-0.292-4.407-0.56c-0.724-0.116-1.443-0.231-2.158-0.346
					c-0.714-0.116-1.412-0.289-2.114-0.428c-5.603-1.164-10.794-2.913-15.487-5.006c-9.389-4.223-16.794-9.64-22.355-14.641
					c-5.554-5.036-9.416-9.574-11.871-12.788c-2.462-3.217-3.572-5.088-3.572-5.088s0.227,0.492,0.719,1.422
					c0.494,0.928,1.241,2.303,2.331,4.028c2.181,3.437,5.567,8.431,10.857,14.001c5.268,5.547,12.417,11.813,22.036,16.868
					c4.791,2.53,10.173,4.754,16.076,6.394c0.739,0.199,1.477,0.432,2.232,0.607c0.758,0.165,1.521,0.332,2.288,0.5
					c1.532,0.366,3.106,0.595,4.697,0.847c1.589,0.291,3.212,0.413,4.852,0.589c1.626,0.209,3.341,0.226,5.05,0.318l1.29,0.057
					c0.426,0.015,0.822-0.001,1.236,0c0.821-0.005,1.645-0.012,2.474-0.018l1.246-0.009l0.249-0.006l0.162-0.01l0.326-0.022
					l0.651-0.043c0.87-0.058,1.745-0.116,2.625-0.174c3.515-0.271,7.081-0.817,10.674-1.57c7.188-1.519,14.384-4.252,21.26-7.999
					c13.803-7.474,25.936-19.461,34.806-33.91c4.45-7.225,8.196-15.041,11.034-23.272c2.858-8.221,4.995-16.81,6.15-25.608
					c0.268-2.202,0.584-4.403,0.735-6.626l0.275-3.331l0.15-3.345c0.138-2.21,0.092-4.527,0.106-6.803l-0.001-0.857
					L1104.581,194.296z"/>
				<path style="clip-path:url(#SVGID_4_);" d="M955.548,183.411c-0.046,0.462-0.09,0.922-0.125,1.364
					c-0.336,4.346-0.095,7.739,0.134,10.037c0.08,1.15,0.265,2.007,0.338,2.595c0.088,0.585,0.134,0.887,0.134,0.887
					s0.022-0.304,0.066-0.894c0.054-0.587,0.085-1.472,0.221-2.598c0.199-2.249,0.704-5.554,1.725-9.6
					c0.101-0.384,0.212-0.782,0.324-1.18L955.548,183.411z"/>
				<path style="clip-path:url(#SVGID_4_);" d="M1025.771,149.339c0.439,0.26,0.852,0.573,1.274,0.87
					c0.417,0.304,0.848,0.585,1.257,0.904c0.81,0.655,1.65,1.265,2.426,1.977c1.609,1.343,3.111,2.853,4.58,4.401
					c2.887,3.162,5.474,6.688,7.699,10.459c1.422,2.38,2.66,4.877,3.747,7.43l11.52-6.679c-3.413-7.413-7.998-14.217-13.63-20.05
					c-3.682-3.781-7.8-7.157-12.344-9.837l-1.712-0.985c-0.569-0.329-1.171-0.606-1.754-0.908c-1.16-0.617-2.381-1.119-3.582-1.64
					c-2.434-0.98-4.931-1.783-7.469-2.336c-0.365-0.079-0.729-0.157-1.093-0.235l-2.229,11.488l0.451,0.127
					C1018.68,145.388,1022.331,147.117,1025.771,149.339"/>
				<path style="clip-path:url(#SVGID_4_);" d="M1064.386,194.387l-0.033-0.905l-0.033-0.905l-0.016-0.453l-0.008-0.227
					l-0.015-0.254l-0.01-0.128c-0.024-0.371-0.061-0.737-0.092-1.106l-13.069,1.636c0.008,0.105,0.022,0.212,0.029,0.317
					l0.008,0.097c0.005,0.073,0.005,0.051,0.004,0.018l0.007,0.18l0.021,0.453l0.04,0.905l0.04,0.904l0.02,0.452v0.393
					c-0.011,1.057,0.052,2.064-0.002,3.185l-0.042,1.645l-0.105,1.64c-0.05,1.095-0.19,2.179-0.299,3.264
					c-0.117,1.085-0.302,2.158-0.453,3.234c-0.214,1.063-0.37,2.139-0.623,3.188c-0.229,1.055-0.451,2.11-0.741,3.143
					c-0.254,1.046-0.571,2.066-0.886,3.085c-1.15,3.728-2.697,7.261-4.464,10.592l9.864,6.552c2.558-4.088,4.699-8.506,6.35-13.145
					c1.729-4.801,3.017-9.825,3.718-14.973c0.165-1.288,0.356-2.576,0.453-3.877l0.172-1.95l0.1-1.957
					c0.085-1.282,0.073-2.686,0.081-4.042l-0.001-0.512L1064.386,194.387z"/>
				<path style="clip-path:url(#SVGID_4_);" d="M992.494,134.198c-1.257,0.404-2.489,0.854-3.686,1.356
					c-4.287,1.779-8.148,4.133-11.515,6.784c-3.361,2.663-6.265,5.591-8.698,8.639c-1.082,1.352-2.063,2.72-2.978,4.092l4.933,5.144
					c1.16-1.412,2.403-2.799,3.756-4.137c4.806-4.77,10.905-8.936,17.989-11.2c0.787-0.245,1.585-0.468,2.39-0.671L992.494,134.198z
					"/>
				<path style="clip-path:url(#SVGID_4_);" d="M1026.602,247.274c-2.882,1.75-5.917,3.092-9.002,4.007
					c-1.69,0.5-3.387,0.908-5.086,1.179c-0.426,0.064-0.85,0.127-1.272,0.191l-0.317,0.048l-0.158,0.025l-0.08,0.012
					c0.194-0.007,0.005,0.002,0.025,0.003l-0.697,0.059c-0.463,0.04-0.924,0.08-1.383,0.119c-0.224,0.019-0.469,0.049-0.675,0.059
					l-0.601,0.025c-1.573,0.09-3.257,0.094-4.856-0.012c-0.802-0.055-1.601-0.096-2.378-0.212c-0.782-0.094-1.559-0.183-2.315-0.329
					c-3.043-0.506-5.878-1.362-8.483-2.38c-5.211-2.058-9.411-4.871-12.634-7.48c-3.215-2.635-5.52-5.043-6.987-6.771
					c-1.476-1.724-2.17-2.735-2.17-2.735s0.112,0.283,0.358,0.825c0.249,0.538,0.619,1.342,1.185,2.345
					c1.132,2.001,2.889,4.935,5.752,8.245c2.848,3.303,6.805,7.039,12.248,10.181c2.711,1.573,5.803,2.944,9.208,4.01
					c0.848,0.284,1.721,0.514,2.614,0.725c0.888,0.24,1.799,0.403,2.724,0.577c1.855,0.344,3.736,0.577,5.804,0.703l0.768,0.054
					c0.25,0.016,0.464,0.015,0.7,0.023c0.46,0.009,0.923,0.018,1.388,0.027l0.7,0.013l0.869-0.032
					c0.512-0.022,1.026-0.045,1.544-0.068c2.069-0.113,4.177-0.386,6.308-0.784c3.624-0.684,7.27-1.9,10.812-3.562L1026.602,247.274
					z"/>
				<path style="clip-path:url(#SVGID_4_);" d="M699.276,304.911c0,0,0.076-0.089,0.224-0.26c0.149-0.17,0.365-0.436,0.659-0.747
					c0.588-0.625,1.431-1.592,2.546-2.709c1.109-1.135,2.476-2.455,4.059-3.928c0.799-0.719,1.648-1.483,2.544-2.289
					c0.438-0.429,0.991-0.588,1.583-0.68c0.588-0.1,1.134-0.357,1.714-0.555c9.217-3.378,21.505-7.882,33.793-12.385l1.152-0.423
					l0.288-0.105l0.428-0.144l0.147-0.045l0.585-0.182l0.293-0.091l0.147-0.046l0.237-0.059l1.005-0.225
					c0.331-0.067,0.682-0.141,0.999-0.189l0.885-0.094c2.36-0.236,4.753-0.015,6.999,0.622c4.499,1.263,8.413,4.209,10.795,7.998
					c0.586,0.947,1.124,1.92,1.524,2.932l0.313,0.753l0.194,0.531c0.128,0.35,0.257,0.699,0.383,1.046
					c0.508,1.386,1.005,2.741,1.489,4.062c0.242,0.659,0.481,1.311,0.715,1.952c0.118,0.321,0.235,0.639,0.35,0.955l0.172,0.471
					l0.043,0.117l0.137,0.401l0.073,0.238c0.098,0.316,0.195,0.628,0.292,0.939c0.119,0.451,0.247,1.036,0.349,1.545
					c0.049,0.256,0.112,0.541,0.139,0.771l0.073,0.682c0.039,0.454,0.105,0.902,0.105,1.348c0,0.447,0,0.889,0,1.326
					c-0.005,0.437-0.059,0.865-0.045,1.297c0,0.43,0.028,0.864-0.085,1.27c-0.092,0.411-0.278,0.796-0.475,1.163
					c-0.844,1.456-1.735,2.7-2.745,3.688c-1.983,1.999-4.064,3.087-5.777,3.643c-0.837,0.309-1.643,0.424-2.292,0.531
					c-0.683,0.054-1.224,0.105-1.672,0.095s-0.788-0.05-1.011-0.068c-0.221-0.021-0.336-0.032-0.336-0.032s0.285-0.355,0.818-1.021
					c0.252-0.321,0.52-0.767,0.817-1.236c0.139-0.25,0.267-0.537,0.407-0.814c0.148-0.268,0.274-0.574,0.387-0.901
					c0.482-1.265,0.782-2.806,0.637-4.355c-0.049-0.762-0.243-1.537-0.511-2.24c-0.09-0.182-0.166-0.351-0.147-0.504
					c0.02-0.152,0.087-0.299,0.145-0.452c0.149-0.308,0.07-0.642,0.094-0.974c0.011-0.167-0.037-0.334-0.044-0.504l-0.02-0.256
					c-0.006-0.084-0.027-0.108-0.035-0.165c-0.029-0.116-0.014-0.166-0.046-0.346c-0.096-0.311-0.194-0.624-0.292-0.939
					c-0.419-1.153-0.853-2.344-1.3-3.569c-0.483-1.32-0.98-2.676-1.489-4.062c-0.128-0.346-0.255-0.694-0.383-1.045l-0.192-0.522
					l-0.128-0.284c-0.143-0.393-0.36-0.749-0.571-1.11c-0.876-1.418-2.368-2.525-4.072-3.006c-0.85-0.239-1.744-0.321-2.625-0.233
					l-0.331,0.028l-0.202,0.044c-0.064,0.011-0.129,0.017-0.196,0.018c-0.021,0.003-0.022-0.006-0.061,0.005l-0.147,0.046
					l-0.293,0.091l-0.585,0.182l-0.147,0.045l-0.073,0.023c-0.073,0.024,0.512-0.173,0.247-0.083l-0.036,0.014l-0.288,0.105
					l-1.152,0.422c-12.288,4.504-24.576,9.007-33.793,12.385c-0.571,0.224-1.154,0.381-1.667,0.684
					c-0.511,0.313-1.035,0.549-1.647,0.504c-1.204-0.036-2.346-0.071-3.42-0.104c-2.161-0.1-4.058-0.225-5.637-0.374
					c-1.573-0.132-2.841-0.325-3.693-0.422c-0.426-0.048-0.762-0.111-0.986-0.144C699.392,304.93,699.276,304.911,699.276,304.911"
					/>
			</g>
		</g>
	</g>
	<g>
		<path d="M104.035,159.394h80.566c0,14.648-19.532,21.973-58.594,21.973H82.062V78.828c14.648,0,21.973,19.532,21.973,58.594
			V159.394z"/>
		<path d="M272.097,126.435c-0.732-6.542-3.516-12.231-8.35-17.065c-5.713-5.713-12.623-8.569-20.728-8.569
			c-8.106,0-15.015,2.856-20.728,8.569s-8.569,12.623-8.569,20.728v18.311c0,21.973-7.324,32.959-21.973,32.959v-51.27
			c0-14.16,5.004-26.245,15.015-36.255c10.009-10.009,22.094-15.015,36.255-15.015c14.16,0,26.245,5.006,36.255,15.015
			c10.009,10.01,15.015,22.095,15.015,36.255v51.27c-14.648,0-21.973-10.986-21.973-32.959v-0.952
			c-24.415-2.441-36.621-9.448-36.621-21.021H272.097z"/>
		<path d="M372.849,119.111c8.593,0,15.93,3.04,22.009,9.119s9.119,13.416,9.119,22.009c0,8.595-3.04,15.931-9.119,22.009
			c-6.079,6.08-13.416,9.119-22.009,9.119h-71.411c0-14.648,13.427-21.973,40.283-21.973h31.128c2.538,0,4.699-0.891,6.482-2.674
			c1.782-1.781,2.673-3.942,2.673-6.481c0-2.538-0.892-4.699-2.673-6.482c-1.783-1.782-3.944-2.673-6.482-2.673h-40.283
			c-8.595,0-15.93-3.04-22.009-9.119s-9.119-13.415-9.119-22.009c0-8.593,3.04-15.93,9.119-22.009s13.415-9.119,22.009-9.119h71.411
			c0,14.648-13.429,21.973-40.283,21.973h-31.128c-2.54,0-4.7,0.892-6.482,2.673c-1.783,1.783-2.673,3.944-2.673,6.482
			c0,2.54,0.89,4.7,2.673,6.482c1.782,1.783,3.942,2.673,6.482,2.673H372.849z"/>
		<path d="M499.016,78.828c0,14.648-19.532,21.973-58.594,21.973h-29.297V78.828H499.016z M506.34,119.111
			c0,14.648-19.532,21.973-58.594,21.973h-36.621v-21.973H506.34z M513.664,159.394c0,14.648-19.532,21.973-58.594,21.973h-43.945
			v-21.973H513.664z"/>
		<path d="M567.541,141.083h-24.756c0-14.648,9.765-21.973,29.297-21.973h20.142c2.538,0,4.699-0.89,6.482-2.673
			c1.782-1.782,2.673-3.942,2.673-6.482c0-2.538-0.892-4.699-2.673-6.482c-1.783-1.782-3.944-2.673-6.482-2.673h-49.438v21.973
			c0,39.063-7.324,58.594-21.973,58.594V78.828h71.411c8.593,0,15.93,3.04,22.009,9.119s9.119,13.416,9.119,22.009
			c0,8.595-3.028,15.919-9.082,21.973c-4.688,4.688-10.084,7.569-16.187,8.643c16.846,16.846,25.269,35.621,25.269,56.323
			L567.541,141.083z"/>
		<path d="M243.02,320.367c-14.161,0-26.246-5.005-36.255-15.015c-10.01-10.009-15.015-22.094-15.015-36.255
			c0-14.16,5.004-26.245,15.015-36.255c10.009-10.009,22.094-15.015,36.255-15.015h51.27c0,14.648-10.986,21.973-32.959,21.973
			H243.02c-8.106,0-15.015,2.856-20.728,8.569s-8.569,12.623-8.569,20.728c0,8.105,2.856,15.015,8.569,20.728
			s12.622,8.569,20.728,8.569h18.311c4.052,0,7.714,0.245,10.986,0.732v-19.995c-24.415-2.441-36.621-9.448-36.621-21.021h58.594
			v62.256H243.02z"/>
		<path d="M381.784,265.436c-0.732-6.543-3.516-12.231-8.35-17.065c-5.713-5.713-12.623-8.569-20.728-8.569
			c-8.106,0-15.015,2.856-20.728,8.569s-8.569,12.623-8.569,20.728v18.311c0,21.973-7.324,32.959-21.973,32.959v-51.27
			c0-14.16,5.004-26.245,15.015-36.255c10.009-10.009,22.094-15.015,36.255-15.015c14.16,0,26.245,5.006,36.255,15.015
			c10.009,10.01,15.015,22.095,15.015,36.255v51.27c-14.648,0-21.973-10.986-21.973-32.959v-0.952
			c-24.415-2.441-36.621-9.448-36.621-21.021H381.784z"/>
		<path d="M433.098,239.801v21.973c0,39.063-7.324,58.594-21.973,58.594V217.828h102.539v43.945
			c0,39.063-7.324,58.594-21.973,58.594v-80.566h-18.311v14.648c0,39.063-7.324,58.594-21.973,58.594v-73.242H433.098z"/>
		<path d="M608.703,217.828c0,14.648-19.532,21.973-58.594,21.973h-29.297v-21.973H608.703z M616.027,258.111
			c0,14.648-19.532,21.973-58.594,21.973h-36.621v-21.973H616.027z M623.352,298.395c0,14.648-19.532,21.973-58.594,21.973h-43.945
			v-21.973H623.352z"/>
	</g>
</g>
</svg>
