<?xml version="1.0" encoding="iso-8859-1"?>
<!-- Generator: Adobe Illustrator 19.1.0, SVG Export Plug-In . SVG Version: 6.00 Build 0)  -->
<svg version="1.1" id="Calque_1" xmlns="http://www.w3.org/2000/svg" xmlns:xlink="http://www.w3.org/1999/xlink" x="0px" y="0px"
	 viewBox="0 0 1200 400" style="enable-background:new 0 0 1200 400;" xml:space="preserve">
<g>
	<g>
		<g>
			<defs>
				<rect id="SVGID_1_" x="757.045" y="36.928" width="327.145" height="327.145"/>
			</defs>
			<clipPath id="SVGID_2_">
				<use xlink:href="#SVGID_1_"  style="overflow:visible;"/>
			</clipPath>
			<g style="clip-path:url(#SVGID_2_);">
				<defs>
					<rect id="SVGID_3_" x="757.045" y="36.928" width="327.145" height="327.145"/>
				</defs>
				<clipPath id="SVGID_4_">
					<use xlink:href="#SVGID_3_"  style="overflow:visible;"/>
				</clipPath>
				<path style="clip-path:url(#SVGID_4_);fill:#0066FF;" d="M930.37,178.067c-10.576,0.001-29.921-3.179-34.46-3.951
					c-36.104-6.139-38.591-10.997-39.927-13.607c-3.402-6.643-4.437-24.204-4.751-34.081c-0.193-6.068-0.612-26.418,2.1-33.525
					c2.293-6.01,13.5-12.661,33.309-19.768c6.761-2.425,29.659-10.172,40.417-7.995c7.256,1.468,25.474,17.443,29.053,20.63
					c22.77,20.282,23.593,27.279,23.863,29.578c0.247,2.097,0.824,7.007-18.665,33.765c-4.841,6.647-9.775,12.993-13.893,17.869
					c-7.129,8.444-9.479,9.797-11.274,10.459C934.94,177.884,932.906,178.067,930.37,178.067 M866.543,154.254
					c2.715,1.57,12.937,4.755,32.399,8.011c16.519,2.764,29.249,3.858,32.86,3.654c2.448-2.076,9.694-10.34,19.417-23.659
					c10.449-14.316,15.439-23.074,16.482-25.912c-1.161-2.728-6.964-10.118-19.583-21.372
					c-11.456-10.218-21.147-17.017-23.608-17.912c-4.045-0.715-16.328,1.443-32.249,7.013
					c-16.105,5.634-25.852,11.251-27.626,13.426c-0.828,2.689-1.714,12.932-1.218,28.537
					C863.922,141.947,865.464,151.189,866.543,154.254"/>
				<path style="clip-path:url(#SVGID_4_);fill:#0066FF;" d="M945.849,329.571c-0.697,0-1.152-0.067-1.485-0.115
					c-6.604-0.966-17.155-10.81-24.842-18.897c-4.276-4.498-8.22-9.097-11.105-12.947c-5.079-6.778-5.778-9.72-5.778-11.89
					c0-2.035,0-6.803,21.919-31.277c9.82-10.964,22.765-24.402,28.675-26.158c6.364-1.892,28.469,0.325,35.091,1.049
					c29.48,3.224,32.378,6.274,33.771,7.739c2.395,2.522,2.954,6.335,2.133,14.572c-0.623,6.238-1.937,13.514-2.93,18.519
					c-0.849,4.279-5.26,25.852-8.696,30.363c-1.008,1.324-2.766,3.015-12.009,7.799c-5.573,2.885-12.594,6.218-19.771,9.386
					C957.045,328.213,948.993,329.571,945.849,329.571 M915.156,285.822c1.456,2.698,6.171,9.015,13.769,16.932
					c8.618,8.981,15.113,13.862,17.19,14.615c2.467-0.129,12.041-2.995,29.374-10.626c14.542-6.402,24.814-11.851,27.413-13.734
					c1.102-2.577,3.719-11.809,6.179-23.931c2.521-12.42,3.328-20.155,3.318-23.561c-9.889-2.938-48.858-6.99-55.564-5.573
					c-2.278,1.197-10.607,8.642-22.6,21.969C923.378,273.98,916.98,282.549,915.156,285.822"/>
				<path style="clip-path:url(#SVGID_4_);fill:#0066FF;" d="M817.999,304.152l-28.157-34.11l-13.362-36.848l-0.04-0.936
					c-1.762-41.171,0.567-43.209,2.82-45.18l0.001-0.001c2.696-2.359,6.333-2.07,12.102-0.713c3.597,0.846,8.334,2.234,13.342,3.911
					c4.397,1.472,19.101,6.571,23.696,10.399c4.337,3.614,11.539,21.13,16.817,35.189c11.631,30.977,10.582,35.756,10.238,37.326
					c-0.648,2.949-2.626,7.021-18.007,18.062c-7.452,5.349-14.612,9.859-14.913,10.05L817.999,304.152z M800.584,263.905
					l19.96,24.18c10.14-6.665,20.472-14.38,22.877-17.617c-1.017-9.187-18.255-54.797-22.978-60.55
					c-3.734-2.798-23.115-9.742-32.166-11.818c-0.378,6.875-0.192,20.644,0.303,32.701L800.584,263.905z"/>
				<path style="clip-path:url(#SVGID_4_);fill:#0066FF;" d="M1067.078,205.699l-7.169-0.514c-2.061-0.147-12.623-1.12-18.17-5.769
					c-1.322-1.108-4.415-3.701-14.696-33.227c-2.336-6.708-9.957-29.066-9.957-35.097c0-7.801,3.553-18.219,3.958-19.381
					l3.147-9.028l29.926,29.083l8.334,24.076L1067.078,205.699z M1049.859,190.289c0.812,0.549,2.155,1.05,3.682,1.472
					l-3.092-33.325l-6.904-19.945l-13.576-13.193c-0.408,2.064-0.692,4.11-0.692,5.794c0.096,1.974,3.005,12.964,8.94,30.115
					C1044.348,178.918,1048.496,188.204,1049.859,190.289"/>
				<path style="clip-path:url(#SVGID_4_);fill:#0066FF;" d="M864.818,161.698c0,0-0.678,0.604-1.865,1.661
					c-1.188,1.067-2.881,2.609-4.892,4.486c-2.016,1.873-4.336,4.093-6.806,6.494c-1.22,1.214-2.481,2.468-3.763,3.743
					c-1.255,1.296-2.569,2.589-3.818,3.93c-1.26,1.333-2.537,2.66-3.737,4.006c-0.608,0.669-1.21,1.333-1.806,1.99
					c-0.579,0.669-1.151,1.33-1.714,1.979c-0.561,0.654-1.113,1.296-1.653,1.925c-0.519,0.644-1.027,1.275-1.521,1.888
					c-0.49,0.618-0.988,1.207-1.433,1.799c-0.44,0.597-0.864,1.174-1.272,1.727c-0.406,0.556-0.808,1.084-1.167,1.598
					c-0.341,0.526-0.665,1.025-0.969,1.493c-0.608,0.941-1.167,1.753-1.515,2.476c-0.763,1.427-1.199,2.243-1.199,2.243
					s0.302-0.877,0.828-2.412c0.236-0.788,0.658-1.679,1.114-2.721c0.23-0.521,0.475-1.076,0.733-1.661
					c0.277-0.574,0.593-1.164,0.909-1.789c0.321-0.624,0.655-1.275,1-1.947c0.353-0.67,0.753-1.336,1.146-2.037
					c0.398-0.698,0.807-1.416,1.225-2.149c0.44-0.718,0.889-1.453,1.345-2.199c0.461-0.746,0.93-1.504,1.404-2.272
					c0.491-0.755,0.989-1.519,1.49-2.289c0.991-1.553,2.053-3.086,3.105-4.632c1.042-1.556,2.144-3.057,3.199-4.568
					c1.08-1.489,2.144-2.953,3.173-4.371c2.09-2.81,4.063-5.42,5.787-7.633c1.719-2.217,3.177-4.048,4.209-5.329
					c1.043-1.282,1.638-2.015,1.638-2.015L864.818,161.698z"/>
				<path style="clip-path:url(#SVGID_4_);fill:#0066FF;" d="M940.231,171.249c0,0,1.178,3.862,2.946,9.655
					c1.738,5.793,4.011,13.526,6.154,21.3c2.143,7.772,4.153,15.588,5.389,21.52c0.62,2.964,1.042,5.457,1.225,7.217
					c0.058,0.437,0.077,0.834,0.098,1.176c0.022,0.342,0.044,0.633,0.031,0.871c-0.008,0.471-0.012,0.722-0.012,0.722
					s-0.033-0.249-0.095-0.715c-0.022-0.232-0.085-0.516-0.157-0.847c-0.07-0.332-0.146-0.713-0.267-1.135
					c-0.434-1.692-1.208-4.068-2.247-6.882c-2.074-5.63-5.188-13.01-8.43-20.335c-3.241-7.326-6.607-14.599-9.161-20.036
					c-2.576-5.418-4.293-9.03-4.293-9.03L940.231,171.249z"/>
				<path style="clip-path:url(#SVGID_4_);fill:#0066FF;" d="M853.439,268.638c0,0,0.195,0.101,0.561,0.29
					c0.334,0.178,0.893,0.451,1.591,0.796c0.711,0.336,1.566,0.759,2.573,1.213c1,0.466,2.141,0.972,3.392,1.518
					c1.25,0.548,2.62,1.115,4.07,1.717c1.46,0.578,2.993,1.216,4.603,1.811c0.804,0.304,1.621,0.614,2.449,0.927
					c0.834,0.298,1.678,0.599,2.528,0.904c1.699,0.625,3.447,1.186,5.192,1.774c1.744,0.593,3.511,1.105,5.243,1.655
					c1.736,0.533,3.46,0.999,5.124,1.483c1.667,0.477,3.293,0.868,4.831,1.277c1.537,0.417,3.005,0.737,4.358,1.055
					c1.355,0.306,2.594,0.622,3.702,0.839c1.108,0.226,2.075,0.423,2.87,0.584c1.594,0.325,2.505,0.51,2.505,0.51
					s-0.928-0.038-2.554-0.105c-0.814-0.034-1.803-0.075-2.936-0.122c-1.136-0.039-2.41-0.154-3.807-0.242
					c-1.395-0.099-2.912-0.183-4.507-0.351c-1.595-0.161-3.288-0.291-5.029-0.499c-1.739-0.215-3.546-0.406-5.373-0.66
					c-1.823-0.271-3.689-0.502-5.539-0.815c-1.851-0.309-3.712-0.593-5.529-0.948c-0.911-0.169-1.815-0.337-2.709-0.503
					c-0.89-0.183-1.77-0.363-2.635-0.54c-1.736-0.343-3.4-0.739-4.986-1.091c-1.581-0.376-3.078-0.731-4.456-1.088
					c-1.379-0.355-2.643-0.688-3.762-1.005c-1.12-0.304-2.097-0.605-2.904-0.839c-0.81-0.251-1.439-0.441-1.906-0.599
					c-0.436-0.144-0.669-0.221-0.669-0.221L853.439,268.638z"/>
				<path style="clip-path:url(#SVGID_4_);fill:#0066FF;" d="M975.644,112.363c0,0,0.769,0.217,2.116,0.597
					c1.339,0.381,3.237,0.94,5.509,1.63c2.271,0.689,4.91,1.518,7.727,2.439c1.406,0.472,2.861,0.935,4.331,1.452
					c1.471,0.507,2.964,1.017,4.449,1.563c1.488,0.527,2.969,1.078,4.421,1.639c1.456,0.54,2.876,1.119,4.248,1.676
					c1.376,0.538,2.686,1.133,3.93,1.668c1.249,0.521,2.401,1.106,3.472,1.603c1.075,0.487,2.028,1.021,2.878,1.464
					c0.424,0.224,0.82,0.433,1.187,0.627c0.362,0.203,0.685,0.41,0.981,0.586c1.172,0.712,1.842,1.118,1.842,1.118
					s-0.733-0.273-2.016-0.75c-0.321-0.116-0.669-0.256-1.059-0.386c-0.393-0.12-0.819-0.251-1.274-0.389
					c-0.91-0.272-1.918-0.608-3.057-0.882c-1.134-0.283-2.34-0.632-3.652-0.906c-1.306-0.287-2.668-0.616-4.103-0.883
					c-1.429-0.283-2.9-0.579-4.411-0.832c-1.503-0.273-3.033-0.529-4.57-0.764c-1.53-0.251-3.069-0.468-4.582-0.685
					c-1.509-0.226-3.006-0.404-4.447-0.599c-2.887-0.367-5.585-0.678-7.898-0.923c-2.312-0.243-4.239-0.431-5.583-0.55
					c-1.337-0.115-2.101-0.18-2.101-0.18L975.644,112.363z"/>
				<path style="clip-path:url(#SVGID_4_);fill:#0066FF;" d="M1050.913,197.265c0,0-0.414,0.771-1.139,2.12
					c-0.726,1.335-1.769,3.228-3.05,5.48c-2.56,4.505-6.061,10.452-9.827,16.239c-1.881,2.895-3.825,5.749-5.732,8.366
					c-0.952,1.309-1.9,2.555-2.815,3.723c-0.921,1.165-1.818,2.245-2.665,3.224c-0.857,0.974-1.662,1.845-2.402,2.593
					c-0.748,0.74-1.4,1.381-1.981,1.863c-0.56,0.502-1.03,0.86-1.353,1.099c-0.319,0.242-0.489,0.371-0.489,0.371
					s0.145-0.156,0.417-0.451c0.275-0.289,0.672-0.718,1.132-1.303c0.48-0.565,1.006-1.301,1.602-2.14
					c0.588-0.847,1.217-1.825,1.878-2.907c0.652-1.089,1.333-2.281,2.024-3.559c0.686-1.282,1.388-2.643,2.086-4.066
					c1.396-2.847,2.79-5.932,4.116-9.045c2.656-6.226,5.033-12.572,6.74-17.347c0.853-2.388,1.537-4.385,2.007-5.78
					c0.458-1.386,0.719-2.177,0.719-2.177L1050.913,197.265z"/>
				<path style="clip-path:url(#SVGID_4_);fill:#0066FF;" d="M809.319,105.94c0,0-1.851,2.183-4.823,6.606
					c-2.978,4.411-7.006,11.126-11.096,20.104c-4.07,8.97-8.078,20.305-10.476,33.669c-1.191,6.676-1.941,13.855-2.062,21.415
					c-0.067,1.888,0.001,3.803,0.024,5.737l0.01,0.726l0.005,0.364l0.003,0.183c0.001-0.156,0.007,0.065,0.009,0.079
					c0.029,0.502,0.058,1.005,0.086,1.509c0.058,1.01,0.116,2.024,0.175,3.046c0.058,1.021,0.117,2.049,0.177,3.081
					c0.073,1.02,0.211,1.984,0.313,2.987c0.11,0.993,0.22,1.992,0.331,2.996c0.116,1.004,0.195,2.007,0.386,3.032
					c1.124,8.201,3.055,16.602,5.835,24.995c2.794,8.385,6.443,16.776,11.143,24.838c4.696,8.057,10.324,15.846,16.948,23.011
					c6.627,7.157,14.203,13.707,22.546,19.43c16.649,11.504,36.515,19.485,57.436,22.921c1.31,0.202,2.62,0.404,3.933,0.606
					c1.312,0.198,2.639,0.297,3.959,0.453l1.984,0.215l0.992,0.108l0.997,0.063l3.989,0.246c1.329,0.111,2.664,0.109,3.998,0.131
					l3.813,0.063l4.248-0.113l2.126-0.054c0.7-0.024,1.306-0.093,1.964-0.135l3.877-0.287c1.293-0.092,2.648-0.304,3.97-0.448
					l1.994-0.239l0.998-0.119l0.991-0.166l3.967-0.665c1.328-0.192,2.633-0.508,3.946-0.786c1.31-0.289,2.626-0.552,3.933-0.859
					l3.893-1.03l1.947-0.512l1.922-0.603c10.272-3.114,20.245-7.302,29.474-12.707l3.459-2.025l3.355-2.182
					c2.27-1.404,4.386-3.022,6.564-4.547c0.55-0.376,1.072-0.786,1.59-1.201l1.563-1.233c1.031-0.834,2.108-1.613,3.103-2.487
					l2.995-2.605c0.495-0.438,1.008-0.856,1.488-1.309l1.428-1.371l2.856-2.735c0.918-0.943,1.809-1.91,2.715-2.861
					c1.851-1.869,3.499-3.908,5.211-5.885c0.88-0.97,1.649-2.026,2.456-3.049c0.802-1.029,1.602-2.057,2.402-3.083
					c0.745-1.066,1.49-2.131,2.233-3.194c0.737-1.066,1.515-2.106,2.174-3.22c5.612-8.699,10.092-17.973,13.493-27.483
					c3.403-9.517,5.58-19.303,6.824-29.029c0.274-2.436,0.482-4.87,0.728-7.287c0.17-2.424,0.235-4.845,0.362-7.249l0.042-0.901
					c0.001-0.255,0.012,0.096,0.009-0.027l-0.002-0.235l-0.005-0.47l-0.019-1.876c-0.012-1.248-0.026-2.493-0.038-3.733
					c-0.024-1.229-0.003-2.503-0.054-3.683c-0.078-1.152-0.156-2.299-0.234-3.442c-0.075-1.146-0.15-2.287-0.224-3.425
					c-0.043-0.571-0.059-1.137-0.123-1.709l-0.223-1.721c-0.302-2.29-0.572-4.572-0.89-6.829c-0.43-2.237-0.856-4.456-1.281-6.658
					c-0.181-1.111-0.482-2.185-0.756-3.262c-0.273-1.079-0.544-2.153-0.815-3.223c-2.261-8.535-5.319-16.552-8.905-23.966
					c-3.636-7.393-7.869-14.122-12.316-20.24c-0.562-0.762-1.121-1.518-1.676-2.27c-0.278-0.376-0.556-0.751-0.832-1.125
					c-0.294-0.36-0.587-0.718-0.879-1.076c-1.171-1.43-2.327-2.842-3.466-4.233c-1.201-1.343-2.386-2.666-3.552-3.969
					c-1.163-1.31-2.403-2.512-3.574-3.746c-9.536-9.723-19.128-16.988-27.324-22.494c-8.245-5.455-15.115-9.212-19.904-11.547
					c-4.78-2.366-7.446-3.401-7.446-3.401s0.694,0.173,2.018,0.574c1.325,0.399,3.292,1.004,5.809,1.931
					c5.035,1.841,12.382,4.766,21.27,9.523c8.86,4.772,19.334,11.33,30.053,20.642c0.667,0.586,1.339,1.176,2.016,1.771
					c0.677,0.596,1.371,1.186,2.018,1.835c1.32,1.275,2.66,2.568,4.019,3.881c1.316,1.358,2.624,2.763,3.966,4.177
					c0.334,0.354,0.671,0.71,1.008,1.066c0.32,0.372,0.641,0.745,0.964,1.119c0.644,0.75,1.292,1.506,1.945,2.266
					c5.172,6.124,10.118,13.03,14.551,20.713c4.361,7.719,8.128,16.226,11.118,25.35c0.359,1.146,0.72,2.296,1.083,3.451
					c0.362,1.156,0.736,2.316,0.996,3.508c0.574,2.374,1.154,4.766,1.738,7.178c0.467,2.432,0.882,4.895,1.328,7.374l0.328,1.865
					c0.101,0.626,0.156,1.275,0.235,1.912c0.146,1.284,0.292,2.571,0.44,3.864c0.144,1.294,0.289,2.594,0.434,3.897
					c0.117,1.277,0.144,2.478,0.215,3.727c0.062,1.239,0.123,2.482,0.185,3.729l0.093,1.873l0.024,0.469l0.012,0.235
					c0.005,0.033,0.009,0.541,0.006,0.442l-0.005,0.981c-0.029,2.617-0.001,5.254-0.084,7.906c-0.159,2.649-0.285,5.319-0.482,8.001
					c-0.896,10.723-3.062,21.622-6.494,32.348c-6.85,21.441-19.258,42.117-36.411,58.588c-8.489,8.309-18.109,15.577-28.482,21.619
					c-10.343,6.105-21.495,10.874-33.012,14.395l-2.16,0.663l-2.186,0.569l-4.373,1.133c-1.467,0.34-2.944,0.632-4.416,0.948
					c-1.474,0.305-2.94,0.645-4.431,0.86l-4.454,0.726l-1.114,0.179l-1.121,0.132l-2.24,0.26c-1.504,0.159-2.962,0.376-4.502,0.484
					l-4.619,0.315c-0.758,0.044-1.564,0.116-2.281,0.136l-2.126,0.046l-4.248,0.089c-0.044,0.003-0.553,0.006-0.471,0l-0.28-0.008
					l-0.561-0.016l-1.121-0.032l-2.24-0.065c-1.492-0.045-2.986-0.068-4.47-0.206c-1.487-0.112-2.972-0.224-4.456-0.336
					l-1.112-0.086l-1.108-0.133l-2.212-0.267c-1.473-0.191-2.951-0.329-4.414-0.567c-1.461-0.244-2.921-0.488-4.38-0.732
					c-11.667-1.984-22.943-5.487-33.599-10.005l-2.001-0.839c-0.667-0.278-1.31-0.609-1.965-0.911
					c-1.304-0.618-2.606-1.235-3.905-1.85c-0.654-0.298-1.294-0.626-1.925-0.97l-1.901-1.009c-1.261-0.68-2.539-1.326-3.779-2.034
					c-4.939-2.871-9.748-5.893-14.258-9.256c-1.129-0.837-2.272-1.652-3.381-2.505c-1.087-0.882-2.173-1.761-3.256-2.639
					c-2.2-1.711-4.214-3.628-6.282-5.455c-1.046-0.9-2.008-1.889-2.988-2.851c-0.975-0.967-1.948-1.931-2.917-2.894
					c-0.946-0.985-1.845-2.013-2.764-3.013c-0.904-1.015-1.844-1.991-2.709-3.03c-7.005-8.235-12.954-17.046-17.667-26.157
					c-4.721-9.107-8.321-18.441-10.83-27.693c-0.598-2.322-1.274-4.6-1.702-6.915c-0.239-1.151-0.478-2.296-0.715-3.436
					c-0.118-0.57-0.237-1.138-0.354-1.705c-0.118-0.567-0.185-1.142-0.28-1.71c-0.344-2.278-0.713-4.529-1.023-6.762
					c-0.22-2.242-0.438-4.463-0.653-6.66c-0.129-1.089-0.151-2.211-0.207-3.314c-0.049-1.104-0.098-2.202-0.147-3.294
					c-0.039-1.084-0.115-2.19-0.122-3.236c0.007-1.034,0.014-2.064,0.022-3.086c0.007-1.023,0.014-2.039,0.022-3.05
					c0.003-0.506,0.007-1.01,0.011-1.512v-0.297l0.009-0.194l0.019-0.387l0.039-0.773c0.099-2.058,0.193-4.089,0.403-6.087
					c0.726-7.993,2.016-15.501,3.845-22.378c3.618-13.775,8.785-25.076,13.823-33.815c5.021-8.772,9.897-15.03,13.334-19.145
					c1.725-2.058,3.143-3.552,4.105-4.547C808.794,106.424,809.319,105.94,809.319,105.94"/>
			</g>
		</g>
	</g>
	<g>
		<path style="fill:#0066FF;" d="M272.316,120.399V80.116h21.973v43.945c0,39.063-7.324,58.594-21.973,58.594v-40.283h-59.253
			c-2.051,26.855-9.155,40.283-21.313,40.283V80.116h21.973v40.283H272.316z"/>
		<path style="fill:#0066FF;" d="M381.784,127.724c-0.732-6.542-3.516-12.231-8.35-17.065c-5.713-5.713-12.623-8.569-20.728-8.569
			c-8.106,0-15.015,2.856-20.728,8.569s-8.569,12.623-8.569,20.728v18.311c0,21.973-7.324,32.959-21.973,32.959v-51.27
			c0-14.159,5.004-26.244,15.015-36.255c10.009-10.009,22.094-15.015,36.255-15.015c14.16,0,26.245,5.006,36.255,15.015
			c10.009,10.011,15.015,22.096,15.015,36.255v51.27c-14.648,0-21.973-10.986-21.973-32.959v-0.952
			c-24.415-2.44-36.621-9.448-36.621-21.021H381.784z"/>
		<path style="fill:#0066FF;" d="M491.691,145.155v-6.445c0-39.062,7.324-58.594,21.973-58.594v118.066l-80.566-80.566v6.445
			c0,39.063-7.324,58.594-21.973,58.594V64.589L491.691,145.155z"/>
		<path style="fill:#0066FF;" d="M572.082,182.655h-29.297c0-14.648,9.765-21.973,29.297-21.973c8.104,0,15.015-2.856,20.728-8.569
			s8.569-12.621,8.569-20.728c0-8.104-2.856-15.015-8.569-20.728s-12.623-8.569-20.728-8.569h-29.297v54.932
			c0,17.091-7.324,25.635-21.973,25.635V80.116h51.27c14.16,0,26.245,5.006,36.255,15.015
			c10.009,10.011,15.015,22.096,15.015,36.255c0,14.161-5.006,26.246-15.015,36.255C598.327,177.65,586.242,182.655,572.082,182.655
			z"/>
		<path style="fill:#0066FF;" d="M300.645,265.625c2.285,0,4.229-0.802,5.833-2.406c1.604-1.604,2.406-3.548,2.406-5.833
			s-0.802-4.229-2.406-5.834c-1.604-1.604-3.549-2.406-5.833-2.406H256.15v19.775c0,35.157-6.592,52.734-19.775,52.734V229.37h64.27
			c7.734,0,14.337,2.735,19.808,8.207c5.472,5.471,8.207,12.074,8.207,19.809c0,6.943-2.22,12.985-6.658,18.127
			c4.438,5.142,6.658,11.185,6.658,18.127c0,7.735-2.735,14.338-8.207,19.809c-5.471,5.472-12.074,8.207-19.808,8.207H256.15
			c0-13.184,8.789-19.775,26.367-19.775h18.127c2.285,0,4.229-0.802,5.833-2.406c1.604-1.604,2.406-3.548,2.406-5.834
			c0-2.284-0.802-4.229-2.406-5.833c-1.604-1.604-3.549-2.406-5.833-2.406H256.15c0-13.184,8.789-19.775,26.367-19.775H300.645z"/>
		<path style="fill:#0066FF;" d="M407.406,272.217c-0.659-5.889-3.164-11.009-7.515-15.358c-5.142-5.143-11.36-7.713-18.655-7.713
			c-7.295,0-13.513,2.57-18.655,7.713c-5.142,5.141-7.712,11.36-7.712,18.654v16.479c0,19.775-6.592,29.663-19.775,29.663v-46.143
			c0-12.744,4.504-23.62,13.513-32.629c9.008-9.009,19.885-13.514,32.629-13.514c12.744,0,23.62,4.505,32.629,13.514
			c9.008,9.009,13.513,19.885,13.513,32.629v46.143c-13.184,0-19.775-9.888-19.775-29.663v-0.856
			c-21.973-2.197-32.959-8.504-32.959-18.919H407.406z"/>
		<path style="fill:#0066FF;" d="M453.588,301.88h72.51c0,13.184-17.579,19.775-52.734,19.775h-39.551V229.37
			c13.184,0,19.775,17.578,19.775,52.734V301.88z"/>
		<path style="fill:#0066FF;" d="M552.307,301.88h72.51c0,13.184-17.579,19.775-52.734,19.775h-39.551V229.37
			c13.184,0,19.775,17.578,19.775,52.734V301.88z"/>
	</g>
</g>
</svg>
