<?xml version="1.0" encoding="iso-8859-1"?>
<!-- Generator: Adobe Illustrator 19.1.0, SVG Export Plug-In . SVG Version: 6.00 Build 0)  -->
<svg version="1.1" id="Calque_1" xmlns="http://www.w3.org/2000/svg" xmlns:xlink="http://www.w3.org/1999/xlink" x="0px" y="0px"
	 viewBox="0 0 1200 400" style="enable-background:new 0 0 1200 400;" xml:space="preserve">
<g>
	<g>
		<path style="fill:#0066FF;" d="M103.208,120.25c2.285,0,4.229-0.802,5.833-2.406c1.604-1.604,2.406-3.548,2.406-5.834
			c0-2.284-0.802-4.229-2.406-5.833c-1.604-1.604-3.549-2.406-5.833-2.406H58.713v19.775c0,35.157-6.592,52.734-19.775,52.734
			V83.995h64.27c7.734,0,14.337,2.735,19.808,8.207c5.472,5.471,8.207,12.074,8.207,19.808c0,6.944-2.22,12.986-6.658,18.128
			c4.438,5.142,6.658,11.185,6.658,18.127c0,7.735-2.735,14.338-8.207,19.809c-5.471,5.472-12.074,8.207-19.808,8.207H58.713
			c0-13.184,8.789-19.775,26.367-19.775h18.127c2.285,0,4.229-0.802,5.833-2.406c1.604-1.604,2.406-3.548,2.406-5.834
			c0-2.284-0.802-4.229-2.406-5.833c-1.604-1.604-3.549-2.406-5.833-2.406H58.713c0-13.184,8.789-19.775,26.367-19.775H103.208z"/>
		<path style="fill:#0066FF;" d="M209.968,126.842c-0.659-5.889-3.164-11.009-7.515-15.359c-5.142-5.142-11.36-7.712-18.655-7.712
			c-7.295,0-13.513,2.57-18.655,7.712s-7.712,11.36-7.712,18.655v16.479c0,19.775-6.592,29.663-19.775,29.663v-46.143
			c0-12.744,4.504-23.62,13.513-32.63c9.008-9.008,19.885-13.513,32.629-13.513c12.744,0,23.62,4.505,32.629,13.513
			c9.008,9.01,13.513,19.886,13.513,32.63v46.143c-13.184,0-19.775-9.888-19.775-29.663v-0.856
			c-21.973-2.197-32.959-8.504-32.959-18.919H209.968z"/>
		<path style="fill:#0066FF;" d="M300.645,120.25c7.734,0,14.337,2.735,19.808,8.207c5.472,5.471,8.207,12.074,8.207,19.808
			c0,7.735-2.735,14.338-8.207,19.809c-5.471,5.472-12.074,8.207-19.808,8.207h-64.27c0-13.184,12.084-19.775,36.255-19.775h28.015
			c2.285,0,4.229-0.802,5.833-2.406c1.604-1.604,2.406-3.548,2.406-5.834c0-2.284-0.802-4.229-2.406-5.833
			c-1.604-1.604-3.549-2.406-5.833-2.406H264.39c-7.735,0-14.337-2.735-19.808-8.207c-5.472-5.471-8.207-12.073-8.207-19.809
			c0-7.733,2.735-14.337,8.207-19.808c5.471-5.472,12.073-8.207,19.808-8.207h64.27c0,13.184-12.085,19.775-36.255,19.775H264.39
			c-2.286,0-4.23,0.802-5.833,2.406c-1.605,1.604-2.406,3.549-2.406,5.833c0,2.286,0.801,4.23,2.406,5.834
			c1.604,1.604,3.548,2.406,5.833,2.406H300.645z"/>
		<path style="fill:#0066FF;" d="M354.869,123.546c0,35.157-6.592,52.734-19.775,52.734V83.995h19.775V123.546z M427.445,83.929
			l-0.066,28.081c0,7.735-2.725,14.327-8.174,19.775c-4.219,4.219-9.075,6.812-14.568,7.778
			c15.161,15.162,22.742,32.06,22.742,50.691l-50.229-50.229h-22.28c0-13.184,8.789-19.775,26.367-19.775h18.127
			c2.285,0,4.229-0.802,5.833-2.406c1.604-1.604,2.406-3.548,2.406-5.834c0-0.57-0.044-1.12-0.132-1.647h0.132
			C407.604,92.828,414.217,84.018,427.445,83.929z"/>
		<path style="fill:#0066FF;" d="M512.914,83.995c0,13.184-17.579,19.775-52.734,19.775h-26.367V83.995H512.914z M519.506,120.25
			c0,13.184-17.579,19.775-52.734,19.775h-32.959V120.25H519.506z M526.098,156.505c0,13.184-17.579,19.775-52.734,19.775h-39.551
			v-19.775H526.098z"/>
		<path style="fill:#0066FF;" d="M588.562,103.177v20.369c0,35.157-6.592,52.734-19.775,52.734v-72.51h-36.255V83.995h92.285
			C624.816,94.938,612.73,101.331,588.562,103.177z"/>
		<path style="fill:#0066FF;" d="M300.645,259.25c2.285,0,4.229-0.802,5.833-2.406c1.604-1.604,2.406-3.548,2.406-5.833
			s-0.802-4.229-2.406-5.834c-1.604-1.604-3.549-2.406-5.833-2.406H256.15v19.775c0,35.157-6.592,52.734-19.775,52.734v-92.285
			h64.27c7.734,0,14.337,2.735,19.808,8.207c5.472,5.471,8.207,12.074,8.207,19.809c0,6.943-2.22,12.985-6.658,18.127
			c4.438,5.142,6.658,11.185,6.658,18.127c0,7.735-2.735,14.338-8.207,19.809c-5.471,5.472-12.074,8.207-19.808,8.207H256.15
			c0-13.184,8.789-19.775,26.367-19.775h18.127c2.285,0,4.229-0.802,5.833-2.406c1.604-1.604,2.406-3.548,2.406-5.834
			c0-2.284-0.802-4.229-2.406-5.833c-1.604-1.604-3.549-2.406-5.833-2.406H256.15c0-13.184,8.789-19.775,26.367-19.775H300.645z"/>
		<path style="fill:#0066FF;" d="M407.406,265.842c-0.659-5.889-3.164-11.009-7.515-15.358c-5.142-5.143-11.36-7.713-18.655-7.713
			c-7.295,0-13.513,2.57-18.655,7.713c-5.142,5.141-7.712,11.36-7.712,18.654v16.479c0,19.775-6.592,29.663-19.775,29.663v-46.143
			c0-12.744,4.504-23.62,13.513-32.629c9.008-9.009,19.885-13.514,32.629-13.514c12.744,0,23.62,4.505,32.629,13.514
			c9.008,9.009,13.513,19.885,13.513,32.629v46.143c-13.184,0-19.775-9.888-19.775-29.663v-0.856
			c-21.973-2.197-32.959-8.504-32.959-18.919H407.406z"/>
		<path style="fill:#0066FF;" d="M453.588,295.505h72.51c0,13.184-17.579,19.775-52.734,19.775h-39.551v-92.285
			c13.184,0,19.775,17.578,19.775,52.734V295.505z"/>
		<path style="fill:#0066FF;" d="M552.307,295.505h72.51c0,13.184-17.579,19.775-52.734,19.775h-39.551v-92.285
			c13.184,0,19.775,17.578,19.775,52.734V295.505z"/>
	</g>
	<g>
		<g>
			<defs>
				<rect id="SVGID_1_" x="754.022" y="21.385" width="342.229" height="342.229"/>
			</defs>
			<clipPath id="SVGID_2_">
				<use xlink:href="#SVGID_1_"  style="overflow:visible;"/>
			</clipPath>
			<g style="clip-path:url(#SVGID_2_);">
				<defs>
					<rect id="SVGID_3_" x="754.022" y="21.385" width="342.229" height="342.229"/>
				</defs>
				<clipPath id="SVGID_4_">
					<use xlink:href="#SVGID_3_"  style="overflow:visible;"/>
				</clipPath>
				<path style="clip-path:url(#SVGID_4_);fill:#0066FF;" d="M893.081,44.657c0,0,0.727-0.238,2.153-0.647
					c1.427-0.404,3.551-0.997,6.357-1.629c2.805-0.638,6.285-1.352,10.418-2.007c4.133-0.66,8.923-1.238,14.337-1.521l0.509-0.03
					l0.256-0.014l0.128-0.008c0.003-0.003,0.14-0.004,0.172-0.005c0.339-0.007,0.68-0.014,1.023-0.021
					c0.686-0.014,1.382-0.028,2.086-0.042c1.409-0.025,2.852-0.051,4.329-0.078c1.482-0.012,3.038,0.088,4.61,0.13
					c1.574,0.07,3.201,0.081,4.836,0.207c1.632,0.142,3.298,0.286,4.997,0.433c0.85,0.078,1.71,0.142,2.574,0.244
					c0.861,0.123,1.73,0.246,2.607,0.371c1.753,0.257,3.547,0.488,5.361,0.783c1.806,0.352,3.642,0.71,5.509,1.073
					c1.879,0.325,3.744,0.836,5.653,1.305c1.903,0.491,3.856,0.93,5.781,1.565c1.934,0.603,3.913,1.177,5.895,1.832
					c1.964,0.712,3.954,1.433,5.971,2.164c8.003,3.102,16.17,7.068,24.272,11.961c8.097,4.897,16.072,10.803,23.677,17.673
					c7.603,6.873,14.76,14.786,21.237,23.602c6.48,8.814,12.182,18.604,16.875,29.152c4.657,10.565,8.17,21.935,10.384,33.784
					l0.431,2.222l0.327,2.245c0.214,1.499,0.428,3.001,0.643,4.507c0.122,0.752,0.187,1.51,0.255,2.269l0.209,2.279
					c0.129,1.522,0.294,3.046,0.374,4.578c0.055,1.533,0.11,3.069,0.166,4.608l0.081,2.311c0.001,0.182,0.01,0.001,0.006,0.481
					l-0.004,0.274l-0.008,0.548l-0.016,1.098c-0.021,1.464-0.042,2.931-0.063,4.4l-0.021,1.109l-0.073,1.188l-0.147,2.379
					c-0.11,1.58-0.18,3.194-0.331,4.755c-0.174,1.546-0.347,3.095-0.521,4.645l-0.264,2.329c-0.107,0.773-0.242,1.543-0.363,2.317
					c-0.25,1.545-0.5,3.092-0.75,4.641c-0.244,1.551-0.624,3.076-0.938,4.617c-0.347,1.534-0.623,3.088-1.032,4.609
					c-0.402,1.524-0.805,3.05-1.208,4.577c-0.207,0.762-0.392,1.531-0.619,2.288l-0.711,2.264
					c-7.35,24.237-20.697,47.056-38.587,65.637l-3.401,3.439c-1.129,1.15-2.359,2.198-3.535,3.3l-1.783,1.633
					c-0.594,0.545-1.183,1.094-1.813,1.598l-3.72,3.09c-0.624,0.509-1.231,1.04-1.87,1.53l-1.932,1.452l-3.866,2.897
					c-1.314,0.929-2.662,1.812-3.991,2.717c-1.344,0.884-2.641,1.838-4.036,2.641c-10.902,6.825-22.631,12.211-34.692,16.15
					c-12.066,3.957-24.519,6.254-36.852,7.196c-3.087,0.201-6.161,0.474-9.231,0.457c-1.534,0.024-3.065,0.047-4.593,0.071
					l-1.355,0.013l-1.092-0.04l-2.182-0.081c-1.453-0.053-2.904-0.107-4.352-0.162c-0.368-0.018-0.711-0.016-1.098-0.051
					l-1.162-0.106l-2.319-0.214c-1.543-0.146-3.083-0.291-4.621-0.435c-1.532-0.154-2.995-0.424-4.489-0.63
					c-11.889-1.747-23.396-4.754-34.143-8.975c-10.751-4.203-20.794-9.46-29.888-15.542c-9.094-6.083-17.302-12.89-24.521-20.146
					c-7.212-7.266-13.499-14.916-18.844-22.703c-5.336-7.796-9.798-15.68-13.419-23.449c-0.445-0.975-0.886-1.943-1.326-2.906
					c-0.219-0.48-0.437-0.96-0.654-1.437c-0.198-0.487-0.394-0.972-0.59-1.455c-0.774-1.938-1.559-3.837-2.289-5.726
					c-0.669-1.911-1.328-3.795-1.977-5.652c-0.344-0.92-0.601-1.863-0.877-2.791c-0.273-0.927-0.544-1.848-0.813-2.761
					c-2.057-7.326-3.599-14.285-4.383-20.807c-0.114-0.812-0.225-1.615-0.336-2.41c-0.096-0.797-0.149-1.592-0.224-2.374
					c-0.139-1.564-0.274-3.094-0.407-4.589c-0.088-1.498-0.122-2.965-0.175-4.392c-0.036-1.428-0.133-2.816-0.075-4.174
					c0.025-1.355,0.049-2.673,0.073-3.954c0.014-0.643,0.028-1.276,0.042-1.899c0.033-0.613,0.064-1.218,0.096-1.812
					c0.119-2.372,0.298-4.63,0.465-6.711c0.348-4.164,0.782-7.696,1.253-10.541c0.459-2.848,1.005-5.001,1.476-6.416
					c0.224-0.71,0.457-1.229,0.615-1.572c0.171-0.338,0.286-0.491,0.286-0.491s-0.096,0.166-0.226,0.517
					c-0.117,0.357-0.285,0.888-0.425,1.613c-0.307,1.441-0.571,3.615-0.749,6.459c-0.175,2.845-0.246,6.364-0.166,10.501
					c0.084,4.119,0.255,8.918,0.695,14.157c0.064,1.317,0.283,2.66,0.446,4.039c0.183,1.377,0.332,2.79,0.539,4.229
					c0.25,1.433,0.507,2.899,0.769,4.398c0.135,0.747,0.25,1.506,0.407,2.266c0.172,0.757,0.346,1.522,0.521,2.295
					c1.305,6.197,3.255,12.773,5.767,19.61c0.324,0.851,0.65,1.71,0.978,2.575c0.331,0.864,0.643,1.741,1.031,2.598
					c0.74,1.725,1.491,3.475,2.253,5.251c0.82,1.749,1.693,3.505,2.552,5.292c0.217,0.446,0.435,0.893,0.653,1.341
					c0.238,0.439,0.478,0.88,0.717,1.322c0.479,0.884,0.962,1.773,1.447,2.667c3.935,7.123,8.566,14.328,14.036,21.335
					c5.457,7.012,11.686,13.877,18.76,20.265c7.062,6.394,14.908,12.376,23.528,17.575c17.179,10.47,37.443,17.823,59.089,20.333
					c1.346,0.146,2.717,0.361,4.049,0.453c1.329,0.086,2.661,0.173,3.995,0.259l2.001,0.135l1.001,0.069
					c0.335,0.022,0.717,0.015,1.073,0.025c1.449,0.023,2.9,0.047,4.354,0.07l2.183,0.036l1.093,0.018
					c-0.333-0.008,0.057-0.008,0.051-0.012l0.26-0.01l0.522-0.02c1.389-0.051,2.78-0.103,4.174-0.154
					c2.792-0.036,5.57-0.351,8.361-0.588c5.578-0.513,11.135-1.427,16.661-2.569c1.394-0.228,2.75-0.633,4.127-0.952
					c1.372-0.337,2.746-0.674,4.121-1.012c1.363-0.381,2.713-0.815,4.073-1.218c1.351-0.428,2.729-0.781,4.064-1.268
					c10.764-3.649,21.123-8.653,30.852-14.742c1.246-0.715,2.396-1.582,3.593-2.374c1.183-0.815,2.385-1.604,3.556-2.437l3.44-2.606
					l1.723-1.301c0.57-0.44,1.108-0.919,1.664-1.377l3.313-2.773c0.563-0.45,1.086-0.946,1.615-1.437l1.587-1.468
					c1.047-0.992,2.147-1.926,3.151-2.962l3.036-3.084c0.503-0.516,1.027-1.013,1.514-1.546l1.447-1.609l2.898-3.216l2.747-3.346
					c0.909-1.12,1.851-2.214,2.686-3.394l2.58-3.475l0.645-0.868l0.605-0.897l1.205-1.795c0.794-1.203,1.631-2.378,2.391-3.602
					l2.24-3.695c5.926-9.878,10.628-20.432,14.122-31.271l0.669-2.028c0.213-0.678,0.385-1.369,0.58-2.052
					c0.38-1.369,0.76-2.737,1.14-4.103c0.39-1.364,0.647-2.758,0.977-4.134l0.472-2.068c0.157-0.689,0.333-1.374,0.444-2.07
					c0.253-1.388,0.506-2.775,0.758-4.159c0.123-0.693,0.261-1.383,0.373-2.077l0.277-2.088c0.186-1.392,0.372-2.782,0.558-4.169
					c0.162-1.377,0.24-2.715,0.368-4.071l0.177-2.026l0.09-1.012l0.043-1.094c0.051-1.468,0.103-2.934,0.154-4.398l0.038-1.097
					l0.019-0.548l0.01-0.274c-0.004,0.297-0.005-0.067-0.005-0.067l-0.033-2.068c-0.021-1.379-0.04-2.756-0.06-4.13
					c-0.038-1.374-0.175-2.741-0.246-4.109l-0.126-2.05c-0.04-0.683-0.076-1.366-0.168-2.043c-0.155-1.358-0.309-2.712-0.463-4.065
					l-0.232-2.027l-0.333-2.01c-1.669-10.729-4.606-21.085-8.445-30.866c-3.896-9.765-8.842-18.873-14.408-27.251
					c-11.179-16.756-25.157-30.314-39.762-40.348c-7.294-5.052-14.766-9.205-22.122-12.662c-7.358-3.476-14.694-5.984-21.673-8.071
					c-1.759-0.485-3.489-0.961-5.191-1.43c-1.715-0.414-3.416-0.765-5.082-1.141c-0.834-0.185-1.661-0.368-2.48-0.55
					c-0.823-0.164-1.645-0.281-2.456-0.427c-1.626-0.279-3.22-0.554-4.783-0.823c-1.564-0.255-3.094-0.389-4.597-0.585
					c-1.508-0.166-2.96-0.389-4.429-0.502c-1.475-0.101-2.915-0.201-4.32-0.298c-0.702-0.05-1.396-0.099-2.081-0.148
					c-0.342-0.025-0.682-0.049-1.021-0.073c-0.32-0.011-0.637-0.023-0.951-0.034c-10.563-0.358-18.946,0.38-24.611,1.072
					C896.084,44.043,893.081,44.657,893.081,44.657"/>
				<path style="clip-path:url(#SVGID_4_);fill:#0066FF;" d="M782.199,139.112c0,0,0.799,1.048,2.357,2.942
					c0.774,0.95,1.757,2.1,2.899,3.452c1.173,1.333,2.495,2.874,4.027,4.556c3.059,3.365,6.817,7.385,11.298,11.794
					c4.489,4.401,9.671,9.212,15.511,14.194c5.817,5.006,12.35,10.124,19.466,15.179c0.888,0.634,1.782,1.271,2.681,1.913
					c0.915,0.619,1.836,1.242,2.762,1.869c0.927,0.625,1.859,1.253,2.796,1.885c0.468,0.316,0.938,0.632,1.409,0.95
					c0.483,0.3,0.966,0.602,1.451,0.904c1.943,1.204,3.899,2.426,5.859,3.678c2.009,1.172,4.037,2.357,6.081,3.551l1.536,0.894
					l1.577,0.838c1.049,0.564,2.103,1.13,3.161,1.698c1.053,0.574,2.109,1.151,3.169,1.729c1.083,0.534,2.17,1.07,3.26,1.607
					c1.089,0.538,2.181,1.077,3.276,1.618l1.644,0.812c0.553,0.261,1.119,0.499,1.679,0.749c2.235,1.013,4.48,2.03,6.734,3.051
					c2.277,0.968,4.596,1.864,6.901,2.806c2.295,0.969,4.656,1.787,7.006,2.645l3.53,1.284l1.767,0.643l1.797,0.561
					c2.395,0.749,4.792,1.5,7.19,2.251c1.189,0.406,2.415,0.691,3.624,1.034l3.634,0.994l3.63,0.995
					c1.212,0.322,2.446,0.559,3.665,0.843c2.446,0.543,4.887,1.088,7.314,1.669c2.446,0.489,4.9,0.912,7.337,1.371
					c1.22,0.225,2.437,0.45,3.652,0.676c1.214,0.235,2.444,0.348,3.661,0.53c2.437,0.355,4.863,0.708,7.274,1.06
					c0.604,0.083,1.204,0.188,1.808,0.253l1.812,0.175c1.207,0.116,2.41,0.233,3.608,0.348c2.399,0.21,4.776,0.522,7.144,0.72
					c2.374,0.139,4.728,0.276,7.06,0.412c1.168,0.069,2.33,0.138,3.486,0.205c0.578,0.04,1.155,0.08,1.731,0.119
					c-0.329,0.008-0.027,0.003-0.073,0.005l0.111,0.002l0.222,0.004l0.443,0.008l0.884,0.016c2.354,0.042,4.682,0.083,6.982,0.124
					c1.143,0.015,2.179-0.055,3.266-0.077c1.075-0.024,2.143-0.049,3.204-0.073c1.067-0.034,2.111-0.009,3.181-0.089
					c1.068-0.071,2.129-0.142,3.182-0.212c1.055-0.07,2.102-0.139,3.14-0.207c0.519-0.034,1.038-0.068,1.553-0.103
					c0.515-0.051,1.027-0.103,1.537-0.153c2.045-0.203,4.056-0.402,6.03-0.598c1.972-0.231,3.896-0.543,5.799-0.772
					c7.58-1.064,14.536-2.335,20.661-3.724c3.088-0.615,5.918-1.409,8.589-2.011c2.635-0.701,5.077-1.318,7.259-1.95
					c4.385-1.218,7.805-2.308,10.142-3.06c2.336-0.755,3.573-1.206,3.573-1.206s-0.27,0.188-0.793,0.551
					c-0.526,0.363-1.309,0.895-2.355,1.554c-2.088,1.318-5.19,3.214-9.287,5.353c-2.03,1.119-4.344,2.203-6.854,3.438
					c-1.264,0.593-2.591,1.185-3.97,1.798c-0.691,0.305-1.395,0.615-2.11,0.932c-0.723,0.297-1.458,0.6-2.205,0.908
					c-1.498,0.61-3.038,1.267-4.653,1.856c-1.618,0.591-3.283,1.199-4.99,1.823c-1.706,0.645-3.502,1.151-5.322,1.749
					c-0.913,0.29-1.836,0.583-2.771,0.88c-0.936,0.29-1.895,0.537-2.859,0.812c-1.93,0.538-3.906,1.081-5.933,1.589
					c-2.04,0.463-4.118,0.936-6.231,1.416c-0.53,0.12-1.062,0.241-1.595,0.361c-0.539,0.096-1.08,0.192-1.624,0.289
					c-1.088,0.19-2.185,0.381-3.291,0.572c-1.107,0.192-2.224,0.385-3.348,0.58c-1.12,0.203-2.303,0.309-3.467,0.47
					c-2.328,0.292-4.75,0.598-7.111,0.821c-2.295,0.159-4.618,0.32-6.966,0.483l-0.882,0.062l-0.442,0.031l-0.221,0.015
					l-0.111,0.008c-0.118,0.003,0.109,0.004-0.294,0.009c-0.606,0.012-1.214,0.024-1.823,0.036c-1.22,0.012-2.446,0.023-3.678,0.036
					c-2.467,0.023-4.958,0.046-7.469,0.068c-2.511-0.05-5.046-0.163-7.598-0.285c-1.277-0.062-2.558-0.123-3.843-0.185l-1.932-0.094
					c-0.645-0.038-1.288-0.116-1.934-0.172c-5.157-0.526-10.411-0.866-15.634-1.803c-2.619-0.412-5.255-0.791-7.888-1.24
					c-2.621-0.521-5.243-1.081-7.87-1.645c-1.311-0.292-2.635-0.537-3.939-0.869l-3.909-1.027l-3.914-1.03
					c-1.3-0.361-2.622-0.645-3.9-1.086c-10.334-3.151-20.45-7.005-30.098-11.466c-2.384-1.171-4.759-2.338-7.122-3.499
					c-0.587-0.298-1.179-0.584-1.758-0.892l-1.72-0.954c-1.144-0.635-2.285-1.269-3.422-1.901c-1.136-0.632-2.269-1.261-3.398-1.889
					c-1.104-0.672-2.203-1.342-3.299-2.01c-1.091-0.674-2.178-1.345-3.26-2.014l-1.616-1.008l-1.573-1.061
					c-2.086-1.416-4.155-2.821-6.205-4.212c-2.004-1.454-3.964-2.929-5.901-4.383c-0.485-0.364-0.967-0.727-1.448-1.089
					c-0.469-0.378-0.936-0.756-1.402-1.132c-0.932-0.752-1.858-1.5-2.778-2.244c-0.917-0.745-1.829-1.485-2.735-2.221
					c-0.876-0.772-1.747-1.539-2.611-2.3c-3.48-3.014-6.726-6.097-9.816-9.116c-1.508-1.546-2.99-3.066-4.446-4.558
					c-1.435-1.509-2.804-3.027-4.142-4.511c-5.317-5.976-9.847-11.724-13.612-16.981c-3.755-5.268-6.743-10.043-9.056-14.048
					c-2.323-4-3.951-7.248-4.995-9.489C782.672,140.34,782.199,139.112,782.199,139.112"/>
				<path style="clip-path:url(#SVGID_4_);fill:#0066FF;" d="M852.013,57.889c0,0,1.076,0.476,3.012,1.541
					c1.934,1.066,4.732,2.719,8.129,5.092c3.402,2.365,7.411,5.444,11.714,9.357c4.302,3.909,8.903,8.649,13.45,14.276
					c4.551,5.621,8.973,12.182,12.911,19.59c3.915,7.41,7.37,15.669,9.815,24.58c0.288,1.118,0.578,2.24,0.868,3.368
					c0.287,1.129,0.604,2.258,0.805,3.414c0.227,1.152,0.456,2.308,0.684,3.467c0.111,0.581,0.236,1.161,0.335,1.746l0.263,1.762
					c0.346,2.354,0.736,4.723,0.927,7.121c0.112,1.199,0.222,2.401,0.334,3.606c0.099,1.205,0.118,2.415,0.18,3.628
					c0.048,1.213,0.096,2.428,0.145,3.647c-0.018,1.235-0.037,2.472-0.055,3.71c-0.019,1.15-0.038,2.303-0.057,3.456l-0.038,1.731
					l-0.022,0.869l-0.076,0.941c-0.207,2.509-0.407,5.026-0.643,7.542c-0.084,1.277-0.323,2.469-0.498,3.696l-0.57,3.662
					c-1.679,9.739-4.459,19.352-8.357,28.334c-1.042,2.216-2.016,4.451-3.112,6.612c-1.173,2.124-2.328,4.241-3.506,6.324
					c-1.283,2.019-2.558,4.026-3.824,6.018c-1.348,1.935-2.768,3.797-4.137,5.665c-5.671,7.335-12.006,13.662-18.453,19.006
					c-3.248,2.647-6.478,5.109-9.729,7.293c-1.593,1.136-3.256,2.107-4.84,3.122c-1.58,1.021-3.189,1.925-4.762,2.806
					c-6.3,3.52-12.3,6.23-17.714,8.312c-5.417,2.078-10.24,3.548-14.248,4.574c-4.009,1.026-7.201,1.616-9.382,1.958
					c-2.182,0.341-3.355,0.433-3.355,0.433s1.084-0.457,3.066-1.385c1.981-0.928,4.858-2.326,8.433-4.216
					c3.565-1.91,7.829-4.311,12.537-7.284c4.708-2.971,9.873-6.496,15.188-10.663c1.312-1.065,2.699-2.077,4.016-3.234
					c1.326-1.142,2.726-2.237,4.034-3.486c2.693-2.403,5.391-4.96,8.023-7.704c5.288-5.461,10.353-11.624,14.876-18.409
					c1.082-1.723,2.173-3.461,3.272-5.211c1.008-1.797,2.023-3.608,3.044-5.429c0.908-1.876,1.822-3.763,2.741-5.66
					c0.876-1.914,1.639-3.89,2.474-5.84c3.107-7.904,5.379-16.268,6.849-24.818l0.518-3.216c0.16-1.068,0.39-2.154,0.453-3.195
					c0.194-2.101,0.424-4.197,0.645-6.293l0.085-0.785l0.036-0.862l0.068-1.73c0.051-1.152,0.101-2.303,0.152-3.452
					c0.047-1.061,0.094-2.12,0.142-3.178c-0.007-1.075-0.014-2.148-0.022-3.218c-0.014-1.071,0.015-2.143-0.031-3.208
					c-0.055-1.064-0.109-2.127-0.164-3.186c-0.047-2.127-0.285-4.223-0.474-6.316c-0.405-4.183-1.103-8.275-1.836-12.303
					c-1.607-8.026-3.954-15.652-6.743-22.714c-2.788-7.063-5.997-13.581-9.398-19.391c-3.376-5.827-6.878-10.99-10.187-15.45
					c-3.305-4.467-6.448-8.203-9.121-11.229c-2.683-3.016-4.903-5.317-6.452-6.86C852.886,58.678,852.013,57.889,852.013,57.889"/>
				<path style="clip-path:url(#SVGID_4_);fill:#0066FF;" d="M977.269,49.904c0,0,0.291,1.177,0.719,3.415
					c0.419,2.237,0.962,5.534,1.478,9.756c0.501,4.22,0.975,9.366,1.291,15.285c0.277,5.915,0.461,12.611,0.305,19.907
					c0.002,1.829-0.089,3.687-0.161,5.584c-0.083,1.896-0.131,3.834-0.246,5.798c-0.23,3.927-0.502,7.992-0.891,12.157
					c-0.719,8.342-1.864,17.098-3.298,26.122c-0.773,4.499-1.516,9.09-2.5,13.685c-0.467,2.305-0.938,4.623-1.41,6.953
					c-0.509,2.322-1.075,4.642-1.613,6.979c-2.17,9.347-4.81,18.732-7.653,28.051c-1.459,4.647-3.02,9.262-4.56,13.862
					c-1.637,4.566-3.309,9.099-4.99,13.586c-0.893,2.222-1.782,4.437-2.667,6.64c-0.906,2.194-1.806,4.377-2.701,6.547
					c-1.89,4.298-3.738,8.548-5.635,12.693c-0.986,2.055-1.965,4.092-2.934,6.11c-0.965,2.018-1.938,4.01-2.917,5.971
					c-0.951,1.975-1.989,3.881-2.982,5.778c-0.999,1.895-1.977,3.769-2.977,5.601c-1.004,1.83-1.941,3.659-2.959,5.413
					c-1.012,1.757-1.99,3.495-2.991,5.183c-0.992,1.691-1.969,3.354-2.927,4.986c-0.953,1.633-1.886,3.235-2.886,4.759
					c-3.912,6.14-7.433,11.784-10.883,16.587c-3.404,4.829-6.32,9.053-8.966,12.376c-5.175,6.718-8.288,10.424-8.288,10.424
					s1.838-4.513,5.33-12.178c1.789-3.808,3.758-8.537,6.158-13.86c0.588-1.337,1.214-2.706,1.858-4.115
					c0.661-1.399,1.248-2.887,1.899-4.387c1.28-3.012,2.674-6.148,4.099-9.431c0.359-0.819,0.722-1.646,1.089-2.482
					c0.352-0.843,0.707-1.693,1.066-2.552c0.716-1.716,1.446-3.464,2.189-5.243c0.734-1.781,1.52-3.572,2.3-5.397
					c0.793-1.82,1.501-3.712,2.272-5.604c1.491-3.807,3.188-7.637,4.708-11.644c1.504-4.013,3.166-8.054,4.763-12.2
					c1.507-4.182,3.12-8.397,4.733-12.669c0.757-2.154,1.519-4.322,2.285-6.5c0.78-2.171,1.563-4.354,2.35-6.545
					c1.497-4.407,3.005-8.847,4.519-13.307c1.402-4.493,2.914-8.971,4.309-13.484c2.767-9.033,5.487-18.081,7.895-27.063
					c2.525-8.955,4.671-17.852,6.777-26.468c1.977-8.64,3.886-17.011,5.438-25.005c1.631-7.983,2.986-15.576,4.17-22.609
					c0.293-1.76,0.58-3.485,0.86-5.169c0.258-1.689,0.511-3.339,0.756-4.947c0.537-3.218,0.893-6.283,1.335-9.164
					c0.788-5.767,1.383-10.817,1.862-14.992c0.439-4.174,0.76-7.472,0.955-9.727C977.19,51.116,977.269,49.904,977.269,49.904"/>
				<path style="clip-path:url(#SVGID_4_);fill:#0066FF;" d="M1071.724,144.359c0,0-0.595,0.6-1.71,1.726
					c-1.104,1.129-2.703,2.795-4.709,4.906c-1.995,2.127-4.383,4.718-7.056,7.712c-2.673,2.996-5.608,6.422-8.719,10.19
					c-0.76,0.96-1.56,1.912-2.365,2.89c-0.783,0.995-1.581,2.009-2.393,3.04c-0.814,1.026-1.62,2.085-2.44,3.156
					c-0.816,1.075-1.666,2.143-2.464,3.279c-3.318,4.435-6.594,9.24-9.849,14.252c-3.279,5.001-6.34,10.339-9.311,15.801
					c-0.726,1.374-1.454,2.754-2.184,4.138c-0.682,1.405-1.366,2.814-2.051,4.226c-0.337,0.708-0.71,1.4-1.018,2.122l-0.953,2.154
					l-0.964,2.151c-0.324,0.716-0.653,1.43-0.927,2.166l-1.768,4.363l-0.441,1.09l-0.395,1.105l-0.799,2.206
					c-0.514,1.474-1.108,2.922-1.547,4.413c-0.474,1.481-0.947,2.958-1.417,4.429c-0.256,0.731-0.461,1.473-0.656,2.217
					c-0.203,0.742-0.404,1.483-0.606,2.221c-0.208,0.738-0.416,1.474-0.623,2.207c-0.215,0.733-0.418,1.467-0.569,2.209
					c-0.346,1.478-0.69,2.947-1.031,4.405c-0.162,0.732-0.367,1.454-0.502,2.186c-0.138,0.732-0.275,1.461-0.412,2.186
					c-0.283,1.454-0.563,2.897-0.841,4.325c-0.157,0.713-0.218,1.435-0.332,2.147c-0.107,0.715-0.213,1.425-0.319,2.132
					c-0.203,1.415-0.44,2.816-0.63,4.205c-0.142,1.393-0.277,2.772-0.44,4.135c-0.078,0.682-0.155,1.36-0.233,2.033
					c-0.039,0.337-0.077,0.673-0.116,1.008l-0.029,0.25l-0.014,0.125l-0.008,0.063c-0.003-0.044-0.003,0.185-0.008-0.082
					l-0.032,0.522c-0.088,1.389-0.154,2.755-0.265,4.1c-0.05,0.672-0.1,1.339-0.15,2c-0.045,0.654-0.043,1.234-0.068,1.848
					c-0.042,1.211-0.063,2.404-0.129,3.582c-0.054,1.178,0.007,2.34,0.003,3.48c0.014,1.139,0.003,2.268,0.088,3.331
					c0.061,1.081,0.121,2.133,0.179,3.157c0.118,1.009,0.233,1.989,0.344,2.938c0.509,3.788,1.317,7.03,2.373,9.556
					c1.051,2.529,2.371,4.295,3.471,5.335c0.289,0.248,0.544,0.467,0.765,0.656c0.242,0.168,0.446,0.309,0.61,0.423
					c0.177,0.097,0.311,0.171,0.402,0.22c0.094,0.042,0.143,0.064,0.143,0.064s-0.053,0-0.159,0
					c-0.105-0.008-0.263-0.022-0.471-0.039c-0.208-0.04-0.465-0.088-0.772-0.146c-0.296-0.088-0.643-0.197-1.041-0.333
					c-1.544-0.582-3.728-1.923-5.823-4.296c-2.12-2.347-4.132-5.641-5.856-9.623c-1.788-3.993-3.021-8.645-4.132-13.811
					c-0.245-1.305-0.45-2.647-0.679-4.019c-0.105-0.678-0.239-1.399-0.323-2.064c-0.079-0.658-0.159-1.321-0.24-1.99
					c-0.171-1.338-0.299-2.7-0.45-4.083l-0.055-0.519l-0.005-0.212l-0.003-0.068l-0.008-0.136l-0.014-0.272
					c-0.02-0.363-0.039-0.728-0.059-1.094c-0.039-0.733-0.078-1.471-0.117-2.214c-0.086-1.489-0.142-3.001-0.205-4.533
					c-0.022-1.531,0.032-3.081,0.057-4.652c0.039-1.569,0.037-3.164,0.142-4.764c0.133-1.601,0.266-3.216,0.402-4.846
					c0.072-0.816,0.144-1.635,0.217-2.458c0.066-0.824,0.22-1.638,0.331-2.462c0.246-1.647,0.494-3.306,0.743-4.975
					c0.116-0.838,0.282-1.667,0.461-2.496c0.172-0.832,0.346-1.665,0.519-2.5c0.18-0.835,0.361-1.672,0.542-2.511
					c0.175-0.841,0.362-1.681,0.599-2.509c0.912-3.321,1.767-6.697,2.951-9.979l0.836-2.481l0.422-1.242l0.48-1.219l1.938-4.875
					c0.315-0.817,0.686-1.608,1.05-2.402l1.09-2.382c0.719-1.591,1.46-3.169,2.281-4.701c0.797-1.543,1.6-3.081,2.417-4.603
					c0.871-1.491,1.738-2.977,2.602-4.458c3.556-5.853,7.359-11.417,11.45-16.452c4.072-5.045,8.226-9.722,12.48-13.826
					c4.227-4.125,8.398-7.817,12.431-10.986c4.036-3.166,7.852-5.889,11.345-8.132c3.498-2.238,6.624-4.048,9.257-5.43
					c2.632-1.387,4.754-2.365,6.216-2.997C1070.924,144.643,1071.724,144.359,1071.724,144.359"/>
			</g>
		</g>
	</g>
</g>
</svg>
