<?xml version="1.0" encoding="iso-8859-1"?>
<!-- Generator: Adobe Illustrator 19.1.0, SVG Export Plug-In . SVG Version: 6.00 Build 0)  -->
<svg version="1.1" id="Calque_2" xmlns="http://www.w3.org/2000/svg" xmlns:xlink="http://www.w3.org/1999/xlink" x="0px" y="0px"
	 viewBox="0 0 1200 400" style="enable-background:new 0 0 1200 400;" xml:space="preserve">
<g>
	<g>
		<g>
			<defs>
				<rect id="SVGID_1_" x="705.895" y="0" width="431.615" height="431.615"/>
			</defs>
			<clipPath id="SVGID_2_">
				<use xlink:href="#SVGID_1_"  style="overflow:visible;"/>
			</clipPath>
			<g style="clip-path:url(#SVGID_2_);">
				<defs>
					<rect id="SVGID_3_" x="705.895" y="0" width="431.615" height="431.615"/>
				</defs>
				<clipPath id="SVGID_4_">
					<use xlink:href="#SVGID_3_"  style="overflow:visible;"/>
				</clipPath>
				<path style="clip-path:url(#SVGID_4_);" d="M799.129,252.946c0,0,0.193-0.672,0.554-1.931c0.367-1.258,0.879-3.111,1.582-5.453
					c0.696-2.344,1.53-5.193,2.531-8.447c0.989-3.258,2.105-6.933,3.365-10.928c1.247-3.999,2.598-8.332,4.078-12.898
					c1.469-4.569,3-9.394,4.655-14.36c1.651-4.968,3.304-10.119,5.08-15.321c1.762-5.207,3.551-10.496,5.341-15.785
					c1.831-5.274,3.662-10.55,5.464-15.742c1.783-5.199,3.643-10.28,5.386-15.216c1.741-4.937,3.488-9.687,5.134-14.196
					c1.633-4.513,3.222-8.764,4.693-12.687c1.456-3.928,2.83-7.515,4.049-10.694c1.207-3.184,2.296-5.946,3.185-8.223
					c0.882-2.28,1.614-4.058,2.097-5.276c0.488-1.216,0.748-1.865,0.748-1.865s-0.193,0.672-0.553,1.931
					c-0.366,1.258-0.878,3.111-1.581,5.453c-0.695,2.344-1.53,5.194-2.529,8.448c-0.988,3.259-2.105,6.934-3.365,10.929
					c-1.245,4-2.598,8.332-4.077,12.898c-1.467,4.569-3.001,9.393-4.655,14.359c-1.652,4.968-3.3,10.121-5.082,15.321
					c-1.763,5.206-3.553,10.495-5.343,15.783c-1.832,5.275-3.663,10.55-5.466,15.742c-1.789,5.198-3.644,10.279-5.387,15.215
					c-1.74,4.938-3.492,9.686-5.135,14.196c-1.632,4.513-3.224,8.763-4.693,12.686c-1.455,3.929-2.83,7.515-4.047,10.695
					c-1.207,3.184-2.296,5.946-3.184,8.224c-0.881,2.28-1.614,4.058-2.096,5.276C799.389,252.297,799.129,252.946,799.129,252.946"
					/>
				<path style="clip-path:url(#SVGID_4_);" d="M820.606,262.721c0,0,0.193-0.672,0.554-1.931c0.367-1.258,0.879-3.111,1.582-5.453
					c0.697-2.344,1.531-5.193,2.531-8.447c0.989-3.258,2.105-6.933,3.366-10.928c1.247-3.999,2.597-8.332,4.077-12.898
					c1.469-4.569,3-9.394,4.655-14.36c1.651-4.968,3.305-10.119,5.08-15.321c1.762-5.207,3.551-10.496,5.341-15.785
					c1.831-5.274,3.662-10.55,5.464-15.742c1.783-5.199,3.643-10.28,5.386-15.216c1.741-4.937,3.488-9.687,5.134-14.196
					c1.633-4.513,3.222-8.764,4.693-12.687c1.456-3.928,2.83-7.515,4.049-10.694c1.207-3.184,2.296-5.946,3.185-8.223
					c0.882-2.28,1.615-4.058,2.097-5.276c0.488-1.216,0.748-1.865,0.748-1.865s-0.193,0.672-0.554,1.931
					c-0.366,1.258-0.878,3.111-1.581,5.453c-0.695,2.344-1.53,5.194-2.529,8.448c-0.988,3.259-2.105,6.933-3.365,10.929
					c-1.245,4-2.598,8.333-4.077,12.898c-1.467,4.569-3.001,9.393-4.655,14.359c-1.651,4.968-3.3,10.121-5.082,15.321
					c-1.763,5.206-3.553,10.494-5.343,15.783c-1.831,5.275-3.663,10.55-5.466,15.742c-1.789,5.197-3.644,10.279-5.387,15.215
					c-1.74,4.938-3.492,9.686-5.135,14.196c-1.632,4.513-3.224,8.763-4.693,12.686c-1.455,3.929-2.83,7.515-4.047,10.695
					c-1.207,3.184-2.296,5.946-3.185,8.224c-0.881,2.28-1.613,4.058-2.096,5.276C820.866,262.072,820.606,262.721,820.606,262.721"
					/>
				<path style="clip-path:url(#SVGID_4_);" d="M841.761,271.294c0,0,0.193-0.672,0.554-1.931c0.367-1.258,0.879-3.111,1.582-5.453
					c0.696-2.344,1.53-5.193,2.531-8.447c0.989-3.258,2.105-6.933,3.365-10.928c1.247-3.999,2.598-8.332,4.078-12.898
					c1.469-4.569,3-9.394,4.655-14.36c1.651-4.968,3.304-10.119,5.08-15.321c1.762-5.207,3.551-10.496,5.341-15.785
					c1.831-5.274,3.662-10.55,5.464-15.742c1.783-5.199,3.643-10.28,5.386-15.216c1.741-4.937,3.488-9.687,5.134-14.196
					c1.633-4.513,3.222-8.764,4.693-12.687c1.456-3.928,2.83-7.515,4.049-10.694c1.207-3.184,2.296-5.946,3.185-8.223
					c0.882-2.28,1.614-4.058,2.097-5.276c0.488-1.216,0.748-1.865,0.748-1.865s-0.193,0.672-0.553,1.931
					c-0.366,1.258-0.878,3.111-1.581,5.453c-0.696,2.344-1.53,5.194-2.529,8.448c-0.988,3.259-2.105,6.934-3.365,10.929
					c-1.245,4-2.598,8.332-4.077,12.898c-1.467,4.569-3.001,9.393-4.655,14.359c-1.652,4.968-3.3,10.121-5.082,15.321
					c-1.763,5.206-3.553,10.495-5.343,15.783c-1.832,5.275-3.663,10.55-5.466,15.742c-1.789,5.198-3.644,10.279-5.387,15.215
					c-1.74,4.938-3.492,9.686-5.135,14.196c-1.632,4.513-3.224,8.763-4.693,12.686c-1.455,3.929-2.83,7.515-4.047,10.695
					c-1.207,3.184-2.296,5.946-3.184,8.224c-0.881,2.28-1.614,4.058-2.096,5.276C842.021,270.645,841.761,271.294,841.761,271.294"
					/>
				<path style="clip-path:url(#SVGID_4_);" d="M862.631,280.595c0,0,0.193-0.672,0.554-1.931c0.367-1.258,0.879-3.111,1.582-5.453
					c0.697-2.344,1.531-5.193,2.531-8.447c0.989-3.258,2.105-6.933,3.366-10.928c1.247-3.999,2.597-8.332,4.077-12.898
					c1.469-4.569,3-9.394,4.655-14.36c1.651-4.968,3.305-10.119,5.08-15.321c1.762-5.207,3.551-10.496,5.341-15.785
					c1.831-5.274,3.662-10.55,5.464-15.742c1.783-5.199,3.643-10.28,5.386-15.216c1.741-4.937,3.488-9.687,5.134-14.196
					c1.633-4.513,3.222-8.764,4.693-12.687c1.456-3.928,2.83-7.515,4.049-10.694c1.207-3.184,2.296-5.946,3.185-8.223
					c0.882-2.28,1.615-4.058,2.097-5.276c0.488-1.216,0.748-1.865,0.748-1.865s-0.193,0.672-0.554,1.931
					c-0.366,1.258-0.878,3.111-1.581,5.453c-0.695,2.344-1.53,5.194-2.529,8.448c-0.988,3.259-2.105,6.933-3.365,10.928
					c-1.245,4-2.598,8.333-4.077,12.898c-1.467,4.569-3.001,9.393-4.655,14.359c-1.651,4.968-3.3,10.121-5.082,15.321
					c-1.763,5.206-3.553,10.494-5.343,15.783c-1.832,5.275-3.663,10.55-5.466,15.742c-1.789,5.198-3.644,10.279-5.387,15.215
					c-1.74,4.938-3.492,9.686-5.135,14.196c-1.632,4.513-3.224,8.763-4.693,12.686c-1.455,3.929-2.83,7.515-4.047,10.695
					c-1.207,3.184-2.296,5.946-3.185,8.224c-0.881,2.28-1.613,4.058-2.096,5.276C862.891,279.946,862.631,280.595,862.631,280.595"
					/>
				<path style="clip-path:url(#SVGID_4_);" d="M883.785,289.168c0,0,0.193-0.672,0.554-1.931c0.367-1.258,0.879-3.111,1.582-5.453
					c0.697-2.344,1.53-5.193,2.531-8.447c0.989-3.258,2.104-6.933,3.366-10.928c1.247-3.999,2.597-8.332,4.077-12.898
					c1.469-4.569,3-9.394,4.655-14.36c1.651-4.968,3.304-10.119,5.08-15.321c1.762-5.207,3.551-10.496,5.341-15.785
					c1.831-5.274,3.662-10.55,5.464-15.742c1.783-5.199,3.643-10.28,5.386-15.216c1.741-4.937,3.488-9.687,5.134-14.196
					c1.633-4.513,3.222-8.764,4.693-12.687c1.456-3.928,2.83-7.515,4.049-10.694c1.207-3.184,2.296-5.946,3.185-8.223
					c0.882-2.28,1.615-4.058,2.097-5.276c0.488-1.216,0.748-1.865,0.748-1.865s-0.193,0.672-0.554,1.931
					c-0.366,1.258-0.878,3.111-1.581,5.453c-0.695,2.344-1.53,5.194-2.529,8.448c-0.988,3.259-2.105,6.934-3.365,10.929
					c-1.245,4-2.598,8.332-4.077,12.898c-1.467,4.569-3.001,9.393-4.655,14.359c-1.651,4.968-3.3,10.121-5.082,15.321
					c-1.763,5.206-3.553,10.495-5.343,15.783c-1.832,5.275-3.663,10.55-5.466,15.742c-1.789,5.197-3.644,10.279-5.387,15.215
					c-1.74,4.938-3.492,9.686-5.135,14.196c-1.632,4.513-3.224,8.763-4.693,12.686c-1.455,3.929-2.83,7.515-4.047,10.695
					c-1.207,3.184-2.296,5.946-3.184,8.224c-0.881,2.28-1.613,4.058-2.096,5.276C884.045,288.519,883.785,289.168,883.785,289.168"
					/>
				<path style="clip-path:url(#SVGID_4_);" d="M905.263,298.943c0,0,0.193-0.672,0.554-1.931c0.367-1.258,0.879-3.111,1.582-5.453
					c0.697-2.344,1.531-5.193,2.531-8.447c0.989-3.258,2.105-6.933,3.366-10.929c1.247-3.999,2.597-8.332,4.077-12.898
					c1.469-4.569,3-9.394,4.655-14.36c1.651-4.968,3.304-10.119,5.08-15.321c1.762-5.207,3.551-10.496,5.341-15.785
					c1.831-5.274,3.662-10.55,5.464-15.742c1.783-5.199,3.643-10.28,5.386-15.216c1.741-4.937,3.488-9.687,5.134-14.196
					c1.633-4.513,3.222-8.764,4.693-12.687c1.456-3.928,2.83-7.515,4.049-10.694c1.207-3.184,2.296-5.946,3.185-8.223
					c0.882-2.28,1.615-4.058,2.097-5.276c0.488-1.216,0.748-1.865,0.748-1.865s-0.193,0.672-0.553,1.931
					c-0.366,1.258-0.878,3.111-1.581,5.453c-0.695,2.344-1.53,5.194-2.529,8.448c-0.988,3.259-2.105,6.933-3.365,10.929
					c-1.245,4-2.598,8.333-4.077,12.898c-1.467,4.569-3.001,9.393-4.655,14.359c-1.651,4.968-3.3,10.121-5.082,15.321
					c-1.763,5.206-3.553,10.494-5.343,15.783c-1.832,5.275-3.663,10.55-5.466,15.742c-1.789,5.198-3.644,10.279-5.387,15.215
					c-1.74,4.938-3.492,9.686-5.135,14.196c-1.632,4.513-3.224,8.763-4.693,12.686c-1.455,3.929-2.83,7.515-4.047,10.695
					c-1.207,3.184-2.296,5.946-3.185,8.224c-0.881,2.28-1.614,4.058-2.096,5.276C905.522,298.294,905.263,298.943,905.263,298.943"
					/>
				<path style="clip-path:url(#SVGID_4_);" d="M926.417,307.516c0,0,0.193-0.672,0.554-1.931c0.367-1.258,0.879-3.111,1.582-5.453
					c0.697-2.344,1.531-5.193,2.531-8.447c0.989-3.258,2.105-6.933,3.366-10.928c1.247-3.999,2.597-8.332,4.077-12.898
					c1.469-4.569,3-9.394,4.655-14.36c1.65-4.968,3.304-10.119,5.08-15.321c1.762-5.207,3.551-10.496,5.341-15.785
					c1.831-5.274,3.662-10.55,5.464-15.742c1.783-5.199,3.643-10.28,5.386-15.216c1.741-4.937,3.488-9.687,5.134-14.196
					c1.633-4.513,3.222-8.764,4.693-12.687c1.456-3.928,2.83-7.514,4.049-10.694c1.207-3.184,2.296-5.946,3.185-8.223
					c0.882-2.28,1.615-4.058,2.097-5.276c0.488-1.216,0.748-1.865,0.748-1.865s-0.193,0.672-0.553,1.931
					c-0.366,1.258-0.878,3.111-1.581,5.453c-0.695,2.344-1.53,5.194-2.529,8.448c-0.988,3.259-2.105,6.934-3.365,10.929
					c-1.245,4-2.598,8.332-4.077,12.898c-1.467,4.569-3.001,9.393-4.655,14.359c-1.651,4.968-3.3,10.121-5.082,15.321
					c-1.763,5.206-3.553,10.495-5.343,15.783c-1.832,5.275-3.663,10.55-5.466,15.742c-1.789,5.198-3.644,10.279-5.387,15.215
					c-1.74,4.938-3.492,9.686-5.135,14.196c-1.632,4.513-3.224,8.763-4.693,12.686c-1.455,3.929-2.83,7.515-4.047,10.695
					c-1.207,3.184-2.296,5.946-3.184,8.224c-0.881,2.281-1.613,4.058-2.096,5.276C926.677,306.867,926.417,307.516,926.417,307.516"
					/>
				<path style="clip-path:url(#SVGID_4_);" d="M947.572,316.756c0,0,0.193-0.672,0.554-1.931c0.367-1.258,0.879-3.111,1.582-5.452
					c0.697-2.345,1.531-5.194,2.531-8.448c0.989-3.258,2.105-6.933,3.366-10.928c1.247-3.999,2.597-8.332,4.077-12.898
					c1.469-4.569,3-9.394,4.655-14.36c1.651-4.968,3.305-10.119,5.08-15.321c1.762-5.207,3.551-10.496,5.341-15.785
					c1.831-5.274,3.662-10.55,5.464-15.742c1.783-5.199,3.643-10.28,5.386-15.216c1.741-4.937,3.488-9.687,5.134-14.196
					c1.633-4.513,3.222-8.764,4.693-12.687c1.456-3.928,2.83-7.514,4.049-10.694c1.207-3.184,2.296-5.946,3.185-8.223
					c0.882-2.28,1.615-4.058,2.097-5.276c0.488-1.216,0.748-1.865,0.748-1.865s-0.193,0.672-0.554,1.931
					c-0.366,1.258-0.878,3.111-1.581,5.453c-0.695,2.345-1.53,5.194-2.529,8.448c-0.988,3.259-2.105,6.934-3.365,10.929
					c-1.245,4-2.598,8.332-4.077,12.898c-1.467,4.57-3.001,9.393-4.655,14.359c-1.651,4.968-3.3,10.121-5.082,15.321
					c-1.763,5.206-3.553,10.495-5.343,15.783c-1.831,5.275-3.663,10.55-5.466,15.742c-1.789,5.198-3.644,10.279-5.387,15.215
					c-1.74,4.938-3.492,9.686-5.135,14.196c-1.632,4.513-3.224,8.763-4.693,12.686c-1.455,3.929-2.83,7.515-4.047,10.695
					c-1.207,3.184-2.296,5.946-3.185,8.224c-0.881,2.281-1.613,4.058-2.096,5.276C947.832,316.108,947.572,316.756,947.572,316.756"
					/>
				<path style="clip-path:url(#SVGID_4_);" d="M969.05,326.531c0,0,0.193-0.672,0.554-1.931c0.367-1.258,0.879-3.111,1.582-5.453
					c0.697-2.344,1.531-5.193,2.531-8.447c0.989-3.258,2.105-6.933,3.366-10.928c1.246-3.999,2.597-8.332,4.077-12.898
					c1.469-4.569,3-9.394,4.655-14.36c1.65-4.968,3.304-10.119,5.08-15.321c1.762-5.207,3.551-10.496,5.341-15.785
					c1.831-5.274,3.662-10.55,5.464-15.742c1.783-5.199,3.643-10.28,5.386-15.216c1.741-4.937,3.488-9.687,5.134-14.196
					c1.633-4.513,3.222-8.764,4.693-12.687c1.456-3.928,2.83-7.514,4.049-10.694c1.207-3.184,2.296-5.946,3.185-8.223
					c0.882-2.28,1.615-4.058,2.097-5.276c0.488-1.216,0.748-1.865,0.748-1.865s-0.193,0.672-0.553,1.931
					c-0.366,1.258-0.878,3.111-1.581,5.453c-0.695,2.344-1.53,5.194-2.529,8.448c-0.988,3.259-2.105,6.934-3.365,10.929
					c-1.245,4-2.598,8.332-4.077,12.898c-1.467,4.569-3.001,9.393-4.655,14.359c-1.651,4.968-3.3,10.121-5.082,15.321
					c-1.763,5.206-3.553,10.495-5.343,15.783c-1.832,5.275-3.663,10.55-5.466,15.742c-1.789,5.198-3.644,10.279-5.387,15.215
					c-1.74,4.938-3.492,9.686-5.135,14.196c-1.632,4.513-3.224,8.763-4.693,12.686c-1.455,3.929-2.83,7.515-4.047,10.695
					c-1.207,3.184-2.296,5.946-3.184,8.224c-0.881,2.281-1.613,4.058-2.096,5.276C969.31,325.882,969.05,326.531,969.05,326.531"/>
				<path style="clip-path:url(#SVGID_4_);" d="M863.03,108.532c0,0,0.654,0.245,1.882,0.704c1.224,0.465,3.032,1.122,5.311,2.007
					c2.281,0.879,5.057,1.935,8.221,3.189c3.17,1.243,6.746,2.644,10.629,4.216c3.889,1.558,8.102,3.247,12.537,5.082
					c4.439,1.824,9.128,3.73,13.948,5.771c4.823,2.037,9.827,4.093,14.873,6.271c5.051,2.167,10.183,4.368,15.315,6.569
					c5.114,2.241,10.228,4.481,15.263,6.687c5.042,2.187,9.961,4.441,14.744,6.567c4.785,2.124,9.382,4.241,13.747,6.237
					c4.37,1.983,8.483,3.902,12.278,5.677c3.801,1.761,7.268,3.412,10.341,4.878c3.078,1.454,5.747,2.758,7.947,3.823
					c2.203,1.059,3.918,1.929,5.094,2.507c1.174,0.582,1.801,0.892,1.801,0.892s-0.655-0.244-1.882-0.704
					c-1.226-0.464-3.033-1.121-5.311-2.006c-2.282-0.877-5.058-1.934-8.222-3.187c-3.171-1.241-6.746-2.644-10.63-4.215
					c-3.89-1.556-8.101-3.247-12.536-5.081c-4.44-1.821-9.128-3.732-13.949-5.772c-4.821-2.039-9.829-4.088-14.872-6.274
					c-5.051-2.167-10.182-4.369-15.314-6.57c-5.114-2.242-10.228-4.483-15.262-6.689c-5.04-2.193-9.961-4.443-14.743-6.57
					c-4.785-2.124-9.381-4.244-13.747-6.238c-4.371-1.983-8.482-3.904-12.278-5.677c-3.801-1.76-7.268-3.412-10.342-4.877
					c-3.078-1.453-5.747-2.757-7.947-3.822c-2.204-1.058-3.918-1.928-5.095-2.505C863.657,108.842,863.03,108.532,863.03,108.532"/>
				<path style="clip-path:url(#SVGID_4_);" d="M852.817,128.945c0,0,0.654,0.245,1.882,0.705c1.224,0.464,3.032,1.121,5.311,2.006
					c2.282,0.879,5.057,1.935,8.221,3.189c3.17,1.243,6.746,2.644,10.629,4.216c3.889,1.558,8.102,3.247,12.537,5.082
					c4.439,1.824,9.128,3.73,13.948,5.771c4.822,2.037,9.827,4.093,14.873,6.271c5.051,2.167,10.183,4.368,15.314,6.569
					c5.115,2.241,10.229,4.481,15.264,6.687c5.042,2.187,9.961,4.441,14.744,6.567c4.784,2.124,9.382,4.241,13.747,6.237
					c4.37,1.983,8.483,3.902,12.278,5.677c3.801,1.761,7.268,3.412,10.342,4.878c3.078,1.455,5.747,2.758,7.947,3.823
					c2.203,1.059,3.918,1.929,5.094,2.507c1.174,0.582,1.801,0.892,1.801,0.892s-0.655-0.244-1.882-0.704
					c-1.226-0.464-3.033-1.121-5.311-2.006c-2.282-0.877-5.058-1.934-8.222-3.187c-3.171-1.241-6.746-2.644-10.63-4.215
					c-3.89-1.556-8.101-3.247-12.536-5.081c-4.44-1.821-9.128-3.732-13.949-5.772c-4.821-2.039-9.829-4.088-14.872-6.274
					c-5.051-2.167-10.183-4.369-15.314-6.57c-5.114-2.242-10.228-4.483-15.262-6.689c-5.04-2.193-9.961-4.443-14.744-6.57
					c-4.784-2.124-9.38-4.244-13.746-6.238c-4.371-1.983-8.482-3.904-12.278-5.677c-3.801-1.76-7.268-3.412-10.342-4.877
					c-3.078-1.453-5.747-2.757-7.947-3.822c-2.204-1.058-3.918-1.928-5.095-2.505C853.443,129.255,852.817,128.945,852.817,128.945"
					/>
				<path style="clip-path:url(#SVGID_4_);" d="M841.901,149.018c0,0,0.654,0.245,1.882,0.705c1.224,0.464,3.032,1.121,5.311,2.006
					c2.282,0.879,5.057,1.935,8.221,3.189c3.17,1.243,6.746,2.644,10.629,4.216c3.889,1.558,8.102,3.247,12.537,5.082
					c4.439,1.824,9.128,3.73,13.948,5.771c4.822,2.037,9.827,4.093,14.873,6.271c5.051,2.167,10.183,4.368,15.314,6.569
					c5.115,2.241,10.229,4.481,15.264,6.687c5.042,2.187,9.961,4.441,14.744,6.567c4.784,2.124,9.382,4.241,13.747,6.237
					c4.37,1.983,8.483,3.902,12.278,5.677c3.801,1.761,7.268,3.412,10.341,4.878c3.078,1.454,5.747,2.758,7.947,3.823
					c2.203,1.059,3.918,1.929,5.094,2.507c1.174,0.582,1.801,0.892,1.801,0.892s-0.655-0.244-1.882-0.704
					c-1.226-0.464-3.033-1.121-5.311-2.006c-2.282-0.877-5.058-1.934-8.222-3.187c-3.171-1.241-6.746-2.644-10.63-4.215
					c-3.89-1.556-8.101-3.247-12.536-5.081c-4.44-1.821-9.128-3.732-13.949-5.772c-4.821-2.039-9.829-4.088-14.872-6.274
					c-5.051-2.167-10.183-4.369-15.314-6.57c-5.114-2.242-10.228-4.483-15.262-6.689c-5.04-2.193-9.961-4.443-14.744-6.57
					c-4.784-2.124-9.38-4.244-13.746-6.238c-4.371-1.983-8.482-3.904-12.278-5.677c-3.801-1.76-7.268-3.412-10.342-4.877
					c-3.078-1.453-5.747-2.757-7.947-3.822c-2.204-1.058-3.918-1.928-5.095-2.505C842.527,149.327,841.901,149.018,841.901,149.018"
					/>
				<path style="clip-path:url(#SVGID_4_);" d="M831.687,169.43c0,0,0.654,0.245,1.882,0.705c1.224,0.464,3.032,1.121,5.311,2.006
					c2.281,0.879,5.057,1.935,8.221,3.189c3.17,1.243,6.746,2.644,10.629,4.216c3.889,1.558,8.102,3.247,12.537,5.082
					c4.439,1.824,9.128,3.73,13.948,5.771c4.822,2.037,9.827,4.093,14.873,6.271c5.051,2.167,10.183,4.368,15.314,6.569
					c5.115,2.241,10.229,4.481,15.264,6.687c5.042,2.187,9.961,4.441,14.744,6.567c4.784,2.124,9.382,4.241,13.747,6.237
					c4.37,1.983,8.483,3.902,12.278,5.677c3.801,1.761,7.268,3.412,10.342,4.878c3.078,1.455,5.747,2.758,7.947,3.823
					c2.203,1.059,3.918,1.929,5.094,2.507c1.174,0.582,1.801,0.892,1.801,0.892s-0.655-0.244-1.882-0.704
					c-1.226-0.464-3.033-1.121-5.311-2.006c-2.282-0.877-5.058-1.934-8.222-3.187c-3.171-1.241-6.746-2.644-10.63-4.215
					c-3.89-1.556-8.101-3.247-12.536-5.081c-4.44-1.821-9.128-3.732-13.949-5.772c-4.821-2.039-9.829-4.088-14.872-6.274
					c-5.051-2.167-10.183-4.369-15.314-6.57c-5.114-2.242-10.228-4.483-15.262-6.689c-5.04-2.193-9.961-4.443-14.744-6.57
					c-4.784-2.124-9.38-4.245-13.746-6.238c-4.371-1.983-8.482-3.904-12.278-5.677c-3.801-1.76-7.268-3.412-10.342-4.877
					c-3.078-1.453-5.747-2.757-7.947-3.822c-2.204-1.058-3.918-1.928-5.095-2.505C832.313,169.74,831.687,169.43,831.687,169.43"/>
				<path style="clip-path:url(#SVGID_4_);" d="M820.25,190.071c0,0,0.654,0.245,1.882,0.704c1.224,0.465,3.032,1.122,5.311,2.007
					c2.281,0.879,5.057,1.935,8.221,3.189c3.17,1.243,6.746,2.644,10.629,4.216c3.889,1.558,8.102,3.247,12.537,5.082
					c4.439,1.824,9.128,3.73,13.948,5.771c4.822,2.037,9.827,4.093,14.873,6.271c5.051,2.167,10.183,4.368,15.314,6.569
					c5.115,2.241,10.229,4.481,15.264,6.687c5.042,2.187,9.961,4.441,14.744,6.567c4.784,2.124,9.382,4.241,13.747,6.237
					c4.37,1.983,8.483,3.902,12.278,5.677c3.801,1.761,7.268,3.412,10.341,4.878c3.078,1.454,5.747,2.758,7.947,3.823
					c2.203,1.059,3.918,1.929,5.094,2.507c1.174,0.582,1.801,0.892,1.801,0.892s-0.655-0.244-1.882-0.704
					c-1.226-0.464-3.033-1.121-5.311-2.006c-2.282-0.877-5.058-1.934-8.222-3.187c-3.171-1.241-6.746-2.644-10.63-4.215
					c-3.89-1.556-8.101-3.247-12.536-5.081c-4.44-1.821-9.128-3.732-13.949-5.772c-4.821-2.039-9.829-4.088-14.872-6.274
					c-5.051-2.167-10.183-4.369-15.314-6.57c-5.114-2.242-10.228-4.483-15.262-6.689c-5.04-2.193-9.961-4.443-14.743-6.57
					c-4.785-2.124-9.381-4.244-13.747-6.238c-4.371-1.983-8.482-3.904-12.278-5.677c-3.801-1.76-7.268-3.412-10.342-4.877
					c-3.078-1.453-5.747-2.757-7.947-3.822c-2.204-1.058-3.918-1.928-5.095-2.505C820.876,190.381,820.25,190.071,820.25,190.071"/>
				<path style="clip-path:url(#SVGID_4_);" d="M810.037,210.484c0,0,0.654,0.245,1.882,0.705c1.224,0.464,3.032,1.121,5.311,2.006
					c2.282,0.879,5.057,1.935,8.221,3.189c3.17,1.243,6.746,2.644,10.629,4.216c3.889,1.558,8.102,3.247,12.537,5.082
					c4.439,1.824,9.128,3.73,13.948,5.771c4.823,2.037,9.827,4.093,14.873,6.271c5.051,2.167,10.183,4.368,15.315,6.569
					c5.114,2.241,10.228,4.481,15.263,6.687c5.042,2.187,9.961,4.441,14.744,6.567c4.784,2.124,9.382,4.241,13.747,6.237
					c4.37,1.983,8.483,3.902,12.278,5.677c3.801,1.761,7.268,3.412,10.342,4.878c3.078,1.455,5.747,2.758,7.947,3.823
					c2.203,1.059,3.918,1.929,5.094,2.507c1.174,0.582,1.801,0.892,1.801,0.892s-0.655-0.244-1.882-0.704
					c-1.225-0.464-3.033-1.121-5.311-2.006c-2.282-0.877-5.058-1.934-8.222-3.187c-3.171-1.241-6.746-2.644-10.63-4.215
					c-3.89-1.556-8.101-3.247-12.536-5.081c-4.44-1.821-9.128-3.732-13.949-5.772c-4.821-2.039-9.829-4.088-14.872-6.274
					c-5.051-2.167-10.182-4.369-15.314-6.57c-5.114-2.242-10.228-4.483-15.262-6.689c-5.039-2.193-9.961-4.443-14.743-6.57
					c-4.785-2.124-9.381-4.245-13.747-6.238c-4.371-1.983-8.482-3.904-12.278-5.677c-3.801-1.76-7.268-3.412-10.342-4.877
					c-3.078-1.453-5.747-2.757-7.947-3.822c-2.204-1.058-3.918-1.928-5.095-2.505C810.664,210.794,810.037,210.484,810.037,210.484"
					/>
				<path style="clip-path:url(#SVGID_4_);" d="M799.159,230.845c0,0,0.654,0.245,1.882,0.705c1.224,0.464,3.032,1.121,5.311,2.006
					c2.282,0.879,5.057,1.935,8.221,3.189c3.17,1.243,6.746,2.644,10.629,4.216c3.889,1.558,8.102,3.247,12.537,5.082
					c4.439,1.824,9.128,3.73,13.948,5.771c4.822,2.037,9.827,4.093,14.873,6.271c5.052,2.167,10.184,4.368,15.315,6.569
					c5.115,2.241,10.229,4.481,15.264,6.687c5.042,2.187,9.961,4.441,14.744,6.567c4.784,2.124,9.383,4.241,13.747,6.237
					c4.37,1.983,8.483,3.902,12.278,5.677c3.801,1.761,7.268,3.412,10.341,4.878c3.078,1.455,5.747,2.758,7.947,3.823
					c2.203,1.059,3.918,1.929,5.094,2.507c1.174,0.582,1.801,0.892,1.801,0.892s-0.655-0.244-1.882-0.704
					c-1.226-0.464-3.033-1.121-5.312-2.006c-2.282-0.877-5.058-1.934-8.222-3.187c-3.171-1.241-6.746-2.644-10.63-4.215
					c-3.89-1.556-8.101-3.247-12.536-5.081c-4.44-1.821-9.128-3.732-13.949-5.772c-4.821-2.039-9.829-4.088-14.872-6.274
					c-5.051-2.167-10.183-4.369-15.314-6.57c-5.114-2.242-10.228-4.483-15.262-6.689c-5.04-2.193-9.961-4.443-14.744-6.57
					c-4.784-2.124-9.38-4.245-13.746-6.238c-4.371-1.983-8.482-3.904-12.278-5.677c-3.801-1.76-7.268-3.412-10.342-4.877
					c-3.078-1.453-5.747-2.757-7.947-3.822c-2.204-1.058-3.918-1.928-5.095-2.505C799.785,231.155,799.159,230.845,799.159,230.845"
					/>
				<path style="clip-path:url(#SVGID_4_);" d="M973.967,111.574c4.182,1.47,8.36,2.947,12.528,4.451l12.514,4.486l24.981,9.086
					l24.939,9.191l24.905,9.275l3.16,1.177l-1.063,3.422l-8.201,26.384c-2.729,8.796-5.537,17.566-8.301,26.35l-8.391,26.319
					c-2.794,8.773-5.627,17.535-8.472,26.291c-2.846,8.757-5.656,17.524-8.542,26.267l-8.613,26.242l-8.703,26.212
					c-2.897,8.738-5.806,17.473-8.756,26.194l-2.629,7.773l-7.604-3.28l-30.572-13.188l-30.525-13.298l-15.252-6.669l-15.237-6.707
					l-15.237-6.707l-15.22-6.744l-30.421-13.534l-30.37-13.649l-30.33-13.742l-15.151-6.902l-15.135-6.94l-5.312-2.436l1.902-5.299
					l4.186-11.662l4.228-11.648l8.477-23.289l8.549-23.265l8.63-23.236l8.721-23.206l8.82-23.172
					c2.951-7.721,5.936-15.429,8.93-23.135l4.54-11.542c1.505-3.85,3.032-7.693,4.576-11.529c-1.112,3.984-2.241,7.962-3.392,11.932
					l-3.428,11.92c-2.317,7.936-4.643,15.868-7.004,23.789l-7.114,23.752l-7.214,23.717l-7.305,23.687l-7.386,23.659l-7.458,23.634
					l-3.739,11.814l-3.782,11.8l-3.411-7.735l15.364,6.416l15.348,6.454l30.668,12.97l30.627,13.062l30.577,13.178l15.278,6.612
					l15.262,6.649l15.263,6.649l15.246,6.686l30.473,13.414l30.425,13.523l-10.232,4.494c3.025-8.694,6.089-17.376,9.166-26.053
					l9.218-26.034l9.309-26.004c3.088-8.674,6.252-17.321,9.379-25.981c3.129-8.659,6.271-17.313,9.451-25.955l9.531-25.928
					c3.21-8.631,6.377-17.278,9.622-25.897l9.722-25.862l2.096,4.598l-24.339-10.673l-24.305-10.757l-24.263-10.861l-12.108-5.488
					C982.022,115.276,977.992,113.429,973.967,111.574"/>
				<polygon style="clip-path:url(#SVGID_4_);" points="1076.994,149.24 1126.467,307.516 1066.787,167.991 				"/>
				<path style="clip-path:url(#SVGID_4_);" d="M740.421,63.281c0,0,0.107-0.085,0.338-0.225c0.231-0.137,0.584-0.342,1.07-0.54
					c0.968-0.417,2.461-0.887,4.41-1.199c0.974-0.164,2.062-0.285,3.244-0.357c0.148-0.01,0.299-0.021,0.45-0.03l0.057-0.004
					c-0.094-0.019,0.161,0.023,0.144,0.019h0.028l0.109-0.002l0.22-0.003c0.294,0.001,0.594,0.002,0.9,0.003
					c0.305,0.002,0.615,0.003,0.931,0.005c0.32,0.006,0.618-0.016,1.007,0.047c3.07,0.307,6.231,1.118,9.587,2.726
					c3.323,1.605,6.668,4.068,9.505,7.398c2.837,3.318,5.154,7.514,6.423,12.267c0.152,0.595,0.324,1.191,0.454,1.798
					c0.104,0.612,0.207,1.228,0.299,1.85c0.23,1.24,0.269,2.506,0.33,3.785l0.035,0.961c-0.007,0.32-0.029,0.64-0.044,0.961
					c-0.038,0.643-0.076,1.288-0.113,1.935l-0.033,0.486l-0.01,0.122c-0.016,0.105,0.029-0.149-0.035,0.251l-0.007,0.047
					l-0.026,0.191l-0.104,0.766l-0.105,0.769l-0.198,1.025c-0.135,0.687-0.274,1.385-0.449,1.987
					c-0.172,0.626-0.322,1.256-0.54,1.879c-0.392,1.253-0.869,2.498-1.433,3.716c-1.11,2.446-2.573,4.784-4.308,6.902
					c-1.749,2.105-3.755,3.999-5.954,5.556c-2.19,1.569-4.547,2.818-6.954,3.79c-4.833,1.921-9.861,2.683-14.771,2.391
					c-1.232-0.075-2.455-0.218-3.681-0.455l-0.458-0.086l-0.406-0.073l-0.176-0.046l-0.7-0.182
					c-0.383-0.098-1.144-0.321-1.744-0.505l-0.47-0.145l-0.419-0.153l-0.825-0.307c-0.55-0.201-1.07-0.458-1.595-0.685
					c-1.038-0.485-2.028-1.013-2.966-1.585c-3.751-2.292-6.643-5.158-8.796-8.069c-2.15-2.924-3.613-5.879-4.491-8.616
					c-0.887-2.733-1.23-5.219-1.211-7.246c-0.002-2.027,0.332-3.576,0.645-4.576c0.138-0.503,0.309-0.872,0.41-1.119
					c0.103-0.244,0.156-0.37,0.156-0.37s0.024,0.136,0.071,0.397c0.045,0.26,0.116,0.641,0.239,1.125
					c0.234,0.966,0.672,2.332,1.445,3.907c0.773,1.574,1.895,3.358,3.405,5.159c0.76,0.896,1.58,1.82,2.537,2.693
					c0.947,0.879,1.957,1.759,3.083,2.56c2.225,1.619,4.791,3.041,7.536,3.948c0.689,0.217,1.379,0.422,2.08,0.583
					c0.354,0.066,0.701,0.16,1.056,0.211l0.53,0.088l0.262,0.045l0.222,0.017c0.349,0.032,0.7,0.065,1.052,0.098l0.72,0.068
					l0.181,0.017c-0.344-0.057-0.077-0.016-0.145-0.028h0.033l0.066,0.001l0.262,0.003c0.696,0.015,1.429-0.028,2.168-0.085
					c2.976-0.259,6.109-1.118,8.888-2.461c2.788-1.354,5.218-3.194,7.069-5.469c0.942-1.127,1.74-2.373,2.423-3.714
					c0.333-0.674,0.643-1.371,0.919-2.092c0.154-0.351,0.257-0.733,0.385-1.101c0.138-0.389,0.221-0.706,0.318-1.028l0.152-0.487
					l0.162-0.756l0.161-0.756l0.04-0.188l0.01-0.048c-0.06,0.369-0.014,0.082-0.026,0.155l0.01-0.07l0.041-0.281l0.18-1.122
					l0.094-0.561l0.027-0.564c0.043-0.75,0.148-1.505,0.081-2.252c-0.014-0.374-0.016-0.75-0.015-1.127
					c-0.026-0.373-0.087-0.742-0.124-1.114c-0.326-2.972-1.234-5.858-2.575-8.434c-1.336-2.581-3.103-4.836-5.052-6.681
					c-0.46-0.506-0.989-0.893-1.494-1.31c-0.255-0.208-0.507-0.414-0.756-0.618c-0.265-0.182-0.527-0.361-0.786-0.539
					c-0.262-0.18-0.521-0.358-0.777-0.534c-0.259-0.182-0.515-0.36-0.759-0.481c-0.495-0.273-0.982-0.552-1.465-0.846
					c-0.216-0.155-0.546-0.266-0.831-0.388c-0.293-0.121-0.579-0.239-0.862-0.355c-0.282-0.117-0.559-0.231-0.83-0.344l-0.202-0.087
					l-0.101-0.044l-0.024-0.01c-0.034-0.009,0.203,0.031,0.091,0.01l-0.048-0.018c-0.129-0.048-0.257-0.095-0.383-0.142
					c-1.014-0.387-1.959-0.679-2.822-0.956c-1.726-0.52-3.134-0.822-4.117-0.95C740.972,63.241,740.421,63.281,740.421,63.281"/>
			</g>
		</g>
	</g>
	<g>
		<path d="M115.08,102.471v19.614c0,33.854-6.348,50.781-19.043,50.781v-69.824H61.125V83.999h88.867
			C149.992,94.536,138.354,100.693,115.08,102.471z"/>
		<path d="M200.621,83.999h44.434c0,12.695-9.521,19.043-28.564,19.043h-15.869c-7.025,0-13.013,2.476-17.964,7.427
			s-7.427,10.94-7.427,17.964c0,7.025,2.476,13.013,7.427,17.964s10.939,7.427,17.964,7.427h15.869
			c19.043,0,28.564,6.348,28.564,19.043h-44.434c-12.273,0-22.747-4.337-31.421-13.013c-8.675-8.675-13.013-19.148-13.013-31.421
			c0-12.272,4.337-22.746,13.013-31.421C177.875,88.337,188.348,83.999,200.621,83.999z"/>
		<path d="M321.074,118.911V83.999h19.043v38.086c0,33.854-6.348,50.781-19.043,50.781v-34.912h-51.353
			c-1.777,23.275-7.935,34.912-18.472,34.912V83.999h19.043v34.912H321.074z"/>
		<path d="M422.167,97.012c8.674,8.675,13.013,19.149,13.013,31.421c0,12.272-4.338,22.746-13.013,31.421
			c-8.675,8.676-19.149,13.013-31.421,13.013c-12.273,0-22.747-4.337-31.421-13.013c-8.675-8.675-13.013-19.148-13.013-31.421
			c0-12.272,4.337-22.746,13.013-31.421c8.674-8.674,19.148-13.013,31.421-13.013C403.018,83.999,413.492,88.337,422.167,97.012z
			 M390.746,103.042c-7.025,0-13.013,2.476-17.964,7.427s-7.427,10.94-7.427,17.964c0,7.025,2.476,13.013,7.427,17.964
			s10.939,7.427,17.964,7.427c7.024,0,13.013-2.476,17.964-7.427s7.427-10.939,7.427-17.964c0-7.024-2.476-13.013-7.427-17.964
			S397.77,103.042,390.746,103.042z"/>
		<path d="M441.375,128.433V83.999c12.695,0,19.043,9.521,19.043,28.564v15.869c0,7.025,2.476,13.013,7.427,17.964
			s10.939,7.427,17.964,7.427c7.024,0,13.013-2.476,17.964-7.427s7.427-10.939,7.427-17.964v-15.869
			c0-19.043,6.348-28.564,19.043-28.564v44.434c0,12.272-4.338,22.746-13.013,31.421c-8.675,8.676-19.149,13.013-31.421,13.013
			c-12.273,0-22.747-4.337-31.421-13.013C445.712,151.179,441.375,140.705,441.375,128.433z"/>
		<path d="M555.48,122.085c0,33.854-6.348,50.781-19.043,50.781V83.999h19.043V122.085z M625.368,83.936l-0.063,27.041
			c0,7.449-2.625,13.796-7.871,19.043c-4.062,4.062-8.739,6.56-14.028,7.49c14.6,14.6,21.899,30.871,21.899,48.813l-48.369-48.369
			H555.48c0-12.695,8.463-19.043,25.391-19.043h17.456c2.2,0,4.072-0.771,5.617-2.317c1.545-1.544,2.317-3.417,2.317-5.618
			c0-0.549-0.043-1.079-0.127-1.587h0.127C606.262,92.505,612.63,84.021,625.368,83.936z"/>
		<path d="M263.161,249.61c2.538,0,4.699-0.891,6.482-2.674c1.782-1.781,2.673-3.942,2.673-6.481c0-2.538-0.892-4.699-2.673-6.481
			c-1.783-1.782-3.944-2.674-6.482-2.674h-49.438v21.973c0,39.063-7.324,58.594-21.973,58.594V209.327h71.411
			c8.593,0,15.93,3.039,22.009,9.119c6.079,6.078,9.119,13.415,9.119,22.009c0,7.716-2.466,14.429-7.397,20.142
			c4.931,5.713,7.397,12.427,7.397,20.142c0,8.595-3.04,15.931-9.119,22.009c-6.079,6.08-13.416,9.119-22.009,9.119h-49.438
			c0-14.648,9.765-21.973,29.297-21.973h20.142c2.538,0,4.699-0.891,6.482-2.674c1.782-1.781,2.673-3.942,2.673-6.481
			c0-2.538-0.892-4.699-2.673-6.481c-1.783-1.782-3.944-2.674-6.482-2.674h-49.438c0-14.648,9.765-21.973,29.297-21.973H263.161z"/>
		<path d="M381.784,256.935c-0.732-6.543-3.516-12.231-8.35-17.065c-5.713-5.713-12.623-8.569-20.728-8.569
			c-8.106,0-15.015,2.856-20.728,8.569s-8.569,12.623-8.569,20.728v18.311c0,21.973-7.324,32.959-21.973,32.959v-51.27
			c0-14.16,5.004-26.245,15.015-36.255c10.009-10.009,22.094-15.015,36.255-15.015c14.16,0,26.245,5.006,36.255,15.015
			c10.009,10.01,15.015,22.095,15.015,36.255v51.27c-14.648,0-21.973-10.986-21.973-32.959v-0.952
			c-24.415-2.441-36.621-9.448-36.621-21.021H381.784z"/>
		<path d="M433.098,289.894h80.566c0,14.648-19.532,21.973-58.594,21.973h-43.945V209.327c14.648,0,21.973,19.531,21.973,58.594
			V289.894z"/>
		<path d="M542.785,289.894h80.566c0,14.648-19.532,21.973-58.594,21.973h-43.945V209.327c14.648,0,21.973,19.531,21.973,58.594
			V289.894z"/>
	</g>
</g>
</svg>
