<?xml version="1.0" encoding="iso-8859-1"?>
<!-- Generator: Adobe Illustrator 19.1.0, SVG Export Plug-In . SVG Version: 6.00 Build 0)  -->
<svg version="1.1" id="Calque_1" xmlns="http://www.w3.org/2000/svg" xmlns:xlink="http://www.w3.org/1999/xlink" x="0px" y="0px"
	 viewBox="0 0 1200 400" style="enable-background:new 0 0 1200 400;" xml:space="preserve">
<g>
	<g>
		<g>
			<defs>
				<rect id="SVGID_1_" x="744.89" y="26.58" width="350.826" height="350.826"/>
			</defs>
			<clipPath id="SVGID_2_">
				<use xlink:href="#SVGID_1_"  style="overflow:visible;"/>
			</clipPath>
			<g style="clip-path:url(#SVGID_2_);">
				<defs>
					<rect id="SVGID_3_" x="744.89" y="26.58" width="350.826" height="350.826"/>
				</defs>
				<clipPath id="SVGID_4_">
					<use xlink:href="#SVGID_3_"  style="overflow:visible;"/>
				</clipPath>
				<path style="clip-path:url(#SVGID_4_);fill:#0066FF;" d="M842.782,345.957c0,0-0.677-0.33-1.966-1.023
					c-1.282-0.702-3.181-1.757-5.59-3.253c-4.789-3.019-11.767-7.627-19.852-14.559c-8.108-6.882-17.372-16.078-26.305-28.11
					c-4.465-6.009-8.809-12.744-12.76-20.22c-3.944-7.478-7.444-15.714-10.292-24.599c-2.844-8.886-4.935-18.443-6.156-28.463
					c-0.132-1.255-0.265-2.515-0.398-3.78c-0.117-1.266-0.307-2.537-0.338-3.818c-0.123-2.564-0.247-5.148-0.373-7.752
					c0.015-2.571,0.03-5.161,0.046-7.77l0.006-0.958l0.062-1.018c0.043-0.679,0.085-1.36,0.127-2.042
					c0.088-1.365,0.175-2.735,0.264-4.11c0.053-0.683,0.072-1.386,0.154-2.059l0.246-2.023c0.166-1.351,0.333-2.708,0.501-4.067
					l0.26-2.045l0.373-2.034c0.251-1.358,0.503-2.721,0.756-4.088c1.075-5.457,2.498-10.922,4.242-16.355
					c0.215-0.68,0.408-1.369,0.641-2.045l0.742-2.016c0.497-1.347,0.994-2.697,1.494-4.051c0.467-1.368,1.084-2.677,1.658-4.009
					c0.582-1.329,1.165-2.661,1.75-3.997c0.279-0.674,0.613-1.323,0.942-1.974l0.987-1.96c0.66-1.308,1.321-2.619,1.985-3.933
					c0.728-1.278,1.459-2.558,2.191-3.842c0.749-1.273,1.439-2.589,2.246-3.834c6.227-10.112,13.792-19.61,22.389-28.263
					l1.602-1.637l1.673-1.566c1.119-1.043,2.24-2.086,3.362-3.131c0.553-0.533,1.137-1.029,1.724-1.524l1.755-1.492
					c1.177-0.988,2.332-2.01,3.535-2.972c4.846-3.803,9.832-7.492,15.103-10.789c1.316-0.825,2.608-1.696,3.951-2.482
					c1.348-0.78,2.697-1.56,4.047-2.341l2.029-1.168l2.076-1.086l4.16-2.172c1.4-0.701,2.831-1.342,4.246-2.015
					c1.426-0.653,2.826-1.366,4.287-1.945c2.905-1.198,5.794-2.448,8.776-3.475c5.892-2.24,11.99-3.961,18.121-5.556l4.648-1.027
					l2.326-0.511l2.348-0.413l4.702-0.813l4.743-0.606l2.374-0.291c0.794-0.074,1.593-0.123,2.389-0.185l4.78-0.347l4.803-0.119
					l1.201-0.027l0.601-0.013l0.3-0.007c-0.081-0.003,0.449-0.004,0.496,0l2.255,0.058l4.507,0.116l1.128,0.029l1.209,0.085
					l2.419,0.173l4.832,0.355l4.695,0.566c12.506,1.539,24.801,4.473,36.497,8.75c23.439,8.444,44.537,22.07,61.082,39.02
					c8.282,8.458,15.544,17.642,21.508,27.334c1.462,2.44,2.859,4.9,4.257,7.336c1.271,2.508,2.586,4.973,3.789,7.473
					c0.57,1.265,1.137,2.527,1.702,3.784l0.845,1.883l0.42,0.94l0.374,0.957c0.495,1.277,0.987,2.549,1.478,3.817
					c0.476,1.273,1.007,2.52,1.398,3.814c3.526,10.204,5.9,20.46,7.215,30.476c1.294,10.016,1.516,19.802,1.05,29.058
					c-0.029,0.563-0.059,1.126-0.088,1.687l-0.044,0.841l-0.079,0.876c-0.109,1.166-0.218,2.326-0.325,3.479
					c-0.178,2.323-0.528,4.538-0.826,6.747c-0.629,4.409-1.457,8.683-2.443,12.801c-1.977,8.235-4.521,15.859-7.458,22.77
					c-5.865,13.844-13.049,24.829-19.632,33.2c-6.591,8.395-12.657,14.18-16.893,17.941c-2.123,1.883-3.835,3.224-4.995,4.114
					c-1.163,0.888-1.786,1.312-1.786,1.312s2.283-1.984,6.099-6.124c3.818-4.126,9.109-10.492,14.8-19.232
					c5.651-8.744,11.685-19.933,16.271-33.549c4.593-13.572,7.658-29.625,7.554-47.076c-0.089-8.789-0.746-17.866-2.457-27.098
					c-1.708-9.218-4.286-18.573-7.957-27.773c-3.67-9.192-8.294-18.288-14.082-26.88c-5.79-8.583-12.55-16.773-20.302-24.201
					c-0.976-0.921-1.912-1.886-2.924-2.776c-1.015-0.885-2.031-1.773-3.051-2.663l-1.527-1.336
					c-0.507-0.449-1.058-0.848-1.582-1.278c-1.059-0.847-2.121-1.695-3.185-2.546c-1.043-0.875-2.174-1.643-3.276-2.45
					c-1.107-0.801-2.215-1.604-3.325-2.408c-1.134-0.77-2.294-1.506-3.442-2.262l-1.727-1.13c-0.573-0.381-1.15-0.757-1.752-1.095
					c-1.189-0.699-2.381-1.399-3.573-2.1l-1.788-1.053l-1.841-0.968c-1.227-0.646-2.456-1.292-3.686-1.94
					c-0.609-0.336-1.238-0.634-1.871-0.923l-1.894-0.883c-1.264-0.589-2.516-1.205-3.79-1.779c-1.29-0.536-2.582-1.074-3.875-1.612
					c-2.562-1.135-5.234-2.01-7.87-2.987c-10.609-3.755-21.751-6.18-33.041-7.567l-4.241-0.498l-4.151-0.285l-2.076-0.148
					l-1.038-0.076l-1.126-0.025l-4.508-0.098l-2.255-0.048l-1.913,0.06l-4.22,0.118l-4.223,0.328
					c-0.704,0.058-1.408,0.1-2.111,0.168l-2.107,0.262l-4.216,0.516l-4.197,0.711l-2.098,0.356l-2.083,0.453l-4.167,0.899
					c-5.508,1.419-11.005,2.93-16.333,4.938c-5.367,1.892-10.577,4.187-15.713,6.587l-3.792,1.922l-1.895,0.958l-1.85,1.038
					l-3.696,2.075c-1.228,0.697-2.405,1.476-3.609,2.207c-9.568,5.951-18.487,12.797-26.404,20.484
					c-7.931,7.668-14.921,16.093-20.828,25.018c-5.923,8.924-10.537,18.458-14.093,28.138c-1.758,4.85-3.233,9.75-4.394,14.669
					c-1.179,4.902-2.035,9.887-2.685,14.719c-0.133,1.203-0.266,2.401-0.399,3.595l-0.202,1.79l-0.102,0.894l-0.048,0.956
					c-0.129,2.489-0.258,4.962-0.384,7.415c0.007,2.421,0.014,4.823,0.022,7.207c-0.029,1.195,0.1,2.374,0.142,3.556
					c0.061,1.181,0.121,2.358,0.182,3.529c0.624,9.362,2.139,18.344,4.286,26.809c2.138,8.472,4.996,16.399,8.23,23.732
					c3.235,7.339,6.974,14.015,10.793,20.11c7.69,12.176,15.932,21.865,23.233,29.32c7.307,7.47,13.641,12.793,18.089,16.243
					c2.235,1.711,3.977,2.996,5.171,3.833C842.147,345.55,842.782,345.957,842.782,345.957"/>
				<path style="clip-path:url(#SVGID_4_);fill:#0066FF;" d="M918.692,212.459c0,0,0.617-0.171,1.787-0.42
					c1.168-0.242,2.89-0.577,5.086-0.869c2.198-0.309,4.874-0.593,7.945-0.787c3.075-0.207,6.541-0.294,10.323-0.262
					c3.783,0.033,7.872,0.237,12.185,0.613c4.309,0.393,8.844,0.946,13.497,1.742c4.662,0.758,9.434,1.787,14.251,2.974
					c1.208,0.284,2.402,0.634,3.61,0.953c1.205,0.328,2.417,0.644,3.618,1.01c2.402,0.73,4.82,1.445,7.204,2.264
					c2.38,0.831,4.775,1.622,7.109,2.552c2.351,0.884,4.674,1.812,6.952,2.802c1.139,0.493,2.273,0.983,3.402,1.471
					c1.114,0.523,2.222,1.045,3.324,1.563c1.095,0.528,2.184,1.053,3.266,1.575c1.073,0.54,2.124,1.107,3.172,1.654
					c2.096,1.093,4.138,2.202,6.094,3.372c1.966,1.146,3.886,2.266,5.7,3.461c1.819,1.181,3.595,2.309,5.263,3.485
					c1.666,1.182,3.264,2.333,4.78,3.463c3.002,2.308,5.702,4.481,8.007,6.521c1.139,1.041,2.219,1.986,3.183,2.91
					c0.969,0.914,1.867,1.734,2.627,2.551c3.098,3.176,4.725,5.137,4.725,5.137s-2.479-0.73-6.567-2.261
					c-2.043-0.766-4.557-1.624-7.353-2.71c-1.397-0.543-2.901-1.087-4.475-1.666c-1.58-0.569-3.186-1.257-4.916-1.866
					c-3.407-1.273-7.099-2.653-11.003-4.112c-1.927-0.756-3.944-1.45-5.974-2.213c-1.015-0.38-2.041-0.763-3.077-1.15
					c-1.041-0.373-2.091-0.751-3.15-1.131c-1.053-0.388-2.115-0.78-3.185-1.175c-1.076-0.379-2.158-0.761-3.248-1.145
					c-2.166-0.797-4.368-1.571-6.592-2.34c-1.114-0.38-2.213-0.807-3.336-1.182c-1.124-0.373-2.245-0.763-3.368-1.155
					c-2.241-0.794-4.511-1.537-6.772-2.306c-1.124-0.401-2.259-0.773-3.395-1.137c-1.132-0.379-2.262-0.757-3.39-1.135
					c-2.264-0.737-4.519-1.472-6.757-2.201c-4.489-1.418-8.903-2.863-13.206-4.188c-4.314-1.339-8.485-2.635-12.44-3.863
					c-3.989-1.223-7.76-2.379-11.241-3.447c-7.06-2.174-12.944-3.986-17.063-5.255C921.125,213.258,918.692,212.459,918.692,212.459
					"/>
				<path style="clip-path:url(#SVGID_4_);fill:#0066FF;" d="M883.616,64.304c0,0,0.129,0.608,0.372,1.747
					c0.222,1.123,0.613,2.776,1.021,4.848c0.486,2.08,0.959,4.58,1.614,7.435c0.577,2.85,1.342,6.049,2.064,9.517
					c0.392,1.729,0.802,3.529,1.225,5.394c0.2,0.929,0.403,1.873,0.61,2.833c0.202,0.958,0.457,1.927,0.681,2.911
					c0.464,1.966,0.923,3.983,1.361,6.043c0.49,2.052,0.991,4.15,1.499,6.282c0.918,4.272,2.114,8.639,3.127,13.103
					c0.474,2.238,1.132,4.459,1.681,6.71c0.579,2.245,1.119,4.507,1.662,6.769c1.219,4.493,2.391,8.999,3.496,13.457
					c1.268,4.411,2.417,8.79,3.466,13.063c1.224,4.215,2.337,8.327,3.322,12.269c0.256,0.982,0.463,1.969,0.744,2.913
					c0.267,0.95,0.531,1.886,0.79,2.806c0.508,1.846,0.989,3.639,1.424,5.375c0.424,1.741,0.858,3.401,1.225,5.004
					c0.33,1.619,0.791,3.095,1.144,4.52c0.735,2.837,1.336,5.344,1.789,7.436c0.922,4.176,1.281,6.676,1.281,6.676
					s-1.692-1.817-4.358-5.196c-1.342-1.685-2.92-3.766-4.685-6.189c-1.821-2.398-3.539-5.271-5.461-8.402
					c-0.956-1.567-1.925-3.216-2.915-4.932c-0.992-1.716-2.021-3.491-2.919-5.387c-1.866-3.761-3.767-7.771-5.648-11.962
					c-1.702-4.255-3.397-8.689-5.019-13.232c-1.469-4.592-2.853-9.298-4.141-14.027c-0.552-2.391-1.107-4.78-1.619-7.169
					c-0.266-1.192-0.518-2.385-0.763-3.576c-0.264-1.186-0.46-2.384-0.644-3.579c-0.759-4.777-1.513-9.468-1.843-14.074
					c-0.095-1.147-0.19-2.285-0.283-3.412c-0.084-1.128-0.195-2.239-0.224-3.351c-0.083-2.22-0.133-4.392-0.164-6.503
					c-0.062-2.107,0.003-4.169,0.082-6.16c0.084-1.991,0.135-3.905,0.296-5.75c0.182-1.847,0.324-3.608,0.52-5.281
					c0.177-1.671,0.422-3.261,0.666-4.746c0.445-2.968,1.034-5.547,1.521-7.649c0.541-2.107,1.007-3.739,1.394-4.851
					c0.18-0.554,0.335-0.973,0.444-1.253C883.561,64.449,883.616,64.304,883.616,64.304"/>
				<path style="clip-path:url(#SVGID_4_);fill:#0066FF;" d="M825.506,335.486c0,0,0.396-0.5,1.139-1.438
					c0.743-0.92,1.832-2.268,3.218-3.985c1.383-1.684,3.062-3.729,4.988-6.075c1.916-2.311,4.077-4.918,6.434-7.762
					c2.338-2.814,4.87-5.864,7.548-9.089c2.682-3.197,5.45-6.601,8.335-10.08c2.852-3.509,5.809-7.106,8.755-10.797
					c0.741-0.918,1.485-1.84,2.23-2.765c0.728-0.938,1.461-1.876,2.207-2.807c1.495-1.859,2.946-3.759,4.418-5.646
					c1.498-1.866,2.889-3.806,4.368-5.674c1.432-1.901,2.858-3.795,4.273-5.674c0.693-0.949,1.384-1.895,2.071-2.836
					c0.693-0.937,1.403-1.858,2.073-2.797c1.351-1.872,2.687-3.722,4-5.54c1.276-1.843,2.572-3.638,3.826-5.406
					c1.214-1.791,2.43-3.532,3.632-5.225c1.143-1.721,2.275-3.392,3.392-5.005c1.118-1.612,2.112-3.216,3.152-4.723
					c0.514-0.758,1.017-1.501,1.509-2.226c0.47-0.737,0.917-1.464,1.385-2.16c0.928-1.403,1.808-2.734,2.635-3.985
					c1.587-2.54,3.07-4.743,4.267-6.579c2.321-3.701,3.855-5.801,3.855-5.801s-0.105,2.55-0.653,6.986
					c-0.293,2.211-0.803,4.854-1.403,7.909c-0.324,1.518-0.763,3.098-1.179,4.793c-0.206,0.848-0.451,1.705-0.69,2.589
					c-0.267,0.873-0.54,1.765-0.819,2.677c-0.582,1.815-1.164,3.729-1.885,5.653c-0.721,1.925-1.483,3.915-2.296,5.951
					c-0.865,2.005-1.772,4.063-2.728,6.156c-0.476,1.048-1.008,2.076-1.531,3.126c-0.53,1.046-1.066,2.102-1.605,3.167
					c-1.109,2.113-2.322,4.212-3.529,6.353c-1.25,2.112-2.571,4.215-3.903,6.338c-1.396,2.075-2.782,4.185-4.253,6.245
					c-1.49,2.044-2.972,4.11-4.542,6.104c-1.579,1.987-3.136,3.994-4.793,5.901c-0.813,0.966-1.633,1.924-2.459,2.871
					c-0.843,0.931-1.684,1.859-2.522,2.784c-3.357,3.69-6.849,7.143-10.316,10.379c-3.498,3.207-6.96,6.21-10.385,8.889
					c-3.404,2.7-6.733,5.112-9.883,7.228c-6.295,4.242-11.864,7.296-15.88,9.22c-1.999,0.974-3.619,1.657-4.731,2.104
					c-0.553,0.228-0.991,0.382-1.282,0.49C825.656,335.432,825.506,335.486,825.506,335.486"/>
				<path style="clip-path:url(#SVGID_4_);fill:#0066FF;" d="M877.172,349.063c0,0,0.592-0.296,1.661-0.897
					c1.077-0.584,2.602-1.544,4.502-2.786c0.95-0.62,1.98-1.343,3.098-2.118c1.096-0.819,2.304-1.651,3.538-2.628
					c2.494-1.907,5.237-4.133,8.1-6.701c1.451-1.255,2.901-2.639,4.416-4.04c1.461-1.471,3.042-2.896,4.542-4.505
					c3.102-3.1,6.165-6.573,9.312-10.163c3.068-3.67,6.213-7.473,9.209-11.508c0.749-1.008,1.539-1.988,2.264-3.028
					c0.728-1.035,1.465-2.068,2.215-3.094l1.121-1.544l1.078-1.582l2.148-3.172c0.737-1.043,1.427-2.121,2.12-3.195
					c0.695-1.073,1.389-2.145,2.081-3.214c1.369-2.15,2.68-4.33,4.017-6.469c0.679-1.064,1.291-2.164,1.92-3.246
					c0.637-1.078,1.271-2.151,1.902-3.217c0.316-0.533,0.63-1.065,0.944-1.595c0.298-0.54,0.595-1.077,0.89-1.612
					c0.585-1.075,1.193-2.129,1.784-3.181c0.588-1.054,1.195-2.086,1.753-3.132c0.549-1.052,1.101-2.09,1.657-3.112
					c1.095-2.054,2.216-4.041,3.206-6.029c1.022-1.976,2.015-3.897,2.976-5.756c0.984-1.852,1.826-3.692,2.714-5.427
					c0.873-1.742,1.731-3.404,2.511-5.003c0.776-1.603,1.513-3.124,2.205-4.553c0.709-1.424,1.356-2.766,1.986-3.997
					c0.594-1.245,1.14-2.389,1.633-3.423c0.987-2.068,1.824-3.678,2.368-4.785c0.568-1.101,0.87-1.687,0.87-1.687
					s-0.122,0.647-0.351,1.861c-0.251,1.207-0.583,2.991-1.082,5.242c-0.24,1.129-0.522,2.374-0.836,3.729
					c-0.337,1.347-0.736,2.793-1.145,4.347c-0.427,1.549-0.88,3.198-1.358,4.936c-0.492,1.735-1.107,3.525-1.697,5.416
					c-0.617,1.879-1.234,3.85-1.96,5.858c-0.746,2.002-1.518,4.071-2.311,6.198c-0.388,1.069-0.812,2.139-1.276,3.209
					c-0.453,1.076-0.91,2.164-1.373,3.264c-0.46,1.103-0.934,2.214-1.422,3.331c-0.493,1.116-1.034,2.222-1.556,3.349
					c-0.53,1.123-1.053,2.264-1.607,3.397c-0.275,0.568-0.551,1.139-0.828,1.711c-0.293,0.564-0.588,1.13-0.883,1.698
					c-1.191,2.267-2.347,4.59-3.661,6.853c-0.652,1.135-1.307,2.273-1.963,3.416c-0.658,1.142-1.304,2.295-2.03,3.406
					c-0.709,1.121-1.418,2.244-2.129,3.368c-0.711,1.123-1.41,2.257-2.177,3.348c-3.012,4.397-6.114,8.742-9.465,12.797
					c-0.834,1.017-1.637,2.05-2.487,3.038c-0.864,0.977-1.723,1.949-2.577,2.916c-1.674,1.958-3.489,3.761-5.215,5.574
					c-3.559,3.537-7.104,6.849-10.692,9.734c-0.884,0.734-1.765,1.445-2.661,2.116c-0.888,0.678-1.755,1.354-2.626,1.993
					c-1.782,1.236-3.456,2.476-5.164,3.537c-1.676,1.099-3.331,2.08-4.905,3c-1.609,0.874-3.103,1.736-4.578,2.433
					c-2.906,1.457-5.522,2.552-7.714,3.338c-2.184,0.806-3.95,1.288-5.153,1.592C877.827,348.971,877.172,349.063,877.172,349.063"
					/>
				<path style="clip-path:url(#SVGID_4_);fill:#0066FF;" d="M927.459,351.782c0,0,0.609-0.166,1.723-0.519
					c1.116-0.342,2.722-0.947,4.731-1.733c2.007-0.796,4.398-1.864,7.076-3.169c2.683-1.295,5.62-2.925,8.747-4.779
					c0.775-0.474,1.567-0.957,2.374-1.45c0.802-0.499,1.598-1.045,2.417-1.577c0.408-0.267,0.821-0.537,1.236-0.808
					c0.408-0.285,0.818-0.571,1.232-0.86c0.825-0.582,1.671-1.155,2.509-1.764c1.643-1.273,3.395-2.471,5.065-3.873
					c0.84-0.69,1.714-1.351,2.561-2.067c0.843-0.719,1.694-1.445,2.553-2.178c0.873-0.711,1.688-1.512,2.54-2.275
					c0.845-0.774,1.714-1.53,2.555-2.33c0.828-0.813,1.661-1.631,2.499-2.454l1.269-1.224l1.229-1.28
					c0.82-0.855,1.644-1.712,2.471-2.572c0.82-0.865,1.593-1.784,2.41-2.662c0.799-0.895,1.626-1.766,2.406-2.685l2.317-2.779
					c1.596-1.809,3.05-3.743,4.545-5.629c1.514-1.871,2.893-3.843,4.328-5.747c2.783-3.872,5.49-7.725,7.949-11.574
					c0.628-0.955,1.251-1.901,1.868-2.84c0.581-0.961,1.159-1.912,1.744-2.847c1.146-1.883,2.334-3.691,3.374-5.521
					c1.066-1.82,2.102-3.59,3.105-5.303c1.043-1.697,1.897-3.417,2.82-5.02c0.904-1.613,1.79-3.154,2.6-4.637
					c0.796-1.493,1.552-2.91,2.262-4.241c0.726-1.327,1.391-2.577,2.038-3.723c0.606-1.165,1.161-2.235,1.663-3.201
					c1.004-1.936,1.853-3.44,2.407-4.477c0.577-1.029,0.884-1.579,0.884-1.579s-0.128,0.614-0.37,1.765
					c-0.263,1.144-0.613,2.837-1.135,4.973c-0.253,1.07-0.544,2.252-0.876,3.536c-0.357,1.274-0.779,2.64-1.213,4.11
					c-0.45,1.465-0.93,3.024-1.435,4.668c-0.531,1.636-1.182,3.321-1.812,5.103c-0.328,0.886-0.662,1.791-1.003,2.713
					c-0.34,0.923-0.692,1.863-1.095,2.798c-0.801,1.878-1.629,3.818-2.48,5.813c-0.41,1.008-0.891,1.997-1.384,2.996
					c-0.488,1.003-0.982,2.017-1.482,3.044c-0.497,1.028-1.006,2.066-1.537,3.104c-0.562,1.022-1.129,2.055-1.701,3.096
					c-1.14,2.087-2.303,4.208-3.623,6.276c-1.299,2.079-2.542,4.232-4.011,6.266c-0.711,1.032-1.426,2.068-2.142,3.108
					c-0.363,0.516-0.707,1.048-1.088,1.555l-1.159,1.511c-1.557,2.009-3.064,4.068-4.742,6.001l-2.488,2.915
					c-0.838,0.963-1.728,1.883-2.588,2.823c-0.87,0.932-1.718,1.88-2.626,2.767c-0.911,0.885-1.818,1.769-2.722,2.648l-1.353,1.315
					l-1.403,1.253c-0.941,0.824-1.877,1.644-2.807,2.459c-0.942,0.801-1.916,1.558-2.861,2.329
					c-0.951,0.766-1.895,1.524-2.881,2.217c-0.974,0.706-1.939,1.405-2.896,2.099c-0.953,0.695-1.956,1.309-2.921,1.946
					c-1.92,1.288-3.89,2.419-5.789,3.527c-3.867,2.12-7.606,3.952-11.176,5.366c-3.571,1.405-6.897,2.527-9.911,3.289
					c-3.009,0.77-5.658,1.293-7.862,1.577c-2.2,0.302-3.942,0.388-5.122,0.43C928.087,351.828,927.459,351.782,927.459,351.782"/>
				<path style="clip-path:url(#SVGID_4_);fill:#0066FF;" d="M846.566,75.883c0,0-0.478,3.185-0.968,8.75
					c-0.248,2.781-0.52,6.153-0.722,10.02c-0.232,3.863-0.375,8.223-0.455,12.966c-0.013,1.186-0.026,2.396-0.039,3.63
					c-0.02,1.231,0.014,2.489,0.019,3.765c-0.003,2.552,0.079,5.19,0.143,7.896c0.2,5.415,0.467,11.112,0.987,16.983
					c0.225,2.938,0.55,5.914,0.864,8.926c0.137,1.508,0.356,3.016,0.557,4.534c0.192,1.518,0.384,3.044,0.577,4.575
					c0.94,6.103,1.892,12.302,3.209,18.432l0.932,4.607c0.359,1.524,0.716,3.047,1.074,4.566c0.372,1.516,0.696,3.042,1.083,4.546
					c0.396,1.502,0.792,3,1.184,4.493c0.75,2.996,1.666,5.918,2.5,8.83c0.801,2.924,1.813,5.74,2.694,8.552
					c0.466,1.396,0.864,2.807,1.384,4.157c0.499,1.358,0.984,2.708,1.453,4.049c0.478,1.337,0.932,2.668,1.415,3.97
					c0.509,1.292,1.012,2.568,1.508,3.827c1.887,5.085,4.005,9.756,5.814,14.154c0.991,2.16,1.94,4.23,2.843,6.199
					c0.446,0.991,0.881,1.956,1.303,2.894c0.453,0.923,0.893,1.819,1.319,2.689c0.849,1.745,1.644,3.379,2.379,4.89
					c0.364,0.759,0.714,1.488,1.048,2.185c0.357,0.683,0.697,1.336,1.02,1.954c1.3,2.473,2.273,4.457,2.96,5.796
					c0.669,1.354,1.026,2.076,1.026,2.076s-0.515-0.616-1.48-1.772c-0.947-1.17-2.37-2.866-4.121-5.076
					c-0.439-0.552-0.9-1.135-1.385-1.746c-0.455-0.63-0.932-1.29-1.429-1.977c-0.988-1.384-2.056-2.881-3.197-4.481
					c-0.568-0.803-1.163-1.629-1.741-2.498c-0.563-0.88-1.142-1.785-1.737-2.713c-1.178-1.871-2.417-3.837-3.709-5.889
					c-2.377-4.22-5.057-8.762-7.466-13.786c-0.619-1.249-1.247-2.515-1.882-3.797c-0.601-1.297-1.177-2.625-1.777-3.96
					c-1.201-2.672-2.407-5.413-3.482-8.262c-1.109-2.836-2.264-5.714-3.23-8.698c-0.505-1.485-1.015-2.979-1.526-4.481
					c-0.523-1.498-0.927-3.041-1.388-4.574c-0.449-1.537-0.9-3.08-1.352-4.627c-0.454-1.547-0.804-3.127-1.201-4.698
					c-0.385-1.574-0.77-3.152-1.155-4.731l-1.005-4.773c-0.688-3.181-1.182-6.398-1.728-9.592c-0.294-1.593-0.491-3.199-0.692-4.799
					c-0.204-1.598-0.408-3.193-0.611-4.78c-0.309-3.186-0.656-6.343-0.834-9.474c-0.093-1.565-0.186-3.12-0.279-4.664
					c-0.108-1.543-0.093-3.082-0.144-4.603c-0.194-6.086-0.009-11.973,0.28-17.536c0.349-5.563,0.866-10.803,1.539-15.612
					c0.686-4.807,1.453-9.187,2.303-13.033c0.823-3.851,1.69-7.172,2.479-9.882c0.765-2.716,1.52-4.808,2.008-6.233
					C846.248,76.623,846.566,75.883,846.566,75.883"/>
				<path style="clip-path:url(#SVGID_4_);fill:#0066FF;" d="M808.852,108.469c0,0-0.174,0.828-0.462,2.381
					c-0.297,1.55-0.673,3.834-1.111,6.735c-0.446,2.9-0.913,6.427-1.368,10.469c-0.109,1.011-0.222,2.054-0.338,3.127
					c-0.113,1.074-0.199,2.181-0.304,3.315c-0.225,2.264-0.373,4.654-0.562,7.138c-0.069,1.244-0.14,2.514-0.213,3.808
					c-0.079,1.292-0.15,2.609-0.179,3.951c-0.048,1.339-0.098,2.701-0.147,4.084c-0.018,1.383-0.037,2.787-0.056,4.21
					c-0.066,2.842,0.008,5.765,0.019,8.744c0.048,1.49,0.097,2.995,0.146,4.515c0.046,1.519,0.076,3.051,0.192,4.595
					c0.092,1.542,0.185,3.098,0.279,4.665c0.077,1.566,0.254,3.139,0.378,4.722c0.23,3.17,0.641,6.359,0.992,9.578
					c0.154,1.612,0.416,3.217,0.653,4.829c0.243,1.611,0.476,3.228,0.7,4.85c0.287,1.612,0.575,3.226,0.862,4.842
					c0.294,1.615,0.547,3.24,0.925,4.838c0.703,3.208,1.278,6.447,2.14,9.604c0.394,1.589,0.787,3.173,1.179,4.753
					c0.389,1.582,0.883,3.129,1.317,4.687c0.447,1.554,0.892,3.103,1.336,4.644c0.497,1.525,0.991,3.041,1.483,4.549
					c0.499,1.506,0.963,3.015,1.481,4.493c0.542,1.47,1.081,2.929,1.616,4.376c0.535,1.448,1.047,2.892,1.589,4.31
					c0.591,1.396,1.166,2.785,1.726,4.164c0.564,1.379,1.122,2.742,1.673,4.089c0.569,1.34,1.212,2.626,1.786,3.925
					c0.589,1.293,1.17,2.569,1.742,3.826c0.287,0.629,0.573,1.252,0.855,1.871c0.309,0.606,0.615,1.208,0.918,1.804
					c1.205,2.397,2.369,4.713,3.486,6.936c1.171,2.198,2.367,4.264,3.451,6.269c0.546,1.001,1.078,1.977,1.595,2.924
					c0.517,0.949,1.097,1.822,1.607,2.702c1.045,1.75,2.024,3.387,2.929,4.901c0.45,0.763,0.881,1.494,1.293,2.193
					c0.439,0.68,0.858,1.329,1.256,1.945c1.604,2.456,2.821,4.432,3.675,5.766c0.836,1.349,1.281,2.068,1.281,2.068
					s-0.594-0.599-1.706-1.723c-1.096-1.14-2.736-2.79-4.769-4.949c-0.507-0.541-1.058-1.099-1.604-1.709
					c-0.529-0.624-1.083-1.276-1.659-1.957c-1.149-1.372-2.391-2.855-3.718-4.44c-0.656-0.801-1.366-1.605-2.019-2.488
					c-0.655-0.883-1.33-1.791-2.021-2.722c-1.377-1.871-2.834-3.839-4.31-5.926c-1.391-2.144-2.84-4.378-4.34-6.69
					c-0.373-0.581-0.749-1.168-1.128-1.758c-0.349-0.608-0.7-1.222-1.055-1.839c-0.707-1.238-1.424-2.496-2.152-3.77
					c-0.723-1.278-1.478-2.565-2.171-3.903c-0.675-1.349-1.358-2.713-2.048-4.093c-0.695-1.379-1.387-2.779-2.077-4.197
					c-0.648-1.436-1.268-2.902-1.913-4.373c-0.636-1.476-1.278-2.963-1.925-4.462c-0.603-1.515-1.154-3.063-1.74-4.611
					c-0.578-1.551-1.16-3.111-1.744-4.679c-0.504-1.596-1.01-3.199-1.519-4.808c-0.494-1.614-1.048-3.219-1.497-4.859
					c-0.435-1.644-0.871-3.293-1.309-4.945c-0.922-3.294-1.565-6.666-2.313-10.015c-0.38-1.674-0.631-3.372-0.925-5.06
					c-0.286-1.689-0.57-3.377-0.855-5.061c-0.23-1.692-0.441-3.384-0.644-5.071c-0.205-1.687-0.433-3.366-0.554-5.049
					c-0.143-1.68-0.286-3.354-0.429-5.019c-0.155-1.664-0.17-3.329-0.26-4.978c-0.06-1.651-0.172-3.289-0.186-4.919
					c-0.008-1.629-0.015-3.246-0.022-4.85c-0.025-1.603,0.034-3.193,0.079-4.766c0.045-1.573,0.085-3.131,0.167-4.67
					c0.102-1.538,0.203-3.059,0.302-4.561c0.053-0.751,0.091-1.497,0.157-2.238c0.076-0.74,0.15-1.474,0.225-2.204
					c0.523-5.841,1.398-11.319,2.275-16.345c0.959-5.018,1.972-9.58,3.056-13.578c1.074-3.998,2.133-7.444,3.115-10.246
					c0.949-2.809,1.843-4.966,2.437-6.436c0.3-0.734,0.552-1.288,0.723-1.662C808.764,108.66,808.852,108.469,808.852,108.469"/>
				<path style="clip-path:url(#SVGID_4_);fill:#0066FF;" d="M888.631,112.001c0,0,0.673-0.262,1.956-0.686
					c1.285-0.418,3.171-1.037,5.602-1.718c2.431-0.674,5.398-1.456,8.832-2.213c3.431-0.782,7.33-1.524,11.606-2.241
					c4.28-0.667,8.937-1.332,13.891-1.786c4.952-0.497,10.198-0.798,15.638-0.956c2.72-0.029,5.489-0.109,8.293-0.025
					c1.402,0.029,2.813,0.058,4.231,0.088c1.419,0.03,2.842,0.149,4.272,0.22c5.726,0.265,11.525,0.944,17.311,1.724
					c1.445,0.199,2.882,0.486,4.321,0.725c1.437,0.26,2.878,0.479,4.305,0.774c1.426,0.301,2.85,0.601,4.264,0.922
					c0.708,0.158,1.414,0.315,2.12,0.472c0.705,0.158,1.4,0.362,2.099,0.54c2.788,0.742,5.565,1.421,8.245,2.346
					c1.346,0.433,2.685,0.863,4.014,1.29c1.328,0.426,2.61,0.973,3.899,1.451c1.283,0.493,2.556,0.981,3.817,1.465
					c1.243,0.533,2.464,1.085,3.67,1.633c1.204,0.547,2.395,1.089,3.572,1.624c1.149,0.599,2.282,1.191,3.402,1.774
					c1.112,0.59,2.209,1.172,3.29,1.745c1.055,0.626,2.088,1.249,3.096,1.874c1.008,0.622,1.998,1.233,2.969,1.833
					c0.49,0.29,0.959,0.607,1.415,0.937c0.457,0.325,0.91,0.647,1.358,0.965c0.891,0.64,1.763,1.266,2.616,1.878
					c0.847,0.617,1.697,1.181,2.449,1.849c1.529,1.279,2.979,2.493,4.341,3.634c0.335,0.29,0.674,0.563,0.99,0.853
					c0.309,0.3,0.612,0.594,0.91,0.883c0.592,0.58,1.161,1.139,1.709,1.677c1.088,1.08,2.089,2.059,2.97,2.965
					c1.672,1.917,2.93,3.457,3.803,4.485c0.855,1.042,1.311,1.598,1.311,1.598s-0.588-0.42-1.691-1.205
					c-1.084-0.801-2.697-1.941-4.679-3.436c-1.043-0.681-2.197-1.436-3.454-2.257c-0.622-0.412-1.269-0.841-1.941-1.285
					c-0.333-0.223-0.673-0.45-1.019-0.682c-0.353-0.22-0.728-0.424-1.099-0.641c-1.481-0.868-3.057-1.791-4.718-2.765
					c-0.813-0.506-1.704-0.937-2.598-1.404c-0.893-0.462-1.808-0.935-2.742-1.419c-0.465-0.243-0.933-0.488-1.408-0.736
					c-0.468-0.257-0.949-0.502-1.452-0.717c-0.994-0.452-2.006-0.911-3.035-1.379c-1.023-0.472-2.063-0.952-3.12-1.439
					c-1.083-0.432-2.181-0.87-3.295-1.314c-1.108-0.45-2.23-0.907-3.367-1.37c-1.159-0.407-2.332-0.82-3.518-1.236
					c-1.182-0.42-2.377-0.843-3.583-1.271c-1.226-0.375-2.464-0.754-3.712-1.136c-1.25-0.373-2.495-0.787-3.772-1.139
					c-1.281-0.342-2.569-0.686-3.867-1.033c-1.298-0.342-2.593-0.719-3.927-0.989c-1.323-0.308-2.652-0.617-3.987-0.928
					c-0.669-0.149-1.332-0.324-2.008-0.454l-2.033-0.389c-1.358-0.254-2.715-0.529-4.075-0.805
					c-1.362-0.269-2.743-0.461-4.117-0.697c-1.377-0.217-2.748-0.471-4.133-0.658l-4.15-0.577l-2.073-0.289l-2.08-0.225
					c-1.386-0.143-2.769-0.301-4.146-0.466c-1.378-0.165-2.761-0.253-4.134-0.383c-2.746-0.26-5.481-0.442-8.184-0.629
					c-1.351-0.107-2.696-0.173-4.034-0.225c-1.337-0.069-2.665-0.139-3.981-0.208c-5.272-0.178-10.383-0.335-15.238-0.329
					c-1.215-0.006-2.414-0.011-3.594-0.016c-1.181,0.011-2.344,0.023-3.488,0.034c-2.292-0.017-4.501,0.091-6.631,0.104
					c-4.253,0.114-8.163,0.236-11.631,0.402c-3.472,0.14-6.498,0.33-9,0.462c-2.496,0.168-4.472,0.261-5.812,0.377
					C889.349,111.948,888.631,112.001,888.631,112.001"/>
				<path style="clip-path:url(#SVGID_4_);fill:#0066FF;" d="M899.181,160.393c0,0,0.73-0.21,2.115-0.528
					c1.386-0.313,3.423-0.777,6.036-1.247c2.613-0.469,5.799-0.989,9.472-1.438c1.836-0.259,3.795-0.418,5.863-0.65
					c2.068-0.182,4.246-0.368,6.523-0.51c4.553-0.287,9.498-0.455,14.736-0.436c1.311-0.022,2.637,0.019,3.98,0.055
					c1.344,0.036,2.706,0.072,4.081,0.109c1.375,0.072,2.765,0.145,4.168,0.218c1.404,0.074,2.821,0.161,4.246,0.291
					c1.428,0.12,2.867,0.241,4.317,0.362c1.449,0.134,2.903,0.331,4.368,0.495c1.464,0.184,2.944,0.319,4.42,0.547
					c1.476,0.227,2.96,0.456,4.449,0.686c1.492,0.214,2.981,0.493,4.474,0.775c1.495,0.274,2.993,0.556,4.49,0.855
					c1.491,0.337,2.984,0.676,4.479,1.015c1.492,0.355,2.998,0.65,4.478,1.067l4.444,1.217c0.738,0.208,1.483,0.394,2.215,0.622
					l2.195,0.689c1.462,0.457,2.921,0.914,4.368,1.39c1.448,0.476,2.866,1.037,4.291,1.549c1.42,0.53,2.843,1.029,4.242,1.578
					c1.383,0.589,2.759,1.175,4.126,1.758c1.36,0.601,2.74,1.122,4.052,1.786c1.319,0.643,2.629,1.282,3.927,1.915
					c1.297,0.635,2.587,1.253,3.82,1.963c1.245,0.681,2.473,1.365,3.682,2.051c0.605,0.341,1.207,0.68,1.805,1.017
					c0.598,0.337,1.165,0.724,1.744,1.08c1.146,0.728,2.279,1.448,3.396,2.158c2.252,1.384,4.308,2.947,6.321,4.404
					c0.996,0.744,1.995,1.443,2.936,2.186c0.923,0.766,1.829,1.518,2.717,2.254c3.599,2.87,6.564,5.895,9.238,8.473
					c0.674,0.64,1.245,1.349,1.838,1.984c0.579,0.648,1.138,1.274,1.674,1.874c1.059,1.212,2.063,2.286,2.895,3.327
					c1.633,2.113,2.859,3.806,3.712,4.939c0.834,1.146,1.279,1.758,1.279,1.758s-0.586-0.483-1.684-1.389
					c-1.079-0.92-2.687-2.238-4.66-3.956c-1.02-0.827-2.193-1.692-3.436-2.661c-1.265-0.945-2.559-2.042-4.033-3.101
					c-3.007-2.05-6.253-4.505-10.069-6.788c-0.932-0.596-1.885-1.203-2.855-1.822c-0.982-0.6-2.021-1.154-3.055-1.747
					c-2.084-1.161-4.163-2.468-6.454-3.559c-2.272-1.117-4.506-2.426-6.953-3.468c-2.429-1.07-4.82-2.327-7.397-3.315
					c-2.551-1.036-5.1-2.177-7.779-3.113c-1.327-0.494-2.661-0.991-4.002-1.49c-1.347-0.483-2.721-0.922-4.088-1.388
					c-1.374-0.45-2.736-0.947-4.132-1.362c-1.4-0.404-2.797-0.829-4.197-1.256c-2.783-0.902-5.657-1.562-8.491-2.344
					c-1.411-0.414-2.856-0.709-4.284-1.063c-1.431-0.339-2.861-0.677-4.289-1.015c-2.884-0.554-5.722-1.274-8.585-1.772
					c-5.707-1.089-11.359-2.032-16.86-2.802c-2.744-0.435-5.466-0.683-8.118-1.069c-2.661-0.292-5.267-0.594-7.81-0.843
					c-2.543-0.254-5.02-0.486-7.422-0.673c-2.4-0.229-4.724-0.361-6.958-0.528c-4.468-0.306-8.577-0.523-12.226-0.675
					c-3.651-0.169-6.84-0.244-9.475-0.321c-2.631-0.048-4.71-0.114-6.125-0.107C899.938,160.397,899.181,160.393,899.181,160.393"/>
			</g>
		</g>
	</g>
	<g>
		<path style="fill:#0066FF;" d="M38.938,120.25V83.995c13.184,0,19.775,9.888,19.775,29.663v6.592
			c0,7.295,2.571,13.513,7.712,18.654s11.359,9.911,18.655,14.305c7.294-4.394,13.513-9.163,18.655-14.305
			s7.712-11.359,7.712-18.654v-6.592c0-19.775,6.592-29.663,19.775-29.663v36.255c0,12.744-4.505,23.621-13.513,32.63
			c-9.009,9.009-19.886,16.809-32.629,23.4c-12.745-6.592-23.621-14.392-32.629-23.4C43.441,143.871,38.938,132.994,38.938,120.25z"
			/>
		<path style="fill:#0066FF;" d="M216.428,97.508c9.008,9.01,13.513,19.886,13.513,32.63s-4.505,23.621-13.513,32.629
			c-9.009,9.01-19.886,13.514-32.629,13.514c-12.745,0-23.621-4.504-32.629-13.514c-9.009-9.008-13.513-19.885-13.513-32.629
			s4.504-23.62,13.513-32.63c9.008-9.008,19.885-13.513,32.629-13.513C196.542,83.995,207.419,88.5,216.428,97.508z
			 M183.799,103.771c-7.295,0-13.513,2.57-18.655,7.712s-7.712,11.36-7.712,18.655s2.571,13.514,7.712,18.654
			c5.142,5.143,11.359,7.713,18.655,7.713c7.294,0,13.513-2.57,18.655-7.713c5.142-5.141,7.712-11.359,7.712-18.654
			s-2.571-13.514-7.712-18.655S191.093,103.771,183.799,103.771z"/>
		<path style="fill:#0066FF;" d="M256.15,156.505h72.51c0,13.184-17.579,19.775-52.734,19.775h-39.551V83.995
			c13.184,0,19.775,17.578,19.775,52.734V156.505z"/>
		<path style="fill:#0066FF;" d="M354.869,156.505h72.51c0,13.184-17.579,19.775-52.734,19.775h-39.551V83.995
			c13.184,0,19.775,17.578,19.775,52.734V156.505z"/>
		<path style="fill:#0066FF;" d="M512.914,83.995c0,13.184-17.579,19.775-52.734,19.775h-26.367V83.995H512.914z M519.506,120.25
			c0,13.184-17.579,19.775-52.734,19.775h-32.959V120.25H519.506z M526.098,156.505c0,13.184-17.579,19.775-52.734,19.775h-39.551
			v-19.775H526.098z"/>
		<path style="fill:#0066FF;" d="M568.786,155.517c-8.569-1.758-16.15-5.934-22.742-12.525
			c-9.009-9.008-13.513-19.885-13.513-32.629V83.995c13.184,0,19.775,7.69,19.775,23.071v3.296c0,7.295,2.571,13.513,7.712,18.654
			s11.359,7.713,18.655,7.713c7.294,0,13.513-2.571,18.655-7.713c5.141-5.142,7.712-11.359,7.712-18.654v-3.296
			c0-15.381,6.592-23.071,19.775-23.071v26.367c0,12.744-4.505,23.621-13.514,32.629c-6.592,6.592-14.172,10.768-22.741,12.525
			v20.764h-19.775V155.517z"/>
		<path style="fill:#0066FF;" d="M300.645,259.25c2.285,0,4.229-0.802,5.833-2.406c1.604-1.604,2.406-3.548,2.406-5.833
			s-0.802-4.229-2.406-5.834c-1.604-1.604-3.549-2.406-5.833-2.406H256.15v19.775c0,35.157-6.592,52.734-19.775,52.734v-92.285
			h64.27c7.734,0,14.337,2.735,19.808,8.207c5.472,5.471,8.207,12.074,8.207,19.809c0,6.943-2.22,12.985-6.658,18.127
			c4.438,5.142,6.658,11.185,6.658,18.127c0,7.735-2.735,14.338-8.207,19.809c-5.471,5.472-12.074,8.207-19.808,8.207H256.15
			c0-13.184,8.789-19.775,26.367-19.775h18.127c2.285,0,4.229-0.802,5.833-2.406c1.604-1.604,2.406-3.548,2.406-5.834
			c0-2.284-0.802-4.229-2.406-5.833c-1.604-1.604-3.549-2.406-5.833-2.406H256.15c0-13.184,8.789-19.775,26.367-19.775H300.645z"/>
		<path style="fill:#0066FF;" d="M407.406,265.842c-0.659-5.889-3.164-11.009-7.515-15.358c-5.142-5.143-11.36-7.713-18.655-7.713
			c-7.295,0-13.513,2.57-18.655,7.713c-5.142,5.141-7.712,11.36-7.712,18.654v16.479c0,19.775-6.592,29.663-19.775,29.663v-46.143
			c0-12.744,4.504-23.62,13.513-32.629c9.008-9.009,19.885-13.514,32.629-13.514c12.744,0,23.62,4.505,32.629,13.514
			c9.008,9.009,13.513,19.885,13.513,32.629v46.143c-13.184,0-19.775-9.888-19.775-29.663v-0.856
			c-21.973-2.197-32.959-8.504-32.959-18.919H407.406z"/>
		<path style="fill:#0066FF;" d="M453.588,295.505h72.51c0,13.184-17.579,19.775-52.734,19.775h-39.551v-92.285
			c13.184,0,19.775,17.578,19.775,52.734V295.505z"/>
		<path style="fill:#0066FF;" d="M552.307,295.505h72.51c0,13.184-17.579,19.775-52.734,19.775h-39.551v-92.285
			c13.184,0,19.775,17.578,19.775,52.734V295.505z"/>
	</g>
</g>
</svg>
