<?xml version="1.0" encoding="iso-8859-1"?>
<!-- Generator: Adobe Illustrator 19.1.0, SVG Export Plug-In . SVG Version: 6.00 Build 0)  -->
<svg version="1.1" id="Calque_2" xmlns="http://www.w3.org/2000/svg" xmlns:xlink="http://www.w3.org/1999/xlink" x="0px" y="0px"
	 viewBox="0 0 1200 400" style="enable-background:new 0 0 1200 400;" xml:space="preserve">
<g>
	<g>
		<g>
			<defs>
				<rect id="SVGID_1_" x="714.731" y="-16.117" width="430.233" height="430.233"/>
			</defs>
			<clipPath id="SVGID_2_">
				<use xlink:href="#SVGID_1_"  style="overflow:visible;"/>
			</clipPath>
			<g style="clip-path:url(#SVGID_2_);">
				<defs>
					<rect id="SVGID_3_" x="714.731" y="-16.117" width="430.233" height="430.233"/>
				</defs>
				<clipPath id="SVGID_4_">
					<use xlink:href="#SVGID_3_"  style="overflow:visible;"/>
				</clipPath>
				<path style="clip-path:url(#SVGID_4_);" d="M1043.489,160.611c-4.625,2.914-9.42,5.915-14.255,8.917
					c-50.8,31.54-61.128,35.214-63.147,35.548c-5.856-0.236-12.943-1.411-19.483-3.231c-2.227-0.62-4.079-1.229-5.599-1.794
					c8.808-3.962,28.782-12.115,73.837-28.873C1024.662,167.526,1034.426,163.93,1043.489,160.611 M1087.03,139.111
					c0,0-158.118,56.579-156.417,60.786c1.7,4.207,20.952,10.018,35.471,10.554c0.032,0.002,0.064,0.002,0.096,0.002
					C977.776,210.453,1087.03,139.111,1087.03,139.111"/>
				<path style="clip-path:url(#SVGID_4_);" d="M951.98,169.128c0,0,0.521-0.148,1.497-0.426c0.977-0.272,2.406-0.696,4.234-1.188
					c3.653-1.003,8.875-2.413,15.163-4.012c3.142-0.805,6.546-1.678,10.158-2.554c3.61-0.885,7.411-1.837,11.359-2.756
					c3.947-0.922,8.015-1.922,12.168-2.852c4.151-0.942,8.366-1.9,12.583-2.857c4.225-0.92,8.449-1.839,12.607-2.744
					c4.154-0.922,8.265-1.735,12.231-2.572c3.965-0.84,7.811-1.592,11.456-2.316c3.642-0.736,7.095-1.391,10.284-1.989
					c6.373-1.215,11.701-2.149,15.435-2.786c1.865-0.328,3.338-0.549,4.339-0.715c1.002-0.163,1.536-0.249,1.536-0.249
					s-0.521,0.148-1.496,0.426c-0.978,0.274-2.406,0.697-4.234,1.19c-3.652,1.004-8.874,2.415-15.161,4.015
					c-3.142,0.808-6.547,1.677-10.159,2.554c-3.609,0.889-7.411,1.836-11.359,2.755c-3.947,0.922-8.014,1.927-12.169,2.851
					c-4.15,0.942-8.366,1.898-12.583,2.855c-4.225,0.919-8.449,1.838-12.608,2.742c-4.156,0.916-8.265,1.734-12.231,2.57
					c-3.966,0.84-7.813,1.588-11.457,2.315c-3.642,0.737-7.096,1.389-10.284,1.99c-6.373,1.214-11.701,2.149-15.434,2.788
					c-1.865,0.329-3.338,0.55-4.339,0.717C952.514,169.041,951.98,169.128,951.98,169.128"/>
				<path style="clip-path:url(#SVGID_4_);" d="M929.708,206.595c2.806,5.123,9.056,18.712,22.429,54.712
					c3.713,9.993,7.289,19.874,10.308,28.32c-4.628-5.028-9.779-10.692-14.939-16.498c-27.625-31.08-32.22-39.976-32.978-42.164
					c1.722-4.892,5.004-11.039,8.905-16.65C926.021,210.593,928.152,208.137,929.708,206.595 M930.682,199.346
					c-0.064,0-0.124,0.011-0.182,0.034c-5.843,2.271-17.547,18.989-21.367,30.769c-2.909,8.977,66.89,81.844,66.89,81.844
					S937.116,199.342,930.682,199.346"/>
				<path style="clip-path:url(#SVGID_4_);" d="M965.973,209.933c0,0,0.07,0.396,0.203,1.138c0.127,0.742,0.338,1.828,0.559,3.216
					c0.461,2.772,1.095,6.735,1.763,11.5c0.339,2.382,0.707,4.961,1.048,7.695c0.351,2.733,0.739,5.614,1.074,8.6
					c0.338,2.986,0.737,6.066,1.052,9.205c0.328,3.137,0.662,6.324,0.996,9.512c0.295,3.191,0.59,6.382,0.881,9.524
					c0.308,3.14,0.514,6.239,0.766,9.234c0.254,2.994,0.439,5.894,0.625,8.643c0.198,2.748,0.343,5.35,0.473,7.753
					c0.275,4.804,0.424,8.814,0.512,11.623c0.053,1.403,0.058,2.51,0.077,3.263c0.014,0.754,0.022,1.156,0.022,1.156
					s-0.071-0.396-0.203-1.138c-0.128-0.742-0.339-1.828-0.561-3.216c-0.461-2.772-1.098-6.735-1.765-11.499
					c-0.342-2.382-0.707-4.962-1.049-7.696c-0.354-2.733-0.738-5.614-1.073-8.599c-0.337-2.986-0.74-6.065-1.05-9.205
					c-0.328-3.137-0.661-6.325-0.994-9.512c-0.295-3.191-0.589-6.383-0.879-9.524c-0.303-3.141-0.513-6.239-0.764-9.234
					c-0.255-2.994-0.435-5.895-0.624-8.643c-0.199-2.748-0.342-5.35-0.473-7.753c-0.275-4.803-0.426-8.814-0.515-11.623
					c-0.054-1.403-0.058-2.51-0.079-3.263C965.98,210.335,965.973,209.933,965.973,209.933"/>
				<path style="clip-path:url(#SVGID_4_);" d="M894.801,193.882c5.855,0.236,12.942,1.41,19.481,3.231
					c2.227,0.62,4.079,1.229,5.599,1.793c-8.807,3.962-28.781,12.116-73.836,28.874c-9.818,3.652-19.582,7.248-28.641,10.565
					c4.623-2.912,9.417-5.913,14.25-8.914C882.452,197.892,892.781,194.217,894.801,193.882 M894.706,188.505
					c-11.595,0.004-120.85,71.341-120.85,71.341s158.118-56.579,156.418-60.786c-1.701-4.207-20.952-10.018-35.472-10.554
					C894.77,188.505,894.739,188.505,894.706,188.505"/>
				<path style="clip-path:url(#SVGID_4_);" d="M908.907,229.83c0,0-0.521,0.148-1.497,0.426c-0.978,0.272-2.405,0.696-4.234,1.188
					c-3.653,1.003-8.875,2.413-15.163,4.012c-3.142,0.805-6.546,1.678-10.158,2.554c-3.61,0.886-7.411,1.837-11.359,2.756
					c-3.947,0.922-8.015,1.922-12.168,2.852c-4.151,0.942-8.366,1.9-12.583,2.857c-4.225,0.92-8.449,1.839-12.608,2.744
					c-4.154,0.922-8.264,1.735-12.23,2.572c-3.966,0.84-7.812,1.592-11.457,2.316c-3.642,0.736-7.095,1.391-10.284,1.989
					c-6.373,1.215-11.701,2.149-15.435,2.786c-1.865,0.328-3.338,0.549-4.339,0.716c-1.002,0.162-1.536,0.248-1.536,0.248
					s0.521-0.148,1.497-0.426c0.977-0.274,2.405-0.697,4.234-1.19c3.652-1.004,8.874-2.415,15.161-4.015
					c3.142-0.808,6.547-1.677,10.159-2.554c3.609-0.889,7.411-1.836,11.359-2.755c3.948-0.922,8.014-1.927,12.169-2.851
					c4.15-0.942,8.366-1.898,12.583-2.855c4.225-0.919,8.449-1.838,12.608-2.742c4.156-0.916,8.265-1.734,12.231-2.57
					c3.966-0.84,7.813-1.588,11.457-2.315c3.642-0.737,7.096-1.389,10.284-1.99c6.373-1.214,11.701-2.149,15.434-2.788
					c1.865-0.329,3.338-0.55,4.339-0.717C908.372,229.917,908.907,229.83,908.907,229.83"/>
				<path style="clip-path:url(#SVGID_4_);" d="M898.725,109.151c4.621,5.02,9.765,10.677,14.92,16.475
					c27.641,31.096,32.238,39.996,32.996,42.185c-1.721,4.891-5.004,11.039-8.905,16.649c-2.587,3.722-4.719,6.177-6.275,7.719
					c-2.806-5.123-9.055-18.713-22.428-54.71C905.322,127.478,901.745,117.596,898.725,109.151 M885.145,86.784
					c0,0,38.908,112.646,45.341,112.646c0.064,0,0.125-0.011,0.182-0.033c5.843-2.271,17.548-18.989,21.367-30.77
					C954.945,159.651,885.145,86.784,885.145,86.784"/>
				<path style="clip-path:url(#SVGID_4_);" d="M895.196,188.844c0,0-0.071-0.396-0.203-1.138c-0.127-0.742-0.338-1.828-0.559-3.216
					c-0.461-2.772-1.095-6.735-1.763-11.499c-0.339-2.382-0.707-4.962-1.048-7.696c-0.351-2.733-0.739-5.614-1.074-8.6
					c-0.338-2.986-0.736-6.066-1.052-9.205c-0.328-3.137-0.662-6.324-0.996-9.512c-0.295-3.191-0.59-6.382-0.881-9.524
					c-0.308-3.14-0.514-6.239-0.766-9.234c-0.254-2.994-0.439-5.893-0.625-8.643c-0.198-2.748-0.343-5.35-0.473-7.753
					c-0.275-4.803-0.424-8.815-0.512-11.623c-0.053-1.403-0.058-2.51-0.077-3.263c-0.014-0.754-0.022-1.156-0.022-1.156
					s0.071,0.396,0.203,1.138c0.128,0.743,0.339,1.828,0.561,3.216c0.462,2.772,1.098,6.735,1.765,11.499
					c0.342,2.382,0.707,4.962,1.049,7.696c0.354,2.733,0.738,5.614,1.073,8.599c0.337,2.986,0.74,6.065,1.05,9.205
					c0.328,3.137,0.661,6.325,0.994,9.512c0.295,3.191,0.589,6.383,0.879,9.524c0.303,3.14,0.513,6.238,0.764,9.233
					c0.255,2.994,0.435,5.895,0.624,8.643c0.199,2.748,0.342,5.35,0.473,7.753c0.275,4.803,0.426,8.814,0.515,11.623
					c0.054,1.403,0.059,2.51,0.079,3.263C895.188,188.442,895.196,188.844,895.196,188.844"/>
				<path style="clip-path:url(#SVGID_4_);" d="M931.211,199.691c-7.637-1.96,112.254-175.525,112.254-175.525
					s-40.574,146.387-54.719,155.061C970.183,190.611,938.848,201.651,931.211,199.691"/>
				<path style="clip-path:url(#SVGID_4_);" d="M916.934,157.861c0,0,0.422-0.591,1.211-1.699c0.809-1.091,1.964-2.721,3.494-4.737
					c3.045-4.049,7.477-9.753,12.955-16.45c5.474-6.699,11.995-14.389,19.14-22.475c1.775-2.033,3.61-4.071,5.467-6.134
					c1.852-2.069,3.732-4.156,5.654-6.235c3.81-4.19,7.754-8.378,11.687-12.577c3.974-4.159,7.934-8.331,11.909-12.366
					c0.99-1.013,1.975-2.022,2.955-3.025c0.991-0.994,1.977-1.983,2.957-2.966c1.96-1.965,3.888-3.915,5.822-5.798
					c3.837-3.794,7.594-7.416,11.178-10.83c3.591-3.408,7.019-6.599,10.21-9.518c3.197-2.914,6.152-5.562,8.8-7.884
					c2.648-2.32,4.978-4.322,6.918-5.951c1.93-1.638,3.494-2.881,4.541-3.746c1.063-0.85,1.631-1.303,1.631-1.303
					s-0.422,0.591-1.211,1.7c-0.808,1.092-1.962,2.723-3.492,4.74c-1.52,2.026-3.391,4.463-5.561,7.235
					c-2.173,2.771-4.653,5.868-7.388,9.221c-2.74,3.346-5.737,6.946-8.942,10.718c-3.212,3.767-6.622,7.718-10.198,11.757
					c-1.774,2.034-3.615,4.067-5.469,6.133c-0.928,1.033-1.86,2.071-2.798,3.116c-0.948,1.033-1.902,2.073-2.858,3.117
					c-3.81,4.19-7.758,8.374-11.692,12.571c-3.975,4.159-7.94,8.326-11.915,12.361c-1.97,2.033-3.95,4.026-5.914,5.989
					c-1.958,1.968-3.892,3.913-5.824,5.796c-7.682,7.58-15.001,14.513-21.39,20.348c-6.385,5.837-11.837,10.577-15.712,13.841
					c-1.929,1.639-3.493,2.882-4.538,3.749C917.501,157.408,916.934,157.861,916.934,157.861"/>
				<path style="clip-path:url(#SVGID_4_);" d="M930.391,199.37c4.193-6.557,204.416,52.463,204.416,52.463
					S952.922,250.7,944.668,241.2C933.837,228.731,926.198,205.926,930.391,199.37"/>
				<path style="clip-path:url(#SVGID_4_);" d="M987.927,178.906c0,0,0.619,0.195,1.778,0.561c1.148,0.389,2.851,0.92,4.981,1.671
					c4.271,1.483,10.32,3.703,17.483,6.561c7.164,2.856,15.442,6.351,24.212,10.294c2.2,0.971,4.418,1.996,6.663,3.033
					c2.248,1.031,4.521,2.081,6.794,3.173c4.568,2.143,9.166,4.407,13.768,6.661c4.578,2.303,9.164,4.591,13.632,6.935
					c1.12,0.581,2.235,1.159,3.344,1.735c1.104,0.589,2.201,1.175,3.292,1.756c2.182,1.165,4.343,2.305,6.446,3.472
					c4.223,2.297,8.277,4.576,12.107,6.764c3.827,2.196,7.424,4.314,10.728,6.301c3.302,1.995,6.312,3.854,8.964,5.535
					c2.65,1.684,4.949,3.177,6.828,4.433c1.885,1.244,3.338,2.281,4.34,2.962c0.992,0.703,1.521,1.078,1.521,1.078
					s-0.619-0.194-1.779-0.559c-1.149-0.387-2.853-0.917-4.983-1.668c-2.136-0.737-4.715-1.666-7.659-2.76
					c-2.942-1.096-6.244-2.371-9.827-3.794c-3.581-1.431-7.442-3.017-11.505-4.738c-4.059-1.729-8.325-3.58-12.707-5.556
					c-2.201-0.97-4.415-2.002-6.662-3.036c-1.123-0.518-2.254-1.039-3.389-1.562c-1.129-0.536-2.264-1.075-3.403-1.615
					c-4.569-2.142-9.163-4.413-13.765-6.668c-4.578-2.304-9.161-4.597-13.629-6.941c-2.244-1.151-4.455-2.326-6.635-3.494
					c-2.183-1.162-4.34-2.309-6.444-3.474c-8.442-4.603-16.23-9.085-22.835-13.066c-6.608-3.978-12.033-7.456-15.795-9.962
					c-1.887-1.243-3.339-2.278-4.343-2.957C988.456,179.28,987.927,178.906,987.927,178.906"/>
				<path style="clip-path:url(#SVGID_4_);" d="M929.691,199.301c7.637,1.96-112.254,175.525-112.254,175.525
					s40.574-146.387,54.719-155.061C890.719,208.382,922.054,197.341,929.691,199.301"/>
				<path style="clip-path:url(#SVGID_4_);" d="M943.968,241.131c0,0-0.422,0.591-1.212,1.699c-0.809,1.091-1.964,2.721-3.494,4.737
					c-3.045,4.049-7.477,9.753-12.955,16.45c-5.474,6.699-11.994,14.389-19.14,22.476c-1.775,2.032-3.611,4.07-5.467,6.133
					c-1.852,2.069-3.732,4.156-5.654,6.235c-3.81,4.19-7.754,8.379-11.687,12.577c-3.974,4.159-7.934,8.331-11.909,12.366
					c-0.99,1.013-1.975,2.022-2.955,3.025c-0.991,0.994-1.977,1.983-2.957,2.966c-1.96,1.965-3.888,3.915-5.822,5.798
					c-3.837,3.794-7.594,7.415-11.178,10.83c-3.591,3.408-7.019,6.599-10.21,9.518c-3.197,2.914-6.152,5.562-8.8,7.884
					c-2.648,2.32-4.978,4.323-6.918,5.951c-1.93,1.638-3.494,2.881-4.541,3.747c-1.064,0.849-1.631,1.302-1.631,1.302
					s0.422-0.591,1.211-1.7c0.808-1.092,1.962-2.723,3.492-4.739c1.52-2.027,3.391-4.464,5.561-7.236
					c2.173-2.771,4.653-5.868,7.388-9.221c2.74-3.346,5.737-6.946,8.942-10.718c3.212-3.767,6.622-7.717,10.198-11.757
					c1.774-2.034,3.615-4.066,5.469-6.133c0.928-1.033,1.86-2.071,2.798-3.115c0.948-1.034,1.902-2.074,2.858-3.117
					c3.81-4.19,7.758-8.374,11.692-12.571c3.975-4.158,7.94-8.325,11.915-12.361c1.97-2.033,3.95-4.026,5.914-5.989
					c1.958-1.968,3.892-3.912,5.824-5.796c7.682-7.58,15.001-14.513,21.389-20.348c6.385-5.837,11.837-10.577,15.712-13.84
					c1.929-1.64,3.493-2.883,4.538-3.75C943.401,241.585,943.968,241.131,943.968,241.131"/>
				<path style="clip-path:url(#SVGID_4_);" d="M930.62,199.249c-4.193,6.557-204.416-52.463-204.416-52.463
					s181.885,1.132,190.139,10.633C927.174,169.888,934.813,192.693,930.62,199.249"/>
				<path style="clip-path:url(#SVGID_4_);" d="M873.085,219.713c0,0-0.619-0.195-1.778-0.561c-1.148-0.389-2.851-0.92-4.981-1.671
					c-4.271-1.483-10.32-3.703-17.483-6.561c-7.164-2.856-15.442-6.351-24.212-10.294c-2.2-0.971-4.418-1.996-6.663-3.033
					c-2.248-1.031-4.521-2.081-6.794-3.173c-4.569-2.143-9.166-4.407-13.768-6.661c-4.578-2.303-9.164-4.591-13.632-6.935
					c-1.119-0.581-2.235-1.159-3.344-1.735c-1.104-0.589-2.201-1.175-3.292-1.756c-2.182-1.165-4.343-2.305-6.446-3.472
					c-4.223-2.297-8.277-4.576-12.108-6.764c-3.826-2.196-7.423-4.314-10.727-6.301c-3.302-1.995-6.312-3.854-8.964-5.535
					c-2.65-1.683-4.949-3.177-6.828-4.433c-1.885-1.244-3.338-2.28-4.34-2.962c-0.992-0.703-1.521-1.078-1.521-1.078
					s0.619,0.194,1.779,0.559c1.149,0.387,2.852,0.917,4.983,1.668c2.137,0.737,4.715,1.666,7.659,2.76
					c2.942,1.095,6.244,2.37,9.827,3.793c3.581,1.431,7.442,3.017,11.504,4.738c4.059,1.729,8.325,3.58,12.707,5.556
					c2.201,0.97,4.415,2.002,6.662,3.036c1.123,0.518,2.254,1.039,3.389,1.562c1.129,0.536,2.264,1.075,3.403,1.615
					c4.569,2.143,9.163,4.413,13.765,6.668c4.578,2.304,9.161,4.597,13.629,6.941c2.244,1.152,4.455,2.326,6.635,3.494
					c2.183,1.162,4.34,2.309,6.444,3.474c8.442,4.603,16.23,9.085,22.835,13.066c6.608,3.978,12.033,7.456,15.795,9.962
					c1.887,1.243,3.339,2.279,4.343,2.958C872.556,219.339,873.085,219.713,873.085,219.713"/>
			</g>
		</g>
	</g>
	<g>
		<path d="M126.037,103.479h42.725c0,12.207-9.155,18.311-27.466,18.311h-15.259c-6.755,0-12.512,2.381-17.273,7.142
			s-7.141,10.519-7.141,17.272c0,6.755,2.38,12.512,7.141,17.273c4.761,4.76,10.518,7.141,17.273,7.141h15.259
			c18.311,0,27.466,6.104,27.466,18.311h-42.725c-11.801,0-21.872-4.171-30.212-12.512c-8.342-8.342-12.512-18.412-12.512-30.213
			c0-11.8,4.17-21.87,12.512-30.212C104.166,107.65,114.236,103.479,126.037,103.479z"/>
		<path d="M247.656,115.991c8.341,8.342,12.512,18.412,12.512,30.212c0,11.801-4.171,21.871-12.512,30.213
			c-8.342,8.341-18.413,12.512-30.212,12.512c-11.801,0-21.872-4.171-30.212-12.512c-8.342-8.342-12.512-18.412-12.512-30.213
			c0-11.8,4.17-21.87,12.512-30.212c8.341-8.341,18.412-12.513,30.212-12.513C229.243,103.479,239.314,107.65,247.656,115.991z
			 M217.443,121.789c-6.755,0-12.512,2.381-17.273,7.142s-7.141,10.519-7.141,17.272c0,6.755,2.38,12.512,7.141,17.273
			c4.761,4.76,10.518,7.141,17.273,7.141c6.754,0,12.512-2.381,17.273-7.141c4.761-4.762,7.141-10.519,7.141-17.273
			c0-6.754-2.38-12.512-7.141-17.272S224.197,121.789,217.443,121.789z"/>
		<path d="M266.125,146.203v-42.725c12.207,0,18.311,9.155,18.311,27.466v15.259c0,6.755,2.38,12.512,7.141,17.273
			c4.761,4.76,10.518,7.141,17.273,7.141c6.754,0,12.512-2.381,17.273-7.141c4.761-4.762,7.141-10.519,7.141-17.273v-15.259
			c0-18.311,6.104-27.466,18.311-27.466v42.725c0,11.801-4.171,21.871-12.512,30.213c-8.342,8.341-18.413,12.512-30.212,12.512
			c-11.801,0-21.872-4.171-30.212-12.512C270.295,168.074,266.125,158.004,266.125,146.203z"/>
		<path d="M396.472,155.358h-20.63c0-12.207,8.138-18.311,24.414-18.311h16.785c2.115,0,3.916-0.742,5.402-2.228
			c1.485-1.485,2.228-3.285,2.228-5.401c0-2.115-0.743-3.916-2.228-5.402c-1.486-1.484-3.287-2.228-5.402-2.228h-41.199V140.1
			c0,32.553-6.104,48.828-18.311,48.828v-85.449h59.509c7.161,0,13.275,2.533,18.341,7.599c5.065,5.066,7.599,11.181,7.599,18.342
			c0,7.162-2.523,13.266-7.568,18.311c-3.906,3.906-8.403,6.308-13.489,7.202c14.038,14.037,21.057,29.684,21.057,46.936
			L396.472,155.358z"/>
		<path d="M508.447,137.048c7.161,0,13.275,2.533,18.341,7.599c5.065,5.066,7.599,11.181,7.599,18.342s-2.533,13.274-7.599,18.341
			c-5.066,5.065-11.18,7.599-18.341,7.599h-59.509c0-12.207,11.189-18.311,33.569-18.311h25.94c2.115,0,3.916-0.742,5.402-2.228
			c1.485-1.485,2.228-3.286,2.228-5.401c0-2.116-0.743-3.916-2.228-5.402c-1.486-1.484-3.287-2.228-5.402-2.228h-33.569
			c-7.162,0-13.275-2.533-18.341-7.599c-5.065-5.066-7.599-11.179-7.599-18.341c0-7.161,2.533-13.275,7.599-18.342
			c5.066-5.065,11.179-7.599,18.341-7.599h59.509c0,12.207-11.19,18.311-33.569,18.311h-25.94c-2.116,0-3.917,0.743-5.402,2.228
			c-1.485,1.486-2.228,3.287-2.228,5.402c0,2.116,0.742,3.916,2.228,5.401s3.286,2.228,5.402,2.228H508.447z"/>
		<path d="M613.586,103.479c0,12.207-16.276,18.311-48.828,18.311h-24.414v-18.311H613.586z M619.689,137.048
			c0,12.207-16.276,18.311-48.828,18.311h-30.518v-18.311H619.689z M625.793,170.617c0,12.207-16.276,18.311-48.828,18.311h-36.621
			v-18.311H625.793z"/>
		<path d="M44.956,303.928H29.722c0-7.617,5.078-11.426,15.234-11.426c4.214,0,7.808-1.485,10.778-4.456s4.456-6.563,4.456-10.778
			s-1.485-7.808-4.456-10.778s-6.564-4.456-10.778-4.456H29.722v28.564c0,8.887-3.809,13.33-11.426,13.33v-53.32h26.66
			c7.363,0,13.647,2.603,18.853,7.808c5.205,5.205,7.808,11.489,7.808,18.853s-2.603,13.647-7.808,18.853
			C58.604,301.325,52.319,303.928,44.956,303.928z"/>
		<path d="M75.333,250.607h11.426v20.947C79.142,271.555,75.333,264.572,75.333,250.607z"/>
		<path d="M135.989,258.415c5.205,5.205,7.808,11.489,7.808,18.853s-2.603,13.647-7.808,18.853
			c-5.205,5.205-11.489,7.808-18.853,7.808c-7.364,0-13.648-2.603-18.853-7.808c-5.205-5.205-7.808-11.489-7.808-18.853
			s2.603-13.647,7.808-18.853c5.205-5.205,11.489-7.808,18.853-7.808C124.5,250.607,130.784,253.21,135.989,258.415z
			 M117.137,262.033c-4.215,0-7.808,1.485-10.778,4.456s-4.456,6.563-4.456,10.778s1.485,7.808,4.456,10.778
			s6.563,4.456,10.778,4.456c4.214,0,7.808-1.485,10.778-4.456s4.456-6.563,4.456-10.778s-1.485-7.808-4.456-10.778
			S121.351,262.033,117.137,262.033z"/>
		<path d="M171.812,282.98h-12.873c0-7.617,5.078-11.426,15.234-11.426h10.474c1.32,0,2.443-0.463,3.371-1.391
			c0.927-0.926,1.39-2.05,1.39-3.37s-0.463-2.443-1.39-3.37c-0.927-0.927-2.051-1.391-3.371-1.391h-25.708v11.426
			c0,20.312-3.809,30.469-11.426,30.469v-53.32h37.134c4.469,0,8.284,1.58,11.445,4.742c3.161,3.16,4.742,6.976,4.742,11.444
			s-1.575,8.277-4.723,11.426c-2.438,2.438-5.243,3.936-8.417,4.494c8.76,8.76,13.14,18.522,13.14,29.288L171.812,282.98z"/>
		<path d="M204.551,250.607h11.426v22.852c0,20.312-3.809,30.469-11.426,30.469V250.607z"/>
		<path d="M265.397,250.607c0,7.617-10.156,11.426-30.469,11.426h-15.234v-11.426H265.397z M269.206,271.555
			c0,7.617-10.156,11.426-30.469,11.426h-19.043v-11.426H269.206z M273.015,292.502c0,7.617-10.156,11.426-30.469,11.426h-22.852
			v-11.426H273.015z"/>
		<path d="M318.626,284.428v-3.352c0-20.312,3.809-30.469,11.426-30.469v61.395l-41.895-41.895v3.352
			c0,20.312-3.809,30.469-11.426,30.469v-61.395L318.626,284.428z"/>
		<path d="M366.143,261.69v11.769c0,20.312-3.809,30.469-11.426,30.469v-41.895H333.77v-11.426h53.32
			C387.09,256.93,380.107,260.624,366.143,261.69z"/>
		<path d="M432.587,275.363c-0.381-3.402-1.828-6.36-4.342-8.874c-2.971-2.971-6.564-4.456-10.778-4.456
			c-4.215,0-7.808,1.485-10.778,4.456s-4.456,6.563-4.456,10.778v9.521c0,11.426-3.809,17.139-11.426,17.139v-26.66
			c0-7.363,2.603-13.647,7.808-18.853c5.205-5.205,11.489-7.808,18.853-7.808c7.363,0,13.647,2.603,18.853,7.808
			c5.205,5.205,7.808,11.489,7.808,18.853v26.66c-7.617,0-11.426-5.713-11.426-17.139v-0.495
			c-12.696-1.27-19.043-4.913-19.043-10.931H432.587z"/>
		<path d="M480.217,261.69v11.769c0,20.312-3.809,30.469-11.426,30.469v-41.895h-20.947v-11.426h53.32
			C501.165,256.93,494.182,260.624,480.217,261.69z"/>
		<path d="M504.882,250.607h11.426v22.852c0,20.312-3.809,30.469-11.426,30.469V250.607z"/>
		<path d="M565.538,258.415c5.205,5.205,7.808,11.489,7.808,18.853s-2.603,13.647-7.808,18.853
			c-5.205,5.205-11.489,7.808-18.853,7.808c-7.364,0-13.648-2.603-18.853-7.808c-5.205-5.205-7.808-11.489-7.808-18.853
			s2.603-13.647,7.808-18.853c5.205-5.205,11.489-7.808,18.853-7.808C554.048,250.607,560.333,253.21,565.538,258.415z
			 M546.685,262.033c-4.215,0-7.808,1.485-10.778,4.456s-4.456,6.563-4.456,10.778s1.485,7.808,4.456,10.778
			s6.563,4.456,10.778,4.456c4.214,0,7.808-1.485,10.778-4.456s4.456-6.563,4.456-10.778s-1.485-7.808-4.456-10.778
			S550.899,262.033,546.685,262.033z"/>
		<path d="M618.957,284.428v-3.352c0-20.312,3.809-30.469,11.426-30.469v61.395l-41.895-41.895v3.352
			c0,20.312-3.809,30.469-11.426,30.469v-61.395L618.957,284.428z"/>
	</g>
</g>
</svg>
