<?xml version="1.0" encoding="iso-8859-1"?>
<!-- Generator: Adobe Illustrator 19.1.0, SVG Export Plug-In . SVG Version: 6.00 Build 0)  -->
<svg version="1.1" id="Calque_2" xmlns="http://www.w3.org/2000/svg" xmlns:xlink="http://www.w3.org/1999/xlink" x="0px" y="0px"
	 viewBox="0 0 1200 400" style="enable-background:new 0 0 1200 400;" xml:space="preserve">
<g>
	<g>
		<g>
			<defs>
				<rect id="SVGID_1_" x="780.275" y="47.747" width="305.507" height="305.507"/>
			</defs>
			<clipPath id="SVGID_2_">
				<use xlink:href="#SVGID_1_"  style="overflow:visible;"/>
			</clipPath>
			<g style="clip-path:url(#SVGID_2_);">
				<defs>
					<rect id="SVGID_3_" x="780.275" y="47.747" width="305.507" height="305.507"/>
				</defs>
				<clipPath id="SVGID_4_">
					<use xlink:href="#SVGID_3_"  style="overflow:visible;"/>
				</clipPath>
				<path style="clip-path:url(#SVGID_4_);" d="M849.611,287.143c0,0,0.473-3.706,1.301-10.192c0.412-3.24,0.876-7.181,1.402-11.696
					c0.521-4.516,1.081-9.612,1.618-15.173c1.076-11.115,2.108-24.109,2.267-37.961c0.068-6.922-0.13-14.056-0.788-21.203
					c-0.673-7.152-1.892-14.268-3.858-21.193c-0.973-3.474-2.142-6.908-3.332-10.475c-1.176-3.562-2.329-7.32-3.077-11.23
					c-0.761-3.905-1.089-7.897-1.057-11.757c0.006-3.872,0.389-7.618,0.882-11.243c0.138-0.902,0.275-1.799,0.411-2.693l0.229-1.328
					l0.114-0.662l0.028-0.165l0.03-0.165l0.011-0.08l0.044-0.32c0.236-1.726,0.453-3.36,0.786-5.093
					c0.347-1.744,0.662-3.517,1.115-5.173c0.44-1.668,0.811-3.331,1.369-4.931c1.992-6.453,4.695-12.397,8.016-17.46
					c1.6-2.56,3.467-4.832,5.291-6.919c1.894-2.043,3.846-3.847,5.811-5.373c1.007-0.744,1.962-1.468,2.968-2.066
					c0.971-0.634,1.956-1.18,2.903-1.681c1.921-0.975,3.76-1.691,5.444-2.22c3.398-1.017,6.162-1.228,8.012-1.169
					c1.858,0.056,2.803,0.323,2.803,0.323s-0.932,0.306-2.501,1.089c-1.565,0.789-3.763,2.047-6.22,3.943
					c-1.226,0.951-2.514,2.062-3.833,3.325c-1.311,1.282-2.621,2.747-3.962,4.34c-1.29,1.65-2.622,3.412-3.876,5.388
					c-0.327,0.481-0.624,1-0.943,1.506c-0.318,0.507-0.637,1.021-0.925,1.57c-0.293,0.543-0.609,1.078-0.926,1.619
					c-0.292,0.56-0.588,1.127-0.887,1.699c-2.411,4.562-4.498,9.842-6.51,15.568c-0.505,1.427-0.963,2.91-1.454,4.399
					c-0.256,0.747-0.468,1.493-0.678,2.244c-0.232,0.748-0.465,1.5-0.7,2.256c-0.245,0.73-0.446,1.606-0.672,2.412
					c-0.235,0.819-0.472,1.644-0.709,2.472l-0.09,0.31l-0.023,0.078c-0.012,0.045,0.018-0.106-0.001-0.007l-0.031,0.152l-0.122,0.61
					l-0.244,1.224c-0.148,0.818-0.296,1.638-0.445,2.462c-1.091,6.601-1.625,13.315-0.546,19.951
					c0.513,3.334,1.414,6.71,2.435,10.247c1.013,3.533,2.098,7.219,2.98,10.977c0.893,3.757,1.601,7.575,2.101,11.383
					c0.504,3.81,0.794,7.61,0.965,11.368c0.337,7.517,0.103,14.866-0.376,21.926c-0.464,7.063-1.25,13.839-2.079,20.239
					c-0.858,6.397-1.818,12.413-2.792,17.947c-0.978,5.533-1.94,10.588-2.866,15.053c-0.899,4.47-1.766,8.347-2.485,11.54
					c-0.714,3.193-1.289,5.695-1.705,7.398C849.829,286.234,849.611,287.143,849.611,287.143"/>
				<path style="clip-path:url(#SVGID_4_);" d="M861.375,284.404c0,0,0.942-3.733,2.589-10.265
					c0.823-3.263,1.784-7.238,2.882-11.791c1.094-4.556,2.299-9.699,3.542-15.321c2.489-11.237,5.172-24.4,7.115-38.552
					c0.954-7.073,1.686-14.399,1.958-21.801c0.256-7.409-0.012-14.861-1.074-22.214c-0.514-3.685-1.24-7.355-1.969-11.152
					c-0.719-3.789-1.399-7.762-1.658-11.839c-0.277-4.072-0.098-8.174,0.402-12.107c0.49-3.943,1.322-7.723,2.27-11.362
					c0.235-0.912,0.495-1.806,0.74-2.703c0.269-0.912,0.538-1.821,0.805-2.725c0.447-1.729,0.883-3.401,1.404-5.1
					c0.564-1.739,1.1-3.496,1.742-5.151c0.318-0.827,0.634-1.649,0.948-2.466c0.159-0.408,0.318-0.814,0.475-1.22
					c0.18-0.398,0.359-0.795,0.537-1.19c1.383-3.18,2.912-6.213,4.616-9.047c1.679-2.84,3.505-5.495,5.454-7.905
					c1.918-2.434,4.019-4.583,6.094-6.531c2.154-1.883,4.28-3.576,6.458-4.927c1.089-0.673,2.139-1.322,3.221-1.843
					c1.06-0.549,2.103-1.037,3.13-1.448c2.055-0.821,3.998-1.4,5.778-1.777c3.576-0.73,6.432-0.682,8.322-0.442
					c0.949,0.128,1.66,0.273,2.132,0.394c0.473,0.133,0.706,0.22,0.706,0.22s-0.989,0.202-2.68,0.828
					c-0.843,0.329-1.86,0.742-3.008,1.287c-1.144,0.566-2.419,1.246-3.775,2.09c-0.675,0.432-1.38,0.874-2.085,1.398
					c-0.722,0.481-1.44,1.053-2.182,1.631c-1.486,1.163-2.971,2.561-4.51,4.063c-1.515,1.539-3.037,3.261-4.552,5.141
					c-0.736,0.97-1.528,1.914-2.242,2.98c-0.357,0.531-0.762,1.026-1.125,1.571c-0.364,0.544-0.73,1.094-1.102,1.65
					c-2.968,4.449-5.708,9.647-8.436,15.303c-0.688,1.407-1.319,2.886-2.005,4.353c-0.355,0.737-0.628,1.48-0.954,2.223
					c-0.328,0.742-0.657,1.487-0.987,2.237c-0.331,0.759-0.645,1.606-0.971,2.411c-0.34,0.81-0.682,1.625-1.025,2.443l-0.032,0.076
					c0.001-0.009-0.048,0.13-0.005-0.001l-0.049,0.152l-0.1,0.305l-0.199,0.611l-0.399,1.226c-0.248,0.821-0.497,1.645-0.748,2.473
					c-1.922,6.64-3.277,13.472-3.03,20.432c0.097,3.492,0.585,7.077,1.153,10.837c0.56,3.756,1.169,7.664,1.556,11.619
					c0.4,3.954,0.604,7.942,0.605,11.892c-0.005,3.952-0.201,7.867-0.521,11.724c-0.637,7.715-1.824,15.189-3.199,22.345
					c-1.372,7.157-3.015,13.988-4.656,20.428c-1.671,6.435-3.391,12.47-5.064,18.011c-1.678,5.539-3.276,10.594-4.764,15.05
					c-1.463,4.464-2.817,8.327-3.937,11.508c-1.116,3.182-2.006,5.673-2.635,7.365C861.706,283.5,861.375,284.404,861.375,284.404"
					/>
				<path style="clip-path:url(#SVGID_4_);" d="M872.08,293.593c2.916-4.524,5.874-9.014,8.754-13.552
					c2.893-4.529,5.786-9.055,8.62-13.615c5.637-9.138,11.208-18.302,16.426-27.64c2.613-4.666,5.107-9.39,7.559-14.119
					c2.437-4.738,4.754-9.525,6.885-14.372c4.291-9.691,7.778-19.614,9.919-29.786c1.093-5.098,1.765-10.293,2.725-15.753
					c0.486-2.724,1.079-5.508,1.853-8.277c0.78-2.768,1.745-5.507,2.871-8.156c2.261-5.302,5.129-10.209,8.222-14.845
					c0.78-1.153,1.564-2.304,2.369-3.43l1.24-1.722l1.187-1.629l1.187-1.629l1.292-1.664c0.873-1.1,1.721-2.25,2.63-3.301
					c3.534-4.303,7.376-8.41,11.547-12.248c4.182-3.822,8.758-7.325,13.784-10.294c1.236-0.767,2.553-1.43,3.846-2.124
					c1.334-0.634,2.657-1.287,4.049-1.828c2.752-1.13,5.621-2.07,8.602-2.721c2.981-0.652,6.069-1.013,9.223-1.006
					c1.579,0.004,3.171,0.103,4.788,0.347c0.808,0.119,1.624,0.273,2.452,0.461c0.424,0.109,0.833,0.203,1.276,0.339
					c0.213,0.06,0.437,0.13,0.676,0.21l0.369,0.127c0.145,0.054,0.229,0.08,0.507,0.194l6.612,2.715l-4.226,5.794
					c-5.968,8.185-11.907,16.39-17.92,24.542l-8.996,12.245l-9.038,12.215l-9.051,12.205l-9.1,12.17
					c-6.05,8.125-12.182,16.191-18.274,24.286l-9.2,12.097c-3.057,4.039-6.152,8.051-9.246,12.064l-9.275,12.042
					c-3.103,4.006-6.159,8.046-9.3,12.025l-9.373,11.972c-3.122,3.992-6.243,7.985-9.412,11.943l-9.476,11.897
					C878.47,285.714,875.309,289.677,872.08,293.593 M872.08,293.593c2.717-4.286,5.501-8.524,8.25-12.785l8.359-12.707
					c2.776-4.243,5.6-8.452,8.423-12.661l8.462-12.633c2.805-4.222,5.693-8.384,8.535-12.579l8.56-12.561
					c2.852-4.189,5.701-8.378,8.589-12.54l8.635-12.507c5.798-8.307,11.556-16.645,17.396-24.922l8.735-12.434l8.784-12.399
					l8.799-12.388l8.839-12.36c5.876-8.251,11.828-16.447,17.749-24.666l2.387,8.508c0.123,0.051,0.048,0.022,0.035,0.018
					l-0.108-0.035c-0.079-0.027-0.177-0.057-0.287-0.086c-0.199-0.062-0.447-0.114-0.672-0.174c-0.484-0.104-0.988-0.199-1.51-0.271
					c-1.041-0.152-2.139-0.213-3.246-0.227c-2.22-0.018-4.503,0.222-6.776,0.706c-2.274,0.482-4.536,1.204-6.758,2.102
					c-2.222,0.894-4.415,1.952-6.546,3.177c-4.279,2.418-8.34,5.406-12.16,8.752c-3.839,3.327-7.476,6.977-10.881,10.882
					c-0.876,0.959-1.659,1.947-2.502,2.914l-1.245,1.468l-1.254,1.578l-1.254,1.578l-0.627,0.789l-0.541,0.721
					c-0.785,1.039-1.54,2.091-2.292,3.145c-2.968,4.232-5.657,8.577-7.774,13.099c-2.118,4.53-3.549,9.246-4.608,14.353
					c-1.072,5.093-2.022,10.533-3.386,15.903c-1.356,5.376-3.047,10.679-5.082,15.798c-2.02,5.128-4.297,10.116-6.744,14.991
					c-2.44,4.881-5.048,9.652-7.764,14.345c-2.7,4.704-5.579,9.29-8.496,13.84c-2.93,4.542-5.934,9.027-8.987,13.473
					c-3.034,4.459-6.21,8.817-9.379,13.173c-3.198,4.336-6.388,8.672-9.686,12.928C878.765,285.162,875.456,289.402,872.08,293.593"
					/>
				<path style="clip-path:url(#SVGID_4_);" d="M877.999,294.955c3.477-3.779,7.014-7.499,10.578-11.201
					c3.553-3.712,7.205-7.325,10.853-10.949c3.672-3.598,7.351-7.198,11.145-10.679c3.782-3.494,7.61-6.944,11.506-10.329
					c3.899-3.38,7.857-6.708,11.938-9.9c4.074-3.201,8.246-6.299,12.548-9.248c4.306-2.941,8.751-5.726,13.371-8.269
					c4.609-2.555,9.438-4.812,14.38-6.729c4.932-1.934,9.971-3.477,14.631-5.113c4.673-1.633,8.915-3.571,12.874-6.177
					c3.958-2.589,7.669-5.718,11.227-9.11c0.89-0.848,1.766-1.718,2.636-2.597l0.164-0.164l0.082-0.082
					c0.065-0.066-0.043,0.044-0.017,0.017l0.041-0.044l0.328-0.351l0.656-0.703l1.312-1.406c0.428-0.466,0.895-0.942,1.292-1.401
					l1.191-1.374c0.791-0.921,1.601-1.808,2.371-2.776c3.152-3.774,6.058-7.713,8.561-11.825c2.525-4.095,4.649-8.365,6.207-12.743
					c1.537-4.377,2.511-8.863,2.62-13.269c0.055-2.198-0.115-4.369-0.508-6.446c-0.211-1.031-0.451-2.049-0.764-3.007
					c-0.159-0.475-0.327-0.94-0.507-1.375c-0.092-0.208-0.182-0.428-0.273-0.61c-0.046-0.101-0.088-0.184-0.128-0.26l-0.051-0.097
					c-0.009-0.017-0.043-0.075,0.019,0.025l8.724,1.053c-6.898,6.695-13.77,13.417-20.707,20.072l-10.385,10.004l-10.42,9.968
					l-10.432,9.955l-10.475,9.912c-6.969,6.622-14.008,13.173-21.012,19.759c-7.043,6.546-14.065,13.114-21.148,19.62l-10.621,9.762
					c-3.556,3.238-7.083,6.505-10.663,9.718l-10.71,9.671c-3.568,3.226-7.135,6.452-10.743,9.636l-10.799,9.58
					C885.26,288.632,881.659,291.823,877.999,294.955 M877.999,294.955c3.218-3.584,6.494-7.109,9.741-10.663l9.835-10.567
					c3.27-3.532,6.58-7.021,9.89-10.511l9.923-10.476c3.298-3.503,6.648-6.951,9.97-10.429l10.013-10.385
					c6.673-6.925,13.407-13.788,20.119-20.674c6.751-6.845,13.468-13.726,20.255-20.535l10.159-10.234l10.201-10.191l10.214-10.179
					l10.249-10.143c6.818-6.776,13.702-13.486,20.56-20.222l5.153-5.062l3.571,6.114l0.258,0.442l0.177,0.326
					c0.111,0.207,0.214,0.411,0.304,0.599c0.195,0.392,0.354,0.763,0.52,1.141c0.317,0.747,0.589,1.487,0.84,2.226
					c0.494,1.477,0.855,2.955,1.139,4.439c0.545,2.965,0.745,5.937,0.655,8.863c-0.198,5.852-1.448,11.513-3.433,16.756
					c-1.98,5.25-4.555,10.158-7.507,14.731c-2.976,4.561-6.317,8.792-9.862,12.781c-0.857,1.014-1.807,1.993-2.736,2.974
					l-1.397,1.469c-0.466,0.49-0.917,0.91-1.376,1.368l-2.817,2.759c-0.957,0.919-1.926,1.83-2.916,2.726
					c-3.951,3.582-8.204,6.989-12.944,9.849c-2.358,1.437-4.846,2.705-7.377,3.808c-2.534,1.096-5.113,2.014-7.642,2.809
					c-5.074,1.589-9.919,2.823-14.606,4.455c-9.369,3.188-18.292,7.72-26.893,12.999c-4.305,2.627-8.541,5.409-12.701,8.322
					c-4.154,2.921-8.285,5.899-12.344,8.988c-8.131,6.161-16.032,12.66-23.902,19.216c-3.921,3.295-7.804,6.64-11.687,9.991
					C885.71,288.176,881.874,291.584,877.999,294.955"/>
				<path style="clip-path:url(#SVGID_4_);" d="M861.879,295.211c0,0,1.723-3.932,4.739-10.815
					c1.545-3.426,3.268-7.647,5.371-12.429c1.052-2.39,2.122-4.955,3.247-7.661c1.119-2.707,2.335-5.537,3.532-8.519
					c1.202-2.977,2.454-6.079,3.75-9.289c1.249-3.225,2.54-6.559,3.868-9.986c1.272-3.445,2.606-6.973,3.899-10.6
					c1.253-3.64,2.593-7.338,3.802-11.139c2.494-7.58,4.835-15.476,6.738-23.559c0.446-2.026,0.902-4.056,1.323-6.096
					c0.191-1.022,0.381-2.046,0.573-3.071l0.287-1.538l0.238-1.543c0.7-4.112,1.143-8.254,1.465-12.411
					c0.313-4.161,0.404-8.336,0.48-12.622c0.081-4.278,0.224-8.712,0.778-13.164c0.548-4.447,1.5-8.855,2.782-13.034
					c0.316-1.047,0.679-2.066,1.017-3.097c0.329-1.035,0.709-2.036,1.1-3.027c0.389-0.991,0.756-1.994,1.163-2.966
					c0.417-0.964,0.832-1.925,1.245-2.882l0.62-1.432l0.661-1.394c0.44-0.928,0.878-1.851,1.314-2.77l0.327-0.689l0.115-0.236
					l0.076-0.169l0.151-0.337l0.601-1.345c0.393-0.899,0.814-1.776,1.224-2.654c0.389-0.865,0.89-1.787,1.33-2.671
					c0.448-0.896,0.913-1.776,1.381-2.649c0.961-1.716,1.911-3.394,2.888-5.037c3.988-6.531,8.511-12.328,13.275-17.191
					c0.579-0.618,1.22-1.181,1.818-1.762c0.615-0.568,1.185-1.158,1.817-1.687c1.257-1.059,2.465-2.103,3.726-3.042
					c2.486-1.902,5.004-3.533,7.489-4.855c4.951-2.681,9.726-4.185,13.721-4.745c1.995-0.294,3.792-0.394,5.349-0.316
					c1.555,0.07,2.856,0.182,3.897,0.419c1.04,0.223,1.813,0.444,2.323,0.628c0.51,0.193,0.757,0.315,0.757,0.315
					s-0.278,0.014-0.801,0.09c-0.522,0.071-1.29,0.194-2.261,0.436c-1.942,0.453-4.699,1.345-7.883,2.966
					c-3.188,1.6-6.804,3.91-10.543,7.049c-0.475,0.378-0.942,0.787-1.405,1.218c-0.465,0.428-0.96,0.824-1.432,1.27
					c-0.944,0.898-1.908,1.812-2.864,2.803c-1.942,1.933-3.858,4.118-5.819,6.426c-3.895,4.66-7.789,10.037-11.695,15.96
					c-0.961,1.495-1.934,3.01-2.92,4.545c-0.916,1.57-1.927,3.044-2.904,4.696c-0.491,0.835-0.977,1.678-1.495,2.511l-0.769,1.257
					l-0.193,0.315l-0.097,0.158c0.052-0.103-0.007,0.015-0.007,0.015l-0.04,0.08l-0.323,0.642c-0.431,0.855-0.864,1.716-1.298,2.579
					l-0.654,1.299l-0.606,1.317c-0.406,0.88-0.813,1.763-1.221,2.65c-0.398,0.889-0.748,1.791-1.129,2.692
					c-0.378,0.901-0.757,1.804-1.076,2.721c-0.329,0.915-0.69,1.829-0.999,2.754c-1.258,3.7-2.193,7.487-2.8,11.405
					c-0.616,3.916-0.863,7.999-1.097,12.258c-0.232,4.253-0.488,8.655-0.98,13.037c-0.943,8.784-2.788,17.432-5.111,25.694
					c-2.308,8.278-5.117,16.206-8.027,23.773c-1.413,3.802-2.968,7.467-4.446,11.07c-1.51,3.589-3.054,7.068-4.529,10.465
					c-1.546,3.362-3.05,6.633-4.505,9.796c-1.509,3.134-2.968,6.163-4.368,9.07c-1.412,2.9-2.831,5.646-4.145,8.275
					c-1.318,2.626-2.572,5.115-3.795,7.432c-2.422,4.646-4.53,8.696-6.345,11.984C863.941,291.445,861.879,295.211,861.879,295.211"
					/>
				<path style="clip-path:url(#SVGID_4_);" d="M908.186,298.919c0,0-0.278,0.626-0.8,1.799c-0.268,0.583-0.592,1.3-1.022,2.133
					c-0.421,0.834-0.895,1.816-1.501,2.853c-1.158,2.12-2.718,4.609-4.671,7.383c-1.974,2.755-4.399,5.747-7.336,8.787
					c-1.462,1.528-3.089,3.022-4.811,4.546c-1.755,1.485-3.63,2.966-5.669,4.367c-2.016,1.434-4.228,2.725-6.558,3.961
					c-2.321,1.258-4.853,2.286-7.502,3.204c-2.65,0.919-5.474,1.606-8.438,1.972c-2.957,0.382-6.06,0.453-9.2,0.037
					c-3.131-0.41-6.321-1.242-9.292-2.659l-1.114-0.532l-1.075-0.609l-1.07-0.62l-0.867-0.543l-3.431-2.157l-3.406-2.196
					l-1.037-0.676l-0.827-0.583l-0.835-0.592l-1.047-0.847l-1.028-0.862l-0.882-0.854c-0.293-0.285-0.583-0.573-0.866-0.866
					l-0.797-0.92l-0.788-0.924l-0.717-0.967l-0.709-0.969l-0.638-1.003l-0.629-1.004l-0.562-1.03
					c-0.375-0.686-0.741-1.372-1.042-2.077c-0.646-1.399-1.163-2.825-1.623-4.244c-0.917-2.842-1.495-5.692-1.78-8.483
					c-0.628-5.582-0.276-10.905,0.552-15.775c0.408-2.44,0.964-4.765,1.564-6.984c0.653-2.206,1.325-4.311,2.088-6.282
					c1.517-3.947,3.205-7.409,4.87-10.362c1.691-2.941,3.29-5.406,4.724-7.351c0.686-0.989,1.371-1.825,1.95-2.558
					c0.572-0.738,1.09-1.342,1.507-1.832c0.835-0.979,1.295-1.485,1.295-1.485s-0.258,0.634-0.741,1.824
					c-0.514,1.166-1.169,2.927-2.01,5.128c-0.835,2.206-1.756,4.906-2.708,7.998c-0.929,3.102-1.846,6.615-2.588,10.456
					c-0.755,3.835-1.315,8.009-1.484,12.371c-0.197,4.353,0.032,8.913,0.902,13.36c0.448,2.22,1.024,4.417,1.849,6.493
					c0.412,1.034,0.855,2.057,1.381,3.02c0.233,0.502,0.511,0.969,0.791,1.436l0.415,0.703l0.46,0.665l0.455,0.669l0.503,0.623
					l0.497,0.628l0.543,0.58l0.538,0.583l0.578,0.536l0.569,0.546l0.528,0.424l0.513,0.434l0.821,0.568l0.834,0.572
					c-0.067-0.044,0.223,0.15-0.136-0.09l0.053,0.034l0.107,0.067l0.214,0.135l0.429,0.269l3.43,2.159l3.404,2.198l0.842,0.542
					l0.678,0.397l0.675,0.402l0.708,0.342c1.886,0.905,3.904,1.584,6.034,1.931c2.126,0.346,4.339,0.441,6.568,0.306
					c2.229-0.134,4.467-0.531,6.669-1.065c4.399-1.091,8.631-2.809,12.495-4.826c3.882-1.997,7.429-4.269,10.587-6.574
					c3.168-2.297,5.965-4.613,8.382-6.767c2.399-2.171,4.457-4.148,6.102-5.838c1.637-1.69,2.949-3.02,3.795-3.991
					C907.719,299.421,908.186,298.919,908.186,298.919"/>
				<path style="clip-path:url(#SVGID_4_);" d="M836.569,259.802c0,0,0.234,0.23,0.672,0.662c0.435,0.426,1.075,1.038,1.877,1.799
					c0.802,0.761,1.784,1.661,2.891,2.67c1.125,1,2.363,2.121,3.75,3.285c1.357,1.185,2.874,2.401,4.443,3.684
					c1.61,1.245,3.266,2.567,5.037,3.852c1.699,1.291,3.705,2.671,5.466,3.889c1.893,1.268,3.82,2.543,5.794,3.752
					c0.969,0.632,1.989,1.187,2.962,1.809c1.003,0.579,2.001,1.155,2.992,1.727c1.999,1.12,3.977,2.232,5.935,3.257
					c0.978,0.514,1.934,1.042,2.894,1.518c0.957,0.482,1.881,0.995,2.807,1.445c1.859,0.936,3.618,1.821,5.241,2.637
					c1.661,0.826,3.183,1.584,4.533,2.255c1.369,0.661,2.56,1.319,3.559,1.815c1.994,1.006,3.14,1.718,3.14,1.718
					s-1.293,0.274-3.566,0.515c-1.141,0.14-2.509,0.17-4.097,0.216c-1.585,0.034-3.361-0.06-5.308-0.197
					c-0.968-0.092-1.972-0.224-3.02-0.344c-1.046-0.127-2.104-0.359-3.211-0.546c-1.108-0.184-2.219-0.475-3.364-0.758
					c-1.15-0.268-2.299-0.628-3.469-0.997c-2.341-0.735-4.715-1.661-7.071-2.737c-1.179-0.536-2.34-1.138-3.506-1.74
					c-1.145-0.645-2.302-1.278-3.419-1.986c-2.247-1.388-4.391-2.948-6.418-4.581c-2.11-1.75-3.867-3.359-5.582-5.223
					c-1.705-1.799-3.206-3.677-4.534-5.514c-1.301-1.865-2.445-3.675-3.362-5.429c-0.935-1.74-1.66-3.408-2.236-4.902
					c-0.558-1.508-0.975-2.841-1.241-3.968c-0.28-1.118-0.425-2.018-0.502-2.635C836.576,260.136,836.569,259.802,836.569,259.802"
					/>
			</g>
		</g>
	</g>
	<g>
		<path d="M64.957,208.533c1.726,0,3.195-0.605,4.408-1.818c1.211-1.211,1.818-2.681,1.818-4.407s-0.606-3.196-1.818-4.408
			c-1.212-1.211-2.682-1.818-4.408-1.818H31.339v14.942c0,26.563-4.98,39.844-14.941,39.844V181.14h48.56
			c5.843,0,10.833,2.067,14.966,6.201s6.201,9.123,6.201,14.967c0,5.246-1.677,9.812-5.03,13.696c3.353,3.885,5.03,8.45,5.03,13.696
			c0,5.845-2.067,10.833-6.201,14.966c-4.134,4.135-9.123,6.201-14.966,6.201H31.339c0-9.961,6.64-14.941,19.922-14.941h13.696
			c1.726,0,3.195-0.605,4.408-1.818c1.211-1.211,1.818-2.681,1.818-4.407c0-1.726-0.606-3.195-1.818-4.407
			c-1.212-1.212-2.682-1.818-4.408-1.818H31.339c0-9.961,6.64-14.941,19.922-14.941H64.957z"/>
		<path d="M145.621,213.514c-0.498-4.449-2.391-8.317-5.678-11.604c-3.885-3.885-8.583-5.828-14.095-5.828
			c-5.512,0-10.21,1.942-14.095,5.828c-3.885,3.885-5.827,8.583-5.827,14.095v12.451c0,14.941-4.98,22.412-14.941,22.412v-34.863
			c0-9.629,3.403-17.847,10.21-24.654c6.806-6.806,15.024-10.21,24.653-10.21c9.628,0,17.846,3.404,24.653,10.21
			c6.806,6.807,10.21,15.025,10.21,24.654v34.863c-9.961,0-14.941-7.471-14.941-22.412v-0.647
			c-16.602-1.66-24.902-6.425-24.902-14.294H145.621z"/>
		<path d="M200.436,250.867h-19.922c0-9.961,6.64-14.941,19.922-14.941c5.511,0,10.21-1.942,14.095-5.827s5.827-8.583,5.827-14.095
			s-1.942-10.21-5.827-14.095c-3.885-3.885-8.583-5.828-14.095-5.828h-19.922v37.354c0,11.622-4.98,17.432-14.941,17.432V181.14
			h34.863c9.628,0,17.846,3.404,24.653,10.21c6.806,6.807,10.21,15.025,10.21,24.654c0,9.63-3.404,17.848-10.21,24.653
			C218.282,247.464,210.064,250.867,200.436,250.867z"/>
		<path d="M255.102,196.082v14.942c0,26.563-4.98,39.844-14.941,39.844V181.14h69.727v29.883c0,26.563-4.98,39.844-14.941,39.844
			v-54.786h-12.451v9.961c0,26.563-4.98,39.844-14.941,39.844v-49.805H255.102z"/>
		<path d="M314.748,181.14h14.941v29.883c0,26.563-4.98,39.844-14.941,39.844V181.14z"/>
		<path d="M389.335,225.367v-4.383c0-26.562,4.98-39.844,14.941-39.844v80.286l-54.785-54.785v4.383
			c0,26.563-4.98,39.844-14.941,39.844v-80.286L389.335,225.367z"/>
		<path d="M451.471,195.633v15.39c0,26.563-4.98,39.844-14.941,39.844v-54.786h-27.393V181.14h69.727
			C478.864,189.408,469.732,194.239,451.471,195.633z"/>
		<path d="M543.241,191.35c6.806,6.807,10.21,15.025,10.21,24.654c0,9.63-3.404,17.848-10.21,24.653
			c-6.807,6.807-15.025,10.21-24.653,10.21c-9.629,0-17.847-3.403-24.653-10.21c-6.807-6.806-10.21-15.023-10.21-24.653
			c0-9.629,3.403-17.847,10.21-24.654c6.806-6.806,15.024-10.21,24.653-10.21C528.216,181.14,536.434,184.544,543.241,191.35z
			 M518.588,196.082c-5.512,0-10.21,1.942-14.095,5.828c-3.885,3.885-5.827,8.583-5.827,14.095s1.942,10.21,5.827,14.095
			s8.583,5.827,14.095,5.827c5.511,0,10.21-1.942,14.095-5.827s5.827-8.583,5.827-14.095s-1.942-10.21-5.827-14.095
			C528.798,198.024,524.099,196.082,518.588,196.082z"/>
		<path d="M613.098,225.367v-4.383c0-26.562,4.98-39.844,14.941-39.844v80.286l-54.785-54.785v4.383
			c0,26.563-4.98,39.844-14.941,39.844v-80.286L613.098,225.367z"/>
	</g>
</g>
</svg>
