<?xml version="1.0" encoding="iso-8859-1"?>
<!-- Generator: Adobe Illustrator 19.1.0, SVG Export Plug-In . SVG Version: 6.00 Build 0)  -->
<svg version="1.1" id="Calque_2" xmlns="http://www.w3.org/2000/svg" xmlns:xlink="http://www.w3.org/1999/xlink" x="0px" y="0px"
	 viewBox="0 0 1200 400" style="enable-background:new 0 0 1200 400;" xml:space="preserve">
<g>
	<g>
		<g>
			<defs>
				<rect id="SVGID_1_" x="674.718" y="-38.239" width="495.479" height="495.479"/>
			</defs>
			<clipPath id="SVGID_2_">
				<use xlink:href="#SVGID_1_"  style="overflow:visible;"/>
			</clipPath>
			<g style="clip-path:url(#SVGID_2_);">
				<defs>
					<rect id="SVGID_3_" x="674.718" y="-38.239" width="495.479" height="495.479"/>
				</defs>
				<clipPath id="SVGID_4_">
					<use xlink:href="#SVGID_3_"  style="overflow:visible;"/>
				</clipPath>
				<path style="clip-path:url(#SVGID_4_);" d="M752.767,152.447c0,0,1.628,0.326,4.68,0.936c3.046,0.636,7.527,1.516,13.203,2.741
					c5.679,1.211,12.583,2.654,20.474,4.419c7.898,1.736,16.81,3.693,26.502,5.939c4.85,1.109,9.902,2.264,15.13,3.46
					c5.23,1.192,10.616,2.503,16.164,3.807c11.091,2.633,22.796,5.374,34.87,8.343c6.037,1.484,12.175,2.993,18.388,4.521
					c6.207,1.549,12.491,3.116,18.824,4.696c12.664,3.167,25.508,6.473,38.354,9.767c12.833,3.343,25.671,6.67,38.284,10.038
					c6.311,1.665,12.567,3.339,18.742,5.012c6.176,1.675,12.276,3.329,18.276,4.956c12,3.256,23.568,6.523,34.544,9.601
					c5.486,1.545,10.823,3.048,15.985,4.502c5.153,1.489,10.132,2.927,14.911,4.309c4.778,1.387,9.357,2.716,13.712,3.981
					c4.347,1.293,8.472,2.519,12.347,3.672c7.757,2.283,14.495,4.366,20.049,6.062c5.558,1.682,9.905,3.084,12.876,4.005
					c2.966,0.945,4.547,1.451,4.547,1.451s-1.628-0.326-4.68-0.935c-3.046-0.635-7.527-1.514-13.204-2.737
					c-5.68-1.209-12.584-2.653-20.475-4.416c-3.948-0.87-8.15-1.796-12.579-2.772c-4.423-1.005-9.072-2.061-13.923-3.164
					c-4.851-1.108-9.903-2.262-15.132-3.457c-5.219-1.23-10.616-2.501-16.164-3.809c-11.093-2.627-22.795-5.376-34.87-8.343
					c-6.037-1.485-12.175-2.995-18.387-4.523c-6.213-1.529-12.496-3.097-18.823-4.7c-12.665-3.166-25.506-6.478-38.352-9.773
					c-12.834-3.344-25.67-6.678-38.283-10.045c-6.305-1.688-12.561-3.361-18.741-5.015c-6.176-1.675-12.275-3.33-18.275-4.958
					c-12-3.254-23.567-6.529-34.544-9.602c-5.486-1.548-10.832-3.013-15.985-4.504c-5.153-1.487-10.132-2.925-14.912-4.306
					c-9.567-2.734-18.31-5.341-26.059-7.65c-7.757-2.28-14.496-4.364-20.051-6.058c-5.558-1.68-9.905-3.082-12.877-4.001
					C754.349,152.951,752.767,152.447,752.767,152.447"/>
				<path style="clip-path:url(#SVGID_4_);" d="M748.811,84.934c0,0,1.195,1.799,2.835,5.133c1.643,3.332,3.744,8.195,5.656,14.237
					c0.951,3.02,1.865,6.332,2.666,9.882c0.791,3.55,1.486,7.337,1.986,11.301c0.501,3.963,0.83,8.1,0.885,12.341
					c0.059,4.24-0.109,8.582-0.607,12.935c-0.51,4.349-1.324,8.71-2.512,12.953c-1.205,4.241-2.807,8.357-4.792,12.169
					c-1.984,3.814-4.431,7.284-7.097,10.254c-1.345,1.477-2.748,2.831-4.185,4.038c-0.714,0.605-1.473,1.144-2.181,1.694
					c-0.73,0.528-1.47,1.018-2.195,1.481c-2.938,1.822-5.835,3.048-8.432,3.857c-2.593,0.833-4.921,1.181-6.804,1.404
					c-1.903,0.166-3.374,0.204-4.388,0.143c-1.008-0.037-1.538-0.078-1.538-0.078s0.459-0.275,1.319-0.791
					c0.424-0.262,0.959-0.53,1.556-0.921c0.592-0.374,1.272-0.802,2.034-1.282c1.474-1.019,3.239-2.194,5.037-3.748
					c1.81-1.524,3.702-3.319,5.478-5.442c1.787-2.111,3.462-4.541,4.949-7.248c1.501-2.7,2.801-5.689,3.912-8.904
					c1.104-3.221,2.01-6.661,2.769-10.24c0.735-3.589,1.308-7.317,1.746-11.103c0.877-7.576,1.221-15.37,1.4-22.779
					c0.084-3.705,0.154-7.318,0.161-10.764c0.014-3.47,0.028-6.751,0.041-9.781c0.015-3.071,0.029-5.885,0.042-8.381
					c0.034-2.53,0.062-4.736,0.087-6.552C748.701,87.086,748.811,84.934,748.811,84.934"/>
				<polygon style="clip-path:url(#SVGID_4_);" points="745.539,160.793 681.283,132.282 751.315,138.384 				"/>
				<path style="clip-path:url(#SVGID_4_);" d="M1083.496,131.524c0,0-1.335,0.894-3.839,2.569
					c-2.517,1.653-6.181,4.124-10.898,7.177c-4.711,3.064-10.416,6.81-17.019,11.009c-6.587,4.224-14.017,8.992-22.182,14.094
					c-8.147,5.131-16.972,10.69-26.356,16.487c-9.381,5.802-19.288,11.894-29.57,18.143c-5.144,3.117-10.375,6.286-15.67,9.494
					c-5.306,3.189-10.677,6.416-16.09,9.671c-10.83,6.501-21.878,13.027-32.922,19.563c-11.068,6.492-22.128,12.999-33.064,19.321
					c-5.457,3.179-10.884,6.312-16.256,9.39c-5.372,3.077-10.679,6.117-15.898,9.107c-10.449,5.965-20.579,11.679-30.2,17.074
					c-4.818,2.684-9.504,5.295-14.038,7.821c-4.547,2.502-8.94,4.92-13.158,7.241c-4.22,2.317-8.265,4.537-12.111,6.647
					c-3.862,2.085-7.525,4.063-10.968,5.922c-6.874,3.738-12.915,6.914-17.88,9.547c-4.957,2.646-8.895,4.653-11.56,6.052
					c-2.68,1.377-4.109,2.112-4.109,2.112s1.335-0.894,3.838-2.571c2.516-1.654,6.18-4.126,10.897-7.179
					c4.709-3.066,10.415-6.812,17.016-11.013c3.295-2.11,6.8-4.355,10.496-6.723c3.711-2.342,7.613-4.804,11.683-7.374
					c4.075-2.564,8.319-5.235,12.712-7.999c4.406-2.741,8.961-5.576,13.644-8.489c9.381-5.801,19.289-11.893,29.57-18.142
					c5.146-3.117,10.376-6.285,15.672-9.492c5.296-3.207,10.666-6.434,16.091-9.668c10.83-6.502,21.882-13.022,32.926-19.558
					c11.069-6.491,22.132-12.992,33.068-19.316c5.469-3.158,10.896-6.291,16.257-9.386c5.372-3.077,10.68-6.116,15.9-9.106
					c10.448-5.965,20.579-11.677,30.2-17.071c9.618-5.4,18.758-10.426,27.195-15.065c8.42-4.668,16.191-8.857,23.078-12.572
					c6.872-3.739,12.914-6.914,17.877-9.55c4.957-2.648,8.894-4.654,11.56-6.055
					C1082.067,132.259,1083.496,131.524,1083.496,131.524"/>
				<path style="clip-path:url(#SVGID_4_);" d="M1126.036,181.177c0,0-2.117-0.427-5.635-1.625
					c-3.517-1.193-8.442-3.147-14.067-6.068c-2.808-1.463-5.796-3.158-8.873-5.102c-3.069-1.951-6.239-4.136-9.394-6.586
					c-3.157-2.449-6.315-5.141-9.354-8.101c-3.039-2.957-5.99-6.146-8.715-9.576c-2.715-3.437-5.223-7.096-7.384-10.936
					c-2.146-3.851-3.923-7.894-5.216-11.994c-1.293-4.1-2.017-8.282-2.232-12.269c-0.093-1.995-0.059-3.945,0.104-5.814
					c0.077-0.933,0.232-1.851,0.345-2.74c0.142-0.891,0.319-1.759,0.503-2.6c0.79-3.366,1.971-6.281,3.235-8.689
					c1.245-2.424,2.645-4.316,3.818-5.805c1.228-1.463,2.243-2.53,3.002-3.204c0.738-0.686,1.144-1.032,1.144-1.032
					s-0.13,0.519-0.374,1.491c-0.115,0.486-0.304,1.053-0.449,1.751c-0.155,0.683-0.333,1.467-0.532,2.346
					c-0.321,1.763-0.739,3.842-0.912,6.211c-0.202,2.357-0.271,4.966-0.025,7.723c0.229,2.757,0.762,5.659,1.626,8.624
					c0.847,2.971,2.04,6.004,3.529,9.062c1.496,3.057,3.289,6.131,5.283,9.198c2.018,3.058,4.249,6.099,6.616,9.085
					c4.738,5.978,10.005,11.732,15.117,17.098c2.561,2.679,5.066,5.283,7.498,7.725c2.444,2.464,4.755,4.793,6.887,6.944
					c2.16,2.183,4.141,4.183,5.896,5.956c1.765,1.813,3.305,3.393,4.571,4.695C1124.591,179.578,1126.036,181.177,1126.036,181.177"
					/>
				<polygon style="clip-path:url(#SVGID_4_);" points="1064.274,131.161 1143.397,94.737 1076.658,150.71 				"/>
				<polygon style="clip-path:url(#SVGID_4_);" points="929.595,173.291 918.851,130.956 943.644,166.914 				"/>
				<polygon style="clip-path:url(#SVGID_4_);" points="960.43,168.361 993.077,139.347 972.555,177.902 				"/>
				<polygon style="clip-path:url(#SVGID_4_);" points="975.667,231.737 995.016,270.895 963.261,240.907 				"/>
				<polygon style="clip-path:url(#SVGID_4_);" points="953.537,244.702 927.735,285.373 939.353,238.631 				"/>
			</g>
		</g>
	</g>
	<g>
		<path d="M91.83,153.495c0,13.184-17.579,19.775-52.734,19.775H12.729v-19.775H91.83z M98.422,189.75
			c0,13.184-17.579,19.775-52.734,19.775H12.729V189.75H98.422z M105.014,226.005c0,13.184-17.579,19.775-52.734,19.775H12.729
			v-19.775H105.014z"/>
		<path d="M175.717,189.75c7.734,0,14.337,2.735,19.808,8.207c5.472,5.471,8.207,12.074,8.207,19.808
			c0,7.735-2.735,14.338-8.207,19.809c-5.471,5.472-12.074,8.207-19.808,8.207h-64.27c0-13.184,12.084-19.775,36.255-19.775h28.015
			c2.285,0,4.229-0.802,5.833-2.406c1.604-1.604,2.406-3.548,2.406-5.834c0-2.284-0.802-4.229-2.406-5.833
			c-1.604-1.604-3.549-2.406-5.833-2.406h-36.255c-7.735,0-14.337-2.735-19.808-8.207c-5.472-5.471-8.207-12.073-8.207-19.808
			c0-7.734,2.735-14.337,8.207-19.808c5.471-5.472,12.073-8.207,19.808-8.207h64.27c0,13.184-12.085,19.775-36.255,19.775h-28.015
			c-2.286,0-4.23,0.802-5.833,2.406c-1.605,1.604-2.406,3.549-2.406,5.833c0,2.286,0.801,4.23,2.406,5.833
			c1.604,1.605,3.548,2.406,5.833,2.406H175.717z"/>
		<path d="M256.309,153.495h46.143c0,13.184-9.888,19.775-29.663,19.775h-16.479c-7.295,0-13.513,2.571-18.655,7.712
			s-7.712,11.36-7.712,18.655c0,7.295,2.571,13.514,7.712,18.654c5.142,5.143,11.359,7.713,18.655,7.713h16.479
			c19.775,0,29.663,6.592,29.663,19.775h-46.143c-12.745,0-23.621-4.504-32.629-13.514c-9.009-9.008-13.513-19.885-13.513-32.629
			c0-12.744,4.504-23.62,13.513-32.629C232.688,158,243.564,153.495,256.309,153.495z"/>
		<path d="M350.94,209.525h-22.28c0-13.184,8.789-19.775,26.367-19.775h18.127c2.285,0,4.229-0.801,5.833-2.406
			c1.604-1.604,2.406-3.548,2.406-5.833c0-2.285-0.802-4.229-2.406-5.833c-1.604-1.604-3.549-2.406-5.833-2.406H328.66v19.775
			c0,35.157-6.592,52.734-19.775,52.734v-92.285h64.27c7.734,0,14.337,2.735,19.808,8.207c5.472,5.471,8.207,12.074,8.207,19.808
			c0,7.735-2.725,14.327-8.174,19.775c-4.219,4.219-9.075,6.812-14.568,7.778c15.161,15.162,22.742,32.06,22.742,50.691
			L350.94,209.525z"/>
		<path d="M407.604,153.495h19.775v39.551c0,35.157-6.592,52.734-19.775,52.734V153.495z"/>
		<path d="M453.588,173.271v19.775c0,35.157-6.592,52.734-19.775,52.734v-92.285h92.285v39.551c0,35.157-6.592,52.734-19.775,52.734
			v-72.51h-16.479v13.184c0,35.157-6.592,52.734-19.775,52.734v-65.918H453.588z"/>
		<path d="M611.633,153.495c0,13.184-17.579,19.775-52.734,19.775h-26.367v-19.775H611.633z M618.225,189.75
			c0,13.184-17.579,19.775-52.734,19.775h-32.959V189.75H618.225z M624.816,226.005c0,13.184-17.579,19.775-52.734,19.775h-39.551
			v-19.775H624.816z"/>
	</g>
</g>
</svg>
