<?xml version="1.0" encoding="iso-8859-1"?>
<!-- Generator: Adobe Illustrator 19.1.0, SVG Export Plug-In . SVG Version: 6.00 Build 0)  -->
<svg version="1.1" id="Calque_2" xmlns="http://www.w3.org/2000/svg" xmlns:xlink="http://www.w3.org/1999/xlink" x="0px" y="0px"
	 viewBox="0 0 1200 400" style="enable-background:new 0 0 1200 400;" xml:space="preserve">
<g>
	<g>
		<g>
			<defs>
				<rect id="SVGID_1_" x="727.631" y="1" width="390.073" height="390.073"/>
			</defs>
			<clipPath id="SVGID_2_">
				<use xlink:href="#SVGID_1_"  style="overflow:visible;"/>
			</clipPath>
			<path style="clip-path:url(#SVGID_2_);" d="M740.52,289.397V78.502V289.397z"/>
			<rect x="736.989" y="78.503" style="clip-path:url(#SVGID_2_);" width="7.063" height="210.894"/>
			<path style="clip-path:url(#SVGID_2_);" d="M1107.541,120.582V31.42V120.582z"/>
			<rect x="1105.422" y="31.419" style="clip-path:url(#SVGID_2_);" width="4.239" height="89.163"/>
			<path style="clip-path:url(#SVGID_2_);" d="M1026.347,120.582V97.574V120.582z"/>
			<rect x="1023.522" y="97.573" style="clip-path:url(#SVGID_2_);" width="5.651" height="23.008"/>
			<path style="clip-path:url(#SVGID_2_);" d="M929.986,289.397v-47.402V289.397z"/>
			<rect x="925.042" y="241.995" style="clip-path:url(#SVGID_2_);" width="9.889" height="47.402"/>
			<g style="clip-path:url(#SVGID_2_);">
				<defs>
					<rect id="SVGID_3_" x="727.631" y="1" width="390.073" height="390.073"/>
				</defs>
				<clipPath id="SVGID_4_">
					<use xlink:href="#SVGID_3_"  style="overflow:visible;"/>
				</clipPath>
				<path style="clip-path:url(#SVGID_4_);" d="M740.521,150.249c0.506,5.798,0.918,11.596,1.379,17.393l1.224,17.394
					c0.198,2.898,0.419,5.797,0.587,8.696l0.539,8.697l1.078,17.393c0.207,2.899,0.321,5.798,0.257,8.697
					c-0.067,2.899-0.129,5.797-0.119,8.696v17.394v34.787l-4.945-4.945h189.465l-4.945,4.945v-24.848l5.118,4.941l-1.045,0.014
					l-0.966-0.005c-0.64-0.004-1.271-0.017-1.894-0.041c-1.258-0.029-2.492-0.11-3.735-0.172c-1.233-0.09-2.468-0.174-3.698-0.282
					c-1.226-0.123-2.455-0.229-3.678-0.367c-4.894-0.527-9.733-1.318-14.546-2.223l-3.601-0.715c-1.198-0.247-2.386-0.534-3.58-0.8
					c-2.392-0.513-4.753-1.144-7.12-1.751c-1.187-0.292-2.361-0.626-3.533-0.97l-3.52-1.015c-2.341-0.694-4.654-1.478-6.982-2.214
					c-2.312-0.782-4.601-1.626-6.903-2.437c-2.287-0.853-4.546-1.772-6.82-2.656c-4.505-1.867-8.984-3.803-13.369-5.935
					c-1.097-0.531-2.215-1.021-3.295-1.585l-3.249-1.677l-3.249-1.677c-1.087-0.551-2.131-1.181-3.198-1.768
					c-2.115-1.209-4.267-2.356-6.35-3.618l-6.233-3.814c-2.07-1.281-4.068-2.675-6.105-4.008l-3.039-2.024l-2.961-2.134
					c-1.966-1.434-3.969-2.819-5.903-4.295l-5.753-4.491c-1.939-1.471-3.787-3.05-5.691-4.565c-1.883-1.54-3.744-3.111-5.424-4.877
					c-3.369-3.522-6.832-6.925-10.006-10.604l-4.836-5.425l-4.621-5.601c-3.131-3.681-5.925-7.638-8.839-11.47
					c-1.476-1.901-2.816-3.909-4.186-5.887l-4.072-5.952C745.546,158.415,743.037,154.318,740.521,150.249 M740.521,150.249
					c3.167,3.609,6.221,7.284,9.391,10.851l4.853,5.26c1.612,1.753,3.188,3.531,4.894,5.196c3.369,3.365,6.627,6.809,10.143,9.998
					l5.158,4.876l5.335,4.668c3.497,3.167,7.253,6.033,10.892,9.003c0.902,0.752,1.856,1.442,2.766,2.181
					c0.918,0.729,1.804,1.497,2.685,2.27c1.76,1.55,3.487,3.144,5.366,4.547l5.543,4.329c1.862,1.421,3.792,2.753,5.684,4.135
					l2.851,2.056l2.925,1.946c1.961,1.281,3.881,2.625,5.872,3.856l5.992,3.667c2.001,1.215,4.069,2.312,6.1,3.476
					c1.026,0.563,2.028,1.172,3.072,1.699l3.118,1.609l3.118,1.61c1.037,0.543,2.109,1.011,3.162,1.52
					c4.207,2.046,8.502,3.901,12.821,5.692c2.179,0.845,4.344,1.728,6.534,2.544c2.204,0.775,4.397,1.584,6.609,2.334
					c2.227,0.702,4.441,1.453,6.679,2.117l3.365,0.97c1.12,0.328,2.242,0.649,3.375,0.926c2.26,0.578,4.515,1.183,6.794,1.671
					c1.137,0.253,2.271,0.528,3.412,0.763l3.427,0.68c4.574,0.859,9.171,1.611,13.778,2.107c1.151,0.13,2.301,0.228,3.452,0.344
					c1.149,0.101,2.298,0.179,3.446,0.263c1.142,0.056,2.292,0.133,3.422,0.158c0.57,0.022,1.132,0.034,1.687,0.037l0.825,0.005
					l0.746-0.008l5.118-0.055v4.996v24.848v4.945h-4.945H740.521h-4.945v-4.945V254.61v-17.394c0.009-2.899-0.052-5.797-0.119-8.696
					c-0.064-2.899,0.05-5.798,0.257-8.697l1.078-17.393l0.539-8.697c0.169-2.899,0.389-5.798,0.587-8.696l1.224-17.394
					C739.602,161.845,740.014,156.047,740.521,150.249"/>
				<path style="clip-path:url(#SVGID_4_);" d="M1107.541,60.715c0.289,2.485,0.525,4.97,0.788,7.454l0.699,7.453
					c0.243,2.485,0.437,4.97,0.644,7.454l0.616,7.454c0.119,1.243,0.183,2.485,0.147,3.727c-0.038,1.243-0.073,2.485-0.068,3.727
					v7.454v14.908v2.826h-2.826h-81.194h-2.825v-2.826v-10.648v-2.864l2.924,0.04c0.368,0.005,0.885,0.005,1.35-0.015
					c0.475-0.01,0.962-0.043,1.444-0.066c0.97-0.064,1.946-0.151,2.922-0.257c1.953-0.21,3.906-0.53,5.85-0.895
					c1.944-0.368,3.876-0.818,5.795-1.324c1.919-0.503,3.819-1.085,5.706-1.706l2.812-0.993c0.931-0.347,1.852-0.723,2.779-1.082
					c1.837-0.762,3.665-1.551,5.455-2.422c0.906-0.412,1.789-0.873,2.672-1.332c0.886-0.455,1.773-0.906,2.635-1.407
					c0.864-0.495,1.745-0.963,2.596-1.48l2.55-1.56c0.848-0.523,1.666-1.096,2.5-1.642l1.245-0.829l1.214-0.875
					c0.805-0.589,1.627-1.155,2.42-1.761l2.361-1.843c0.8-0.597,1.532-1.281,2.276-1.947c0.38-0.325,0.75-0.66,1.144-0.967
					l1.195-0.91c1.578-1.233,3.209-2.423,4.731-3.744l2.323-1.946l2.248-2.038c1.534-1.332,2.964-2.771,4.439-4.179
					c1.476-1.41,2.83-2.931,4.284-4.383C1104.79,63.774,1106.137,62.229,1107.541,60.715 M1107.541,60.715
					c-1.031,1.776-2.068,3.562-3.149,5.325l-1.689,2.6c-0.57,0.864-1.127,1.74-1.743,2.572c-1.217,1.676-2.381,3.408-3.696,5.02
					l-1.942,2.452l-2.037,2.379c-1.336,1.613-2.8,3.11-4.224,4.659c-0.704,0.783-1.513,1.455-2.323,2.12
					c-0.826,0.647-1.627,1.322-2.462,1.957l-2.48,1.936c-0.834,0.637-1.698,1.234-2.546,1.853l-1.277,0.92l-1.311,0.873
					c-0.879,0.575-1.74,1.176-2.633,1.729l-2.688,1.645c-0.898,0.545-1.826,1.04-2.738,1.561c-0.909,0.528-1.846,1.006-2.781,1.486
					c-0.933,0.485-1.865,0.97-2.823,1.407c-1.892,0.92-3.824,1.755-5.768,2.56c-0.981,0.382-1.957,0.778-2.943,1.146l-2.979,1.052
					c-2.001,0.659-4.017,1.277-6.059,1.813c-2.04,0.537-4.097,1.017-6.176,1.41c-2.079,0.391-4.171,0.733-6.288,0.961
					c-1.059,0.115-2.123,0.211-3.196,0.281c-0.54,0.027-1.074,0.062-1.623,0.075c-0.557,0.02-1.064,0.027-1.72,0.014l2.925-2.823
					v10.648l-2.826-2.826h81.194l-2.826,2.826v-14.908v-7.454c0.005-1.242-0.03-2.484-0.068-3.727
					c-0.037-1.242,0.028-2.484,0.147-3.727l0.616-7.454c0.207-2.485,0.4-4.97,0.644-7.454l0.699-7.453
					C1107.016,65.685,1107.252,63.2,1107.541,60.715"/>
				<path style="clip-path:url(#SVGID_4_);" d="M937.383,78.502c0,0-1.541,0.58-4.354,1.822c-2.818,1.226-6.889,3.17-11.902,5.904
					c-5.005,2.738-10.907,6.393-17.137,11.19c-6.182,4.814-12.683,10.959-17.786,18.838c-2.52,3.942-4.64,8.322-5.988,13.062
					c-0.672,2.369-1.151,4.825-1.404,7.338c-0.051,0.629-0.104,1.261-0.155,1.894c-0.024,0.636-0.048,1.273-0.072,1.913
					c0.004,0.614,0.009,1.23,0.013,1.848l0.026,0.525c0.009,0.172,0.015,0.371,0.034,0.474c0.037,0.26,0.043,0.481,0.096,0.778
					c0.603,4.516,3.355,8.66,7.313,12.205c3.96,3.548,8.922,6.517,14.176,9.227c10.595,5.366,22.456,9.747,34.503,14.445
					c6.031,2.358,12.14,4.768,18.243,7.393c6.09,2.656,12.181,5.51,18.136,8.817c5.953,3.3,11.758,7.107,17.077,11.76
					c2.651,2.329,5.166,4.889,7.413,7.734c2.236,2.848,4.2,5.981,5.715,9.352c1.521,3.365,2.575,6.958,3.107,10.584
					c0.267,1.812,0.414,3.632,0.432,5.435l0.004,0.676l-0.002,0.457l-0.011,0.298l-0.044,1.19l-0.048,1.198l-0.109,1.346
					c-0.072,0.899-0.146,1.799-0.272,2.63c-0.123,0.846-0.201,1.701-0.367,2.532c-0.153,0.835-0.289,1.673-0.459,2.499
					c-0.183,0.822-0.367,1.642-0.549,2.461c-0.798,3.252-1.798,6.401-2.96,9.437c-4.682,12.151-11.502,22.501-18.551,31.609
					c-3.573,4.528-7.208,8.777-10.874,12.729c-3.678,3.941-7.333,7.634-10.941,11.065c-3.618,3.419-7.155,6.611-10.583,9.564
					c-3.44,2.94-6.762,5.651-9.914,8.155c-6.291,5.024-11.981,9.124-16.713,12.419c-4.72,3.312-8.552,5.732-11.157,7.384
					c-2.614,1.641-4.044,2.454-4.044,2.454s1.294-1.017,3.682-2.96c2.396-1.933,5.847-4.846,10.202-8.576
					c4.34-3.749,9.52-8.398,15.331-13.841c2.895-2.733,5.935-5.679,9.064-8.854c3.14-3.16,6.393-6.524,9.682-10.122
					c3.305-3.58,6.645-7.393,9.964-11.435c3.34-4.023,6.627-8.3,9.809-12.808c3.168-4.511,6.248-9.251,8.988-14.271
					c1.375-2.507,2.705-5.063,3.893-7.698c1.197-2.628,2.313-5.314,3.242-8.065c0.933-2.749,1.748-5.543,2.372-8.377
					c0.14-0.71,0.281-1.421,0.421-2.133c0.129-0.713,0.223-1.429,0.339-2.145c0.128-0.715,0.168-1.435,0.257-2.152
					c0.094-0.733,0.126-1.411,0.166-2.091l0.066-1.025l0.019-1.181l0.015-1.192l0.004-0.298c0.002-0.08-0.004,0.146-0.003-0.01
					l-0.005-0.129l-0.016-0.518c-0.054-1.379-0.176-2.749-0.399-4.101c-0.439-2.703-1.253-5.332-2.429-7.839
					c-2.353-5.016-6.137-9.526-10.671-13.472c-4.536-3.961-9.806-7.34-15.299-10.447c-5.509-3.095-11.303-5.852-17.185-8.451
					c-5.874-2.624-11.846-5.086-17.817-7.52c-5.974-2.43-11.924-4.888-17.807-7.439c-5.883-2.551-11.668-5.271-17.252-8.363
					c-5.569-3.102-10.979-6.592-15.671-11.169c-2.331-2.287-4.469-4.888-6.106-7.863c-1.642-2.961-2.703-6.325-2.986-9.68
					c-0.047-0.402-0.057-0.886-0.08-1.326c-0.013-0.246-0.008-0.399-0.009-0.577l0.002-0.526l0.001-0.222l0.006-0.142l0.012-0.282
					l0.025-0.566l0.051-1.126c0.065-0.747,0.13-1.492,0.193-2.234c0.098-0.739,0.194-1.474,0.291-2.208
					c0.465-2.921,1.187-5.748,2.121-8.437c1.863-5.388,4.569-10.186,7.645-14.334c3.071-4.16,6.481-7.717,9.962-10.759
					c3.478-3.05,6.987-5.645,10.391-7.885c1.703-1.12,3.378-2.155,5.012-3.117c1.641-0.953,3.251-1.816,4.805-2.626
					c3.112-1.611,6.025-2.962,8.684-4.109c5.314-2.301,9.632-3.718,12.573-4.654C935.779,78.871,937.383,78.502,937.383,78.502"/>
				<path style="clip-path:url(#SVGID_4_);" d="M946.088,82.052c0,0-0.369,0.187-1.084,0.549c-0.71,0.371-1.759,0.928-3.114,1.674
					c-1.353,0.75-3.005,1.7-4.909,2.873c-1.906,1.169-4.08,2.532-6.438,4.16c-2.363,1.62-4.89,3.529-7.563,5.669
					c-2.662,2.152-5.422,4.611-8.111,7.438c-2.674,2.837-5.3,6.028-7.544,9.638c-2.216,3.615-4.067,7.654-4.943,12.023
					c-0.452,2.179-0.651,4.429-0.609,6.711l0.002,0.214l0.001,0.107c0,0.058-0.001-0.137,0.002,0.004l0.025,0.484l0.027,0.47
					l0.044,0.313l0.04,0.318l0.067,0.36c0.037,0.243,0.095,0.479,0.157,0.713c0.239,0.939,0.601,1.831,1.09,2.681
					c1.95,3.405,6.14,6.109,10.954,8.096c4.835,2.017,10.306,3.43,15.965,4.695c5.678,1.244,11.605,2.267,17.677,3.245
					c12.14,2.003,24.88,3.764,37.804,6.405c12.911,2.629,26.117,5.97,38.77,11.68c6.311,2.851,12.463,6.365,18.029,10.832
					c5.559,4.444,10.508,9.903,14.097,16.171c3.607,6.258,5.787,13.191,6.762,20.04c0.479,3.43,0.698,6.847,0.669,10.21
					c-0.037,1.593-0.073,3.181-0.11,4.762c-0.069,1.602-0.103,3.221-0.202,4.791c-0.638,12.625-2.352,24.775-4.918,36.071
					c-2.553,11.301-5.967,21.74-9.839,31.048c-3.866,9.315-8.175,17.506-12.484,24.434c-2.137,3.476-4.271,6.639-6.313,9.508
					c-2.071,2.851-4.071,5.394-5.93,7.641c-3.709,4.504-6.932,7.762-9.186,9.907c-1.123,1.077-2.024,1.861-2.635,2.382
					c-0.612,0.521-0.939,0.775-0.939,0.775s1.134-1.21,3.077-3.615c1.943-2.403,4.652-6.038,7.813-10.83
					c1.574-2.4,3.234-5.109,4.952-8.103c1.73-2.984,3.521-6.255,5.282-9.822c3.528-7.128,7.035-15.385,10.151-24.613
					c1.553-4.615,2.979-9.482,4.301-14.551c1.286-5.08,2.434-10.373,3.418-15.846c0.953-5.48,1.733-11.14,2.329-16.943
					c0.568-5.809,0.924-11.762,1.09-17.822c0.056-1.522,0.045-3.013,0.072-4.529c-0.005-1.539-0.011-3.085-0.016-4.635
					c-0.045-2.924-0.252-5.841-0.694-8.717c-0.895-5.744-2.739-11.307-5.692-16.294c-2.925-5.002-6.914-9.435-11.639-13.179
					c-4.721-3.755-10.13-6.839-15.826-9.459c-5.708-2.614-11.726-4.739-17.856-6.546c-6.129-1.82-12.372-3.35-18.633-4.696
					c-12.535-2.675-25.106-4.754-37.358-7.017c-6.123-1.162-12.169-2.376-18.097-3.848c-5.926-1.482-11.739-3.215-17.312-5.755
					c-2.78-1.276-5.504-2.78-8.034-4.722c-2.515-1.933-4.854-4.395-6.414-7.415c-0.777-1.501-1.344-3.114-1.677-4.735
					c-0.085-0.405-0.161-0.81-0.209-1.215l-0.08-0.607l-0.052-0.655l-0.043-0.657l-0.006-0.501l-0.004-0.484
					c0.001,0.059-0.003-0.215,0.001-0.238l0.006-0.135l0.013-0.269c0.12-2.87,0.562-5.668,1.322-8.292
					c1.484-5.271,4.009-9.836,6.858-13.67c2.854-3.848,6.013-7.039,9.167-9.746c6.321-5.41,12.468-9.1,17.648-11.807
					c5.177-2.723,9.417-4.454,12.326-5.56c1.453-0.558,2.581-0.945,3.345-1.195C945.693,82.178,946.088,82.052,946.088,82.052"/>
			</g>
		</g>
	</g>
	<g>
		<path d="M453.415,119.111c8.593,0,15.93,3.04,22.009,9.119s9.119,13.416,9.119,22.009c0,8.595-3.04,15.931-9.119,22.009
			c-6.079,6.08-13.416,9.119-22.009,9.119h-71.411c0-14.648,13.427-21.973,40.283-21.973h31.128c2.538,0,4.699-0.891,6.482-2.674
			c1.782-1.781,2.673-3.942,2.673-6.481c0-2.538-0.892-4.699-2.673-6.482c-1.783-1.782-3.944-2.673-6.482-2.673h-40.283
			c-8.595,0-15.93-3.04-22.009-9.119s-9.119-13.415-9.119-22.009c0-8.593,3.04-15.93,9.119-22.009s13.415-9.119,22.009-9.119h71.411
			c0,14.648-13.429,21.973-40.283,21.973h-31.128c-2.54,0-4.7,0.892-6.482,2.673c-1.783,1.783-2.673,3.944-2.673,6.482
			c0,2.54,0.89,4.7,2.673,6.482c1.782,1.783,3.942,2.673,6.482,2.673H453.415z"/>
		<path d="M513.664,122.773c0,39.063-7.324,58.594-21.973,58.594V78.828h21.973V122.773z M594.304,78.754l-0.073,31.201
			c0,8.595-3.028,15.919-9.082,21.973c-4.688,4.688-10.083,7.569-16.187,8.643c16.846,16.846,25.269,35.621,25.269,56.323
			l-55.811-55.811h-24.756c0-14.648,9.765-21.973,29.297-21.973h20.142c2.538,0,4.699-0.89,6.482-2.673
			c1.782-1.782,2.673-3.942,2.673-6.482c0-0.634-0.049-1.245-0.146-1.831h0.146C572.258,88.642,579.606,78.853,594.304,78.754z"/>
		<path d="M601.379,78.828h21.973v43.945c0,39.063-7.324,58.594-21.973,58.594V78.828z"/>
		<path d="M133.332,217.828h51.27c0,14.648-10.986,21.973-32.959,21.973h-18.311c-8.106,0-15.015,2.856-20.728,8.569
			s-8.569,12.623-8.569,20.728c0,8.105,2.856,15.015,8.569,20.728s12.622,8.569,20.728,8.569h18.311
			c21.973,0,32.959,7.324,32.959,21.973h-51.27c-14.161,0-26.246-5.005-36.255-15.015c-10.01-10.009-15.015-22.094-15.015-36.255
			c0-14.16,5.004-26.245,15.015-36.255C107.086,222.834,119.171,217.828,133.332,217.828z"/>
		<path d="M238.479,280.084h-24.756c0-14.648,9.765-21.973,29.297-21.973h20.142c2.538,0,4.699-0.891,6.482-2.674
			c1.782-1.781,2.673-3.942,2.673-6.481c0-2.538-0.892-4.699-2.673-6.481c-1.783-1.782-3.944-2.674-6.482-2.674h-49.438v21.973
			c0,39.063-7.324,58.594-21.973,58.594V217.828h71.411c8.593,0,15.93,3.039,22.009,9.119c6.079,6.078,9.119,13.415,9.119,22.009
			c0,8.595-3.028,15.919-9.082,21.973c-4.688,4.688-10.083,7.569-16.187,8.643c16.846,16.846,25.269,35.621,25.269,56.323
			L238.479,280.084z"/>
		<path d="M388.962,232.843c10.009,10.01,15.015,22.095,15.015,36.255c0,14.161-5.006,26.246-15.015,36.255
			c-10.01,10.01-22.095,15.015-36.255,15.015c-14.161,0-26.246-5.005-36.255-15.015c-10.01-10.009-15.015-22.094-15.015-36.255
			c0-14.16,5.004-26.245,15.015-36.255c10.009-10.009,22.094-15.015,36.255-15.015C366.867,217.828,378.952,222.834,388.962,232.843
			z M352.707,239.801c-8.106,0-15.015,2.856-20.728,8.569s-8.569,12.623-8.569,20.728c0,8.105,2.856,15.015,8.569,20.728
			s12.622,8.569,20.728,8.569c8.104,0,15.015-2.856,20.728-8.569s8.569-12.622,8.569-20.728c0-8.104-2.856-15.015-8.569-20.728
			S360.812,239.801,352.707,239.801z"/>
		<path d="M482.536,258.111c8.593,0,15.93,3.039,22.009,9.119c6.079,6.078,9.119,13.415,9.119,22.009
			c0,8.595-3.04,15.931-9.119,22.009c-6.079,6.08-13.416,9.119-22.009,9.119h-71.411c0-14.648,13.427-21.973,40.283-21.973h31.128
			c2.538,0,4.699-0.891,6.482-2.674c1.782-1.781,2.673-3.942,2.673-6.481c0-2.538-0.892-4.699-2.673-6.481
			c-1.783-1.782-3.944-2.674-6.482-2.674h-40.283c-8.595,0-15.93-3.039-22.009-9.119c-6.079-6.078-9.119-13.414-9.119-22.009
			c0-8.594,3.04-15.931,9.119-22.009c6.079-6.08,13.415-9.119,22.009-9.119h71.411c0,14.648-13.429,21.973-40.283,21.973h-31.128
			c-2.54,0-4.7,0.892-6.482,2.674c-1.783,1.782-2.673,3.943-2.673,6.481c0,2.539,0.89,4.7,2.673,6.481
			c1.782,1.783,3.942,2.674,6.482,2.674H482.536z"/>
		<path d="M592.224,258.111c8.593,0,15.93,3.039,22.009,9.119c6.079,6.078,9.119,13.415,9.119,22.009
			c0,8.595-3.04,15.931-9.119,22.009c-6.079,6.08-13.416,9.119-22.009,9.119h-71.411c0-14.648,13.427-21.973,40.283-21.973h31.128
			c2.538,0,4.699-0.891,6.482-2.674c1.782-1.781,2.673-3.942,2.673-6.481c0-2.538-0.892-4.699-2.673-6.481
			c-1.783-1.782-3.944-2.674-6.482-2.674H551.94c-8.595,0-15.93-3.039-22.009-9.119c-6.079-6.078-9.119-13.414-9.119-22.009
			c0-8.594,3.04-15.931,9.119-22.009c6.079-6.08,13.415-9.119,22.009-9.119h71.411c0,14.648-13.429,21.973-40.283,21.973H551.94
			c-2.54,0-4.7,0.892-6.482,2.674c-1.783,1.782-2.673,3.943-2.673,6.481c0,2.539,0.89,4.7,2.673,6.481
			c1.782,1.783,3.942,2.674,6.482,2.674H592.224z"/>
	</g>
</g>
</svg>
