<?xml version="1.0" encoding="iso-8859-1"?>
<!-- Generator: Adobe Illustrator 19.1.0, SVG Export Plug-In . SVG Version: 6.00 Build 0)  -->
<svg version="1.1" id="Calque_1" xmlns="http://www.w3.org/2000/svg" xmlns:xlink="http://www.w3.org/1999/xlink" x="0px" y="0px"
	 viewBox="0 0 1200 400" style="enable-background:new 0 0 1200 400;" xml:space="preserve">
<g>
	<g>
		<g>
			<defs>
				<rect id="SVGID_1_" x="720.205" y="-12.741" width="398.322" height="398.322"/>
			</defs>
			<clipPath id="SVGID_2_">
				<use xlink:href="#SVGID_1_"  style="overflow:visible;"/>
			</clipPath>
			<g style="clip-path:url(#SVGID_2_);">
				<defs>
					<rect id="SVGID_3_" x="720.205" y="-12.741" width="398.322" height="398.322"/>
				</defs>
				<clipPath id="SVGID_4_">
					<use xlink:href="#SVGID_3_"  style="overflow:visible;"/>
				</clipPath>
				<path style="clip-path:url(#SVGID_4_);fill:#0066FF;" d="M734.25,279.664c0,0,1.246,0.954,3.692,2.544
					c2.439,1.599,6.127,3.771,10.956,6.169c4.836,2.377,10.862,4.927,17.968,6.994c7.096,2.062,15.288,3.629,24.214,3.896
					c1.115,0.043,2.243,0.013,3.377,0.037c1.135,0.002,2.281-0.055,3.435-0.079l0.216-0.006l0.108-0.003
					c0.095-0.001-0.007-0.001,0.045-0.004l0.457-0.027l0.918-0.054c0.629-0.033,1.118-0.099,1.685-0.144
					c1.121-0.112,2.292-0.262,3.448-0.436c4.643-0.711,9.412-1.891,14.246-3.505c9.694-3.179,19.639-7.946,30.116-13.008
					c5.233-2.557,10.624-5.158,16.222-7.674c5.598-2.517,11.402-4.963,17.514-7.008c6.099-2.055,12.485-3.817,19.144-4.816
					c3.327-0.501,6.714-0.825,10.13-0.948c1.702-0.061,3.455-0.065,5.063-0.018c1.831,0.055,3.495,0.151,5.213,0.314
					c6.833,0.65,13.507,2.23,19.817,4.327c6.321,2.093,12.256,4.775,17.917,7.542c2.832,1.386,5.6,2.802,8.317,4.209
					c2.682,1.412,5.352,2.819,8.005,4.216c5.262,2.759,10.423,5.313,15.531,7.574c10.216,4.5,20.414,7.433,30.416,8.337
					c1.248,0.123,2.49,0.221,3.728,0.279l0.861,0.049l0.985,0.027l0.982,0.026l0.892,0.006c2.358,0.024,4.791-0.096,7.091-0.304
					c4.636-0.421,9.004-1.387,13.012-2.869c8.072-2.893,14.538-8.045,20.405-12.859c2.955-2.391,5.773-4.71,8.609-6.611
					c2.82-1.918,5.607-3.458,8.251-4.523c5.304-2.172,9.793-2.478,12.728-2.55c1.483-0.018,2.611,0.051,3.37,0.108
					c0.756,0.063,1.146,0.096,1.146,0.096s-0.388,0.045-1.141,0.132c-0.75,0.087-1.86,0.264-3.286,0.522
					c-1.422,0.284-3.158,0.7-5.114,1.385c-1.947,0.707-4.115,1.656-6.36,3.008c-2.239,1.365-4.557,3.101-6.9,5.252
					c-2.344,2.149-4.753,4.658-7.363,7.433c-2.619,2.764-5.503,5.75-8.918,8.673c-3.409,2.913-7.419,5.691-11.995,7.917
					c-4.571,2.238-9.687,3.836-15.026,4.829c-2.688,0.503-5.369,0.815-8.209,1.02l-1.062,0.073l-0.981,0.05l-0.984,0.049
					l-1.115,0.027c-1.402,0.041-2.818,0.041-4.244,0.011c-5.703-0.115-11.565-0.837-17.418-2.075
					c-5.862-1.222-11.667-3.089-17.372-5.247c-5.711-2.156-11.276-4.73-16.765-7.352c-2.715-1.31-5.447-2.63-8.192-3.955
					c-2.71-1.33-5.412-2.64-8.118-3.893c-5.407-2.517-10.845-4.758-16.315-6.564c-5.478-1.78-11.025-3.016-16.607-3.533
					c-11.134-1.162-22.524,0.858-33.641,4.351c-2.781,0.868-5.54,1.849-8.294,2.865c-2.755,1.012-5.495,2.086-8.221,3.198
					c-5.451,2.231-10.849,4.605-16.25,6.888c-10.775,4.611-21.564,9.007-32.484,11.751c-5.455,1.349-10.92,2.332-16.306,2.654
					c-1.351,0.08-2.67,0.129-4.023,0.141c-0.669-0.004-1.412,0.012-2.009-0.012l-0.919-0.029l-0.457-0.014
					c-0.023-0.001-0.201-0.003-0.183-0.006l-0.12-0.007l-0.24-0.015c-1.276-0.087-2.54-0.14-3.786-0.255
					c-1.246-0.131-2.478-0.242-3.692-0.411c-9.722-1.275-18.291-3.966-25.458-7.077c-7.179-3.122-13-6.629-17.533-9.817
					c-4.549-3.175-7.799-6.064-9.963-8.059c-1.083-0.999-1.862-1.82-2.388-2.368C734.507,279.959,734.25,279.664,734.25,279.664"/>
				<path style="clip-path:url(#SVGID_4_);fill:#0066FF;" d="M794.681,359.004c0,1.282-1.039,2.321-2.321,2.321
					c-1.282,0-2.321-1.04-2.321-2.321c0-1.282,1.039-2.321,2.321-2.321C793.642,356.682,794.681,357.722,794.681,359.004"/>
				<path style="clip-path:url(#SVGID_4_);fill:#0066FF;" d="M792.36,364.522c-3.042,0-5.518-2.475-5.518-5.518
					c0-3.042,2.476-5.518,5.518-5.518c3.042,0,5.518,2.475,5.518,5.518C797.878,362.047,795.402,364.522,792.36,364.522
					 M792.36,358.128c-0.483,0-0.876,0.393-0.876,0.876c0,0.483,0.394,0.876,0.876,0.876c0.483,0,0.876-0.394,0.876-0.876
					C793.236,358.521,792.842,358.128,792.36,358.128"/>
				<path style="clip-path:url(#SVGID_4_);fill:#0066FF;" d="M811.594,338.228c0,1.282-1.039,2.321-2.321,2.321
					c-1.282,0-2.321-1.04-2.321-2.321s1.039-2.321,2.321-2.321C810.555,335.907,811.594,336.946,811.594,338.228"/>
				<path style="clip-path:url(#SVGID_4_);fill:#0066FF;" d="M809.273,343.746c-3.042,0-5.518-2.475-5.518-5.518
					c0-3.043,2.476-5.518,5.518-5.518c3.042,0,5.518,2.475,5.518,5.518C814.791,341.271,812.315,343.746,809.273,343.746
					 M809.273,337.352c-0.483,0-0.876,0.394-0.876,0.876s0.394,0.876,0.876,0.876c0.483,0,0.876-0.393,0.876-0.876
					S809.756,337.352,809.273,337.352"/>
				<path style="clip-path:url(#SVGID_4_);fill:#0066FF;" d="M834.466,348.37c0,1.282-1.039,2.321-2.321,2.321
					c-1.282,0-2.321-1.04-2.321-2.321s1.039-2.321,2.321-2.321C833.427,346.048,834.466,347.088,834.466,348.37"/>
				<path style="clip-path:url(#SVGID_4_);fill:#0066FF;" d="M832.145,353.888c-3.042,0-5.518-2.475-5.518-5.518
					c0-3.042,2.476-5.518,5.518-5.518c3.042,0,5.518,2.475,5.518,5.518C837.663,351.413,835.187,353.888,832.145,353.888
					 M832.145,347.494c-0.483,0-0.876,0.393-0.876,0.876c0,0.483,0.394,0.876,0.876,0.876c0.483,0,0.876-0.394,0.876-0.876
					C833.021,347.887,832.628,347.494,832.145,347.494"/>
				<path style="clip-path:url(#SVGID_4_);fill:#0066FF;" d="M886.433,326.465c0,1.282-1.039,2.321-2.321,2.321
					c-1.282,0-2.321-1.04-2.321-2.321s1.039-2.321,2.321-2.321C885.394,324.143,886.433,325.183,886.433,326.465"/>
				<path style="clip-path:url(#SVGID_4_);fill:#0066FF;" d="M884.111,331.983c-3.042,0-5.518-2.475-5.518-5.518
					c0-3.042,2.476-5.518,5.518-5.518c3.042,0,5.518,2.475,5.518,5.518C889.63,329.508,887.154,331.983,884.111,331.983
					 M884.111,325.589c-0.483,0-0.876,0.393-0.876,0.876s0.394,0.876,0.876,0.876c0.483,0,0.876-0.394,0.876-0.876
					S884.594,325.589,884.111,325.589"/>
				<path style="clip-path:url(#SVGID_4_);fill:#0066FF;" d="M909.633,306.786c0,1.282-1.039,2.321-2.321,2.321
					c-1.282,0-2.321-1.04-2.321-2.321s1.039-2.321,2.321-2.321C908.594,304.464,909.633,305.504,909.633,306.786"/>
				<path style="clip-path:url(#SVGID_4_);fill:#0066FF;" d="M907.312,312.303c-3.042,0-5.518-2.475-5.518-5.518
					c0-3.043,2.476-5.518,5.518-5.518c3.042,0,5.518,2.475,5.518,5.518C912.83,309.828,910.354,312.303,907.312,312.303
					 M907.312,305.91c-0.483,0-0.876,0.394-0.876,0.876c0,0.483,0.394,0.876,0.876,0.876c0.483,0,0.876-0.393,0.876-0.876
					C908.188,306.303,907.794,305.91,907.312,305.91"/>
				<path style="clip-path:url(#SVGID_4_);fill:#0066FF;" d="M943.23,306.786c0,1.282-1.039,2.321-2.321,2.321
					c-1.282,0-2.321-1.04-2.321-2.321s1.039-2.321,2.321-2.321C942.192,304.464,943.23,305.504,943.23,306.786"/>
				<path style="clip-path:url(#SVGID_4_);fill:#0066FF;" d="M940.909,312.303c-3.042,0-5.518-2.475-5.518-5.518
					c0-3.043,2.475-5.518,5.518-5.518c3.043,0,5.518,2.475,5.518,5.518C946.427,309.828,943.952,312.303,940.909,312.303
					 M940.909,305.91c-0.483,0-0.875,0.394-0.875,0.876c0,0.483,0.393,0.876,0.875,0.876s0.876-0.393,0.876-0.876
					C941.785,306.303,941.392,305.91,940.909,305.91"/>
				<path style="clip-path:url(#SVGID_4_);fill:#0066FF;" d="M924.951,287.631c0,1.282-1.039,2.321-2.321,2.321
					c-1.282,0-2.321-1.04-2.321-2.321s1.039-2.321,2.321-2.321C923.912,285.309,924.951,286.349,924.951,287.631"/>
				<path style="clip-path:url(#SVGID_4_);fill:#0066FF;" d="M922.63,293.149c-3.042,0-5.518-2.475-5.518-5.518
					c0-3.043,2.475-5.518,5.518-5.518c3.043,0,5.518,2.475,5.518,5.518C928.148,290.673,925.673,293.149,922.63,293.149
					 M922.63,286.755c-0.483,0-0.876,0.394-0.876,0.876c0,0.483,0.393,0.875,0.876,0.875c0.483,0,0.876-0.393,0.876-0.875
					C923.506,287.148,923.112,286.755,922.63,286.755"/>
				<path style="clip-path:url(#SVGID_4_);fill:#0066FF;" d="M840.984,313.165c0,1.282-1.039,2.321-2.321,2.321
					c-1.282,0-2.321-1.04-2.321-2.321s1.039-2.321,2.321-2.321C839.945,310.844,840.984,311.883,840.984,313.165"/>
				<path style="clip-path:url(#SVGID_4_);fill:#0066FF;" d="M838.663,318.683c-3.042,0-5.518-2.475-5.518-5.518
					c0-3.043,2.476-5.518,5.518-5.518c3.042,0,5.518,2.475,5.518,5.518C844.181,316.208,841.705,318.683,838.663,318.683
					 M838.663,312.289c-0.483,0-0.876,0.394-0.876,0.876s0.394,0.876,0.876,0.876c0.483,0,0.876-0.393,0.876-0.876
					S839.145,312.289,838.663,312.289"/>
				<path style="clip-path:url(#SVGID_4_);fill:#0066FF;" d="M947.873,353.946c0,1.282-1.04,2.321-2.321,2.321
					s-2.321-1.04-2.321-2.321s1.039-2.321,2.321-2.321S947.873,352.665,947.873,353.946"/>
				<path style="clip-path:url(#SVGID_4_);fill:#0066FF;" d="M945.551,359.465c-3.042,0-5.518-2.475-5.518-5.518
					c0-3.042,2.475-5.518,5.518-5.518c3.043,0,5.518,2.475,5.518,5.518C951.07,356.99,948.594,359.465,945.551,359.465
					 M945.551,353.071c-0.483,0-0.876,0.393-0.876,0.876s0.393,0.876,0.876,0.876s0.876-0.394,0.876-0.876
					S946.034,353.071,945.551,353.071"/>
				<path style="clip-path:url(#SVGID_4_);fill:#0066FF;" d="M971.615,326.465c0,1.282-1.039,2.321-2.321,2.321
					c-1.282,0-2.321-1.04-2.321-2.321s1.039-2.321,2.321-2.321C970.577,324.143,971.615,325.183,971.615,326.465"/>
				<path style="clip-path:url(#SVGID_4_);fill:#0066FF;" d="M969.294,331.983c-3.042,0-5.518-2.475-5.518-5.518
					c0-3.042,2.475-5.518,5.518-5.518c3.043,0,5.518,2.475,5.518,5.518C974.812,329.508,972.337,331.983,969.294,331.983
					 M969.294,325.589c-0.483,0-0.876,0.393-0.876,0.876s0.393,0.876,0.876,0.876s0.876-0.394,0.876-0.876
					S969.777,325.589,969.294,325.589"/>
				<path style="clip-path:url(#SVGID_4_);fill:#0066FF;" d="M1000.036,331.962c0,1.282-1.039,2.321-2.321,2.321
					c-1.282,0-2.321-1.04-2.321-2.321c0-1.282,1.039-2.321,2.321-2.321C998.997,329.64,1000.036,330.68,1000.036,331.962"/>
				<path style="clip-path:url(#SVGID_4_);fill:#0066FF;" d="M997.714,337.48c-3.042,0-5.518-2.475-5.518-5.518
					c0-3.042,2.475-5.518,5.518-5.518c3.043,0,5.518,2.475,5.518,5.518C1003.232,335.005,1000.757,337.48,997.714,337.48
					 M997.714,331.086c-0.483,0-0.876,0.393-0.876,0.876c0,0.483,0.393,0.876,0.876,0.876c0.483,0,0.876-0.394,0.876-0.876
					C998.59,331.479,998.197,331.086,997.714,331.086"/>
				<path style="clip-path:url(#SVGID_4_);fill:#0066FF;" d="M1043.648,315.486c0,1.282-1.039,2.321-2.321,2.321
					c-1.282,0-2.321-1.04-2.321-2.321s1.039-2.321,2.321-2.321C1042.609,313.165,1043.648,314.205,1043.648,315.486"/>
				<path style="clip-path:url(#SVGID_4_);fill:#0066FF;" d="M1041.327,321.005c-3.043,0-5.518-2.475-5.518-5.518
					c0-3.042,2.475-5.518,5.518-5.518c3.042,0,5.518,2.475,5.518,5.518C1046.844,318.529,1044.369,321.005,1041.327,321.005
					 M1041.327,314.611c-0.483,0-0.876,0.393-0.876,0.876c0,0.483,0.393,0.876,0.876,0.876s0.875-0.394,0.875-0.876
					C1042.202,315.003,1041.809,314.611,1041.327,314.611"/>
				<path style="clip-path:url(#SVGID_4_);fill:#0066FF;" d="M1005.575,351.625c0,1.282-1.039,2.321-2.321,2.321
					c-1.282,0-2.321-1.04-2.321-2.321s1.039-2.321,2.321-2.321C1004.536,349.304,1005.575,350.344,1005.575,351.625"/>
				<path style="clip-path:url(#SVGID_4_);fill:#0066FF;" d="M1003.254,357.143c-3.042,0-5.518-2.475-5.518-5.518
					c0-3.043,2.475-5.518,5.518-5.518c3.043,0,5.518,2.475,5.518,5.518C1008.772,354.668,1006.297,357.143,1003.254,357.143
					 M1003.254,350.749c-0.483,0-0.876,0.394-0.876,0.876s0.393,0.876,0.876,0.876s0.876-0.393,0.876-0.876
					S1003.736,350.749,1003.254,350.749"/>
				<path style="clip-path:url(#SVGID_4_);fill:#0066FF;" d="M1034.606,335.491c0,1.282-1.04,2.321-2.321,2.321
					c-1.282,0-2.321-1.04-2.321-2.321s1.039-2.321,2.321-2.321C1033.566,333.169,1034.606,334.209,1034.606,335.491"/>
				<path style="clip-path:url(#SVGID_4_);fill:#0066FF;" d="M1032.285,341.009c-3.043,0-5.518-2.475-5.518-5.518
					c0-3.043,2.475-5.518,5.518-5.518c3.042,0,5.518,2.475,5.518,5.518C1037.802,338.533,1035.327,341.009,1032.285,341.009
					 M1032.285,334.615c-0.483,0-0.876,0.394-0.876,0.876c0,0.483,0.393,0.876,0.876,0.876s0.875-0.393,0.875-0.876
					C1033.16,335.008,1032.768,334.615,1032.285,334.615"/>
				<path style="clip-path:url(#SVGID_4_);fill:#0066FF;" d="M1051.318,351.625c0,1.282-1.039,2.321-2.321,2.321
					c-1.282,0-2.321-1.04-2.321-2.321s1.039-2.321,2.321-2.321C1050.279,349.304,1051.318,350.344,1051.318,351.625"/>
				<path style="clip-path:url(#SVGID_4_);fill:#0066FF;" d="M1048.997,357.143c-3.042,0-5.518-2.475-5.518-5.518
					c0-3.043,2.475-5.518,5.518-5.518c3.043,0,5.518,2.475,5.518,5.518C1054.515,354.668,1052.04,357.143,1048.997,357.143
					 M1048.997,350.749c-0.483,0-0.875,0.394-0.875,0.876s0.393,0.876,0.875,0.876s0.876-0.393,0.876-0.876
					S1049.479,350.749,1048.997,350.749"/>
				<path style="clip-path:url(#SVGID_4_);fill:#0066FF;" d="M981.385,363.719c0,1.282-1.039,2.321-2.321,2.321
					c-1.282,0-2.321-1.04-2.321-2.321s1.039-2.321,2.321-2.321C980.346,361.398,981.385,362.437,981.385,363.719"/>
				<path style="clip-path:url(#SVGID_4_);fill:#0066FF;" d="M979.064,369.237c-3.043,0-5.518-2.475-5.518-5.518
					c0-3.042,2.475-5.518,5.518-5.518c3.042,0,5.518,2.475,5.518,5.518C984.581,366.762,982.106,369.237,979.064,369.237
					 M979.064,362.843c-0.483,0-0.876,0.393-0.876,0.876c0,0.483,0.394,0.876,0.876,0.876c0.483,0,0.875-0.394,0.875-0.876
					C979.939,363.236,979.547,362.843,979.064,362.843"/>
				<path style="clip-path:url(#SVGID_4_);fill:#0066FF;" d="M986.027,309.107c0,1.282-1.04,2.321-2.321,2.321
					c-1.282,0-2.321-1.04-2.321-2.321s1.039-2.321,2.321-2.321C984.987,306.786,986.027,307.825,986.027,309.107"/>
				<path style="clip-path:url(#SVGID_4_);fill:#0066FF;" d="M983.706,314.625c-3.043,0-5.518-2.475-5.518-5.518
					c0-3.042,2.475-5.518,5.518-5.518c3.042,0,5.518,2.475,5.518,5.518C989.224,312.15,986.748,314.625,983.706,314.625
					 M983.706,308.231c-0.483,0-0.876,0.393-0.876,0.876s0.393,0.876,0.876,0.876s0.876-0.394,0.876-0.876
					S984.189,308.231,983.706,308.231"/>
				<path style="clip-path:url(#SVGID_4_);fill:#0066FF;" d="M891.075,299.575c0,1.282-1.039,2.321-2.321,2.321
					c-1.282,0-2.321-1.04-2.321-2.321s1.039-2.321,2.321-2.321C890.036,297.254,891.075,298.294,891.075,299.575"/>
				<path style="clip-path:url(#SVGID_4_);fill:#0066FF;" d="M888.754,305.093c-3.042,0-5.518-2.475-5.518-5.518
					c0-3.043,2.476-5.518,5.518-5.518c3.042,0,5.518,2.475,5.518,5.518C894.272,302.618,891.796,305.093,888.754,305.093
					 M888.754,298.699c-0.483,0-0.876,0.394-0.876,0.876c0,0.483,0.394,0.876,0.876,0.876c0.483,0,0.876-0.393,0.876-0.876
					C889.63,299.093,889.236,298.699,888.754,298.699"/>
				<path style="clip-path:url(#SVGID_4_);fill:#0066FF;" d="M870.365,351.625c0,1.282-1.039,2.321-2.321,2.321
					c-1.282,0-2.321-1.04-2.321-2.321s1.039-2.321,2.321-2.321C869.326,349.304,870.365,350.344,870.365,351.625"/>
				<path style="clip-path:url(#SVGID_4_);fill:#0066FF;" d="M868.044,357.143c-3.042,0-5.518-2.475-5.518-5.518
					c0-3.043,2.476-5.518,5.518-5.518c3.042,0,5.518,2.475,5.518,5.518C873.562,354.668,871.086,357.143,868.044,357.143
					 M868.044,350.749c-0.483,0-0.876,0.394-0.876,0.876s0.394,0.876,0.876,0.876c0.483,0,0.876-0.393,0.876-0.876
					S868.526,350.749,868.044,350.749"/>
				<path style="clip-path:url(#SVGID_4_);fill:#0066FF;" d="M916.448,346.048c0,1.282-1.039,2.321-2.321,2.321
					c-1.282,0-2.321-1.04-2.321-2.321s1.039-2.321,2.321-2.321C915.409,343.727,916.448,344.767,916.448,346.048"/>
				<path style="clip-path:url(#SVGID_4_);fill:#0066FF;" d="M914.127,351.566c-3.042,0-5.518-2.475-5.518-5.518
					c0-3.043,2.476-5.518,5.518-5.518c3.042,0,5.518,2.475,5.518,5.518C919.645,349.091,917.169,351.566,914.127,351.566
					 M914.127,345.172c-0.483,0-0.876,0.394-0.876,0.876c0,0.483,0.394,0.875,0.876,0.875c0.483,0,0.876-0.393,0.876-0.875
					C915.003,345.566,914.609,345.172,914.127,345.172"/>
				<path style="clip-path:url(#SVGID_4_);fill:#0066FF;" d="M1035.597,363.156c0,1.393,1.13,2.523,2.523,2.523
					s2.523-1.13,2.523-2.523s-1.13-2.523-2.523-2.523S1035.597,361.763,1035.597,363.156"/>
				<path style="clip-path:url(#SVGID_4_);fill:#0066FF;" d="M1038.12,367.1c-2.175,0-3.944-1.769-3.944-3.944
					c0-2.174,1.769-3.943,3.944-3.943c2.174,0,3.943,1.769,3.943,3.943C1042.063,365.331,1040.294,367.1,1038.12,367.1
					 M1038.12,362.054c-0.608,0-1.103,0.494-1.103,1.102c0,0.608,0.495,1.103,1.103,1.103s1.102-0.495,1.102-1.103
					C1039.222,362.548,1038.728,362.054,1038.12,362.054"/>
				<path style="clip-path:url(#SVGID_4_);fill:#0066FF;" d="M1017.212,340.574c0,1.393,1.13,2.523,2.523,2.523
					c1.393,0,2.523-1.13,2.523-2.523c0-1.393-1.13-2.523-2.523-2.523C1018.342,338.051,1017.212,339.18,1017.212,340.574"/>
				<path style="clip-path:url(#SVGID_4_);fill:#0066FF;" d="M1019.735,344.517c-2.175,0-3.944-1.769-3.944-3.943
					c0-2.175,1.769-3.944,3.944-3.944c2.174,0,3.943,1.769,3.943,3.944C1023.678,342.748,1021.909,344.517,1019.735,344.517
					 M1019.735,339.471c-0.608,0-1.103,0.495-1.103,1.103c0,0.608,0.495,1.102,1.103,1.102s1.102-0.494,1.102-1.102
					C1020.837,339.966,1020.343,339.471,1019.735,339.471"/>
				<path style="clip-path:url(#SVGID_4_);fill:#0066FF;" d="M992.351,351.597c0,1.393,1.13,2.523,2.523,2.523
					c1.393,0,2.523-1.13,2.523-2.523c0-1.393-1.13-2.523-2.523-2.523C993.48,349.074,992.351,350.204,992.351,351.597"/>
				<path style="clip-path:url(#SVGID_4_);fill:#0066FF;" d="M994.874,355.541c-2.174,0-3.943-1.769-3.943-3.944
					c0-2.174,1.769-3.943,3.943-3.943c2.175,0,3.944,1.769,3.944,3.943C998.818,353.772,997.049,355.541,994.874,355.541
					 M994.874,350.495c-0.608,0-1.102,0.494-1.102,1.102s0.494,1.103,1.102,1.103s1.103-0.495,1.103-1.103
					S995.482,350.495,994.874,350.495"/>
				<path style="clip-path:url(#SVGID_4_);fill:#0066FF;" d="M935.864,327.787c0,1.393,1.13,2.523,2.523,2.523
					c1.393,0,2.523-1.13,2.523-2.523s-1.13-2.523-2.523-2.523C936.994,325.264,935.864,326.394,935.864,327.787"/>
				<path style="clip-path:url(#SVGID_4_);fill:#0066FF;" d="M938.388,331.731c-2.175,0-3.944-1.769-3.944-3.944
					c0-2.174,1.769-3.943,3.944-3.943c2.174,0,3.943,1.769,3.943,3.943C942.331,329.962,940.562,331.731,938.388,331.731
					 M938.388,326.685c-0.608,0-1.103,0.494-1.103,1.102s0.495,1.103,1.103,1.103c0.608,0,1.102-0.495,1.102-1.103
					S938.995,326.685,938.388,326.685"/>
				<path style="clip-path:url(#SVGID_4_);fill:#0066FF;" d="M910.646,306.397c0,1.393,1.13,2.523,2.523,2.523
					s2.523-1.13,2.523-2.523c0-1.393-1.13-2.523-2.523-2.523S910.646,305.003,910.646,306.397"/>
				<path style="clip-path:url(#SVGID_4_);fill:#0066FF;" d="M913.169,310.34c-2.175,0-3.944-1.769-3.944-3.943
					c0-2.175,1.769-3.944,3.944-3.944c2.175,0,3.944,1.769,3.944,3.944C917.113,308.571,915.344,310.34,913.169,310.34
					 M913.169,305.294c-0.608,0-1.102,0.495-1.102,1.103s0.494,1.102,1.102,1.102c0.608,0,1.102-0.494,1.102-1.102
					S913.777,305.294,913.169,305.294"/>
				<path style="clip-path:url(#SVGID_4_);fill:#0066FF;" d="M874.126,306.397c0,1.393,1.13,2.523,2.523,2.523
					s2.523-1.13,2.523-2.523c0-1.393-1.13-2.523-2.523-2.523S874.126,305.003,874.126,306.397"/>
				<path style="clip-path:url(#SVGID_4_);fill:#0066FF;" d="M876.649,310.34c-2.175,0-3.944-1.769-3.944-3.943
					c0-2.175,1.769-3.944,3.944-3.944c2.175,0,3.944,1.769,3.944,3.944C880.593,308.571,878.824,310.34,876.649,310.34
					 M876.649,305.294c-0.608,0-1.102,0.495-1.102,1.103s0.494,1.102,1.102,1.102c0.608,0,1.102-0.494,1.102-1.102
					S877.257,305.294,876.649,305.294"/>
				<path style="clip-path:url(#SVGID_4_);fill:#0066FF;" d="M893.995,285.575c0,1.393,1.13,2.523,2.523,2.523
					c1.393,0,2.523-1.13,2.523-2.523c0-1.393-1.13-2.523-2.523-2.523C895.125,283.052,893.995,284.182,893.995,285.575"/>
				<path style="clip-path:url(#SVGID_4_);fill:#0066FF;" d="M896.518,289.519c-2.175,0-3.944-1.769-3.944-3.944
					c0-2.174,1.769-3.943,3.944-3.943c2.175,0,3.944,1.769,3.944,3.943C900.463,287.75,898.693,289.519,896.518,289.519
					 M896.518,284.473c-0.608,0-1.102,0.494-1.102,1.102c0,0.608,0.494,1.103,1.102,1.103s1.102-0.495,1.102-1.103
					C897.62,284.967,897.126,284.473,896.518,284.473"/>
				<path style="clip-path:url(#SVGID_4_);fill:#0066FF;" d="M985.266,313.331c0,1.393,1.13,2.523,2.523,2.523
					s2.523-1.13,2.523-2.523c0-1.393-1.13-2.523-2.523-2.523S985.266,311.938,985.266,313.331"/>
				<path style="clip-path:url(#SVGID_4_);fill:#0066FF;" d="M987.789,317.275c-2.175,0-3.944-1.769-3.944-3.944
					c0-2.174,1.769-3.943,3.944-3.943c2.174,0,3.943,1.769,3.943,3.943C991.733,315.505,989.963,317.275,987.789,317.275
					 M987.789,312.229c-0.608,0-1.103,0.494-1.103,1.102c0,0.608,0.495,1.103,1.103,1.103c0.608,0,1.102-0.495,1.102-1.103
					C988.891,312.723,988.397,312.229,987.789,312.229"/>
				<path style="clip-path:url(#SVGID_4_);fill:#0066FF;" d="M869.08,357.659c0,1.393,1.13,2.523,2.523,2.523
					c1.393,0,2.523-1.13,2.523-2.523c0-1.393-1.13-2.523-2.523-2.523C870.21,355.136,869.08,356.266,869.08,357.659"/>
				<path style="clip-path:url(#SVGID_4_);fill:#0066FF;" d="M871.603,361.603c-2.175,0-3.944-1.769-3.944-3.944
					c0-2.174,1.769-3.943,3.944-3.943c2.175,0,3.944,1.769,3.944,3.943C875.547,359.834,873.778,361.603,871.603,361.603
					 M871.603,356.557c-0.608,0-1.102,0.494-1.102,1.102s0.494,1.103,1.102,1.103s1.102-0.495,1.102-1.103
					S872.211,356.557,871.603,356.557"/>
				<path style="clip-path:url(#SVGID_4_);fill:#0066FF;" d="M843.272,327.787c0,1.393,1.13,2.523,2.523,2.523
					s2.523-1.13,2.523-2.523s-1.13-2.523-2.523-2.523S843.272,326.394,843.272,327.787"/>
				<path style="clip-path:url(#SVGID_4_);fill:#0066FF;" d="M845.795,331.731c-2.175,0-3.944-1.769-3.944-3.944
					c0-2.174,1.769-3.943,3.944-3.943c2.175,0,3.944,1.769,3.944,3.943C849.739,329.962,847.97,331.731,845.795,331.731
					 M845.795,326.685c-0.608,0-1.102,0.494-1.102,1.102s0.494,1.103,1.102,1.103s1.102-0.495,1.102-1.103
					S846.403,326.685,845.795,326.685"/>
				<path style="clip-path:url(#SVGID_4_);fill:#0066FF;" d="M812.38,333.762c0,1.393,1.13,2.523,2.523,2.523
					s2.523-1.13,2.523-2.523c0-1.393-1.13-2.523-2.523-2.523S812.38,332.369,812.38,333.762"/>
				<path style="clip-path:url(#SVGID_4_);fill:#0066FF;" d="M814.903,337.706c-2.175,0-3.944-1.769-3.944-3.944
					c0-2.174,1.769-3.943,3.944-3.943c2.175,0,3.944,1.769,3.944,3.943C818.847,335.937,817.078,337.706,814.903,337.706
					 M814.903,332.66c-0.608,0-1.102,0.494-1.102,1.102c0,0.608,0.494,1.103,1.102,1.103s1.102-0.495,1.102-1.103
					C816.005,333.154,815.511,332.66,814.903,332.66"/>
				<path style="clip-path:url(#SVGID_4_);fill:#0066FF;" d="M764.974,315.854c0,1.393,1.13,2.523,2.523,2.523
					c1.393,0,2.523-1.13,2.523-2.523c0-1.393-1.13-2.523-2.523-2.523C766.104,313.331,764.974,314.461,764.974,315.854"/>
				<path style="clip-path:url(#SVGID_4_);fill:#0066FF;" d="M767.498,319.798c-2.175,0-3.944-1.769-3.944-3.943
					c0-2.175,1.769-3.944,3.944-3.944c2.175,0,3.944,1.769,3.944,3.944C771.442,318.028,769.672,319.798,767.498,319.798
					 M767.498,314.752c-0.608,0-1.102,0.495-1.102,1.103c0,0.608,0.494,1.102,1.102,1.102s1.102-0.494,1.102-1.102
					C768.599,315.246,768.105,314.752,767.498,314.752"/>
				<path style="clip-path:url(#SVGID_4_);fill:#0066FF;" d="M806.359,355.136c0,1.393,1.13,2.523,2.523,2.523
					c1.393,0,2.523-1.13,2.523-2.523c0-1.393-1.13-2.523-2.523-2.523C807.488,352.613,806.359,353.743,806.359,355.136"/>
				<path style="clip-path:url(#SVGID_4_);fill:#0066FF;" d="M808.882,359.08c-2.175,0-3.944-1.769-3.944-3.943
					c0-2.175,1.769-3.944,3.944-3.944c2.175,0,3.944,1.769,3.944,3.944C812.826,357.31,811.057,359.08,808.882,359.08
					 M808.882,354.034c-0.608,0-1.102,0.495-1.102,1.103c0,0.608,0.494,1.102,1.102,1.102s1.102-0.494,1.102-1.102
					C809.984,354.529,809.49,354.034,808.882,354.034"/>
				<path style="clip-path:url(#SVGID_4_);fill:#0066FF;" d="M774.803,337.598c0,1.393,1.13,2.523,2.523,2.523
					s2.523-1.13,2.523-2.523c0-1.393-1.13-2.523-2.523-2.523S774.803,336.205,774.803,337.598"/>
				<path style="clip-path:url(#SVGID_4_);fill:#0066FF;" d="M777.326,341.542c-2.175,0-3.944-1.769-3.944-3.944
					c0-2.174,1.769-3.943,3.944-3.943c2.175,0,3.944,1.769,3.944,3.943C781.27,339.773,779.501,341.542,777.326,341.542
					 M777.326,336.496c-0.608,0-1.102,0.494-1.102,1.102s0.494,1.103,1.102,1.103c0.608,0,1.102-0.495,1.102-1.103
					S777.934,336.496,777.326,336.496"/>
				<path style="clip-path:url(#SVGID_4_);fill:#0066FF;" d="M756.637,355.136c0,1.393,1.13,2.523,2.523,2.523
					c1.393,0,2.523-1.13,2.523-2.523c0-1.393-1.13-2.523-2.523-2.523C757.767,352.613,756.637,353.743,756.637,355.136"/>
				<path style="clip-path:url(#SVGID_4_);fill:#0066FF;" d="M759.16,359.08c-2.175,0-3.944-1.769-3.944-3.943
					c0-2.175,1.769-3.944,3.944-3.944c2.175,0,3.944,1.769,3.944,3.944C763.104,357.31,761.335,359.08,759.16,359.08
					 M759.16,354.034c-0.608,0-1.102,0.495-1.102,1.103c0,0.608,0.494,1.102,1.102,1.102c0.608,0,1.102-0.494,1.102-1.102
					C760.262,354.529,759.768,354.034,759.16,354.034"/>
				<path style="clip-path:url(#SVGID_4_);fill:#0066FF;" d="M832.653,368.282c0,1.393,1.13,2.523,2.523,2.523
					c1.393,0,2.523-1.13,2.523-2.523s-1.13-2.523-2.523-2.523C833.783,365.759,832.653,366.889,832.653,368.282"/>
				<path style="clip-path:url(#SVGID_4_);fill:#0066FF;" d="M835.176,372.225c-2.175,0-3.944-1.769-3.944-3.943
					c0-2.175,1.769-3.944,3.944-3.944c2.175,0,3.944,1.769,3.944,3.944C839.12,370.456,837.351,372.225,835.176,372.225
					 M835.176,367.18c-0.608,0-1.102,0.495-1.102,1.103s0.494,1.102,1.102,1.102c0.608,0,1.102-0.494,1.102-1.102
					S835.784,367.18,835.176,367.18"/>
				<path style="clip-path:url(#SVGID_4_);fill:#0066FF;" d="M827.607,308.92c0,1.393,1.13,2.523,2.523,2.523
					s2.523-1.13,2.523-2.523c0-1.393-1.13-2.523-2.523-2.523S827.607,307.526,827.607,308.92"/>
				<path style="clip-path:url(#SVGID_4_);fill:#0066FF;" d="M830.13,312.864c-2.175,0-3.944-1.769-3.944-3.944
					c0-2.174,1.769-3.943,3.944-3.943c2.175,0,3.944,1.769,3.944,3.943C834.074,311.094,832.305,312.864,830.13,312.864
					 M830.13,307.818c-0.608,0-1.102,0.494-1.102,1.102c0,0.608,0.494,1.103,1.102,1.103s1.102-0.495,1.102-1.103
					C831.232,308.311,830.738,307.818,830.13,307.818"/>
				<path style="clip-path:url(#SVGID_4_);fill:#0066FF;" d="M930.818,298.559c0,1.393,1.13,2.523,2.523,2.523
					s2.523-1.13,2.523-2.523c0-1.393-1.13-2.523-2.523-2.523S930.818,297.166,930.818,298.559"/>
				<path style="clip-path:url(#SVGID_4_);fill:#0066FF;" d="M933.341,302.503c-2.175,0-3.944-1.769-3.944-3.943
					c0-2.175,1.769-3.944,3.944-3.944c2.174,0,3.943,1.769,3.943,3.944C937.285,300.733,935.516,302.503,933.341,302.503
					 M933.341,297.457c-0.608,0-1.103,0.495-1.103,1.103s0.495,1.102,1.103,1.102c0.608,0,1.102-0.494,1.102-1.102
					S933.949,297.457,933.341,297.457"/>
				<path style="clip-path:url(#SVGID_4_);fill:#0066FF;" d="M953.33,355.136c0,1.393,1.13,2.523,2.523,2.523
					c1.393,0,2.523-1.13,2.523-2.523c0-1.393-1.13-2.523-2.523-2.523C954.459,352.613,953.33,353.743,953.33,355.136"/>
				<path style="clip-path:url(#SVGID_4_);fill:#0066FF;" d="M955.853,359.08c-2.175,0-3.944-1.769-3.944-3.943
					c0-2.175,1.769-3.944,3.944-3.944c2.174,0,3.943,1.769,3.943,3.944C959.796,357.31,958.027,359.08,955.853,359.08
					 M955.853,354.034c-0.608,0-1.103,0.495-1.103,1.103c0,0.608,0.495,1.102,1.103,1.102s1.102-0.494,1.102-1.102
					C956.955,354.529,956.461,354.034,955.853,354.034"/>
			</g>
			<g style="clip-path:url(#SVGID_2_);">
				<defs>
					<path id="SVGID_5_" d="M734.25,0.615v258.662c0,0,25.614,24.205,64.034,24.205c38.42,0,75.094-34.899,116.425-34.899
						c41.331,0,66.944,34.899,112.351,34.899c45.406,0,44.229-34.899,77.422-34.899V0.615H734.25z"/>
				</defs>
				<clipPath id="SVGID_6_">
					<use xlink:href="#SVGID_5_"  style="overflow:visible;"/>
				</clipPath>
				<path style="clip-path:url(#SVGID_6_);fill:#0066FF;" d="M863.232,274.262c0,0-2.026-0.961-5.61-3.168
					c-3.552-2.242-8.744-5.647-14.732-10.804c-6.003-5.118-12.928-11.902-19.526-20.857c-3.3-4.468-6.552-9.448-9.494-14.994
					c-2.941-5.545-5.534-11.662-7.653-18.256c-2.114-6.596-3.668-13.691-4.578-21.13c-0.178-1.863-0.44-3.741-0.548-5.642
					c-0.092-1.903-0.185-3.822-0.279-5.755c0.011-1.909,0.021-3.832,0.033-5.768l0.004-0.711l0.045-0.755l0.094-1.517
					c0.065-1.014,0.13-2.032,0.195-3.053c0.653-8.048,2.254-16.181,4.844-24.261c2.587-8.067,6.22-16.017,10.862-23.512
					c4.623-7.51,10.239-14.564,16.623-20.99l1.189-1.216l1.242-1.163c0.831-0.774,1.663-1.549,2.496-2.325
					c0.825-0.785,1.722-1.491,2.583-2.24c0.874-0.734,1.731-1.492,2.624-2.207c3.598-2.825,7.301-5.565,11.214-8.013
					c7.778-4.966,16.12-9.213,24.929-12.391c4.376-1.663,8.904-2.941,13.457-4.127l3.451-0.762l1.727-0.379l1.745-0.307l3.492-0.604
					l3.523-0.45l1.762-0.216l1.775-0.137l3.55-0.258l3.567-0.088l0.891-0.02l0.446-0.01l0.222-0.006
					c-0.062-0.002,0.336-0.003,0.37,0l1.674,0.043l3.345,0.087l0.836,0.022l0.899,0.064l1.796,0.127l3.59,0.264l3.486,0.421
					c9.286,1.142,18.416,3.323,27.101,6.5c17.405,6.271,33.071,16.392,45.354,28.98c6.149,6.282,11.54,13.102,15.967,20.3
					c4.437,7.189,7.965,14.706,10.586,22.28c2.615,7.578,4.376,15.193,5.349,22.629c0.958,7.437,1.121,14.702,0.772,21.573
					c-0.056,0.849-0.061,1.641-0.158,2.525c-0.081,0.866-0.162,1.727-0.243,2.584c-0.132,1.725-0.393,3.369-0.615,5.008
					c-0.469,3.273-1.081,6.446-1.823,9.502c-1.476,6.112-3.395,11.76-5.562,16.893c-4.316,10.292-9.702,18.418-14.573,24.635
					c-4.877,6.242-9.395,10.523-12.537,13.315c-1.577,1.396-2.848,2.39-3.709,3.05c-0.864,0.658-1.326,0.973-1.326,0.973
					s1.693-1.474,4.522-4.548c2.834-3.062,6.744-7.797,10.982-14.27c4.207-6.482,8.629-14.812,12.069-24.896
					c3.406-10.074,5.631-21.991,5.563-34.931c-0.069-6.519-0.558-13.251-1.831-20.099c-1.27-6.835-3.183-13.773-5.909-20.594
					c-2.724-6.816-6.154-13.56-10.448-19.931c-4.296-6.363-9.31-12.435-15.06-17.942c-5.756-5.49-12.129-10.54-19.128-14.785
					c-3.512-2.097-7.105-4.114-10.867-5.832c-0.937-0.436-1.866-0.893-2.81-1.318l-2.874-1.195c-1.9-0.842-3.881-1.49-5.836-2.215
					c-7.867-2.783-16.129-4.58-24.5-5.608l-3.145-0.369l-3.077-0.212l-1.538-0.109l-0.77-0.056l-0.837-0.018l-3.345-0.072
					l-1.673-0.036l-1.416,0.044l-3.129,0.088l-3.13,0.244l-1.565,0.125l-1.562,0.194l-3.126,0.382l-3.112,0.527l-1.556,0.264
					l-1.545,0.335l-3.089,0.666c-4.084,1.052-8.16,2.172-12.111,3.661c-3.98,1.403-7.843,3.105-11.652,4.883l-2.812,1.425
					l-1.405,0.711l-1.373,0.769l-2.74,1.538c-0.911,0.517-1.784,1.094-2.676,1.636c-7.096,4.413-13.71,9.488-19.582,15.186
					c-5.882,5.685-11.065,11.931-15.448,18.548c-8.741,13.26-13.894,28.157-15.711,42.652c-0.099,0.891-0.198,1.78-0.296,2.665
					l-0.151,1.327l-0.076,0.663l-0.036,0.709c-0.096,1.847-0.192,3.681-0.287,5.502c0.004,1.795,0.009,3.577,0.014,5.344
					c0.025,1.769,0.166,3.515,0.238,5.255c0.46,6.944,1.581,13.606,3.171,19.886c3.192,12.569,8.359,23.537,14.076,32.542
					c5.737,9.008,11.804,16.238,17.235,21.76c5.434,5.53,10.121,9.494,13.422,12.052c1.658,1.271,2.949,2.225,3.835,2.847
					C862.761,273.96,863.232,274.262,863.232,274.262"/>
				<path style="clip-path:url(#SVGID_6_);fill:#0066FF;" d="M919.562,175.199c0,0,0.115-0.029,0.337-0.085
					c0.222-0.057,0.553-0.14,0.986-0.227c0.87-0.194,2.147-0.425,3.778-0.659c0.819-0.136,1.718-0.21,2.705-0.323
					c0.986-0.113,2.055-0.206,3.193-0.272c1.141-0.081,2.352-0.116,3.636-0.179c1.283-0.05,2.619-0.014,4.027-0.023
					c2.815-0.014,5.835,0.207,9.047,0.432c1.605,0.116,3.23,0.366,4.91,0.55c1.677,0.192,3.387,0.428,5.107,0.746
					c3.449,0.607,7.018,1.27,10.576,2.212c1.781,0.46,3.586,0.899,5.375,1.423c1.78,0.55,3.559,1.131,5.338,1.711
					c3.575,1.114,7.031,2.573,10.438,3.97c0.848,0.357,1.694,0.713,2.535,1.067c0.821,0.402,1.638,0.802,2.451,1.201
					c1.62,0.801,3.226,1.577,4.777,2.399c0.778,0.404,1.549,0.804,2.313,1.201c0.759,0.406,1.487,0.86,2.21,1.3
					c1.443,0.887,2.865,1.725,4.221,2.591c0.678,0.432,1.346,0.858,2.004,1.277c0.652,0.429,1.318,0.804,1.917,1.279
					c1.219,0.91,2.403,1.769,3.517,2.626c2.219,1.731,4.27,3.259,5.959,4.808c1.682,1.561,3.117,2.947,4.272,4.116
					c2.318,2.326,3.536,3.766,3.536,3.766s-1.859-0.513-4.922-1.602c-1.535-0.539-3.367-1.227-5.433-2.045
					c-1.022-0.427-2.159-0.793-3.334-1.211c-1.178-0.413-2.393-0.881-3.669-1.348c-1.27-0.475-2.571-1.003-3.923-1.529
					c-1.353-0.527-2.785-1.002-4.233-1.526c-1.454-0.513-2.917-1.094-4.425-1.655c-0.75-0.288-1.507-0.58-2.272-0.874
					c-0.776-0.268-1.559-0.539-2.349-0.812c-3.171-1.058-6.329-2.396-9.667-3.443c-3.311-1.109-6.61-2.39-9.998-3.435
					c-1.679-0.565-3.358-1.126-5.022-1.717c-1.682-0.537-3.359-1.071-5.021-1.602c-0.829-0.275-1.656-0.548-2.478-0.821
					c-0.817-0.295-1.638-0.556-2.459-0.799c-1.64-0.498-3.262-0.99-4.848-1.526c-3.199-1-6.291-1.967-9.224-2.883
					c-1.473-0.452-2.914-0.863-4.303-1.314c-1.385-0.472-2.74-0.838-4.036-1.241c-2.607-0.809-4.995-1.55-7.112-2.207
					c-2.14-0.672-4.005-1.258-5.541-1.74c-1.547-0.475-2.768-0.887-3.604-1.151C920.011,175.347,919.562,175.199,919.562,175.199"/>
				<path style="clip-path:url(#SVGID_6_);fill:#0066FF;" d="M893.533,65.258c0,0,0.098,0.451,0.281,1.297
					c0.168,0.833,0.463,2.061,0.77,3.598c0.667,3.035,1.62,7.371,2.763,12.575c0.293,1.283,0.597,2.618,0.914,4.001
					c0.164,0.688,0.304,1.39,0.452,2.102c0.145,0.711,0.341,1.43,0.511,2.159c0.365,1.456,0.668,2.956,1.015,4.483
					c0.364,1.522,0.736,3.077,1.115,4.66c0.396,1.577,0.699,3.191,1.134,4.806c0.414,1.618,0.825,3.254,1.204,4.91
					c0.352,1.66,0.841,3.308,1.249,4.977c0.429,1.665,0.83,3.343,1.233,5.02c0.905,3.332,1.773,6.676,2.591,9.983
					c0.47,1.636,0.913,3.268,1.33,4.889c0.424,1.619,0.858,3.214,1.224,4.806c0.913,3.125,1.724,6.181,2.458,9.105
					c0.323,1.479,0.762,2.873,1.132,4.245c0.362,1.376,0.731,2.701,1.052,3.989c0.658,2.571,1.155,4.986,1.741,7.073
					c0.54,2.108,0.981,3.97,1.312,5.525c0.675,3.104,0.934,4.962,0.934,4.962s-1.262-1.345-3.25-3.848
					c-1.001-1.248-2.176-2.79-3.492-4.586c-1.357-1.777-2.637-3.907-4.068-6.228c-1.378-2.345-2.965-4.859-4.341-7.655
					c-1.381-2.792-2.807-5.763-4.198-8.876c-0.654-1.572-1.258-3.194-1.885-4.832c-0.633-1.636-1.254-3.3-1.856-4.986
					c-1.092-3.408-2.12-6.901-3.076-10.412c-0.41-1.774-0.822-3.548-1.202-5.322c-0.382-1.773-0.785-3.532-1.043-5.311
					c-0.29-1.772-0.544-3.534-0.786-5.275c-0.276-1.733-0.426-3.471-0.563-5.176c-0.129-1.707-0.321-3.372-0.374-5.02
					c-0.039-1.651-0.115-3.258-0.118-4.828c-0.026-1.565-0.006-3.093,0.067-4.573c0.08-1.479,0.1-2.899,0.224-4.268
					c0.254-2.74,0.506-5.234,0.897-7.444c0.336-2.203,0.778-4.117,1.146-5.677c0.406-1.564,0.757-2.775,1.048-3.6
					C893.352,65.683,893.533,65.258,893.533,65.258"/>
				<path style="clip-path:url(#SVGID_6_);fill:#0066FF;" d="M850.412,266.493c0,0,1.173-1.508,3.222-4.038
					c1.023-1.253,2.265-2.775,3.69-4.52c1.418-1.718,3.018-3.657,4.762-5.772c3.445-4.166,7.465-9.026,11.77-14.234
					c1.04-1.318,2.138-2.617,3.222-3.953c1.075-1.342,2.163-2.699,3.259-4.068c0.549-0.682,1.1-1.366,1.653-2.052
					c0.544-0.692,1.09-1.387,1.636-2.082c1.108-1.38,2.184-2.789,3.276-4.188c1.111-1.384,2.143-2.823,3.242-4.208
					c1.062-1.41,2.121-2.815,3.171-4.208c0.515-0.703,1.027-1.404,1.537-2.102c0.519-0.692,1.05-1.373,1.55-2.066
					c0.99-1.393,1.978-2.767,2.968-4.109c0.963-1.357,1.89-2.709,2.841-4.009c0.919-1.318,1.792-2.626,2.697-3.874
					c1.713-2.545,3.384-4.946,4.865-7.21c0.382-0.562,0.757-1.112,1.123-1.65c0.35-0.546,0.683-1.085,1.032-1.6
					c0.692-1.04,1.347-2.026,1.963-2.953c1.183-1.882,2.289-3.515,3.182-4.875c1.731-2.742,2.877-4.298,2.877-4.298
					s-0.07,1.894-0.467,5.19c-0.213,1.643-0.586,3.606-1.026,5.876c-0.238,1.127-0.562,2.302-0.868,3.561
					c-0.306,1.259-0.687,2.562-1.113,3.912c-0.43,1.348-0.875,2.762-1.394,4.198c-0.527,1.433-1.113,2.9-1.699,4.421
					c-0.629,1.496-1.33,3.007-2.021,4.572c-0.706,1.555-1.538,3.082-2.326,4.673c-1.655,3.132-3.5,6.297-5.503,9.431
					c-1.036,1.541-2.064,3.108-3.156,4.637c-1.105,1.518-2.206,3.052-3.371,4.532c-1.173,1.475-2.328,2.964-3.559,4.38
					c-1.199,1.442-2.442,2.837-3.698,4.197c-1.235,1.381-2.538,2.677-3.811,3.968c-1.277,1.287-2.563,2.533-3.86,3.725
					c-2.591,2.385-5.173,4.602-7.713,6.593c-1.268,0.997-2.517,1.947-3.742,2.842c-1.244,0.875-2.423,1.74-3.602,2.516
					c-4.68,3.14-8.82,5.397-11.807,6.817C852.234,265.897,850.412,266.493,850.412,266.493"/>
				<path style="clip-path:url(#SVGID_6_);fill:#0066FF;" d="M888.752,276.568c0,0,0.422-0.277,1.172-0.821
					c0.751-0.539,1.825-1.362,3.145-2.424c1.318-1.065,2.882-2.379,4.601-3.945c1.724-1.554,3.618-3.336,5.594-5.354
					c1.994-1.991,4.075-4.21,6.198-6.611c2.155-2.365,4.284-4.992,6.496-7.671c2.146-2.748,4.378-5.557,6.501-8.542
					c2.176-2.935,4.278-6.008,6.365-9.095c1.068-1.526,2.033-3.129,3.079-4.667c1.018-1.558,1.983-3.148,2.984-4.697
					c0.511-0.768,0.974-1.565,1.448-2.349c0.485-0.778,0.968-1.553,1.448-2.323c0.488-0.766,0.956-1.538,1.398-2.32
					c0.444-0.78,0.92-1.536,1.377-2.295c0.456-0.759,0.926-1.503,1.361-2.258c0.425-0.761,0.859-1.509,1.301-2.243
					c0.869-1.477,1.744-2.911,2.546-4.34c1.635-2.84,3.234-5.518,4.65-8.036c1.483-2.487,2.799-4.802,3.999-6.851
					c0.617-1.019,1.171-1.983,1.728-2.861c0.527-0.889,0.997-1.713,1.452-2.447c1.78-2.954,2.947-4.613,2.947-4.613
					s-0.094,2.004-0.52,5.461c-0.098,0.868-0.233,1.82-0.38,2.859c-0.161,1.035-0.382,2.14-0.597,3.332
					c-0.214,1.191-0.488,2.445-0.753,3.778c-0.278,1.329-0.661,2.695-1.013,4.143c-0.377,1.438-0.766,2.94-1.227,4.476
					c-0.468,1.534-0.994,3.105-1.514,4.734c-0.501,1.636-1.184,3.25-1.798,4.938c-0.611,1.69-1.327,3.377-2.079,5.088
					c-0.746,1.714-1.496,3.459-2.373,5.176c-0.857,1.726-1.694,3.489-2.655,5.209c-0.973,1.714-1.908,3.468-2.961,5.166
					c-1.059,1.695-2.096,3.412-3.233,5.071c-2.259,3.327-4.645,6.576-7.208,9.618c-0.644,0.758-1.262,1.528-1.92,2.263
					c-0.668,0.726-1.333,1.448-1.994,2.166c-1.295,1.454-2.696,2.795-4.045,4.123c-2.764,2.609-5.54,5.018-8.349,7.094
					c-0.695,0.526-1.386,1.036-2.088,1.515c-0.696,0.484-1.373,0.968-2.06,1.416c-1.404,0.866-2.713,1.744-4.057,2.473
					c-1.321,0.754-2.616,1.431-3.857,2.045c-1.267,0.579-2.437,1.161-3.598,1.604c-2.283,0.94-4.333,1.608-6.049,2.054
					c-1.709,0.458-3.077,0.705-4.017,0.825C889.255,276.557,888.752,276.568,888.752,276.568"/>
				<path style="clip-path:url(#SVGID_6_);fill:#0066FF;" d="M926.068,278.585c0,0,0.447-0.183,1.25-0.55
					c0.805-0.367,1.962-0.936,3.395-1.675c1.431-0.745,3.127-1.701,5.014-2.83c1.891-1.122,3.954-2.484,6.141-3.994
					c0.538-0.398,1.097-0.778,1.661-1.171c0.561-0.4,1.118-0.835,1.688-1.259c1.15-0.836,2.295-1.767,3.477-2.693
					c2.333-1.912,4.735-3.962,7.124-6.189c0.613-0.534,1.179-1.14,1.782-1.706c0.597-0.574,1.21-1.135,1.803-1.729
					c0.584-0.603,1.172-1.21,1.762-1.82l0.898-0.903l0.869-0.944c0.585-0.625,1.172-1.252,1.761-1.882
					c0.586-0.631,1.14-1.303,1.723-1.944c0.574-0.652,1.158-1.293,1.725-1.956l1.679-2.012c2.251-2.671,4.409-5.439,6.496-8.208
					c2.082-2.774,4.116-5.537,6.005-8.29c0.484-0.683,0.962-1.359,1.437-2.03c0.446-0.69,0.895-1.37,1.356-2.035
					c0.902-1.342,1.822-2.636,2.657-3.94c1.687-2.597,3.354-5.037,4.801-7.359c0.755-1.15,1.479-2.252,2.167-3.301
					c0.678-1.06,1.301-2.077,1.927-3.018c0.628-0.942,1.194-1.835,1.761-2.646c0.536-0.825,1.009-1.592,1.47-2.274
					c1.8-2.746,2.98-4.288,2.98-4.288s-0.114,1.91-0.579,5.205c-0.108,0.827-0.251,1.735-0.413,2.725
					c-0.178,0.984-0.417,2.032-0.651,3.166c-0.235,1.134-0.528,2.324-0.817,3.593c-0.309,1.26-0.722,2.554-1.107,3.927
					c-0.192,0.688-0.419,1.376-0.636,2.086c-0.216,0.709-0.441,1.431-0.705,2.152c-0.511,1.448-1.083,2.93-1.651,4.468
					c-0.271,0.775-0.605,1.533-0.948,2.3c-0.338,0.77-0.68,1.55-1.027,2.338c-0.343,0.791-0.699,1.586-1.077,2.38
					c-0.401,0.785-0.805,1.577-1.212,2.376c-0.808,1.605-1.656,3.222-2.619,4.807c-0.946,1.594-1.854,3.239-2.939,4.799
					c-2.082,3.171-4.369,6.296-6.864,9.267l-1.887,2.213c-0.634,0.734-1.323,1.421-1.981,2.132c-1.304,1.43-2.705,2.766-4.106,4.076
					c-2.807,2.614-5.761,4.997-8.764,7.097c-1.515,1.035-2.987,2.069-4.527,2.941c-1.502,0.921-3.028,1.74-4.515,2.513
					c-3.017,1.49-5.935,2.736-8.716,3.653c-2.783,0.907-5.369,1.588-7.705,1.992c-2.333,0.41-4.376,0.635-6.07,0.691
					c-1.691,0.069-3.018,0.012-3.918-0.069C926.538,278.68,926.068,278.585,926.068,278.585"/>
				<path style="clip-path:url(#SVGID_6_);fill:#0066FF;" d="M866.04,73.85c0,0-0.102,2.431-0.155,6.599
					c-0.022,2.085-0.045,4.602-0.008,7.477c0.015,2.871,0.096,6.102,0.219,9.601c0.081,1.753,0.118,3.568,0.246,5.449
					c0.087,1.877,0.214,3.815,0.345,5.801c0.295,3.974,0.629,8.144,1.114,12.436c0.227,2.146,0.504,4.321,0.774,6.521
					c0.12,1.101,0.302,2.202,0.47,3.309c0.157,1.108,0.315,2.221,0.475,3.34c0.728,4.456,1.475,8.976,2.423,13.456l0.682,3.366
					c0.256,1.115,0.512,2.228,0.767,3.34c0.263,1.11,0.49,2.227,0.766,3.328c0.28,1.101,0.558,2.198,0.836,3.291
					c1.098,4.378,2.294,8.663,3.554,12.79c0.315,1.032,0.579,2.074,0.934,3.073c0.342,1.004,0.668,2.004,0.977,2.999
					c0.317,0.994,0.631,1.977,0.941,2.948c0.345,0.959,0.691,1.904,1.007,2.85c1.244,3.792,2.646,7.296,3.817,10.614
					c0.641,1.631,1.277,3.188,1.849,4.693c0.287,0.754,0.566,1.488,0.836,2.202c0.292,0.705,0.577,1.389,0.852,2.053
					c0.54,1.335,1.069,2.577,1.52,3.751c0.231,0.586,0.452,1.147,0.663,1.684c0.226,0.529,0.442,1.034,0.647,1.513
					c1.64,3.841,2.472,6.149,2.472,6.149s-1.755-1.663-4.642-4.773c-0.361-0.389-0.75-0.794-1.138-1.232
					c-0.374-0.448-0.766-0.916-1.175-1.404c-0.827-0.973-1.681-2.055-2.618-3.203c-0.467-0.574-0.948-1.169-1.419-1.796
					c-0.46-0.635-0.934-1.288-1.42-1.959c-0.972-1.344-1.96-2.781-3.012-4.276c-1.936-3.078-4.094-6.41-6.038-10.12
					c-0.511-0.916-1.004-1.857-1.509-2.808c-0.47-0.967-0.946-1.946-1.427-2.936c-0.972-1.979-1.914-4.026-2.779-6.148
					c-0.892-2.111-1.791-4.266-2.557-6.498c-0.4-1.111-0.802-2.23-1.207-3.354c-0.41-1.123-0.731-2.28-1.094-3.429
					c-0.347-1.155-0.696-2.314-1.046-3.477c-0.349-1.163-0.621-2.35-0.93-3.531c-0.297-1.184-0.609-2.367-0.886-3.559l-0.756-3.596
					c-1.004-4.797-1.677-9.658-2.207-14.446c-0.202-2.402-0.423-4.782-0.516-7.142c-0.05-1.178-0.1-2.35-0.15-3.513
					c-0.063-1.161-0.018-2.321-0.031-3.465c-0.045-4.581,0.228-9.007,0.589-13.179c0.41-4.173,0.965-8.094,1.643-11.681
					c0.691-3.586,1.448-6.842,2.265-9.692c0.797-2.852,1.619-5.302,2.368-7.292c0.731-1.993,1.415-3.524,1.89-4.558
					C865.746,74.383,866.04,73.85,866.04,73.85"/>
				<path style="clip-path:url(#SVGID_6_);fill:#0066FF;" d="M838.054,98.031c0,0-0.063,0.631-0.182,1.815
					c-0.11,1.181-0.267,2.904-0.43,5.087c-0.169,2.18-0.338,4.823-0.489,7.836c-0.159,3.012-0.259,6.403-0.335,10.078
					c0.009,1.843-0.074,3.747-0.027,5.725c0.02,0.989,0.014,1.989,0.013,3.005c0.025,1.017,0.051,2.047,0.077,3.093
					c0.036,2.088,0.144,4.229,0.225,6.411c0.17,2.182,0.219,4.407,0.426,6.662c0.345,4.512,0.824,9.149,1.462,13.831
					c0.282,2.345,0.722,4.686,1.045,7.05c0.216,1.173,0.433,2.348,0.649,3.525c0.214,1.177,0.397,2.361,0.673,3.526
					c0.511,2.337,0.941,4.695,1.543,7.002c0.279,1.159,0.556,2.316,0.833,3.47c0.273,1.155,0.633,2.282,0.93,3.422
					c0.309,1.138,0.617,2.273,0.923,3.401c0.343,1.118,0.684,2.231,1.022,3.336c0.344,1.105,0.662,2.213,1.021,3.298
					c0.391,1.073,0.742,2.154,1.107,3.222c0.363,1.068,0.724,2.129,1.082,3.179c0.408,1.029,0.8,2.056,1.175,3.079
					c0.381,1.022,0.757,2.034,1.129,3.033c0.385,0.995,0.828,1.949,1.209,2.92c1.522,3.886,3.216,7.455,4.692,10.828
					c0.802,1.656,1.571,3.245,2.302,4.754c0.361,0.764,0.713,1.508,1.056,2.231c0.343,0.724,0.734,1.392,1.069,2.069
					c0.688,1.344,1.354,2.591,1.935,3.776c0.296,0.59,0.579,1.157,0.849,1.698c0.29,0.53,0.566,1.035,0.828,1.514
					c2.106,3.838,3.22,6.162,3.22,6.162s-1.971-1.591-5.263-4.602c-0.409-0.378-0.856-0.766-1.295-1.197
					c-0.427-0.441-0.875-0.901-1.342-1.381c-0.942-0.958-1.924-2.025-2.996-3.156c-0.531-0.57-1.097-1.147-1.623-1.782
					c-0.527-0.635-1.071-1.288-1.628-1.959c-1.11-1.349-2.27-2.779-3.457-4.295c-1.128-1.552-2.272-3.195-3.477-4.891
					c-0.297-0.427-0.597-0.857-0.9-1.291c-0.279-0.448-0.56-0.899-0.843-1.354c-0.565-0.914-1.138-1.841-1.72-2.781
					c-0.582-0.942-1.176-1.897-1.727-2.889c-0.538-1.001-1.082-2.015-1.632-3.039c-0.556-1.024-1.105-2.066-1.647-3.125
					c-0.501-1.078-1.007-2.167-1.517-3.265c-0.504-1.101-1.03-2.207-1.522-3.336c-0.474-1.136-0.908-2.297-1.369-3.457
					c-0.455-1.164-0.912-2.334-1.373-3.511c-0.397-1.199-0.796-2.404-1.196-3.614c-0.391-1.213-0.809-2.426-1.158-3.661
					c-0.337-1.239-0.675-2.482-1.013-3.727c-0.721-2.481-1.196-5.029-1.761-7.557c-0.533-2.536-0.901-5.1-1.326-7.643
					c-0.154-1.279-0.307-2.556-0.461-3.829c-0.145-1.274-0.315-2.54-0.386-3.812c-0.091-1.269-0.182-2.533-0.272-3.79
					c-0.096-1.257-0.088-2.513-0.136-3.757c-0.025-1.245-0.089-2.48-0.081-3.708c0.003-1.228,0.041-2.447,0.061-3.655
					c0.009-1.207,0.081-2.403,0.14-3.587c0.058-1.184,0.122-2.356,0.218-3.512c0.11-1.155,0.219-2.298,0.327-3.426
					c0.093-1.128,0.23-2.239,0.393-3.332c0.541-4.379,1.363-8.474,2.193-12.217c0.895-3.737,1.835-7.121,2.825-10.074
					c0.984-2.953,1.948-5.486,2.838-7.535c0.866-2.055,1.651-3.627,2.203-4.687C837.718,98.574,838.054,98.031,838.054,98.031"/>
				<path style="clip-path:url(#SVGID_6_);fill:#0066FF;" d="M897.255,100.652c0,0,1.948-1.014,5.514-2.348
					c1.782-0.663,3.966-1.421,6.503-2.169c2.535-0.766,5.424-1.503,8.605-2.217c3.183-0.672,6.656-1.338,10.362-1.825
					c3.704-0.516,7.637-0.878,11.724-1.096c2.045-0.084,4.126-0.181,6.237-0.157c1.056,0.002,2.119,0.003,3.187,0.006
					c1.069,0.004,2.142,0.077,3.221,0.114c4.315,0.161,8.698,0.619,13.064,1.224c2.179,0.348,4.358,0.718,6.517,1.148
					c1.076,0.241,2.149,0.482,3.22,0.723c1.069,0.244,2.137,0.481,3.186,0.793c2.105,0.593,4.195,1.143,6.215,1.884
					c1.014,0.347,2.022,0.692,3.023,1.035c1.001,0.338,1.964,0.785,2.932,1.17c0.963,0.398,1.918,0.794,2.864,1.186
					c0.934,0.426,1.849,0.872,2.749,1.321c0.899,0.446,1.789,0.887,2.668,1.322c0.86,0.481,1.71,0.95,2.534,1.439
					c0.825,0.482,1.639,0.957,2.441,1.424c0.781,0.509,1.549,1.009,2.29,1.522c1.485,1.02,2.929,1.966,4.214,3.044
					c0.648,0.521,1.283,1.032,1.903,1.531c0.615,0.503,1.234,0.962,1.773,1.506c1.103,1.048,2.154,2.016,3.109,2.959
					c0.238,0.236,0.478,0.46,0.702,0.695c0.217,0.243,0.432,0.481,0.642,0.716c0.422,0.465,0.821,0.921,1.199,1.361
					c0.758,0.88,1.456,1.673,2.059,2.414c2.279,3.114,3.416,4.948,3.416,4.948s-1.961-1.06-5.104-3.01
					c-0.817-0.441-1.723-0.93-2.709-1.461c-0.49-0.264-0.995-0.542-1.51-0.836c-0.259-0.146-0.522-0.294-0.789-0.445
					c-0.273-0.143-0.562-0.273-0.849-0.413c-1.155-0.548-2.349-1.165-3.614-1.789c-1.259-0.632-2.646-1.189-4.045-1.823
					c-0.715-0.292-1.39-0.672-2.149-0.943c-0.744-0.291-1.502-0.586-2.272-0.887c-0.772-0.292-1.535-0.625-2.322-0.938
					c-0.804-0.277-1.62-0.559-2.446-0.845c-0.828-0.28-1.652-0.588-2.488-0.895c-0.855-0.264-1.72-0.531-2.594-0.8
					c-0.876-0.262-1.752-0.545-2.633-0.834c-0.899-0.245-1.808-0.493-2.723-0.743c-3.638-1.042-7.466-1.9-11.362-2.72
					c-1.937-0.449-3.939-0.731-5.911-1.142c-1.995-0.326-3.998-0.664-6.007-0.97c-4.03-0.565-8.072-1.116-12.087-1.495
					c-2.004-0.223-4-0.396-5.976-0.576c-0.986-0.099-1.971-0.168-2.949-0.226c-0.978-0.061-1.95-0.156-2.915-0.233
					c-3.862-0.233-7.614-0.488-11.188-0.631c-0.895-0.044-1.777-0.087-2.646-0.13c-0.87-0.028-1.727-0.049-2.573-0.096
					c-1.693-0.103-3.324-0.099-4.902-0.183C905.777,100.897,897.255,100.652,897.255,100.652"/>
				<path style="clip-path:url(#SVGID_6_);fill:#0066FF;" d="M905.083,136.562c0,0,2.137-0.864,6.004-1.888
					c1.933-0.511,4.296-1.076,7.028-1.596c1.366-0.291,2.826-0.491,4.368-0.761c1.542-0.232,3.169-0.45,4.871-0.652
					c3.403-0.39,7.109-0.683,11.042-0.817c0.985-0.058,1.98-0.06,2.99-0.065c1.011-0.006,2.034-0.011,3.068-0.018
					c1.034,0.014,2.081,0.031,3.136,0.072c1.056,0.029,2.122,0.068,3.197,0.138c1.074,0.065,2.161,0.112,3.252,0.195
					c1.091,0.081,2.188,0.21,3.293,0.313c1.104,0.119,2.219,0.201,3.334,0.352c1.114,0.155,2.234,0.309,3.358,0.464
					c1.127,0.141,2.249,0.35,3.376,0.553c1.126,0.206,2.257,0.413,3.389,0.62c2.253,0.488,4.516,0.974,6.761,1.552
					c2.234,0.629,4.488,1.168,6.681,1.923c1.1,0.359,2.199,0.718,3.293,1.075c1.091,0.37,2.164,0.793,3.235,1.197
					c1.068,0.417,2.137,0.81,3.188,1.241c1.039,0.465,2.072,0.927,3.1,1.386c2.065,0.883,4.05,1.899,5.982,2.924
					c3.872,2.031,7.475,4.27,10.748,6.584c1.659,1.115,3.179,2.352,4.651,3.522c0.729,0.597,1.458,1.161,2.144,1.755
					c0.673,0.613,1.342,1.201,1.975,1.801c2.606,2.307,4.721,4.723,6.605,6.795c0.909,1.075,1.712,2.125,2.45,3.09
					c0.73,0.973,1.424,1.832,1.985,2.669c2.2,3.389,3.297,5.376,3.297,5.376s-1.963-1.262-5.115-3.56
					c-1.625-1.067-3.598-2.362-5.863-3.848c-2.332-1.362-4.824-3.012-7.721-4.53c-0.717-0.386-1.428-0.808-2.161-1.222
					c-0.741-0.402-1.524-0.769-2.302-1.164c-1.568-0.773-3.117-1.665-4.828-2.387c-1.697-0.742-3.348-1.644-5.163-2.337
					c-1.804-0.709-3.556-1.589-5.459-2.25c-1.882-0.695-3.747-1.492-5.711-2.133c-0.972-0.339-1.95-0.68-2.933-1.024
					c-0.985-0.335-1.992-0.637-2.991-0.96c-1.006-0.308-1.996-0.67-3.015-0.962c-1.018-0.296-2.039-0.592-3.063-0.889
					c-2.033-0.631-4.124-1.122-6.189-1.691c-1.028-0.301-2.083-0.515-3.124-0.774c-1.042-0.254-2.084-0.507-3.124-0.761
					c-2.101-0.426-4.17-0.955-6.258-1.352c-4.158-0.868-8.282-1.628-12.3-2.305c-2.004-0.378-3.996-0.602-5.935-0.961
					c-1.952-0.284-3.861-0.561-5.72-0.83c-1.864-0.27-3.682-0.507-5.447-0.734c-1.763-0.259-3.473-0.433-5.118-0.649
					c-3.289-0.408-6.324-0.755-9.024-1.053c-2.716-0.296-5.083-0.554-7.032-0.767C907.34,136.802,905.083,136.562,905.083,136.562"
					/>
			</g>
		</g>
	</g>
	<g>
		<path style="fill:#0066FF;" d="M201.926,120.25c2.285,0,4.229-0.802,5.833-2.406c1.604-1.604,2.406-3.548,2.406-5.834
			c0-2.284-0.802-4.229-2.406-5.833c-1.604-1.604-3.549-2.406-5.833-2.406h-44.495v19.775c0,35.157-6.592,52.734-19.775,52.734
			V83.995h64.27c7.734,0,14.337,2.735,19.808,8.207c5.472,5.471,8.207,12.074,8.207,19.808c0,6.944-2.22,12.986-6.658,18.128
			c4.438,5.142,6.658,11.185,6.658,18.127c0,7.735-2.735,14.338-8.207,19.809c-5.471,5.472-12.074,8.207-19.808,8.207h-44.495
			c0-13.184,8.789-19.775,26.367-19.775h18.127c2.285,0,4.229-0.802,5.833-2.406c1.604-1.604,2.406-3.548,2.406-5.834
			c0-2.284-0.802-4.229-2.406-5.833c-1.604-1.604-3.549-2.406-5.833-2.406h-44.495c0-13.184,8.789-19.775,26.367-19.775H201.926z"/>
		<path style="fill:#0066FF;" d="M315.477,83.995c0,13.184-17.579,19.775-52.734,19.775h-26.367V83.995H315.477z M322.068,120.25
			c0,13.184-17.579,19.775-52.734,19.775h-32.959V120.25H322.068z M328.66,156.505c0,13.184-17.579,19.775-52.734,19.775h-39.551
			v-19.775H328.66z"/>
		<path style="fill:#0066FF;" d="M407.406,126.842c-0.659-5.889-3.164-11.009-7.515-15.359c-5.142-5.142-11.36-7.712-18.655-7.712
			c-7.295,0-13.513,2.57-18.655,7.712s-7.712,11.36-7.712,18.655v16.479c0,19.775-6.592,29.663-19.775,29.663v-46.143
			c0-12.744,4.504-23.62,13.513-32.63c9.008-9.008,19.885-13.513,32.629-13.513c12.744,0,23.62,4.505,32.629,13.513
			c9.008,9.01,13.513,19.886,13.513,32.63v46.143c-13.184,0-19.775-9.888-19.775-29.663v-0.856
			c-21.973-2.197-32.959-8.504-32.959-18.919H407.406z"/>
		<path style="fill:#0066FF;" d="M479.955,83.995h46.143c0,13.184-9.888,19.775-29.663,19.775h-16.479
			c-7.295,0-13.513,2.57-18.655,7.712s-7.712,11.36-7.712,18.655s2.571,13.514,7.712,18.654c5.142,5.143,11.359,7.713,18.655,7.713
			h16.479c19.775,0,29.663,6.592,29.663,19.775h-46.143c-12.745,0-23.621-4.504-32.629-13.514
			c-9.009-9.008-13.513-19.885-13.513-32.629s4.504-23.62,13.513-32.63C456.334,88.5,467.21,83.995,479.955,83.995z"/>
		<path style="fill:#0066FF;" d="M605.041,120.25V83.995h19.775v39.551c0,35.157-6.592,52.734-19.775,52.734v-36.255h-53.328
			c-1.846,24.17-8.24,36.255-19.182,36.255V83.995h19.775v36.255H605.041z"/>
		<path style="fill:#0066FF;" d="M38.938,259.25v-36.255c13.184,0,19.775,9.888,19.775,29.663v6.592
			c0,7.295,2.571,13.513,7.712,18.655c5.142,5.141,11.359,9.91,18.655,14.304c7.294-4.394,13.513-9.163,18.655-14.304
			c5.142-5.143,7.712-11.36,7.712-18.655v-6.592c0-19.775,6.592-29.663,19.775-29.663v36.255c0,12.745-4.505,23.621-13.513,32.63
			c-9.009,9.009-19.886,16.809-32.629,23.4c-12.745-6.592-23.621-14.392-32.629-23.4C43.441,282.871,38.938,271.995,38.938,259.25z"
			/>
		<path style="fill:#0066FF;" d="M216.428,236.509c9.008,9.009,13.513,19.885,13.513,32.629c0,12.745-4.505,23.621-13.513,32.629
			c-9.009,9.01-19.886,13.514-32.629,13.514c-12.745,0-23.621-4.504-32.629-13.514c-9.009-9.008-13.513-19.884-13.513-32.629
			c0-12.744,4.504-23.62,13.513-32.629c9.008-9.009,19.885-13.514,32.629-13.514C196.542,222.995,207.419,227.5,216.428,236.509z
			 M183.799,242.771c-7.295,0-13.513,2.57-18.655,7.713c-5.142,5.141-7.712,11.36-7.712,18.654c0,7.295,2.571,13.514,7.712,18.654
			c5.142,5.143,11.359,7.713,18.655,7.713c7.294,0,13.513-2.57,18.655-7.713c5.142-5.141,7.712-11.359,7.712-18.654
			c0-7.294-2.571-13.514-7.712-18.654C197.312,245.341,191.093,242.771,183.799,242.771z"/>
		<path style="fill:#0066FF;" d="M256.15,295.505h72.51c0,13.184-17.579,19.775-52.734,19.775h-39.551v-92.285
			c13.184,0,19.775,17.578,19.775,52.734V295.505z"/>
		<path style="fill:#0066FF;" d="M354.869,295.505h72.51c0,13.184-17.579,19.775-52.734,19.775h-39.551v-92.285
			c13.184,0,19.775,17.578,19.775,52.734V295.505z"/>
		<path style="fill:#0066FF;" d="M512.914,222.995c0,13.184-17.579,19.775-52.734,19.775h-26.367v-19.775H512.914z M519.506,259.25
			c0,13.184-17.579,19.775-52.734,19.775h-32.959V259.25H519.506z M526.098,295.505c0,13.184-17.579,19.775-52.734,19.775h-39.551
			v-19.775H526.098z"/>
		<path style="fill:#0066FF;" d="M568.786,294.517c-8.569-1.758-16.15-5.934-22.742-12.525
			c-9.009-9.008-13.513-19.884-13.513-32.629v-26.367c13.184,0,19.775,7.69,19.775,23.071v3.296c0,7.295,2.571,13.514,7.712,18.654
			c5.142,5.143,11.359,7.713,18.655,7.713c7.294,0,13.513-2.57,18.655-7.713c5.141-5.141,7.712-11.359,7.712-18.654v-3.296
			c0-15.381,6.592-23.071,19.775-23.071v26.367c0,12.745-4.505,23.621-13.514,32.629c-6.592,6.592-14.172,10.768-22.741,12.525
			v20.764h-19.775V294.517z"/>
	</g>
</g>
</svg>
