<?xml version="1.0" encoding="iso-8859-1"?>
<!-- Generator: Adobe Illustrator 19.1.0, SVG Export Plug-In . SVG Version: 6.00 Build 0)  -->
<svg version="1.1" id="Calque_1" xmlns="http://www.w3.org/2000/svg" xmlns:xlink="http://www.w3.org/1999/xlink" x="0px" y="0px"
	 viewBox="0 0 1200 400" style="enable-background:new 0 0 1200 400;" xml:space="preserve">
<g>
	<g>
		<g>
			<defs>
				<rect id="SVGID_1_" x="793.913" y="66.229" width="262.917" height="262.917"/>
			</defs>
			<clipPath id="SVGID_2_">
				<use xlink:href="#SVGID_1_"  style="overflow:visible;"/>
			</clipPath>
			<g style="clip-path:url(#SVGID_2_);">
				<defs>
					<rect id="SVGID_3_" x="793.913" y="66.229" width="262.917" height="262.917"/>
				</defs>
				<clipPath id="SVGID_4_">
					<use xlink:href="#SVGID_3_"  style="overflow:visible;"/>
				</clipPath>
				<path style="clip-path:url(#SVGID_4_);fill:#0066FF;" d="M900.257,78.606c-1.961,0.123-3.881,0.449-5.775,0.889
					c-1.895,0.431-3.753,0.995-5.578,1.645c-1.824,0.65-3.615,1.386-5.375,2.184c-1.758,0.807-3.477,1.689-5.182,2.592
					c-3.394,1.841-6.672,3.881-9.828,6.09c-3.168,2.189-6.209,4.554-9.134,7.042c-2.928,2.487-5.748,5.092-8.432,7.825
					c-2.69,2.727-5.245,5.576-7.69,8.505c-4.878,5.873-9.187,12.174-12.926,18.754c-3.729,6.588-6.799,13.508-9.198,20.616
					c-2.399,7.111-4.019,14.444-4.954,21.836c-0.461,3.698-0.731,7.415-0.817,11.135c-0.007,0.931-0.049,1.859-0.03,2.79
					l0.015,1.395l0.008,0.697l0.003,0.348l0,0.044c0.001,0.042-0.002-0.206,0.001-0.079l0.004,0.092l0.008,0.184l0.069,1.465
					l0.11,1.251c0.029,0.398,0.082,0.861,0.132,1.323l0.146,1.377c0.436,3.711,1.02,7.503,1.654,11.29
					c0.64,3.78,1.344,7.614,2.085,11.341l-5.045-5.166l0.358,0.078l0.239,0.058l0.427,0.113c0.272,0.075,0.529,0.15,0.778,0.23
					c0.502,0.158,0.977,0.328,1.445,0.51c0.935,0.363,1.831,0.776,2.706,1.233c0.876,0.453,1.714,0.974,2.535,1.524
					c0.81,0.566,1.609,1.156,2.355,1.815c0.757,0.645,1.466,1.348,2.149,2.075c0.334,0.37,0.659,0.749,0.982,1.129
					c0.307,0.392,0.618,0.783,0.914,1.184c0.283,0.408,0.573,0.814,0.843,1.23c0.259,0.421,0.523,0.842,0.771,1.27l0.698,1.302
					l0.619,1.33c0.378,0.894,0.735,1.798,1.019,2.709c0.158,0.455,0.289,0.911,0.408,1.368c0.119,0.456,0.258,0.916,0.346,1.371
					l0.288,1.372l0.215,1.365c0.142,0.911,0.212,1.81,0.291,2.712l0.068,1.34l0.016,0.335l0.004,0.084l0.002,0.042l0.001,0.021
					l-0.004,0.352L835,244.36l-0.011,0.557l-0.008,0.299l-0.04,0.527c-0.03,0.352-0.066,0.703-0.108,1.053
					c-0.113,0.647-0.197,1.245-0.396,1.931c-0.354,1.32-0.919,2.769-1.937,4.217c-0.504,0.719-1.13,1.432-1.885,2.091
					c-0.393,0.332-0.807,0.65-1.289,0.953c-0.242,0.154-0.509,0.304-0.795,0.453l-0.482,0.228l-0.328,0.135l-0.169,0.065
					c-0.129,0.047-0.26,0.091-0.392,0.131l4.983-6.716c0-0.46-0.03-0.383,0.043-0.211c0.07,0.19,0.194,0.505,0.363,0.857
					c0.339,0.713,0.837,1.569,1.395,2.426c1.125,1.731,2.505,3.521,3.972,5.266c2.953,3.5,6.286,6.872,9.776,10.072
					c3.502,3.198,7.173,6.244,10.96,9.128c3.794,2.877,7.719,5.577,11.753,8.064c4.035,2.486,8.18,4.757,12.414,6.759
					c4.228,2.013,8.545,3.767,12.923,5.157c4.376,1.391,8.813,2.424,13.239,2.988c2.213,0.28,4.422,0.45,6.614,0.484l3.602,0.029
					l3.747,0.044l-7.69,8.119l-0.013-0.376l-0.002-0.238l0.007-0.395c0.008-0.241,0.019-0.48,0.036-0.697
					c0.032-0.447,0.078-0.866,0.137-1.278c0.119-0.824,0.28-1.62,0.496-2.4c0.419-1.561,1.032-3.069,1.819-4.488
					c0.785-1.419,1.746-2.742,2.832-3.916c1.09-1.169,2.294-2.179,3.541-3.045c1.25-0.879,2.543-1.545,3.838-2.15
					c1.29-0.555,2.589-1.033,3.862-1.379c0.638-0.178,1.276-0.35,1.901-0.472c0.63-0.14,1.258-0.267,1.872-0.354
					c0.619-0.1,1.239-0.198,1.843-0.253c0.605-0.061,1.222-0.143,1.814-0.168c0.595-0.033,1.197-0.079,1.786-0.096l1.757-0.027
					l0.219-0.003l0.314,0.004l0.375,0.008l0.75,0.017l0.375,0.008l0.459,0.022l0.934,0.049c1.245,0.074,2.393,0.189,3.643,0.367
					c0.611,0.08,1.257,0.211,1.882,0.321c0.657,0.153,1.284,0.27,1.965,0.471c1.323,0.351,2.739,0.857,4.211,1.595
					c1.467,0.745,3.047,1.768,4.512,3.321c1.462,1.542,2.716,3.716,3.23,6.039c0.262,1.156,0.355,2.321,0.306,3.455
					c-0.029,0.568-0.085,1.128-0.187,1.701c-0.048,0.284-0.111,0.576-0.186,0.88c-0.042,0.161-0.076,0.3-0.132,0.486l-0.085,0.278
					l-0.057,0.17l-0.106,0.294l-6.926-10.04c3.313,0.039,6.789-0.536,10.251-1.562c3.462-1.054,6.915-2.531,10.259-4.358
					c1.676-0.901,3.327-1.89,4.948-2.947c1.628-1.044,3.228-2.16,4.799-3.328c3.145-2.333,6.164-4.898,9.062-7.62
					c2.898-2.723,5.656-5.623,8.299-8.637c2.63-3.026,5.157-6.16,7.536-9.411c2.372-3.256,4.61-6.617,6.705-10.067
					c2.081-3.458,4.022-7.003,5.823-10.617c1.797-3.616,3.407-7.322,4.852-11.087c1.452-3.763,2.674-7.605,3.739-11.485
					c1.063-3.881,1.89-7.819,2.477-11.786c0.303-1.983,0.518-3.975,0.691-5.969c0.065-0.998,0.156-1.997,0.191-2.995l0.072-1.448
					l0.032-1.58l0.031-1.578l-0.002-1.5c0.008-0.995-0.014-2.011-0.043-3.031c-0.046-2.037-0.166-4.067-0.318-6.097
					c-0.321-4.055-0.87-8.086-1.629-12.075c-0.789-3.98-1.808-7.916-3.154-11.725c-0.67-1.904-1.398-3.788-2.234-5.607
					c-0.411-0.914-0.854-1.807-1.315-2.682c-0.229-0.438-0.469-0.866-0.711-1.285l-0.368-0.614l-0.335-0.531l4.805-1.408
					c-0.053,0.417-0.105,0.659-0.172,0.975c-0.065,0.298-0.14,0.593-0.225,0.887c-0.172,0.589-0.386,1.182-0.672,1.784
					c-0.294,0.603-0.65,1.219-1.179,1.824c-0.513,0.597-1.241,1.189-2.13,1.543c-0.444,0.174-0.913,0.287-1.372,0.332
					c-0.116,0.017-0.227,0.017-0.339,0.021l-0.168,0.004h-0.214l-0.368-0.026l-0.189-0.013l-0.237-0.024l-0.473-0.05
					c-0.287-0.045-0.574-0.083-0.854-0.139c-1.125-0.215-2.206-0.538-3.244-0.951c-2.074-0.826-3.978-2.022-5.603-3.513
					c-1.635-1.481-2.954-3.278-3.916-5.208c-0.964-1.935-1.566-3.996-1.89-6.059c-0.155-1.033-0.253-2.067-0.281-3.097
					c-0.014-0.515-0.022-1.029,0.001-1.54l0.024-0.802l0.063-0.736l0.032-0.369l0.058-0.405c0.043-0.268,0.073-0.541,0.128-0.802
					l0.177-0.779c0.065-0.258,0.156-0.515,0.234-0.771c0.349-1.017,0.859-2.022,1.63-2.848c0.772-0.818,1.807-1.434,2.952-1.578
					c0.28-0.039,0.584-0.047,0.86-0.018c0.32,0.036,0.587,0.111,0.846,0.201c0.519,0.187,0.97,0.421,1.427,0.719l-0.558,0.656
					c-1.518-1.941-3.003-3.911-4.506-5.865c1.721,1.765,3.459,3.515,5.165,5.294l1.761,1.837l-2.319-1.18
					c-0.391-0.199-0.842-0.375-1.264-0.474c-0.212-0.05-0.428-0.079-0.598-0.08c-0.215,0.001-0.405,0.03-0.608,0.08
					c-0.806,0.193-1.506,0.719-2.012,1.387c-0.506,0.678-0.826,1.506-1.021,2.371c-0.04,0.221-0.093,0.435-0.124,0.659l-0.078,0.674
					c-0.023,0.223-0.02,0.443-0.033,0.663l-0.015,0.329l0.008,0.369l0.017,0.738l0.055,0.673c0.027,0.473,0.091,0.94,0.148,1.406
					c0.115,0.932,0.294,1.848,0.518,2.744c0.461,1.789,1.152,3.487,2.098,4.996c0.95,1.503,2.132,2.824,3.514,3.871
					c1.376,1.051,2.939,1.843,4.573,2.328c0.816,0.243,1.648,0.409,2.468,0.49c0.771,0.093,1.841,0.038,1.614-0.027
					c0.015-0.035,0.075-0.078,0.182-0.241c0.105-0.15,0.23-0.402,0.34-0.694c0.109-0.299,0.205-0.642,0.277-1.005
					c0.036-0.181,0.067-0.368,0.091-0.553c0.022-0.167,0.047-0.411,0.044-0.484l-0.278-7.774l5.083,6.367
					c0.248,0.31,0.397,0.511,0.579,0.758l0.503,0.704c0.324,0.469,0.638,0.937,0.938,1.41c0.6,0.945,1.173,1.899,1.707,2.868
					c1.08,1.934,2.047,3.912,2.927,5.926c1.76,4.028,3.164,8.184,4.322,12.402c1.138,4.221,2.024,8.509,2.635,12.828
					c0.302,2.16,0.569,4.326,0.758,6.496c0.1,1.083,0.195,2.171,0.258,3.282l0.107,1.658l0.07,1.582
					c0.213,4.367,0.095,8.848-0.315,13.234c-0.401,4.401-1.068,8.771-1.992,13.08c-0.909,4.312-2.077,8.563-3.453,12.737
					c-1.377,4.175-2.938,8.287-4.703,12.308c-1.757,4.025-3.704,7.965-5.829,11.809c-2.13,3.841-4.422,7.594-6.873,11.248
					c-2.462,3.646-5.076,7.199-7.867,10.624c-2.81,3.41-5.766,6.716-8.916,9.862c-3.149,3.147-6.471,6.152-10.01,8.951
					c-3.533,2.805-7.282,5.405-11.3,7.686c-4.002,2.297-8.285,4.273-12.854,5.774c-4.578,1.469-9.479,2.448-14.602,2.505
					l-6.926-10.04l-0.103,0.287l-0.032,0.098l-0.035,0.123l-0.036,0.146c-0.014,0.079-0.027,0.14-0.03,0.209
					c-0.012,0.134-0.008,0.295,0.032,0.475c0.063,0.37,0.3,0.743,0.391,0.831c0.083,0.101-0.019-0.012-0.34-0.159
					c-0.32-0.147-0.793-0.34-1.408-0.484c-0.278-0.087-0.64-0.138-0.956-0.216c-0.362-0.05-0.697-0.124-1.08-0.166
					c-0.732-0.094-1.578-0.168-2.331-0.201l-0.565-0.025l-0.29-0.013l-0.375-0.004l-0.75-0.007l-0.375-0.003l-0.094-0.001
					l-0.047-0.001h-0.012c0.051,0.001-0.13-0.001,0.111,0.001l-0.019,0.001l-0.156,0.005l-1.244,0.035
					c-0.411,0.017-0.806,0.058-1.209,0.083c-0.409,0.018-0.784,0.084-1.173,0.125c-0.394,0.037-0.76,0.106-1.128,0.171
					c-0.376,0.054-0.728,0.135-1.073,0.218c-0.358,0.07-0.683,0.169-1.008,0.264c-0.658,0.184-1.233,0.422-1.78,0.656
					c-0.507,0.261-1.002,0.511-1.381,0.801c-0.79,0.567-1.294,1.156-1.657,1.818c-0.182,0.331-0.328,0.691-0.422,1.064
					c-0.054,0.184-0.085,0.372-0.109,0.538c-0.013,0.082-0.019,0.162-0.022,0.214l-0.003,0.053c-0.001,0.007,0.002-0.015,0-0.021
					l-0.008-0.238l-7.691,8.119l-3.747,0.044c-1.275,0.017-2.418,0.036-3.891,0.006c-2.804-0.056-5.583-0.283-8.324-0.643
					c-5.485-0.726-10.812-2.003-15.949-3.66c-5.139-1.659-10.093-3.696-14.872-6.009c-4.77-2.331-9.365-4.933-13.802-7.747
					c-4.436-2.815-8.714-5.842-12.839-9.058c-4.129-3.212-8.095-6.627-11.886-10.261c-3.793-3.637-7.427-7.459-10.83-11.672
					c-1.699-2.118-3.342-4.319-4.888-6.812c-0.772-1.256-1.522-2.571-2.224-4.13c-0.349-0.785-0.689-1.632-0.988-2.636
					c-0.287-1.021-0.584-2.179-0.596-3.89l4.984-6.716c-0.109,0.033-0.218,0.069-0.326,0.108l-0.105,0.039l-0.199,0.083
					c-0.078,0.033-0.155,0.069-0.23,0.109c-0.122,0.06-0.225,0.124-0.311,0.178c-0.166,0.108-0.287,0.197-0.391,0.296
					c-0.198,0.167-0.318,0.33-0.394,0.441c-0.15,0.24-0.128,0.296-0.093,0.187c0.029-0.023,0.036-0.166,0.073-0.247
					c-0.002-0.019,0.003-0.037,0.014-0.055c0.005-0.009,0.012-0.017,0.02-0.027l0.015-0.258l0.028-0.557l0.007-0.139l0-0.008
					c0.001-0.076-0.007,0.625-0.004,0.326l-0.001-0.014l0-0.028l-0.002-0.056l-0.005-0.221l-0.015-0.887
					c-0.037-0.578-0.057-1.166-0.131-1.724l-0.102-0.841l-0.146-0.815c-0.038-0.278-0.117-0.53-0.174-0.796
					c-0.057-0.265-0.12-0.526-0.202-0.775c-0.138-0.514-0.319-0.998-0.498-1.48l-0.297-0.702l-0.333-0.674l-0.364-0.648
					l-0.396-0.622l-0.428-0.596l-0.462-0.568c-0.325-0.364-0.656-0.725-1.022-1.054c-0.353-0.342-0.748-0.644-1.142-0.946
					c-0.406-0.287-0.819-0.571-1.254-0.819c-0.432-0.25-0.879-0.48-1.321-0.674c-0.22-0.097-0.441-0.187-0.645-0.262l-0.286-0.1
					l-0.11-0.036c-0.009-0.003-0.038-0.013-0.03-0.011c0.017,0.003-0.041-0.011,0.086,0.015l-5.046-5.166
					c-0.632-3.974-1.189-7.863-1.703-11.82c-0.505-3.952-0.962-7.916-1.281-11.993l-0.104-1.546
					c-0.032-0.513-0.065-1.024-0.082-1.603l-0.058-1.677l0-1.468l0.001-0.494l0.014-0.385l0.027-0.769l0.056-1.539
					c0.029-1.025,0.12-2.05,0.178-3.074c0.288-4.094,0.78-8.172,1.478-12.211c1.379-8.082,3.673-15.982,6.681-23.552
					c3.004-7.577,6.822-14.789,11.237-21.559c4.408-6.779,9.487-13.073,15.033-18.869c2.775-2.897,5.698-5.643,8.721-8.261
					c3.027-2.614,6.155-5.103,9.413-7.406c3.254-2.307,6.605-4.47,10.066-6.436c3.457-1.972,7.03-3.734,10.685-5.287
					c3.667-1.528,7.435-2.813,11.289-3.734C892.37,78.935,896.336,78.382,900.257,78.606"/>
				<path style="clip-path:url(#SVGID_4_);fill:#0066FF;" d="M961.493,124.249c0,0,0.395,0.146,1.101,0.526
					c0.697,0.391,1.704,1.023,2.828,2.085c1.107,1.063,2.363,2.583,3.215,4.73c0.857,2.126,1.217,4.888,0.73,7.73l-0.042,0.268
					l-0.01,0.067c-0.011,0.041,0.016-0.043-0.026,0.1l-0.004,0.029l-0.016,0.118l-0.064,0.474c-0.026,0.289-0.127,0.711-0.215,1.098
					c-0.194,0.781-0.407,1.486-0.681,2.238c-0.53,1.49-1.299,2.953-2.238,4.368c-0.942,1.416-2.113,2.732-3.43,3.962
					c-1.328,1.218-2.843,2.292-4.48,3.227c-1.646,0.92-3.436,1.645-5.3,2.197c-1.869,0.536-3.82,0.85-5.788,0.987
					c-1.969,0.129-3.957,0.04-5.906-0.239c-0.977-0.131-1.942-0.319-2.893-0.55l-0.711-0.178l-0.355-0.09l-0.448-0.133l-0.593-0.179
					c-0.213-0.07-0.352-0.102-0.647-0.213c-0.519-0.191-1.062-0.385-1.556-0.588c-0.471-0.208-0.944-0.406-1.409-0.629
					c-0.459-0.238-0.92-0.47-1.372-0.72c-0.446-0.264-0.896-0.521-1.333-0.799c-1.742-1.127-3.351-2.466-4.744-3.97
					c-2.811-3.002-4.721-6.603-5.78-10.215c-1.047-3.634-1.303-7.29-0.697-10.827c0.157-0.882,0.384-1.764,0.678-2.639l0.251-0.713
					l0.205-0.471c0.141-0.324,0.352-0.815,0.532-1.148c0.734-1.422,1.551-2.686,2.44-3.804c1.775-2.235,3.769-3.928,5.743-5.106
					c1.976-1.175,3.948-1.802,5.592-1.931c1.648-0.147,2.905,0.16,3.671,0.465c0.388,0.153,0.665,0.296,0.847,0.405
					c0.181,0.102,0.274,0.155,0.274,0.155s-0.107,0.004-0.314,0.011c-0.203-0.002-0.509,0.032-0.887,0.077
					c-0.76,0.103-1.826,0.395-2.96,1.055c-1.135,0.657-2.336,1.693-3.448,3.1c-1.108,1.402-2.163,3.153-2.96,5.153
					c-0.401,0.994-0.754,2.041-0.975,3.112c-0.062,0.289-0.071,0.434-0.141,0.755l-0.098,0.505l-0.006,0.032
					c0.042-0.136,0.011-0.025,0.02-0.05l-0.003,0.043l-0.006,0.086l-0.013,0.172c-0.028,0.465-0.034,0.967,0.008,1.499
					c0.056,1.053,0.228,2.194,0.533,3.33c0.286,1.139,0.675,2.289,1.192,3.39c0.982,2.226,2.419,4.25,4.154,5.901
					c0.873,0.824,1.822,1.565,2.858,2.197l0.789,0.461l0.821,0.419l0.848,0.386l0.753,0.302c0.088,0.046,0.349,0.12,0.527,0.181
					l0.587,0.197l0.147,0.049l0.073,0.025l0.037,0.013c-0.279-0.084-0.06-0.018-0.114-0.035l0.242,0.068l0.484,0.139
					c0.647,0.174,1.294,0.338,1.941,0.463c1.295,0.256,2.587,0.41,3.866,0.462c1.28,0.062,2.544-0.022,3.78-0.196
					c1.241-0.157,2.446-0.455,3.599-0.853c1.165-0.378,2.265-0.892,3.307-1.479c1.054-0.575,2.007-1.276,2.903-2.022
					c0.896-0.749,1.667-1.595,2.377-2.469c0.345-0.43,0.682-0.918,0.952-1.338c0.137-0.216,0.281-0.384,0.433-0.702l0.223-0.424
					l0.056-0.105l0.014-0.026c-0.035,0.125-0.005,0.022-0.01,0.043l0.019-0.046l0.075-0.182c0.406-0.972,0.689-1.936,0.851-2.881
					c0.158-0.945,0.174-1.867,0.104-2.747c-0.161-1.76-0.747-3.318-1.389-4.537c-0.642-1.227-1.328-2.133-1.819-2.728
					C961.804,124.536,961.493,124.249,961.493,124.249"/>
				<path style="clip-path:url(#SVGID_4_);fill:#0066FF;" d="M1006.425,197.913c0,0,0.019,0.084,0.057,0.247
					c0.038,0.161,0.09,0.409,0.137,0.736c0.092,0.649,0.177,1.619,0.104,2.867c-0.077,1.245-0.299,2.778-0.898,4.491
					c-0.586,1.71-1.576,3.619-3.194,5.387c-1.6,1.768-3.88,3.325-6.523,4.234c-1.319,0.45-2.709,0.764-4.129,0.956
					c-0.354,0.036-0.711,0.073-1.07,0.109l-0.067,0.007c0.013,0.002-0.24-0.002-0.146,0.001l-0.029,0.002l-0.115,0.008l-0.23,0.016
					l-0.463,0.033c-0.266,0.03-0.725,0.014-1.131,0.007l-0.624-0.017l-0.585-0.045c-3.099-0.226-6.422-1.363-9.173-3.357
					c-2.769-1.977-4.921-4.659-6.437-7.495c-1.526-2.847-2.459-5.87-2.954-8.87c-0.249-1.502-0.375-3.006-0.399-4.496
					c-0.004-0.373-0.008-0.744,0.006-1.116l0.014-0.556l0.002-0.069c0.004-0.276,0.002-0.094,0.004-0.163l0.002-0.03l0.01-0.12
					l0.022-0.239l0.042-0.477l0.082-0.682c0.03-0.223,0.057-0.463,0.095-0.67l0.12-0.604c0.66-3.227,2.3-6.055,4.24-8.116
					c1.958-2.076,4.171-3.477,6.331-4.4c1.09-0.451,2.169-0.783,3.24-1.006c1.096-0.196,2.115-0.316,3.351-0.173
					c0.433,0.099,0.852,0.195,1.257,0.288c0.422,0.111,0.798,0.212,1.162,0.343c0.724,0.248,1.366,0.495,1.931,0.754
					c1.132,0.507,1.973,0.977,2.535,1.321c0.562,0.341,0.846,0.549,0.846,0.549s-0.348-0.002-1-0.005
					c-0.647,0.003-1.591,0.001-2.76,0.049c-0.586,0.035-1.224,0.052-1.904,0.129c-0.337,0.035-0.695,0.072-1.033,0.123
					c-0.358,0.062-0.729,0.125-1.112,0.191c-0.402,0.149-1.096,0.447-1.729,0.846c-0.659,0.383-1.331,0.874-1.985,1.425
					c-0.663,0.538-1.292,1.172-1.878,1.846c-0.593,0.668-1.13,1.402-1.574,2.181c-0.906,1.551-1.467,3.234-1.569,4.992l-0.023,0.33
					c-0.006,0.106,0.004,0.182,0.002,0.274l-0.003,0.267l0.015,0.479l0.007,0.24l0.003,0.12l0.001,0.03
					c0.001-0.049-0.002,0.153,0.003-0.103l0.004,0.051l0.031,0.406c0.016,0.27,0.048,0.543,0.078,0.816
					c0.116,1.093,0.302,2.195,0.539,3.288c0.48,2.183,1.215,4.32,2.184,6.224c0.972,1.906,2.189,3.554,3.615,4.802
					c1.424,1.254,3.077,2.123,4.95,2.619l0.344,0.098l0.309,0.07c0.215,0.047,0.372,0.109,0.725,0.14l0.46,0.06l0.229,0.03
					l0.115,0.015l0.028,0.004c0.113,0.003-0.121,0.001-0.088,0.002l0.047,0.003c0.253,0.018,0.504,0.037,0.754,0.056
					c0.996,0.064,1.96,0.047,2.876-0.067c1.838-0.2,3.481-0.801,4.911-1.668c1.427-0.871,2.618-2.017,3.55-3.193
					c0.937-1.176,1.629-2.365,2.14-3.387c0.506-1.026,0.834-1.891,1.035-2.493C1006.344,198.258,1006.425,197.913,1006.425,197.913"
					/>
				<path style="clip-path:url(#SVGID_4_);fill:#0066FF;" d="M856.578,192.442c0,0,0.087,0.418,0.278,1.172
					c0.179,0.75,0.507,1.846,1.032,3.129c0.538,1.276,1.319,2.746,2.488,4.066c1.171,1.32,2.72,2.441,4.637,3.11
					c1.91,0.683,4.17,0.947,6.648,0.854c0.306-0.002,0.625-0.038,0.939-0.056l0.236-0.016l0.059-0.004
					c0.122-0.002-0.133,0-0.094-0.002l0.034-0.004l0.135-0.016l0.541-0.061l0.135-0.014l0.081-0.021l0.162-0.04l0.332-0.075
					c0.279-0.079,0.551-0.131,0.837-0.225c1.131-0.348,2.314-0.831,3.494-1.409c1.178-0.589,2.344-1.294,3.489-2.058
					c1.145-0.768,2.23-1.654,3.289-2.565c1.054-0.92,2.032-1.929,2.938-2.983c0.911-1.049,1.729-2.164,2.43-3.325
					c1.437-2.305,2.392-4.788,2.844-7.311c0.095-0.633,0.191-1.267,0.216-1.905l0.036-0.478c-0.002-0.161,0.006,0.187,0.005,0.137
					l0.001-0.038l0-0.075l0.001-0.15l0.002-0.3l0.001-0.572c-0.009-0.103-0.016-0.206-0.019-0.31
					c0.009-0.187-0.041-0.467-0.07-0.724c-0.021-0.264-0.103-0.5-0.142-0.755c-0.139-0.483-0.269-0.968-0.481-1.424
					c-0.788-1.832-2.425-3.487-4.426-4.768c-1.99-1.292-4.27-2.232-6.404-2.885c-0.532-0.158-1.06-0.298-1.545-0.402l-0.346-0.076
					l-0.083-0.018l-0.021-0.005c0.086-0.003,0.008-0.003,0.021-0.004l-0.055-0.006l-0.217-0.024
					c-0.26-0.026-0.517-0.052-0.771-0.077c-0.961-0.08-1.948-0.056-2.859,0.023c-1.835,0.171-3.464,0.6-4.789,1.051
					c-1.323,0.46-2.363,0.919-3.046,1.28c-0.691,0.352-1.051,0.574-1.051,0.574s0.225-0.358,0.741-0.964
					c0.525-0.593,1.316-1.473,2.506-2.415c1.185-0.942,2.758-1.989,4.812-2.798c1.03-0.413,2.15-0.76,3.433-0.984
					c0.166-0.027,0.333-0.056,0.501-0.084l0.432-0.065l0.216-0.033l0.054-0.008c0.031-0.002-0.029-0.003,0.075-0.005l0.034-0.004
					l0.136-0.013c0.185-0.019,0.362-0.036,0.533-0.043c0.693-0.038,1.365-0.04,2.052-0.023c1.371,0.036,2.781,0.198,4.242,0.48
					c1.466,0.266,2.967,0.709,4.503,1.319c1.54,0.599,3.084,1.451,4.578,2.578c1.503,1.11,2.886,2.603,3.983,4.375
					c0.556,0.881,1.012,1.843,1.376,2.84c0.155,0.502,0.345,1.008,0.456,1.521c0.119,0.517,0.248,1.009,0.321,1.613l0.116,0.873
					l0.054,0.621l0.025,0.299l0.012,0.149l0.006,0.075l0.003,0.037l0.004,0.211l-0.003,0.722c0.008,0.966-0.075,1.937-0.175,2.908
					c-0.429,3.897-1.891,7.676-3.909,10.955c-1.026,1.635-2.192,3.156-3.453,4.557c-1.275,1.389-2.661,2.639-4.101,3.779
					c-1.434,1.149-2.973,2.128-4.536,3.008c-1.563,0.884-3.192,1.614-4.861,2.205c-1.666,0.599-3.382,1.045-5.161,1.275
					c-0.439,0.067-0.901,0.094-1.345,0.137c-0.237,0.017-0.508,0.025-0.759,0.034l-0.381,0.011l-0.19,0.004l-0.136-0.007
					l-0.543-0.033l-0.135-0.009l-0.034-0.002c0.017-0.001-0.261,0-0.161-0.003l-0.076-0.008l-0.301-0.032
					c-0.402-0.047-0.794-0.075-1.193-0.141c-3.154-0.416-6.205-1.417-8.664-3.039c-2.481-1.594-4.212-3.814-5.145-5.889
					c-0.955-2.088-1.24-4.006-1.309-5.53c-0.074-1.531,0.105-2.702,0.211-3.488c0.054-0.395,0.128-0.688,0.17-0.888
					C856.555,192.545,856.578,192.442,856.578,192.442"/>
				<path style="clip-path:url(#SVGID_4_);fill:#0066FF;" d="M890.151,277.152c0,0,0.096,0.009,0.282,0.026
					c0.185,0.027,0.466,0.026,0.808,0.037c0.702,0.008,1.725-0.098,2.983-0.363c1.257-0.265,2.751-0.703,4.381-1.366
					c1.626-0.664,3.391-1.546,5.123-2.711c1.733-1.156,3.424-2.612,4.803-4.35c0.68-0.876,1.303-1.803,1.784-2.809
					c0.113-0.253,0.227-0.508,0.341-0.763c0.101-0.259,0.202-0.519,0.303-0.78c0.085-0.267,0.169-0.534,0.254-0.802l0.008-0.025
					c-0.082,0.25-0.018,0.051-0.034,0.098l0.016-0.064l0.032-0.128l0.064-0.256l0.129-0.515c0.086-0.343,0.172-0.689,0.258-1.035
					c0.04-0.28,0.081-0.562,0.122-0.844c0.041-0.278,0.096-0.546,0.131-0.83l0.057-0.89c0.094-1.191-0.033-2.333-0.212-3.435
					c-0.489-2.166-1.518-4.125-3.253-5.738c-1.648-1.675-3.929-2.95-6.337-3.976l-0.455-0.189l-0.227-0.095l-0.114-0.047
					l-0.057-0.024l-0.028-0.012c-0.121-0.041,0.134,0.042,0.095,0.029l-1.051-0.35c-0.336-0.112-0.721-0.263-1.014-0.343
					l-0.859-0.232c-0.549-0.177-1.194-0.284-1.812-0.41c-0.619-0.144-1.243-0.198-1.86-0.297c-2.474-0.296-4.917-0.259-7.131,0.156
					c-2.214,0.41-4.198,1.178-5.767,2.245c-1.588,1.056-2.71,2.428-3.475,3.873c-0.426,0.859-0.73,1.543-1.038,2.276
					c-0.293,0.715-0.533,1.386-0.734,2.001c-0.394,1.233-0.639,2.241-0.748,2.94c-0.12,0.699-0.14,1.086-0.14,1.086
					s-0.146-0.361-0.289-1.077c-0.135-0.715-0.309-1.788-0.307-3.17c-0.012-0.693,0.032-1.457,0.109-2.291
					c0.068-0.815,0.241-1.787,0.408-2.669c0.249-0.999,0.573-2.104,1.148-3.162c0.239-0.565,0.618-1.047,0.977-1.575
					c0.344-0.548,0.802-0.996,1.247-1.494c1.841-1.917,4.334-3.43,7.119-4.401c2.792-0.966,5.877-1.416,9.048-1.342
					c0.79,0.042,1.598,0.024,2.394,0.15c0.801,0.1,1.594,0.176,2.457,0.37c0.424,0.086,0.85,0.173,1.276,0.26
					c0.419,0.09,0.727,0.189,1.097,0.283l1.065,0.303l1.29,0.461c3.108,1.128,6.255,2.79,8.916,5.378
					c1.339,1.259,2.47,2.822,3.391,4.479l0.625,1.287c0.205,0.43,0.324,0.894,0.485,1.34c0.338,0.893,0.477,1.823,0.669,2.736
					c0.082,0.457,0.097,0.915,0.145,1.371c0.029,0.455,0.099,0.914,0.064,1.359c-0.036,0.892-0.035,1.79-0.189,2.634
					c-0.062,0.426-0.124,0.851-0.186,1.275c-0.086,0.429-0.199,0.863-0.301,1.289c-0.104,0.422-0.216,0.867-0.332,1.255
					c-0.121,0.336-0.242,0.671-0.363,1.004c-0.136,0.379-0.271,0.756-0.406,1.131c-0.169,0.385-0.337,0.769-0.504,1.151
					c-0.193,0.369-0.384,0.735-0.574,1.1c-0.208,0.354-0.429,0.697-0.643,1.04c-0.897,1.345-1.912,2.542-3.016,3.55
					c-2.199,2.029-4.603,3.399-6.884,4.326c-2.289,0.924-4.467,1.427-6.404,1.674c-1.94,0.241-3.64,0.232-5.023,0.075
					c-1.383-0.136-2.439-0.457-3.127-0.708c-0.351-0.135-0.599-0.254-0.76-0.348C890.235,277.197,890.151,277.152,890.151,277.152"
					/>
				<path style="clip-path:url(#SVGID_4_);fill:#0066FF;" d="M993.72,259.919c0,0,0.175-0.248,0.346-0.751
					c0.185-0.496,0.334-1.258,0.365-2.222c0.033-0.962-0.047-2.13-0.319-3.406c-0.272-1.271-0.732-2.66-1.47-3.949
					c-0.731-1.288-1.745-2.455-3.003-3.197c-1.242-0.769-2.735-1.129-4.421-1.139c-0.416-0.004-0.863,0.025-1.286,0.066
					c-0.607,0.047-0.953,0.105-1.442,0.185c-0.947,0.167-1.897,0.362-2.833,0.63c-0.932,0.277-1.856,0.589-2.747,0.961
					c-0.889,0.379-1.745,0.814-2.557,1.292c-1.626,0.957-3.034,2.137-4.137,3.468c-0.559,0.661-1.035,1.371-1.422,2.119
					c-0.407,0.738-0.729,1.519-0.966,2.328l-0.086,0.305l-0.047,0.152l-0.012,0.038l-0.006,0.019
					c-0.005,0.025,0.024-0.157,0.009-0.068l-0.022,0.098c-0.057,0.259-0.114,0.517-0.17,0.775l-0.102,0.538
					c-0.027,0.205-0.053,0.409-0.079,0.611c-0.089,0.819-0.122,1.632-0.057,2.427c0.106,1.591,0.51,3.119,1.097,4.493
					c0.592,1.371,1.351,2.596,2.154,3.606c0.795,1.021,1.628,1.839,2.376,2.459c0.748,0.619,1.406,1.065,1.882,1.329
					c0.474,0.27,0.748,0.402,0.748,0.402s-0.075,0.005-0.219,0.016c-0.145,0.011-0.364,0.033-0.647,0.019
					c-0.565-0.014-1.419-0.067-2.472-0.351c-1.057-0.272-2.308-0.77-3.645-1.574c-1.325-0.814-2.725-1.951-3.992-3.493
					c-1.252-1.543-2.358-3.507-2.999-5.807c-0.31-1.147-0.527-2.368-0.586-3.626c-0.006-0.316-0.012-0.634-0.018-0.953
					c0.014-0.344,0.028-0.69,0.042-1.037c0.02-0.268,0.04-0.536,0.06-0.807l0.007-0.1l0.03-0.208l0.034-0.242l0.076-0.486
					c0.23-1.297,0.604-2.61,1.137-3.883c0.552-1.265,1.257-2.484,2.089-3.611c1.678-2.252,3.874-4.075,6.245-5.396
					c1.186-0.666,2.423-1.207,3.678-1.641c1.253-0.44,2.525-0.778,3.804-0.994c1.276-0.225,2.553-0.363,3.82-0.377
					c0.619-0.014,1.376-0.003,1.864,0.033c0.674,0.023,1.316,0.089,1.973,0.192c1.302,0.201,2.603,0.557,3.805,1.112
					c1.199,0.558,2.305,1.288,3.223,2.148c1.845,1.739,2.892,3.853,3.402,5.772c0.514,1.935,0.564,3.715,0.413,5.241
					c-0.152,1.529-0.518,2.813-0.941,3.811c-0.427,1-0.932,1.701-1.318,2.12c-0.191,0.211-0.371,0.344-0.483,0.433
					C993.781,259.877,993.72,259.919,993.72,259.919"/>
				<path style="clip-path:url(#SVGID_4_);fill:#0066FF;" d="M840.66,128.877c0,0,0.055,0.233,0.178,0.637
					c0.13,0.403,0.356,0.981,0.705,1.621c0.365,0.634,0.861,1.329,1.551,1.888c0.687,0.562,1.539,0.99,2.56,1.257
					c0.514,0.132,1.066,0.223,1.656,0.29c0.599,0.044,1.218,0.087,1.884,0.073l0.248-0.002h0.031h0.015
					c0.016,0.001-0.09-0.006-0.036-0.004l0.072-0.002l0.145-0.004c0.194-0.004,0.389-0.008,0.585-0.013
					c0.36-0.017,0.64-0.031,0.993-0.064c0.695-0.059,1.386-0.177,2.078-0.3c1.374-0.296,2.73-0.734,3.977-1.409
					c0.634-0.318,1.233-0.709,1.8-1.147c0.578-0.425,1.132-0.899,1.632-1.437c0.509-0.529,1.009-1.086,1.438-1.709
					c0.442-0.613,0.872-1.25,1.231-1.936c0.776-1.342,1.364-2.815,1.889-4.293c0.255-0.742,0.483-1.492,0.696-2.237
					c0.101-0.377,0.201-0.749,0.3-1.117l0.019-0.07l0.009-0.034l0.005-0.018c-0.002,0.267-0.001,0.064-0.001,0.119l0.004-0.147
					l0.007-0.292c0.011-0.216-0.007-0.33-0.011-0.482c-0.056-1.246-0.564-2.462-1.274-3.439c-0.711-0.99-1.599-1.772-2.434-2.403
					c-0.845-0.623-1.646-1.106-2.326-1.467c-1.368-0.715-2.218-1.013-2.218-1.013s0.222,0.026,0.637,0.1
					c0.414,0.074,1.018,0.209,1.776,0.434c0.758,0.227,1.676,0.54,2.683,1.042c1.004,0.502,2.114,1.182,3.152,2.211
					c1.029,1.028,1.957,2.455,2.312,4.249c0.041,0.228,0.091,0.493,0.104,0.665l0.032,0.29l0.016,0.146c0,0.067,0.003-0.125,0,0.155
					l0.002,0.019l0.003,0.038l0.006,0.077c0.029,0.41,0.075,0.828,0.086,1.251c0.029,0.847,0.032,1.722-0.038,2.613
					c-0.126,1.785-0.461,3.653-1.118,5.505c-0.327,0.924-0.745,1.839-1.227,2.734c-0.492,0.89-1.08,1.746-1.734,2.558
					c-1.324,1.614-2.995,2.989-4.833,3.967c-1.839,0.979-3.813,1.575-5.723,1.828c-0.954,0.126-1.895,0.184-2.804,0.16
					c-0.447-0.004-0.961-0.034-1.384-0.063c-0.195-0.023-0.389-0.045-0.582-0.067l-0.35-0.042l-0.325-0.055
					c-1.718-0.266-3.376-0.829-4.774-1.682c-1.405-0.847-2.479-2.039-3.08-3.215c-0.602-1.188-0.773-2.304-0.776-3.173
					c-0.003-0.877,0.155-1.529,0.286-1.957C840.54,129.086,840.66,128.877,840.66,128.877"/>
			</g>
		</g>
	</g>
	<g>
		<path style="fill:#0066FF;" d="M382.004,131.386v-51.27c14.648,0,21.973,10.986,21.973,32.959v18.311
			c0,8.106,2.856,15.015,8.569,20.728s12.622,8.569,20.728,8.569c8.104,0,15.015-2.856,20.728-8.569s8.569-12.622,8.569-20.728
			v-18.311c0-21.973,7.324-32.959,21.973-32.959v51.27c0,14.161-5.006,26.246-15.015,36.255
			c-10.01,10.01-22.095,15.015-36.255,15.015c-14.161,0-26.246-5.005-36.255-15.015
			C387.008,157.632,382.004,145.547,382.004,131.386z"/>
		<path style="fill:#0066FF;" d="M572.258,145.156v-6.445c0-39.062,7.324-58.594,21.973-58.594v118.066l-80.566-80.566v6.445
			c0,39.063-7.324,58.594-21.973,58.594V64.589L572.258,145.156z"/>
		<path style="fill:#0066FF;" d="M601.379,80.117h21.973v43.945c0,39.063-7.324,58.594-21.973,58.594V80.117z"/>
		<path style="fill:#0066FF;" d="M111.447,265.625V229.37h19.775v39.551c0,35.157-6.592,52.734-19.775,52.734V285.4H58.12
			c-1.846,24.17-8.24,36.255-19.182,36.255V229.37h19.775v36.255H111.447z"/>
		<path style="fill:#0066FF;" d="M216.428,242.884c9.008,9.009,13.513,19.885,13.513,32.629c0,12.745-4.505,23.621-13.513,32.629
			c-9.009,9.01-19.886,13.514-32.629,13.514c-12.745,0-23.621-4.504-32.629-13.514c-9.009-9.008-13.513-19.884-13.513-32.629
			c0-12.744,4.504-23.62,13.513-32.629c9.008-9.009,19.885-13.514,32.629-13.514C196.542,229.37,207.419,233.875,216.428,242.884z
			 M183.799,249.146c-7.295,0-13.513,2.57-18.655,7.713c-5.142,5.141-7.712,11.36-7.712,18.654c0,7.295,2.571,13.514,7.712,18.654
			c5.142,5.143,11.359,7.713,18.655,7.713c7.294,0,13.513-2.57,18.655-7.713c5.142-5.141,7.712-11.359,7.712-18.654
			c0-7.294-2.571-13.514-7.712-18.654C197.312,251.716,191.093,249.146,183.799,249.146z"/>
		<path style="fill:#0066FF;" d="M282.518,229.37h46.143c0,13.184-9.888,19.775-29.663,19.775h-16.479
			c-7.295,0-13.513,2.57-18.655,7.713c-5.142,5.141-7.712,11.36-7.712,18.654c0,7.295,2.571,13.514,7.712,18.654
			c5.142,5.143,11.359,7.713,18.655,7.713h16.479c19.775,0,29.663,6.592,29.663,19.775h-46.143
			c-12.745,0-23.621-4.504-32.629-13.514c-9.009-9.008-13.513-19.884-13.513-32.629c0-12.744,4.504-23.62,13.513-32.629
			C258.896,233.875,269.773,229.37,282.518,229.37z"/>
		<path style="fill:#0066FF;" d="M354.869,268.921c0,35.157-6.592,52.734-19.775,52.734V229.37h19.775V268.921z M427.445,229.304
			l-0.066,28.082c0,7.734-2.725,14.326-8.174,19.775c-4.219,4.219-9.075,6.812-14.568,7.777
			c15.161,15.162,22.742,32.06,22.742,50.691L377.149,285.4h-22.28c0-13.184,8.789-19.775,26.367-19.775h18.127
			c2.285,0,4.229-0.802,5.833-2.406c1.604-1.604,2.406-3.548,2.406-5.833c0-0.571-0.044-1.121-0.132-1.648h0.132
			C407.604,238.203,414.217,229.393,427.445,229.304z"/>
		<path style="fill:#0066FF;" d="M512.914,229.37c0,13.184-17.579,19.775-52.734,19.775h-26.367V229.37H512.914z M519.506,265.625
			c0,13.184-17.579,19.775-52.734,19.775h-32.959v-19.775H519.506z M526.098,301.88c0,13.184-17.579,19.775-52.734,19.775h-39.551
			V301.88H526.098z"/>
		<path style="fill:#0066FF;" d="M568.786,300.892c-8.569-1.758-16.15-5.934-22.742-12.525
			c-9.009-9.008-13.513-19.884-13.513-32.629V229.37c13.184,0,19.775,7.69,19.775,23.071v3.296c0,7.295,2.571,13.514,7.712,18.654
			c5.142,5.143,11.359,7.713,18.655,7.713c7.294,0,13.513-2.57,18.655-7.713c5.141-5.141,7.712-11.359,7.712-18.654v-3.296
			c0-15.381,6.592-23.071,19.775-23.071v26.367c0,12.745-4.505,23.621-13.514,32.629c-6.592,6.592-14.172,10.768-22.741,12.525
			v20.764h-19.775V300.892z"/>
	</g>
</g>
</svg>
