<?xml version="1.0" encoding="iso-8859-1"?>
<!-- Generator: Adobe Illustrator 19.1.0, SVG Export Plug-In . SVG Version: 6.00 Build 0)  -->
<svg version="1.1" id="Calque_2" xmlns="http://www.w3.org/2000/svg" xmlns:xlink="http://www.w3.org/1999/xlink" x="0px" y="0px"
	 viewBox="0 0 1200 400" style="enable-background:new 0 0 1200 400;" xml:space="preserve">
<g>
	<g>
		<g>
			<defs>
				<rect id="SVGID_1_" x="734.946" y="13.546" width="367.907" height="367.907"/>
			</defs>
			<clipPath id="SVGID_2_">
				<use xlink:href="#SVGID_1_"  style="overflow:visible;"/>
			</clipPath>
			<g style="clip-path:url(#SVGID_2_);">
				<defs>
					<rect id="SVGID_3_" x="734.946" y="13.546" width="367.907" height="367.907"/>
				</defs>
				<clipPath id="SVGID_4_">
					<use xlink:href="#SVGID_3_"  style="overflow:visible;"/>
				</clipPath>
				<path style="clip-path:url(#SVGID_4_);" d="M923.329,203.199l-3.346-0.942c-9.031-2.542-18.098-5.157-26.951-7.772l-5.252-1.551
					l2.996-5.382c26.816-48.186,35.883-68.008,43.169-83.935c5.265-11.507,9.811-21.445,19.376-38.633
					c7.591-13.641,15.699-23.141,24.098-28.236c8.788-5.33,15.854-4.538,19.281-3.589c4.742,1.311,8.405,4.549,10.318,9.117
					c3.603,8.603,0.846,21.2-8.192,37.44c-9.422,16.93-15.869,26.406-23.334,37.378c-10.421,15.317-23.391,34.382-50.267,82.674
					L923.329,203.199z M900.768,187.621c6.036,1.766,12.15,3.525,18.26,5.256c26.077-46.709,38.886-65.533,49.215-80.716
					c7.346-10.798,13.691-20.123,22.922-36.711c10.049-18.055,9.179-26.414,7.765-29.789c-1.091-2.606-3.086-3.642-4.566-4.051
					c-3.658-1.012-16.881-2.01-33.381,27.638c-9.396,16.885-13.876,26.678-19.063,38.017
					C934.785,122.86,925.957,142.159,900.768,187.621"/>
				<path style="clip-path:url(#SVGID_4_);" d="M824.032,362.527c-2.178,0-4.181-0.257-5.875-0.726l-3.441-0.951
					c-4.068-1.125-9.735-4.63-12.32-10.805c-1.511-3.609-2.472-9.422,1.533-16.619c1.785-3.207,5.532-9.202,11.203-18.276
					c12.678-20.283,33.897-54.232,60.254-100.318l1.656-2.895l3.232,0.823c9.168,2.335,18.482,4.784,27.682,7.279l5.333,1.446
					l-2.621,4.865c-25.194,46.766-41.986,81.981-52.018,103.021c-4.466,9.368-7.418,15.556-9.216,18.788
					C843.601,358.641,832.497,362.527,824.032,362.527 M881.338,222.082c-25.672,44.763-46.325,77.804-58.769,97.715
					c-5.399,8.638-9.3,14.88-10.978,17.893c-1.841,3.308-2.213,6.325-1.106,8.967c1.277,3.05,4.301,5.114,6.57,5.742l3.441,0.952
					c4.686,1.298,16.112-0.176,21.278-9.458c1.664-2.99,4.725-9.41,8.962-18.297c9.716-20.376,25.749-54.001,49.595-98.533
					C894.002,225.367,887.642,223.7,881.338,222.082"/>
				<path style="clip-path:url(#SVGID_4_);" d="M1059.393,274.816c-6.592,0-13.932-1.111-21.954-3.33
					c-17.571-4.86-27.148-8.646-38.237-13.029c-15.417-6.095-34.605-13.68-84.542-27.492
					c-62.048-17.163-109.714-26.859-135.322-32.068c-9.867-2.007-16.385-3.333-19.75-4.263c-7.066-1.955-10.221-6.358-11.624-9.708
					c-2.743-6.549-0.998-13.756,1.33-17.938l1.851-3.324c4.405-7.917,17.346-17.852,31.129-14.044
					c3.345,0.926,9.471,3.018,18.743,6.185c24.094,8.229,68.942,23.544,131.009,40.711c49.849,13.788,70.782,17.682,87.603,20.812
					c12.17,2.263,22.68,4.219,40.496,9.146c16.337,4.519,26.366,10.979,29.809,19.2c2.068,4.938,1.666,10.424-1.13,15.448
					c-1.774,3.188-6.241,8.975-16.228,11.929C1068.591,274.228,1064.19,274.816,1059.393,274.816 M776.08,157.55
					c-7.983,0-15.068,6.41-17.275,10.376l-1.851,3.324c-1.478,2.656-2.263,7.042-0.904,10.288c0.962,2.296,2.883,3.815,5.874,4.642
					c3.073,0.85,9.821,2.222,19.161,4.122c25.711,5.23,73.57,14.966,135.911,32.209c50.388,13.938,69.816,21.618,85.427,27.789
					c10.856,4.292,20.232,7.998,37.352,12.733c31.282,8.655,39.945-3.627,41.365-6.176c1.502-2.7,1.739-5.324,0.703-7.797
					c-2.285-5.457-10.829-10.477-24.058-14.136c-17.452-4.828-27.792-6.75-39.762-8.978c-16.986-3.16-38.125-7.092-88.337-20.98
					c-62.317-17.236-107.324-32.608-131.505-40.865c-8.797-3.004-15.153-5.175-18.247-6.031
					C778.638,157.712,777.347,157.55,776.08,157.55"/>
				<path style="clip-path:url(#SVGID_4_);" d="M1054.855,302.797c0,0-0.098,0.133-0.287,0.391
					c-0.102,0.137-0.229,0.306-0.379,0.507c-0.144,0.187-0.311,0.402-0.501,0.648c-0.761,0.97-1.879,2.36-3.366,4.05
					c-1.475,1.705-3.331,3.698-5.521,5.917c-2.191,2.217-4.755,4.616-7.627,7.14c-2.91,2.48-6.09,5.131-9.644,7.683
					c-1.737,1.327-3.628,2.545-5.506,3.858c-0.966,0.617-1.943,1.241-2.93,1.87c-0.984,0.633-1.981,1.263-3.018,1.85
					c-1.028,0.6-2.064,1.205-3.108,1.814c-1.053,0.592-2.138,1.146-3.215,1.726c-2.14,1.189-4.402,2.207-6.645,3.297
					c-1.117,0.556-2.291,1.002-3.439,1.51c-1.16,0.481-2.3,1.014-3.483,1.455c-1.18,0.443-2.363,0.886-3.547,1.33l-1.778,0.66
					l-1.806,0.582l-3.608,1.162c-1.202,0.383-2.433,0.672-3.644,1.011c-1.217,0.319-2.422,0.67-3.639,0.96
					c-1.222,0.264-2.441,0.528-3.656,0.79c-2.416,0.577-4.857,0.923-7.255,1.319c-2.39,0.447-4.789,0.62-7.131,0.897
					c-2.338,0.311-4.661,0.358-6.923,0.502c-1.132,0.046-2.249,0.159-3.357,0.149c-1.107,0.001-2.201,0.003-3.28,0.004
					c-1.078,0.001-2.141,0.003-3.188,0.004c-1.046,0-2.076-0.094-3.088-0.136c-2.023-0.12-3.979-0.182-5.85-0.339
					c-1.866-0.201-3.655-0.393-5.356-0.575c-0.849-0.097-1.679-0.168-2.48-0.28c-0.799-0.13-1.575-0.255-2.327-0.377
					c-1.503-0.244-2.909-0.472-4.21-0.683c-0.649-0.111-1.275-0.194-1.866-0.316c-0.59-0.128-1.152-0.25-1.686-0.366
					c-4.266-0.926-6.704-1.455-6.704-1.455s2.458,0.414,6.761,1.138c0.537,0.09,1.103,0.185,1.696,0.285
					c0.594,0.094,1.224,0.147,1.875,0.227c1.305,0.149,2.715,0.31,4.222,0.482c0.753,0.086,1.53,0.174,2.33,0.266
					c0.802,0.073,1.631,0.104,2.478,0.161c1.696,0.102,3.479,0.209,5.339,0.321c1.861,0.068,3.803,0.038,5.809,0.063
					c1.003-0.006,2.022,0.04,3.057-0.009c1.035-0.05,2.084-0.101,3.148-0.152c1.063-0.052,2.141-0.103,3.232-0.156
					c1.091-0.041,2.188-0.205,3.3-0.303c2.22-0.247,4.496-0.399,6.78-0.814c2.286-0.381,4.625-0.659,6.947-1.208
					c2.329-0.498,4.695-0.946,7.029-1.622c1.172-0.311,2.349-0.624,3.528-0.937c1.173-0.338,2.332-0.737,3.502-1.103
					c1.163-0.386,2.345-0.721,3.497-1.15l3.453-1.295l1.725-0.646l1.695-0.723c1.127-0.484,2.253-0.968,3.377-1.45
					c1.124-0.48,2.206-1.051,3.306-1.57c1.088-0.544,2.201-1.026,3.256-1.615c2.12-1.159,4.255-2.24,6.267-3.487
					c1.013-0.609,2.033-1.191,3.021-1.81c0.978-0.634,1.948-1.264,2.912-1.889c0.971-0.61,1.904-1.263,2.822-1.918
					c0.92-0.65,1.831-1.294,2.732-1.93c1.748-1.35,3.506-2.601,5.113-3.956c3.293-2.607,6.22-5.294,8.889-7.792
					c2.63-2.542,4.966-4.942,6.946-7.145c1.979-2.203,3.645-4.171,4.948-5.83c1.319-1.65,2.289-2.982,2.929-3.881
					c0.158-0.226,0.298-0.425,0.419-0.596c0.109-0.162,0.2-0.297,0.274-0.406c0.157-0.236,0.238-0.358,0.238-0.358L1054.855,302.797
					z"/>
				<path style="clip-path:url(#SVGID_4_);" d="M1040.633,292.067c0,0-0.048,0.063-0.141,0.184
					c-0.054,0.068-0.119,0.152-0.198,0.253c-0.071,0.087-0.152,0.188-0.245,0.302c-0.372,0.451-0.91,1.085-1.618,1.848
					c-1.408,1.536-3.5,3.599-6.195,5.828c-1.361,1.097-2.846,2.266-4.498,3.386c-0.809,0.582-1.686,1.116-2.558,1.688
					c-0.9,0.533-1.798,1.107-2.755,1.619c-0.475,0.26-0.954,0.522-1.436,0.786c-0.486,0.256-0.987,0.495-1.484,0.745
					c-0.987,0.513-2.029,0.948-3.06,1.414c-1.044,0.441-2.108,0.856-3.178,1.258c-1.088,0.358-2.154,0.778-3.264,1.075l-1.648,0.48
					c-0.548,0.158-1.11,0.274-1.661,0.411c-0.555,0.129-1.103,0.272-1.656,0.387c-0.556,0.104-1.11,0.208-1.661,0.311
					c-1.097,0.228-2.204,0.355-3.288,0.502c-1.082,0.17-2.166,0.218-3.222,0.312c-1.055,0.109-2.101,0.102-3.118,0.137
					c-1.017,0.048-2.013,0.013-2.98-0.017c-0.483-0.013-0.96-0.026-1.428-0.04c-0.469-0.014-0.929-0.069-1.382-0.101
					c-0.905-0.08-1.778-0.133-2.613-0.228c-0.832-0.113-1.629-0.223-2.387-0.327c-0.378-0.054-0.747-0.097-1.104-0.157
					c-0.355-0.068-0.7-0.135-1.034-0.199c-1.334-0.269-2.503-0.447-3.444-0.71c-1.887-0.468-2.965-0.735-2.965-0.735
					s1.099,0.152,3.022,0.417c0.955,0.16,2.135,0.214,3.475,0.34c0.335,0.028,0.681,0.057,1.037,0.088
					c0.356,0.021,0.725,0.025,1.102,0.039c0.752,0.023,1.543,0.046,2.369,0.071c0.825,0.006,1.685-0.033,2.572-0.049
					c0.444-0.016,0.894-0.009,1.351-0.044c0.456-0.036,0.919-0.072,1.388-0.109c0.938-0.07,1.9-0.138,2.876-0.289
					c0.976-0.138,1.975-0.235,2.975-0.449c1.001-0.198,2.025-0.35,3.038-0.623c1.017-0.25,2.049-0.478,3.064-0.806
					c0.509-0.152,1.021-0.305,1.533-0.458c0.508-0.164,1.012-0.355,1.519-0.531c0.504-0.185,1.016-0.347,1.514-0.55l1.492-0.613
					c1.003-0.383,1.958-0.886,2.93-1.322c0.954-0.479,1.898-0.968,2.818-1.477c0.908-0.534,1.823-1.032,2.681-1.603
					c0.433-0.279,0.868-0.545,1.29-0.828c0.416-0.289,0.83-0.576,1.241-0.861c0.824-0.56,1.592-1.177,2.36-1.747
					c0.74-0.611,1.486-1.176,2.165-1.786c1.393-1.175,2.623-2.38,3.743-3.495c2.212-2.266,3.874-4.298,4.942-5.748
					c0.54-0.722,0.93-1.298,1.182-1.679c0.061-0.095,0.115-0.179,0.163-0.251c0.037-0.06,0.068-0.111,0.093-0.152
					c0.06-0.099,0.092-0.15,0.092-0.15L1040.633,292.067z"/>
				<path style="clip-path:url(#SVGID_4_);" d="M872.255,78.455c0,0-0.457-0.054-1.316-0.111c-0.859-0.06-2.121-0.129-3.727-0.155
					c-1.605-0.04-3.555-0.007-5.786,0.074c-2.232,0.109-4.745,0.27-7.471,0.588c-2.725,0.315-5.667,0.735-8.74,1.357
					c-3.082,0.577-6.284,1.402-9.559,2.337c-1.622,0.525-3.291,0.989-4.928,1.611c-0.823,0.297-1.65,0.595-2.483,0.894
					c-0.818,0.333-1.641,0.668-2.467,1.004l-1.239,0.504l-1.222,0.556c-0.814,0.374-1.631,0.749-2.448,1.125
					c-0.815,0.38-1.604,0.819-2.408,1.225c-0.794,0.425-1.614,0.802-2.388,1.266l-2.335,1.356l-1.163,0.681l-1.128,0.734
					c-0.751,0.488-1.5,0.974-2.246,1.46c-0.751,0.477-1.447,1.034-2.168,1.543c-0.714,0.519-1.424,1.035-2.132,1.55
					c-0.678,0.552-1.352,1.102-2.023,1.647c-0.666,0.551-1.346,1.074-1.986,1.636c-0.63,0.573-1.255,1.143-1.875,1.708
					c-0.615,0.569-1.245,1.11-1.831,1.687c-0.576,0.588-1.146,1.17-1.711,1.745c-0.564,0.575-1.121,1.143-1.672,1.703
					c-0.519,0.592-1.032,1.177-1.537,1.753c-2.074,2.257-3.784,4.605-5.433,6.7c-0.758,1.101-1.484,2.155-2.175,3.158
					c-0.345,0.5-0.681,0.988-1.008,1.462c-0.3,0.492-0.592,0.971-0.875,1.434c-0.563,0.927-1.09,1.795-1.578,2.597
					c-0.243,0.401-0.475,0.785-0.698,1.153c-0.202,0.38-0.395,0.743-0.578,1.088c-1.464,2.748-2.302,4.318-2.302,4.318l-6.614-3.568
					c0,0,0.997-1.616,2.743-4.442c0.218-0.352,0.448-0.724,0.689-1.114c0.262-0.377,0.536-0.772,0.822-1.183
					c0.573-0.82,1.193-1.708,1.856-2.656c0.332-0.473,0.675-0.96,1.028-1.462c0.38-0.483,0.771-0.981,1.172-1.491
					c0.803-1.018,1.646-2.089,2.527-3.206c1.896-2.126,3.871-4.489,6.224-6.748c0.575-0.575,1.157-1.159,1.747-1.749
					c0.621-0.558,1.25-1.123,1.886-1.694c0.636-0.57,1.278-1.145,1.926-1.726c0.659-0.568,1.361-1.101,2.048-1.659
					c0.692-0.553,1.388-1.11,2.091-1.672c0.712-0.547,1.464-1.055,2.201-1.589c0.741-0.528,1.486-1.058,2.236-1.592
					c0.776-0.492,1.556-0.987,2.34-1.484c0.79-0.486,1.553-1.018,2.371-1.468c0.812-0.458,1.627-0.916,2.444-1.376l1.224-0.688
					l1.258-0.632l2.519-1.254c0.833-0.43,1.71-0.769,2.561-1.157c0.86-0.369,1.705-0.768,2.573-1.107
					c0.87-0.335,1.738-0.668,2.603-1.001l1.296-0.493l1.311-0.438c0.871-0.291,1.739-0.581,2.602-0.87
					c0.873-0.253,1.743-0.505,2.607-0.755c1.718-0.529,3.458-0.897,5.147-1.326c3.407-0.742,6.715-1.371,9.879-1.756
					c3.156-0.43,6.158-0.665,8.926-0.807c2.77-0.145,5.31-0.145,7.558-0.111c2.248,0.063,4.204,0.155,5.811,0.298
					c1.606,0.128,2.864,0.277,3.719,0.393C871.802,78.372,872.255,78.455,872.255,78.455"/>
				<path style="clip-path:url(#SVGID_4_);" d="M841.411,110.36c0,0-1.004-0.091-2.76-0.072c-1.753,0.013-4.26,0.138-7.221,0.554
					c-1.48,0.211-3.073,0.483-4.735,0.866c-1.665,0.358-3.391,0.854-5.152,1.409c-0.871,0.309-1.767,0.584-2.644,0.946
					c-0.44,0.172-0.883,0.346-1.329,0.52c-0.437,0.192-0.876,0.385-1.317,0.579c-0.89,0.367-1.742,0.835-2.616,1.252
					c-0.854,0.458-1.709,0.922-2.544,1.413c-1.657,1.008-3.277,2.062-4.765,3.235c-0.375,0.288-0.747,0.576-1.118,0.862
					c-0.354,0.306-0.707,0.611-1.057,0.913c-0.348,0.305-0.703,0.594-1.037,0.904c-0.328,0.316-0.653,0.631-0.976,0.942
					c-0.32,0.314-0.648,0.611-0.952,0.929c-0.298,0.322-0.594,0.642-0.886,0.958c-0.292,0.315-0.581,0.625-0.866,0.933
					c-0.267,0.324-0.531,0.644-0.792,0.96c-1.07,1.233-1.945,2.513-2.789,3.651c-0.386,0.597-0.757,1.171-1.109,1.716
					c-0.176,0.271-0.347,0.535-0.514,0.792c-0.152,0.267-0.3,0.527-0.444,0.778c-0.558,1.015-1.099,1.856-1.444,2.617
					c-0.737,1.484-1.157,2.332-1.157,2.332l-6.615-3.568c0,0,0.582-0.893,1.6-2.456c0.483-0.792,1.201-1.682,1.956-2.734
					c0.193-0.26,0.392-0.528,0.597-0.805c0.22-0.266,0.446-0.54,0.678-0.821c0.464-0.56,0.951-1.149,1.461-1.763
					c1.093-1.168,2.232-2.464,3.58-3.699c0.33-0.314,0.664-0.633,1.002-0.955c0.356-0.305,0.716-0.612,1.079-0.923
					c0.364-0.31,0.731-0.623,1.102-0.939c0.377-0.309,0.777-0.598,1.168-0.901c0.394-0.299,0.792-0.601,1.192-0.905
					c0.405-0.296,0.833-0.57,1.252-0.858c0.421-0.285,0.845-0.57,1.27-0.857c0.44-0.264,0.882-0.53,1.327-0.797
					c1.764-1.079,3.644-2.014,5.539-2.881c0.954-0.421,1.921-0.808,2.884-1.186c0.979-0.336,1.934-0.719,2.915-0.998
					c0.486-0.149,0.971-0.297,1.453-0.444c0.486-0.128,0.971-0.255,1.452-0.381c0.957-0.269,1.925-0.447,2.863-0.66
					c1.892-0.362,3.724-0.661,5.471-0.829c1.744-0.192,3.398-0.278,4.921-0.316c3.048-0.068,5.576,0.101,7.332,0.294
					C840.424,110.152,841.411,110.36,841.411,110.36"/>
			</g>
		</g>
	</g>
	<g>
		<path d="M145.505,188.611c2.538,0,4.699-0.89,6.482-2.673c1.782-1.782,2.673-3.942,2.673-6.482c0-2.538-0.892-4.699-2.673-6.482
			c-1.783-1.782-3.944-2.673-6.482-2.673H96.066v21.973c0,39.064-7.324,58.594-21.973,58.594v-102.54h71.411
			c8.593,0,15.93,3.04,22.009,9.119s9.119,13.416,9.119,22.009c0,7.716-2.466,14.429-7.397,20.142
			c4.931,5.713,7.397,12.427,7.397,20.142c0,8.595-3.04,15.931-9.119,22.009c-6.079,6.08-13.416,9.119-22.009,9.119H96.066
			c0-14.648,9.765-21.973,29.297-21.973h20.142c2.538,0,4.699-0.891,6.482-2.674c1.782-1.781,2.673-3.942,2.673-6.481
			c0-2.538-0.892-4.699-2.673-6.482c-1.783-1.781-3.944-2.673-6.482-2.673H96.066c0-14.649,9.765-21.973,29.297-21.973H145.505z"/>
		<path d="M183.781,148.328h21.973v43.945c0,39.064-7.324,58.594-21.973,58.594V148.328z"/>
		<path d="M264.172,250.867c-14.161,0-26.246-5.005-36.255-15.015c-10.01-10.009-15.015-22.094-15.015-36.255
			c0-14.16,5.004-26.245,15.015-36.255c10.009-10.009,22.094-15.015,36.255-15.015h51.27c0,14.648-10.986,21.973-32.959,21.973
			h-18.311c-8.106,0-15.015,2.856-20.728,8.569s-8.569,12.623-8.569,20.728c0,8.106,2.856,15.015,8.569,20.728
			s12.622,8.569,20.728,8.569h18.311c4.052,0,7.714,0.245,10.986,0.732v-19.995c-24.415-2.441-36.621-9.449-36.621-21.021h58.594
			v62.256H264.172z"/>
		<path d="M462.351,195.935c-0.732-6.542-3.516-12.231-8.35-17.065c-5.713-5.713-12.623-8.569-20.728-8.569
			c-8.106,0-15.015,2.856-20.728,8.569s-8.569,12.623-8.569,20.728v18.311c0,21.973-7.324,32.959-21.973,32.959v-51.27
			c0-14.16,5.004-26.245,15.015-36.255c10.009-10.009,22.094-15.015,36.255-15.015c14.16,0,26.245,5.006,36.255,15.015
			c10.009,10.01,15.015,22.095,15.015,36.255v51.27c-14.648,0-21.973-10.986-21.973-32.959v-0.952
			c-24.415-2.441-36.621-9.448-36.621-21.021H462.351z"/>
		<path d="M491.691,148.328h21.973v43.945c0,39.064-7.324,58.594-21.973,58.594V148.328z"/>
		<path d="M567.541,210.584h-24.756c0-14.649,9.765-21.973,29.297-21.973h20.142c2.538,0,4.699-0.89,6.482-2.673
			c1.782-1.782,2.673-3.942,2.673-6.482c0-2.538-0.892-4.699-2.673-6.482c-1.783-1.782-3.944-2.673-6.482-2.673h-49.438v21.973
			c0,39.064-7.324,58.594-21.973,58.594v-102.54h71.411c8.593,0,15.93,3.04,22.009,9.119s9.119,13.416,9.119,22.009
			c0,8.595-3.028,15.919-9.082,21.973c-4.688,4.688-10.084,7.569-16.187,8.643c16.846,16.846,25.269,35.621,25.269,56.323
			L567.541,210.584z"/>
	</g>
</g>
</svg>
