<?xml version="1.0" encoding="iso-8859-1"?>
<!-- Generator: Adobe Illustrator 19.1.0, SVG Export Plug-In . SVG Version: 6.00 Build 0)  -->
<svg version="1.1" id="Calque_1" xmlns="http://www.w3.org/2000/svg" xmlns:xlink="http://www.w3.org/1999/xlink" x="0px" y="0px"
	 viewBox="0 0 1200 400" style="enable-background:new 0 0 1200 400;" xml:space="preserve">
<g>
	<g>
		<g>
			<defs>
				<rect id="SVGID_1_" x="787.953" y="58.375" width="283.383" height="283.383"/>
			</defs>
			<clipPath id="SVGID_2_">
				<use xlink:href="#SVGID_1_"  style="overflow:visible;"/>
			</clipPath>
			<g style="clip-path:url(#SVGID_2_);">
				<defs>
					<rect id="SVGID_3_" x="787.953" y="58.375" width="283.383" height="283.383"/>
				</defs>
				<clipPath id="SVGID_4_">
					<use xlink:href="#SVGID_3_"  style="overflow:visible;"/>
				</clipPath>
				<path style="clip-path:url(#SVGID_4_);fill:#0066FF;" d="M809.222,245.515c0,0-0.339-0.495-0.877-1.529
					c-0.533-1.034-1.288-2.6-2.051-4.729c-1.557-4.241-3.363-10.68-4.568-19.065c-0.597-4.188-1.12-8.857-1.398-13.95
					c-0.041-0.637-0.082-1.281-0.124-1.931l-0.016-0.244c-0.003,0.016-0.004-0.159-0.005-0.185l-0.003-0.121l-0.012-0.486
					c-0.008-0.325-0.016-0.651-0.025-0.979c-0.028-1.311-0.057-2.648-0.086-4.01c-0.03-0.671,0.009-1.39,0.028-2.104
					c0.023-0.716,0.045-1.44,0.069-2.168c0.054-1.457,0.065-2.959,0.22-4.437c0.865-11.904,3.58-25.401,9.467-39.103
					c2.909-6.854,6.598-13.734,11.054-20.459c4.459-6.724,9.766-13.231,15.828-19.349c12.134-12.205,27.54-22.706,45.253-29.539
					c8.843-3.426,18.254-5.863,27.942-7.251c1.212-0.168,2.427-0.337,3.643-0.506c1.22-0.131,2.446-0.225,3.672-0.338
					c1.227-0.098,2.454-0.238,3.687-0.299c1.234-0.047,2.469-0.094,3.706-0.14l1.858-0.067l0.465-0.015l0.232-0.007l0.43,0.006
					l0.876,0.016c1.168,0.022,2.337,0.044,3.508,0.066c1.17,0.022,2.342,0.044,3.516,0.067c1.266,0.09,2.534,0.18,3.802,0.27
					c1.27,0.094,2.541,0.189,3.813,0.283l0.953,0.076l0.929,0.12l1.858,0.241c2.477,0.345,4.971,0.577,7.437,1.103
					c4.955,0.856,9.886,2.025,14.744,3.501c9.722,2.935,19.168,7.079,27.949,12.353c8.758,5.307,16.856,11.704,23.979,18.956
					c7.133,7.249,13.263,15.345,18.467,23.849c5.237,8.496,9.341,17.527,12.559,26.708c3.24,9.178,5.433,18.588,6.625,27.999
					c0.179,1.17,0.27,2.355,0.385,3.533c0.101,1.179,0.242,2.349,0.307,3.529c0.114,2.361,0.281,4.701,0.253,7.056l0.01,1.759
					l0.005,0.877l-0.04,1.017c-0.05,1.093-0.1,2.184-0.15,3.273c-0.053,2.087-0.372,4.577-0.599,6.886l-0.186,1.752l-0.265,1.687
					c-0.18,1.12-0.359,2.238-0.538,3.352c-0.096,0.556-0.166,1.115-0.283,1.665l-0.352,1.645c-0.236,1.094-0.471,2.184-0.705,3.272
					c-0.211,1.093-0.53,2.154-0.81,3.221c-0.287,1.064-0.573,2.126-0.859,3.184c-0.26,1.065-0.65,2.086-0.974,3.123
					c-0.34,1.032-0.678,2.06-1.016,3.084c-2.859,8.137-6.408,15.731-10.449,22.683c-4.051,6.948-8.519,13.297-13.242,19.005
					c-9.469,11.403-19.733,20.4-29.706,26.976c-4.986,3.286-9.814,6.109-14.498,8.274c-0.579,0.281-1.153,0.558-1.72,0.832
					c-0.581,0.248-1.155,0.494-1.724,0.737c-1.139,0.479-2.238,0.973-3.334,1.407c-1.107,0.407-2.188,0.804-3.243,1.192
					c-0.53,0.185-1.042,0.394-1.567,0.553c-0.524,0.16-1.041,0.319-1.551,0.474c-8.139,2.568-14.823,3.324-19.322,3.535
					c-1.13,0.035-2.119,0.137-2.982,0.087c-0.859-0.029-1.582-0.053-2.163-0.072c-1.159-0.04-1.757-0.06-1.757-0.06
					s0.596-0.065,1.75-0.189c0.574-0.062,1.288-0.139,2.136-0.231c0.423-0.032,0.877-0.117,1.362-0.203
					c0.485-0.084,1.003-0.173,1.552-0.268c0.548-0.095,1.128-0.194,1.739-0.3c0.611-0.098,1.241-0.287,1.907-0.437
					c1.325-0.339,2.783-0.619,4.31-1.138c1.535-0.479,3.187-0.951,4.899-1.633c0.86-0.317,1.746-0.644,2.66-0.98
					c0.893-0.387,1.812-0.785,2.757-1.194c1.905-0.764,3.811-1.821,5.852-2.791c1.004-0.524,2.01-1.107,3.047-1.676
					c0.517-0.287,1.039-0.577,1.568-0.87c0.515-0.319,1.035-0.64,1.56-0.966c4.23-2.539,8.598-5.623,13.02-9.191
					c2.229-1.763,4.414-3.722,6.665-5.721c1.088-1.042,2.192-2.098,3.312-3.169c1.112-1.075,2.173-2.237,3.283-3.371
					c4.354-4.623,8.651-9.736,12.659-15.393c4.016-5.647,7.809-11.792,11.111-18.438c3.309-6.636,6.203-13.737,8.365-21.24
					c0.49-1.889,1.045-3.772,1.499-5.69c0.213-0.962,0.426-1.926,0.639-2.894c0.207-0.969,0.455-1.932,0.595-2.919
					c0.164-0.981,0.329-1.965,0.495-2.952l0.25-1.481c0.083-0.494,0.12-0.996,0.182-1.494c0.114-0.997,0.228-1.997,0.342-3
					l0.169-1.503l0.084-1.466c0.095-1.988,0.297-3.81,0.257-6.083c0.011-1.089,0.022-2.181,0.033-3.276l0.005-0.411l0.002-0.205
					c-0.001,0.019,0.005-0.333-0.001-0.009l-0.033-0.767l-0.065-1.536c-0.043-2.048-0.273-4.114-0.442-6.183
					c-0.092-1.035-0.26-2.072-0.385-3.11c-0.138-1.038-0.251-2.08-0.452-3.118c-1.395-8.311-3.529-16.694-6.647-24.828
					c-0.391-1.015-0.783-2.032-1.175-3.051c-0.409-1.011-0.863-2.006-1.292-3.012c-0.832-2.024-1.819-3.983-2.771-5.962
					c-0.455-1.001-0.984-1.964-1.499-2.936c-0.515-0.972-1.03-1.945-1.546-2.919l-1.673-2.853c-0.566-0.947-1.094-1.92-1.716-2.833
					c-4.715-7.476-10.27-14.453-16.49-20.775c-6.246-6.302-13.304-11.786-20.896-16.357c-7.577-4.602-15.738-8.24-24.223-10.849
					l-1.582-0.513l-1.612-0.422l-3.223-0.839l-1.608-0.429c-0.54-0.128-1.088-0.226-1.631-0.34l-3.265-0.667
					c-2.162-0.507-4.383-0.733-6.575-1.077l-1.648-0.242l-0.824-0.121l-0.808-0.074l-3.225-0.288
					c-1.075-0.099-2.149-0.198-3.221-0.298c-1.173-0.04-2.344-0.08-3.514-0.12c-1.17-0.04-2.339-0.08-3.507-0.12l-0.875-0.029
					c0.022-0.001-0.357-0.008-0.007-0.004L926.98,88.2l-0.41,0.008l-1.639,0.022c-1.093,0.012-2.184,0.025-3.274,0.037
					c-1.09,0.026-2.174,0.127-3.259,0.185c-1.085,0.073-2.17,0.124-3.251,0.211c-1.077,0.123-2.153,0.246-3.227,0.368
					c-8.59,1.016-16.971,2.963-24.952,5.697c-15.942,5.564-30.183,14.318-41.749,24.816c-11.607,10.484-20.538,22.659-26.81,34.925
					c-3.156,6.129-5.684,12.286-7.574,18.321c-0.542,1.49-0.902,3.01-1.335,4.49c-0.209,0.744-0.417,1.482-0.623,2.215
					c-0.206,0.733-0.345,1.477-0.52,2.208c-0.324,1.466-0.677,2.909-0.967,4.341c-0.256,1.44-0.508,2.859-0.756,4.255
					c-0.283,1.403-0.414,2.765-0.593,4.115c-0.086,0.676-0.171,1.345-0.255,2.009c-0.082,0.667-0.183,1.314-0.217,2.004
					c-0.099,1.358-0.197,2.692-0.292,4c-0.025,0.327-0.05,0.652-0.075,0.977l-0.037,0.485l-0.009,0.121
					c-0.004,0.054-0.005-0.041-0.006,0.056l-0.009,0.238c-0.024,0.635-0.049,1.264-0.073,1.886
					c-0.241,4.986-0.184,9.565-0.078,13.706c0.045,1.034,0.088,2.041,0.13,3.019c0.053,0.978,0.137,1.924,0.201,2.845
					c0.057,0.922,0.135,1.811,0.228,2.67c0.092,0.859,0.151,1.696,0.264,2.491c0.376,3.201,0.892,5.897,1.382,8.068
					c0.498,2.171,0.992,3.812,1.38,4.899C808.955,244.976,809.222,245.515,809.222,245.515"/>
				<path style="clip-path:url(#SVGID_4_);fill:#0066FF;" d="M822.331,137.589c0,0,0.75,0.096,2.136,0.406
					c1.383,0.311,3.405,0.834,5.916,1.709c2.516,0.864,5.522,2.082,8.863,3.755c3.339,1.675,7.003,3.821,10.79,6.534
					c3.779,2.719,7.675,6.012,11.416,9.937c3.747,3.915,7.311,8.482,10.427,13.601c3.118,5.114,5.768,10.787,7.749,16.783
					c1.99,5.994,3.323,12.294,4.025,18.626l0.373,4.752c0.121,1.583,0.086,3.161,0.127,4.738l0.017,1.181l0.008,0.59l0.004,0.295
					l-0.002,0.351l-0.005,0.137l-0.098,2.186l-0.05,1.09c-0.02,0.373-0.023,0.697-0.069,1.137c-0.078,0.83-0.156,1.658-0.234,2.484
					c-0.14,1.683-0.401,3.22-0.639,4.776c-0.219,1.557-0.595,3.079-0.903,4.599c-0.146,0.762-0.35,1.509-0.553,2.252
					c-0.201,0.743-0.401,1.484-0.6,2.222c-0.413,1.471-0.926,2.9-1.384,4.327c-2.009,5.657-4.575,10.845-7.423,15.444
					c-0.36,0.572-0.717,1.14-1.072,1.704c-0.372,0.551-0.742,1.097-1.109,1.64c-0.721,1.09-1.48,2.129-2.245,3.134
					c-1.531,2.007-3.077,3.881-4.624,5.613c-3.117,3.447-6.225,6.326-9.106,8.691c-2.886,2.362-5.537,4.222-7.787,5.634
					c-2.244,1.42-4.088,2.396-5.361,3.02c-1.275,0.623-1.981,0.895-1.981,0.895s2.01-2.267,5.127-6.352
					c1.551-2.049,3.381-4.548,5.33-7.471c1.949-2.921,4.037-6.25,6.067-9.961c0.478-0.947,1.024-1.87,1.516-2.847
					c0.481-0.983,1.017-1.954,1.474-2.986c0.463-1.029,0.988-2.039,1.434-3.107c0.232-0.527,0.466-1.059,0.703-1.594
					c0.216-0.542,0.435-1.088,0.655-1.638c1.754-4.388,3.306-9.07,4.454-13.974c0.251-1.234,0.537-2.468,0.776-3.717
					c0.198-1.258,0.471-2.509,0.621-3.786c0.154-1.277,0.381-2.547,0.457-3.844c0.118-1.289,0.266-2.605,0.286-3.812
					c0.032-0.616,0.064-1.233,0.096-1.85c0.026-0.283,0.016-0.686,0.02-1.039l0.005-1.092l0.013-2.188l-0.079-1.83
					c-0.071-1.348-0.076-2.706-0.184-4.05l-0.345-4.031c-0.588-5.35-1.552-10.622-2.939-15.694
					c-1.385-5.071-3.175-9.944-5.303-14.519c-2.124-4.577-4.589-8.848-7.207-12.774c-2.629-3.917-5.423-7.481-8.198-10.655
					c-2.768-3.183-5.519-5.977-8.061-8.387c-2.542-2.413-4.886-4.429-6.861-6.067C824.827,139.308,822.331,137.589,822.331,137.589"
					/>
				<path style="clip-path:url(#SVGID_4_);fill:#0066FF;" d="M1017.427,118.582c0,0-1.294,2.303-3.344,6.277
					c-1.016,1.993-2.231,4.398-3.515,7.171c-1.286,2.77-2.665,5.894-4.003,9.312c-1.339,3.416-2.625,7.129-3.74,11.047
					c-1.125,3.914-2.01,8.051-2.562,12.281c-0.176,1.054-0.213,2.124-0.347,3.189c-0.062,1.068-0.159,2.14-0.176,3.214
					c-0.026,1.073-0.069,2.15-0.018,3.225l0.014,0.807l0.004,0.404l0.001,0.05c-0.001-0.075,0.003,0.24-0.002-0.156l0.007,0.117
					l0.014,0.233c0.037,0.622,0.074,1.245,0.112,1.869c0.035,0.625,0.07,1.25,0.105,1.877l0.047,0.941l0.026,0.465l0.047,0.412
					c0.128,1.1,0.244,2.201,0.344,3.305l0.078,0.828l0.13,0.858l0.251,1.717l0.238,1.721c0.081,0.573,0.215,1.134,0.32,1.701
					c0.775,4.556,1.944,9.004,3.385,13.283c1.44,4.28,3.154,8.398,5.112,12.274c3.899,7.766,8.805,14.51,13.543,20.032
					c2.37,2.764,4.712,5.209,6.871,7.335c2.159,2.129,4.145,3.928,5.823,5.388c3.364,2.91,5.484,4.493,5.484,4.493
					s-0.657-0.06-1.874-0.289c-1.216-0.23-2.991-0.629-5.202-1.322c-2.217-0.681-4.86-1.673-7.809-3.045
					c-2.945-1.377-6.182-3.156-9.548-5.413c-3.364-2.256-6.838-5.011-10.216-8.296c-3.377-3.281-6.655-7.098-9.566-11.413
					c-2.918-4.307-5.495-9.09-7.548-14.182c-2.062-5.086-3.634-10.472-4.578-15.932c-0.118-0.683-0.267-1.363-0.36-2.048
					l-0.269-2.054l-0.255-2.053l-0.122-1.026l-0.074-1.065c-0.1-1.419-0.184-2.835-0.256-4.246l-0.028-0.529l-0.004-0.477
					l-0.002-0.943c0.002-0.627,0.005-1.254,0.007-1.88c0.005-0.626,0.009-1.25,0.014-1.873l0.007-0.689l0.027-0.528l0.061-1.053
					c0.064-1.406,0.231-2.787,0.389-4.158c0.165-1.37,0.427-2.711,0.655-4.043c0.145-0.659,0.289-1.315,0.432-1.968
					c0.138-0.655,0.298-1.298,0.477-1.934c1.353-5.105,3.217-9.798,5.37-13.976c2.147-4.184,4.507-7.898,6.922-11.114
					c4.816-6.447,9.648-11,13.215-13.913c1.78-1.463,3.257-2.512,4.281-3.2C1016.851,118.905,1017.427,118.582,1017.427,118.582"/>
			</g>
		</g>
	</g>
	<g>
		<path style="fill:#0066FF;" d="M115.197,169.641v22.632c0,39.064-7.324,58.594-21.973,58.594V170.3H52.941v-21.973H155.48
			C155.48,160.486,142.052,167.59,115.197,169.641z"/>
		<path style="fill:#0066FF;" d="M250.52,148.328c0,14.648-19.532,21.973-58.594,21.973h-29.297v-21.973H250.52z M257.844,188.611
			c0,14.649-19.532,21.973-58.594,21.973h-36.621v-21.973H257.844z M265.168,228.895c0,14.648-19.532,21.973-58.594,21.973h-43.945
			v-21.973H265.168z"/>
		<path style="fill:#0066FF;" d="M352.883,213.367v-6.445c0-39.062,7.324-58.594,21.973-58.594v118.067l-80.566-80.567v6.445
			c0,39.064-7.324,58.594-21.973,58.594V132.8L352.883,213.367z"/>
		<path style="fill:#0066FF;" d="M462.57,213.367v-6.445c0-39.062,7.324-58.594,21.973-58.594v118.067l-80.566-80.567v6.445
			c0,39.064-7.324,58.594-21.973,58.594V132.8L462.57,213.367z"/>
		<path style="fill:#0066FF;" d="M491.691,148.328h21.973v43.945c0,39.064-7.324,58.594-21.973,58.594V148.328z"/>
		<path style="fill:#0066FF;" d="M592.224,188.611c8.593,0,15.93,3.04,22.009,9.119s9.119,13.416,9.119,22.01
			c0,8.595-3.04,15.931-9.119,22.009c-6.079,6.08-13.416,9.119-22.009,9.119h-71.411c0-14.648,13.427-21.973,40.283-21.973h31.128
			c2.538,0,4.699-0.891,6.482-2.674c1.782-1.781,2.673-3.942,2.673-6.481c0-2.538-0.892-4.699-2.673-6.482
			c-1.783-1.781-3.944-2.673-6.482-2.673H551.94c-8.595,0-15.93-3.04-22.009-9.119s-9.119-13.415-9.119-22.009
			c0-8.593,3.04-15.93,9.119-22.009s13.415-9.119,22.009-9.119h71.411c0,14.648-13.429,21.973-40.283,21.973H551.94
			c-2.54,0-4.7,0.892-6.482,2.673c-1.783,1.783-2.673,3.944-2.673,6.482c0,2.54,0.89,4.7,2.673,6.482
			c1.782,1.783,3.942,2.673,6.482,2.673H592.224z"/>
	</g>
</g>
</svg>
