<?xml version="1.0" encoding="iso-8859-1"?>
<!-- Generator: Adobe Illustrator 19.1.0, SVG Export Plug-In . SVG Version: 6.00 Build 0)  -->
<svg version="1.1" id="Calque_2" xmlns="http://www.w3.org/2000/svg" xmlns:xlink="http://www.w3.org/1999/xlink" x="0px" y="0px"
	 viewBox="0 0 1200 400" style="enable-background:new 0 0 1200 400;" xml:space="preserve">
<g>
	<g>
		<g>
			<defs>
				<rect id="SVGID_1_" x="729.751" y="13.07" width="374.861" height="374.861"/>
			</defs>
			<clipPath id="SVGID_2_">
				<use xlink:href="#SVGID_1_"  style="overflow:visible;"/>
			</clipPath>
			<polygon style="clip-path:url(#SVGID_2_);" points="894.115,137.685 891.127,108.497 1050.801,91.275 1092.64,66.033 
				1057.365,101.44 			"/>
			<polygon style="clip-path:url(#SVGID_2_);" points="997.311,236.716 1014.057,236.716 1014.057,154.677 997.311,154.677 
				964.864,198.928 980.533,207.084 997.311,184.174 			"/>
			<g style="clip-path:url(#SVGID_2_);">
				<defs>
					<rect id="SVGID_3_" x="729.751" y="13.07" width="374.861" height="374.861"/>
				</defs>
				<clipPath id="SVGID_4_">
					<use xlink:href="#SVGID_3_"  style="overflow:visible;"/>
				</clipPath>
				<path style="clip-path:url(#SVGID_4_);" d="M904.784,200.932v-37.191c0-1.543-1.251-2.793-2.794-2.793h-5.082
					c-1.543,0-2.793,1.251-2.793,2.793v68.109c0,1.543,1.251,2.793,2.793,2.793h5.082c1.543,0,2.794-1.251,2.794-2.793v-14.811
					c0-1.543,1.25-2.793,2.793-2.793h14.743c1.542,0,2.793-1.251,2.793-2.793v-4.934c0-1.543-1.251-2.793-2.793-2.793h-14.743
					C906.035,203.725,904.784,202.475,904.784,200.932"/>
				<path style="clip-path:url(#SVGID_4_);" d="M925.114,119.006c0,0,0.556,2.16,1.269,5.941c0.364,1.89,0.76,4.185,1.173,6.818
					c0.411,2.633,0.823,5.603,1.223,8.843c0.391,3.24,0.767,6.751,1.1,10.464c0.322,3.713,0.629,7.628,0.864,11.678
					c0.481,8.101,0.712,16.741,0.724,25.383c-0.003,8.641-0.231,17.281-0.708,25.382c-0.23,4.051-0.541,7.966-0.86,11.679
					c-0.335,3.713-0.71,7.223-1.102,10.463c-0.402,3.24-0.814,6.211-1.227,8.844c-0.415,2.632-0.813,4.928-1.179,6.818
					c-0.717,3.78-1.277,5.941-1.277,5.941s-0.559-2.161-1.277-5.941c-0.366-1.89-0.764-4.186-1.179-6.818
					c-0.412-2.633-0.825-5.603-1.227-8.844c-0.391-3.24-0.766-6.751-1.101-10.463c-0.319-3.713-0.63-7.628-0.86-11.679
					c-0.478-8.101-0.706-16.741-0.708-25.382c0.012-8.641,0.243-17.282,0.724-25.383c0.235-4.05,0.542-7.966,0.864-11.678
					c0.333-3.713,0.708-7.224,1.1-10.464c0.4-3.24,0.812-6.21,1.223-8.843c0.412-2.633,0.809-4.928,1.173-6.818
					C924.558,121.166,925.114,119.006,925.114,119.006"/>
				<path style="clip-path:url(#SVGID_4_);" d="M741.723,279.545c0,0,1.114,0.852,3.302,2.275c2.18,1.43,5.479,3.371,9.797,5.517
					c4.324,2.125,9.712,4.405,16.067,6.253c6.346,1.844,13.671,3.245,21.653,3.483c0.996,0.038,2.005,0.012,3.019,0.034
					c1.015,0.002,2.04-0.049,3.072-0.07l0.193-0.005l0.097-0.002c0.084-0.002-0.007-0.001,0.04-0.004l0.409-0.024l0.82-0.049
					c0.563-0.029,0.999-0.088,1.507-0.13c1.002-0.1,2.05-0.234,3.083-0.389c4.153-0.636,8.416-1.691,12.739-3.135
					c8.668-2.842,17.562-7.104,26.93-11.633c4.679-2.286,9.5-4.612,14.506-6.861c5.006-2.251,10.195-4.438,15.661-6.268
					c5.454-1.837,11.165-3.412,17.119-4.306c2.975-0.448,6.004-0.738,9.059-0.848c1.522-0.054,3.09-0.058,4.528-0.016
					c1.637,0.049,3.125,0.135,4.661,0.28c6.11,0.581,12.079,1.994,17.721,3.87c5.652,1.871,10.959,4.27,16.022,6.744
					c2.533,1.24,5.007,2.506,7.437,3.764c2.398,1.263,4.785,2.521,7.158,3.77c4.706,2.467,9.321,4.75,13.889,6.773
					c9.135,4.025,18.255,6.646,27.198,7.455c1.116,0.11,2.227,0.196,3.334,0.25l0.77,0.044l0.881,0.023l0.878,0.023l0.798,0.006
					c2.109,0.022,4.284-0.085,6.342-0.271c4.145-0.377,8.051-1.241,11.635-2.566c7.218-2.587,12.999-7.194,18.247-11.499
					c2.641-2.137,5.163-4.21,7.698-5.912c2.522-1.715,5.014-3.093,7.379-4.044c4.743-1.942,8.757-2.215,11.382-2.281
					c1.325-0.015,2.335,0.046,3.013,0.097c0.676,0.056,1.026,0.085,1.026,0.085s-0.348,0.04-1.021,0.119
					c-0.671,0.077-1.663,0.235-2.938,0.466c-1.272,0.253-2.824,0.626-4.573,1.238c-1.742,0.632-3.68,1.481-5.687,2.69
					c-2.002,1.221-4.076,2.774-6.17,4.697c-2.095,1.922-4.25,4.165-6.584,6.647c-2.342,2.472-4.922,5.142-7.975,7.755
					c-3.048,2.606-6.634,5.089-10.726,7.08c-4.087,2-8.662,3.429-13.436,4.318c-2.403,0.451-4.8,0.729-7.341,0.912l-0.949,0.065
					l-0.876,0.045l-0.88,0.045l-0.997,0.023c-1.254,0.037-2.521,0.037-3.795,0.01c-5.1-0.103-10.342-0.749-15.576-1.856
					c-5.241-1.093-10.432-2.763-15.534-4.693c-5.107-1.928-10.084-4.23-14.993-6.574c-2.428-1.173-4.87-2.352-7.325-3.537
					c-2.424-1.191-4.839-2.361-7.259-3.482c-4.836-2.251-9.698-4.254-14.59-5.87c-4.898-1.592-9.859-2.697-14.851-3.16
					c-9.956-1.039-20.142,0.767-30.082,3.892c-2.488,0.776-4.954,1.653-7.417,2.561c-2.464,0.905-4.914,1.865-7.351,2.859
					c-4.875,1.996-9.701,4.117-14.532,6.159c-9.635,4.124-19.282,8.055-29.048,10.508c-4.878,1.206-9.765,2.085-14.581,2.373
					c-1.209,0.071-2.388,0.115-3.597,0.126c-0.599-0.003-1.263,0.01-1.797-0.01l-0.822-0.025l-0.409-0.013
					c-0.02-0.001-0.18-0.002-0.163-0.004l-0.107-0.007l-0.214-0.014c-1.141-0.077-2.271-0.125-3.386-0.228
					c-1.114-0.116-2.216-0.217-3.301-0.367c-8.695-1.14-16.356-3.547-22.766-6.329c-6.418-2.792-11.624-5.927-15.678-8.778
					c-4.068-2.84-6.974-5.423-8.909-7.207c-0.968-0.894-1.665-1.627-2.135-2.117C741.953,279.809,741.723,279.545,741.723,279.545"
					/>
				<path style="clip-path:url(#SVGID_4_);" d="M810.305,329.477c0,0,0.544-0.163,1.562-0.469c0.255-0.073,0.539-0.154,0.852-0.244
					c0.312-0.091,0.663-0.165,1.008-0.316c0.702-0.274,1.493-0.573,2.355-0.891c0.861-0.385,1.816-0.81,2.855-1.274
					c1.015-0.537,2.114-1.052,3.263-1.681c1.145-0.668,2.37-1.279,3.64-2.067c0.638-0.374,1.293-0.757,1.964-1.149
					c0.672-0.404,1.359-0.816,2.061-1.239c2.827-1.688,5.926-3.542,9.419-5.38c3.506-1.823,7.45-3.599,11.965-4.845
					c0.565-0.151,1.124-0.323,1.705-0.458c0.592-0.115,1.185-0.23,1.781-0.346c0.599-0.109,1.2-0.22,1.803-0.33
					c0.622-0.059,1.246-0.119,1.872-0.179c0.629-0.05,1.26-0.101,1.892-0.152l0.118-0.009c0.162,0.002-0.277-0.011,0.377,0.004
					l0.05,0.001l0.201,0.002l0.403,0.004l0.806,0.008c0.538,0.01,1.077,0.019,1.618,0.028l0.206,0.005l0.26,0.027l0.521,0.055
					l1.044,0.118c0.697,0.081,1.397,0.168,2.096,0.269c0.651,0.121,1.257,0.265,1.889,0.401c0.625,0.14,1.257,0.273,1.878,0.427
					l1.803,0.553c0.595,0.193,1.219,0.361,1.79,0.578l1.72,0.653c1.17,0.429,2.23,0.923,3.326,1.398
					c4.312,1.954,8.151,4.089,11.792,5.862c3.638,1.784,7.077,3.225,10.502,4.107c0.856,0.224,1.712,0.369,2.561,0.572
					c0.213,0.045,0.424,0.101,0.637,0.137l0.641,0.077c0.427,0.057,0.853,0.115,1.276,0.172c0.394,0.055,0.786,0.109,1.175,0.163
					c0.493,0.03,0.982,0.059,1.469,0.088c0.39,0.013,0.777,0.026,1.161,0.04c0.366,0.024,0.804,0.002,1.203,0.006
					c3.255-0.054,6.333-0.586,9.161-1.499c5.68-1.787,10.336-4.9,14.021-6.631c1.832-0.885,3.455-1.378,4.578-1.439
					c0.275-0.033,0.525-0.023,0.735-0.01c0.209,0.002,0.383,0.026,0.523,0.055c0.272,0.049,0.412,0.074,0.412,0.074
					s-0.135,0.043-0.396,0.127c-0.128,0.036-0.283,0.094-0.46,0.186c-0.177,0.085-0.378,0.172-0.592,0.31
					c-0.435,0.238-0.922,0.63-1.464,1.09c-0.535,0.485-1.12,1.08-1.76,1.775c-1.278,1.4-2.781,3.216-4.73,5.24
					c-1.955,2.013-4.396,4.225-7.53,6.197c-1.563,0.986-3.304,1.881-5.187,2.658c-1.886,0.772-3.925,1.371-6.052,1.832
					c-0.542,0.103-1.047,0.239-1.641,0.309c-0.574,0.078-1.15,0.157-1.73,0.236c-0.485,0.052-0.973,0.103-1.464,0.156l-0.184,0.019
					l-0.333,0.01l-0.422,0.011l-0.85,0.02c-2.281,0.116-4.616-0.059-6.976-0.34c-4.716-0.625-9.371-2.121-13.625-3.929
					c-4.272-1.802-8.206-3.851-11.933-5.523c-0.924-0.409-1.858-0.858-2.758-1.189l-1.355-0.548
					c-0.451-0.19-0.891-0.309-1.335-0.469l-1.328-0.456l-1.311-0.355c-0.431-0.112-0.882-0.248-1.296-0.349
					c-0.379-0.06-0.753-0.133-1.129-0.212l-0.564-0.122l-0.282-0.064l-0.141-0.033l-0.198-0.018
					c-0.539-0.046-1.077-0.091-1.612-0.136l-0.803-0.073l-0.401-0.037l-0.2-0.018l-0.049-0.005c0.622,0.016,0.148,0.005,0.277,0.008
					l-0.081,0.001c-0.436,0.002-0.871,0.005-1.305,0.007c-0.436-0.005-0.871-0.011-1.305-0.017
					c-0.443,0.039-0.885,0.078-1.325,0.116c-0.442,0.033-0.884,0.066-1.323,0.098c-0.445,0.049-0.892,0.137-1.338,0.202
					c-3.565,0.519-7.162,1.495-10.661,2.545c-3.501,1.083-6.918,2.212-10.147,3.18c-3.237,0.969-6.316,1.745-9.086,2.256
					c-0.684,0.142-1.382,0.211-2.032,0.313c-0.655,0.093-1.281,0.183-1.89,0.241c-1.241,0.073-2.35,0.16-3.369,0.17
					c-1.046-0.028-1.958-0.068-2.737-0.118c-0.777-0.039-1.406-0.206-1.933-0.281C810.863,329.581,810.305,329.477,810.305,329.477"
					/>
			</g>
		</g>
	</g>
	<g>
		<path d="M83.035,222.117v-4.941c0-29.948,5.615-44.922,16.846-44.922v90.518l-61.768-61.768v4.941
			c0,29.948-5.615,44.922-16.846,44.922v-90.518L83.035,222.117z"/>
		<path d="M166.96,208.753c-0.562-5.017-2.695-9.378-6.401-13.084c-4.38-4.38-9.678-6.57-15.891-6.57
			c-6.214,0-11.511,2.19-15.891,6.57s-6.57,9.678-6.57,15.892v14.038c0,16.846-5.615,25.269-16.846,25.269v-39.307
			c0-10.856,3.837-20.122,11.511-27.796c7.673-7.673,16.938-11.511,27.795-11.511c10.856,0,20.121,3.838,27.795,11.511
			c7.673,7.674,11.511,16.939,11.511,27.796v39.307c-11.23,0-16.846-8.423-16.846-25.269v-0.729
			c-18.718-1.872-28.076-7.244-28.076-16.116H166.96z"/>
		<path d="M237.185,188.594v17.352c0,29.948-5.615,44.922-16.846,44.922v-61.768h-30.884v-16.846h78.613
			C268.068,181.575,257.773,187.021,237.185,188.594z"/>
		<path d="M335.148,208.753c-0.562-5.017-2.695-9.378-6.401-13.084c-4.38-4.38-9.678-6.57-15.891-6.57
			c-6.214,0-11.511,2.19-15.891,6.57s-6.57,9.678-6.57,15.892v14.038c0,16.846-5.615,25.269-16.846,25.269v-39.307
			c0-10.856,3.837-20.122,11.511-27.796c7.673-7.673,16.938-11.511,27.795-11.511c10.856,0,20.121,3.838,27.795,11.511
			c7.673,7.674,11.511,16.939,11.511,27.796v39.307c-11.23,0-16.846-8.423-16.846-25.269v-0.729
			c-18.718-1.872-28.076-7.244-28.076-16.116H335.148z"/>
		<path d="M405.372,188.594v17.352c0,29.948-5.615,44.922-16.846,44.922v-61.768h-30.884v-16.846h78.613
			C436.256,181.575,425.96,187.021,405.372,188.594z"/>
		<path d="M441.736,172.253h16.846v33.692c0,29.948-5.615,44.922-16.846,44.922V172.253z"/>
		<path d="M531.165,183.765c7.673,7.674,11.511,16.939,11.511,27.796s-3.838,20.122-11.511,27.795
			c-7.674,7.675-16.939,11.512-27.795,11.512c-10.857,0-20.122-3.837-27.795-11.512c-7.674-7.673-11.511-16.938-11.511-27.795
			s3.837-20.122,11.511-27.796c7.673-7.673,16.938-11.511,27.795-11.511C514.225,172.253,523.49,176.091,531.165,183.765z
			 M503.369,189.099c-6.214,0-11.511,2.19-15.891,6.57s-6.57,9.678-6.57,15.892s2.19,11.512,6.57,15.891
			c4.38,4.381,9.677,6.57,15.891,6.57c6.213,0,11.511-2.189,15.891-6.57c4.38-4.379,6.57-9.677,6.57-15.891
			s-2.19-11.512-6.57-15.892S509.583,189.099,503.369,189.099z"/>
		<path d="M609.924,222.117v-4.941c0-29.948,5.615-44.922,16.846-44.922v90.518l-61.768-61.768v4.941
			c0,29.948-5.615,44.922-16.846,44.922v-90.518L609.924,222.117z"/>
	</g>
</g>
</svg>
