<?xml version="1.0" encoding="iso-8859-1"?>
<!-- Generator: Adobe Illustrator 19.1.0, SVG Export Plug-In . SVG Version: 6.00 Build 0)  -->
<svg version="1.1" id="Calque_2" xmlns="http://www.w3.org/2000/svg" xmlns:xlink="http://www.w3.org/1999/xlink" x="0px" y="0px"
	 viewBox="0 0 1200 400" style="enable-background:new 0 0 1200 400;" xml:space="preserve">
<g>
	<g>
		<g>
			<defs>
				<rect id="SVGID_1_" x="751.837" y="2" width="382.031" height="382.031"/>
			</defs>
			<clipPath id="SVGID_2_">
				<use xlink:href="#SVGID_1_"  style="overflow:visible;"/>
			</clipPath>
			<g style="clip-path:url(#SVGID_2_);">
				<defs>
					<rect id="SVGID_3_" x="751.837" y="2" width="382.031" height="382.031"/>
				</defs>
				<clipPath id="SVGID_4_">
					<use xlink:href="#SVGID_3_"  style="overflow:visible;"/>
				</clipPath>
				<path style="clip-path:url(#SVGID_4_);" d="M924.013,298.815c1.211-4.743,2.247-9.516,3.188-14.306l0.687-3.595l0.649-3.6
					c0.212-1.2,0.442-2.397,0.639-3.6l0.581-3.609c0.406-2.401,0.741-4.815,1.077-7.227l0.507-3.616l0.439-3.625
					c0.648-4.822,1.103-9.668,1.596-14.5c0.4-4.846,0.859-9.678,1.099-14.529l0.221-3.632l0.114-1.815l0.07-1.818l0.28-7.269
					l0.07-1.816l0.021-1.818l0.044-3.635c0.017-2.423,0.108-4.843,0.079-7.264l-0.089-7.262l-0.045-3.566l-0.151-3.664
					c-0.067-2.479-0.263-4.794-0.413-7.163c-0.063-1.174-0.202-2.374-0.307-3.562l-0.345-3.57c-0.559-4.751-1.192-9.49-2.031-14.198
					c-0.373-2.359-0.873-4.7-1.319-7.046c-0.237-1.171-0.507-2.337-0.758-3.504c-0.253-1.167-0.507-2.334-0.8-3.494l-0.845-3.483
					l-0.919-3.464c-0.297-1.157-0.619-2.307-0.95-3.455c-0.332-1.148-0.637-2.302-0.993-3.443
					c-1.358-4.581-2.877-9.112-4.498-13.603c-1.628-4.489-3.382-8.93-5.25-13.318c-1.874-4.384-3.864-8.718-6.004-12.957
					c-1.064-2.124-2.171-4.219-3.305-6.287c-0.57-1.031-1.144-2.058-1.724-3.069l-0.878-1.5l-0.439-0.73l-0.41-0.66L892.348,57.5
					l18.254,7.978l1.76,0.769l1.678,0.762c1.112,0.51,2.209,1.031,3.306,1.556c2.188,1.054,4.352,2.136,6.502,3.244
					c4.296,2.222,8.532,4.54,12.707,6.966c8.33,4.885,16.448,10.138,24.282,15.824c7.84,5.678,15.355,11.838,22.503,18.44
					c7.148,6.603,13.859,13.736,19.962,21.415c3.052,3.838,5.952,7.812,8.664,11.924c2.719,4.108,5.19,8.395,7.459,12.791
					c2.261,4.401,4.289,8.935,6.041,13.583c1.762,4.643,3.219,9.413,4.335,14.265c1.125,4.85,1.936,9.773,2.421,14.725
					c0.1,1.24,0.233,2.477,0.304,3.719l0.167,3.726c0.024,1.242,0.013,2.485,0.02,3.726l0.002,0.931l-0.005,0.303l-0.007,0.222
					l-0.015,0.443l-0.059,1.772c-0.011,0.571-0.063,1.239-0.095,1.862l-0.115,1.895c-0.111,1.229-0.193,2.461-0.331,3.684
					c-0.25,2.45-0.578,4.885-0.957,7.308c-0.389,2.422-0.837,4.832-1.362,7.229c-0.264,1.199-0.539,2.395-0.838,3.592l-0.465,1.8
					c-0.163,0.613-0.321,1.18-0.523,1.867l-8.767,0.839l0.028,0.047l-0.028-0.05l-0.054-0.106l-0.166-0.277
					c-0.126-0.191-0.256-0.394-0.401-0.593c-0.29-0.404-0.623-0.797-0.963-1.19c-0.71-0.766-1.503-1.482-2.365-2.125
					c-1.719-1.297-3.745-2.233-5.91-2.9l-1.666-0.417c-0.56-0.131-1.147-0.188-1.72-0.292c-0.571-0.117-1.167-0.142-1.76-0.183
					l-0.891-0.065l-0.223-0.018l-0.112-0.008l-0.056-0.005l-0.028-0.002c0.33-0.008,0.073-0.002,0.138-0.004l-0.511,0.008
					c-1.356,0.024-2.742,0.03-4.075,0.07l-3.627,0.346c-1.239,0.189-2.498,0.433-3.752,0.634c-1.25,0.242-2.479,0.6-3.726,0.891
					c-0.627,0.133-1.23,0.355-1.842,0.55l-1.835,0.596c-0.305,0.102-0.615,0.191-0.917,0.304l-0.899,0.361l-1.802,0.721l-0.902,0.36
					c-0.296,0.129-0.587,0.276-0.881,0.413l-1.763,0.835c-1.191,0.526-2.317,1.197-3.473,1.807
					c-1.166,0.596-2.273,1.304-3.396,1.988c-0.557,0.35-1.132,0.671-1.676,1.045l-1.636,1.115c-0.543,0.374-1.097,0.736-1.634,1.122
					l-1.59,1.192l-1.593,1.194l-1.547,1.258l-1.553,1.256l-1.508,1.315l-1.509,1.318c-0.497,0.448-0.978,0.913-1.469,1.368
					l-1.465,1.375c-0.484,0.462-0.951,0.945-1.428,1.417c-0.952,0.945-1.9,1.897-2.819,2.88l-1.393,1.462l-1.356,1.498l-1.354,1.503
					l-1.317,1.537c-0.888,1.018-1.743,2.064-2.595,3.115c-0.866,1.039-1.684,2.117-2.521,3.182c-0.837,1.066-1.63,2.163-2.449,3.245
					c-0.783,1.106-1.607,2.187-2.382,3.302c-1.58,2.21-3.088,4.472-4.561,6.761C926.786,294.117,925.347,296.433,924.013,298.815
					 M924.013,298.815c1.048-2.522,2.214-5,3.449-7.441c1.239-2.44,2.518-4.865,3.878-7.247c0.667-1.199,1.372-2.375,2.072-3.557
					c0.729-1.162,1.434-2.342,2.184-3.493c0.751-1.151,1.485-2.315,2.269-3.445c0.77-1.141,1.546-2.279,2.357-3.393l1.203-1.682
					l1.245-1.653l1.251-1.652l1.294-1.621c0.434-0.539,0.858-1.087,1.301-1.618l1.352-1.578c0.454-0.523,0.897-1.057,1.36-1.574
					l1.406-1.537c0.471-0.51,0.934-1.03,1.413-1.533l1.462-1.49l1.467-1.49l1.523-1.438l1.528-1.436l1.589-1.374l1.594-1.374
					c0.54-0.449,1.1-0.873,1.65-1.311l1.66-1.306c0.552-0.437,1.143-0.826,1.714-1.242c1.152-0.817,2.291-1.656,3.507-2.392
					c1.203-0.751,2.379-1.552,3.647-2.209l1.875-1.032c0.314-0.17,0.623-0.349,0.941-0.511l0.97-0.461l1.945-0.919l0.974-0.459
					c0.328-0.146,0.667-0.268,1.001-0.403l2.011-0.793c0.672-0.26,1.336-0.546,2.034-0.743c1.384-0.42,2.754-0.902,4.16-1.267
					c1.418-0.329,2.825-0.672,4.267-0.967l4.489-0.652c1.388-0.115,2.729-0.19,4.095-0.288l0.51-0.034l0.238-0.005l0.072,0.002
					l0.144,0.002l0.287,0.005l1.152,0.019c0.768,0.013,1.536,0.015,2.314,0.118c0.775,0.089,1.552,0.138,2.328,0.271l2.33,0.454
					c3.092,0.75,6.157,1.996,8.894,3.852c1.371,0.923,2.663,1.977,3.859,3.159c0.586,0.608,1.161,1.231,1.702,1.909
					c0.272,0.339,0.533,0.697,0.795,1.064c0.277,0.415,0.474,0.678,0.843,1.362l-8.767,0.838l0.361-1.566l0.348-1.652
					c0.224-1.108,0.429-2.226,0.623-3.346c0.381-2.243,0.701-4.5,0.985-6.756c0.267-2.259,0.487-4.522,0.633-6.783
					c0.086-1.13,0.117-2.259,0.179-3.388l0.037-1.647c0.009-0.559,0.036-1.07,0.026-1.681l-0.007-1.773l-0.002-0.443l-0.001-0.222
					l-0.001-0.111c0.001-0.036-0.002,0.11-0.002,0.024l-0.002-0.053l-0.034-0.841c-0.05-1.122-0.079-2.243-0.142-3.363l-0.262-3.353
					c-0.095-1.116-0.251-2.226-0.371-3.339c-0.567-4.443-1.423-8.844-2.561-13.175c-1.127-4.333-2.578-8.582-4.242-12.748
					c-1.671-4.165-3.593-8.237-5.735-12.201c-4.288-7.928-9.439-15.428-15.19-22.48c-2.877-3.525-5.907-6.939-9.064-10.245
					c-3.155-3.307-6.415-6.527-9.798-9.628c-6.756-6.215-13.954-11.982-21.395-17.44c-7.446-5.454-15.201-10.518-23.163-15.231
					c-3.979-2.359-8.004-4.642-12.083-6.811c-2.039-1.083-4.089-2.141-6.148-3.164l-3.091-1.503l-1.541-0.723l-1.48-0.67
					l7.701-9.061l0.546,0.904l0.496,0.847l0.953,1.676c0.624,1.114,1.227,2.23,1.813,3.351c1.168,2.242,2.298,4.493,3.377,6.762
					c2.172,4.532,4.168,9.129,6.041,13.772l1.376,3.492l1.325,3.511c0.842,2.355,1.676,4.713,2.455,7.088
					c1.561,4.75,3.013,9.534,4.296,14.365c1.27,4.833,2.449,9.691,3.394,14.6c0.26,1.221,0.481,2.451,0.701,3.681
					c0.218,1.23,0.453,2.456,0.656,3.689c0.377,2.47,0.806,4.93,1.106,7.411l0.484,3.715l0.384,3.727l0.189,1.864l0.144,1.868
					l0.285,3.734l0.194,3.741c0.055,1.25,0.141,2.484,0.154,3.753c0.045,2.515,0.146,5.079,0.087,7.489l-0.043,3.667l-0.147,3.764
					l-0.3,7.398c-0.034,1.233-0.14,2.463-0.219,3.694l-0.257,3.692l-0.267,3.689l-0.134,1.844l-0.183,1.841
					c-0.494,4.907-0.925,9.814-1.61,14.695c-0.579,4.891-1.377,9.752-2.116,14.615c-0.866,4.846-1.699,9.691-2.72,14.502
					l-0.75,3.609l-0.827,3.593c-0.549,2.395-1.096,4.788-1.714,7.165l-0.899,3.57c-0.303,1.189-0.638,2.371-0.956,3.556
					c-0.328,1.183-0.629,2.37-0.978,3.547l-1.054,3.526C927.274,289.574,925.787,294.249,924.013,298.815"/>
				<path style="clip-path:url(#SVGID_4_);" d="M890.076,11.161l1.222,14.35c0.406,4.783,0.799,9.567,1.171,14.351l1.138,14.354
					l1.099,14.356l2.146,28.714l2.015,28.722l1.007,14.361l0.964,14.364l1.877,28.729c0.619,9.577,1.271,19.152,1.847,28.731
					l1.764,28.735l0.085,1.386l-0.836,1.18l-16.78,23.68l-16.834,23.641l-16.875,23.611l-16.911,23.585l-11.186,15.6l3.269-18.91
					l7.007-40.523l7.117-40.504l7.232-40.485l3.666-20.234l3.716-20.225l3.715-20.225l1.859-10.112l1.906-10.104l3.812-20.209
					l3.83-20.206l3.906-20.193c1.302-6.731,2.595-13.464,3.94-20.187l4.004-20.176L890.076,11.161z M890.076,11.161l-2.826,20.378
					l-2.932,20.359c-0.966,6.788-1.984,13.567-2.994,20.348l-3.029,20.342l-3.104,20.329l-3.123,20.327l-1.561,10.163l-1.608,10.155
					l-3.22,20.31l-3.219,20.31l-3.269,20.301l-6.637,40.586l-6.752,40.566l-6.863,40.547l-7.916-3.31l16.939-23.565l16.974-23.539
					l17.016-23.51l17.07-23.47l-0.751,2.566l-1.291-28.76c-0.443-9.586-0.809-19.176-1.209-28.765l-1.179-28.766l-0.565-14.384
					l-0.521-14.387l-1.041-28.774l-0.91-28.78l-0.429-14.392l-0.39-14.393c-0.138-4.798-0.254-9.596-0.357-14.396L890.076,11.161z"
					/>
				<path style="clip-path:url(#SVGID_4_);" d="M987.779,270.292c2.156-0.485,4.315-0.952,6.476-1.405l6.481-1.371l12.978-2.621
					c2.161-0.444,4.329-0.853,6.494-1.276l6.497-1.255l13.004-2.44l13.013-2.369l13.023-2.307l13.031-2.241l13.041-2.178
					l12.363-2.065l-7.934,9.827l-0.523,0.649l-0.473,0.564l-0.938,1.078c-0.626,0.704-1.255,1.391-1.891,2.065
					c-1.268,1.35-2.567,2.651-3.885,3.918c-2.631,2.545-5.341,4.967-8.099,7.324c-5.513,4.711-11.261,9.092-17.152,13.238
					c-2.938,2.086-5.925,4.092-8.928,6.07c-3.017,1.956-6.057,3.872-9.134,5.723c-6.148,3.711-12.373,7.279-18.716,10.614
					c-6.336,3.347-12.75,6.53-19.224,9.572c-6.482,3.026-13.033,5.886-19.624,8.64c-6.583,2.774-13.251,5.329-19.94,7.809
					c-6.685,2.493-13.424,4.827-20.196,7.045l-5.083,1.65l-5.097,1.6c-3.392,1.086-6.814,2.069-10.227,3.081
					c-6.844,1.96-13.69,3.904-20.586,5.646l-5.168,1.32l-5.18,1.266c-3.448,0.865-6.916,1.644-10.38,2.434
					c-3.463,0.797-6.941,1.523-10.409,2.287c-3.473,0.742-6.958,1.426-10.438,2.131l-10.46,1.991
					c-3.497,0.61-6.987,1.249-10.486,1.835c-6.996,1.183-14.006,2.262-21.026,3.26c-3.515,0.468-7.019,0.992-10.539,1.415
					l-10.556,1.261c-7.037,0.822-14.093,1.487-21.151,2.084l20.747-4.516c6.905-1.524,13.795-3.095,20.678-4.671l10.311-2.41
					l10.288-2.477c6.851-1.676,13.681-3.414,20.504-5.169l10.209-2.716c3.393-0.937,6.796-1.835,10.18-2.801
					c6.767-1.93,13.54-3.821,20.259-5.888c3.368-1.005,6.718-2.061,10.077-3.091c3.353-1.043,6.695-2.126,10.035-3.204
					c6.662-2.216,13.328-4.409,19.931-6.773c6.601-2.368,13.191-4.756,19.72-7.291c6.532-2.529,13.025-5.15,19.468-7.871
					c6.444-2.722,12.83-5.57,19.157-8.528c6.336-2.941,12.605-6.015,18.787-9.243c6.175-3.237,12.302-6.557,18.3-10.085
					c5.996-3.528,11.908-7.186,17.669-11.047c5.762-3.859,11.364-7.932,16.764-12.21c2.69-2.147,5.329-4.352,7.858-6.64
					c1.269-1.14,2.504-2.307,3.712-3.478c0.604-0.587,1.193-1.178,1.768-1.771l0.841-0.887l0.726-0.803l4.428,7.762l-13.136,1.497
					l-13.146,1.434l-13.154,1.369l-13.163,1.306l-13.172,1.236l-6.592,0.582c-2.198,0.189-4.394,0.393-6.595,0.561l-13.198,1.054
					l-6.608,0.466C992.19,270.019,989.985,270.164,987.779,270.292"/>
			</g>
		</g>
	</g>
	<g>
		<path d="M162.629,188.611v-40.283c14.648,0,21.973,10.986,21.973,32.959v7.324c0,8.106,2.856,15.015,8.569,20.728
			s12.622,11.012,20.728,15.894c8.104-4.882,15.015-10.181,20.728-15.894s8.569-12.622,8.569-20.728v-7.324
			c0-21.973,7.324-32.959,21.973-32.959v40.283c0,14.162-5.006,26.247-15.015,36.255c-10.01,10.01-22.095,18.677-36.255,26.001
			c-14.161-7.324-26.246-15.991-36.255-26.001C167.633,214.857,162.629,202.772,162.629,188.611z"/>
		<path d="M359.841,163.342c10.009,10.01,15.015,22.095,15.015,36.255c0,14.162-5.006,26.247-15.015,36.255
			c-10.01,10.01-22.095,15.015-36.255,15.015c-14.161,0-26.246-5.005-36.255-15.015c-10.01-10.009-15.015-22.094-15.015-36.255
			c0-14.16,5.004-26.245,15.015-36.255c10.009-10.009,22.094-15.015,36.255-15.015C337.746,148.328,349.831,153.333,359.841,163.342
			z M323.586,170.3c-8.106,0-15.015,2.856-20.728,8.569s-8.569,12.623-8.569,20.728c0,8.106,2.856,15.015,8.569,20.728
			s12.622,8.569,20.728,8.569c8.104,0,15.015-2.856,20.728-8.569s8.569-12.622,8.569-20.728c0-8.104-2.856-15.015-8.569-20.728
			S331.69,170.3,323.586,170.3z"/>
		<path d="M382.004,148.328h21.973v43.945c0,39.064-7.324,58.594-21.973,58.594V148.328z"/>
		<path d="M433.098,228.895h80.566c0,14.648-19.532,21.973-58.594,21.973h-43.945v-102.54c14.648,0,21.973,19.532,21.973,58.594
			V228.895z"/>
		<path d="M608.703,148.328c0,14.648-19.532,21.973-58.594,21.973h-29.297v-21.973H608.703z M616.027,188.611
			c0,14.649-19.532,21.973-58.594,21.973h-36.621v-21.973H616.027z M623.352,228.895c0,14.648-19.532,21.973-58.594,21.973h-43.945
			v-21.973H623.352z"/>
	</g>
</g>
</svg>
