<?xml version="1.0" encoding="iso-8859-1"?>
<!-- Generator: Adobe Illustrator 19.1.0, SVG Export Plug-In . SVG Version: 6.00 Build 0)  -->
<svg version="1.1" id="Calque_2" xmlns="http://www.w3.org/2000/svg" xmlns:xlink="http://www.w3.org/1999/xlink" x="0px" y="0px"
	 viewBox="0 0 1200 400" style="enable-background:new 0 0 1200 400;" xml:space="preserve">
<g>
	<g>
		<g>
			<defs>
				<rect id="SVGID_1_" x="728.884" y="5.349" width="394.651" height="394.651"/>
			</defs>
			<clipPath id="SVGID_2_">
				<use xlink:href="#SVGID_1_"  style="overflow:visible;"/>
			</clipPath>
			<path style="clip-path:url(#SVGID_2_);" d="M1107.738,296.951V86.856V296.951z"/>
			<rect x="1104.22" y="86.855" style="clip-path:url(#SVGID_2_);" width="7.037" height="210.097"/>
			<path style="clip-path:url(#SVGID_2_);" d="M742.109,128.776V39.952V128.776z"/>
			<rect x="739.998" y="39.951" style="clip-path:url(#SVGID_2_);" width="4.222" height="88.824"/>
			<path style="clip-path:url(#SVGID_2_);" d="M822.995,128.776v-22.921V128.776z"/>
			<rect x="820.181" y="105.855" style="clip-path:url(#SVGID_2_);" width="5.629" height="22.921"/>
			<path style="clip-path:url(#SVGID_2_);" d="M918.991,296.951v-47.222V296.951z"/>
			<rect x="914.065" y="249.729" style="clip-path:url(#SVGID_2_);" width="9.852" height="47.223"/>
			<g style="clip-path:url(#SVGID_2_);">
				<defs>
					<rect id="SVGID_3_" x="728.884" y="5.349" width="394.651" height="394.651"/>
				</defs>
				<clipPath id="SVGID_4_">
					<use xlink:href="#SVGID_3_"  style="overflow:visible;"/>
				</clipPath>
				<path style="clip-path:url(#SVGID_4_);" d="M1107.739,158.33c0.504,5.776,0.915,11.551,1.373,17.328l1.219,17.328
					c0.197,2.888,0.417,5.776,0.585,8.664l0.538,8.663l1.073,17.328c0.207,2.887,0.32,5.775,0.257,8.663
					c-0.068,2.888-0.129,5.776-0.119,8.664v17.328v34.655v4.926h-4.926H918.991h-4.926v-4.926v-24.754v-4.977l5.099,0.054
					l0.743,0.009l0.822-0.005c0.553-0.003,1.113-0.016,1.681-0.038c1.126-0.024,2.272-0.101,3.409-0.158
					c1.144-0.084,2.288-0.16,3.433-0.261c1.146-0.116,2.292-0.214,3.439-0.343c4.589-0.493,9.169-1.243,13.726-2.099l3.414-0.678
					c1.137-0.234,2.266-0.508,3.4-0.759c2.271-0.486,4.516-1.089,6.768-1.665c1.129-0.276,2.247-0.596,3.362-0.923l3.352-0.966
					c2.23-0.661,4.434-1.41,6.653-2.109c2.204-0.747,4.389-1.553,6.584-2.325c2.181-0.813,4.338-1.693,6.509-2.534
					c4.302-1.784,8.581-3.632,12.773-5.67c1.048-0.508,2.117-0.974,3.149-1.515l3.107-1.605l3.107-1.603
					c1.04-0.525,2.039-1.131,3.06-1.692c2.023-1.159,4.083-2.253,6.077-3.463l5.969-3.652c1.984-1.227,3.898-2.566,5.85-3.842
					l2.913-1.939l2.841-2.047c1.885-1.377,3.807-2.703,5.662-4.12l5.521-4.311c1.872-1.399,3.593-2.987,5.346-4.531
					c0.878-0.77,1.76-1.534,2.675-2.261c0.907-0.736,1.857-1.423,2.756-2.173c3.625-2.958,7.367-5.814,10.851-8.968l5.315-4.651
					l5.138-4.857c3.502-3.177,6.749-6.608,10.104-9.96c1.699-1.658,3.27-3.43,4.875-5.176l4.835-5.24
					C1101.541,165.586,1104.583,161.926,1107.739,158.33 M1107.739,158.33c-2.507,4.054-5.006,8.135-7.61,12.154l-4.056,5.929
					c-1.365,1.971-2.701,3.97-4.171,5.865c-2.903,3.817-5.687,7.76-8.806,11.426l-4.603,5.58l-4.817,5.405
					c-3.162,3.665-6.612,7.056-9.969,10.564c-1.673,1.759-3.528,3.325-5.404,4.859c-1.897,1.508-3.738,3.082-5.67,4.547l-5.73,4.475
					c-1.927,1.47-3.922,2.85-5.88,4.279l-2.951,2.126l-3.028,2.017c-2.029,1.328-4.019,2.718-6.082,3.994l-6.209,3.799
					c-2.074,1.258-4.219,2.4-6.325,3.605c-1.064,0.585-2.104,1.213-3.186,1.761l-3.236,1.672l-3.236,1.67
					c-1.076,0.562-2.19,1.051-3.282,1.579c-4.369,2.124-8.831,4.053-13.32,5.913c-2.264,0.88-4.516,1.796-6.794,2.645
					c-2.293,0.808-4.574,1.649-6.877,2.429c-2.318,0.733-4.622,1.513-6.955,2.205l-3.507,1.011c-1.167,0.342-2.337,0.676-3.52,0.966
					c-2.358,0.604-4.71,1.233-7.093,1.744c-1.189,0.264-2.373,0.551-3.566,0.796l-3.587,0.713
					c-4.795,0.901-9.615,1.688-14.491,2.214c-1.218,0.138-2.443,0.243-3.664,0.366c-1.224,0.107-2.455,0.191-3.684,0.28
					c-1.238,0.062-2.468,0.143-3.721,0.172c-0.621,0.024-1.25,0.037-1.887,0.041l-0.962,0.006l-1.042-0.014l5.099-4.923v24.754
					l-4.926-4.926h188.747l-4.926,4.926v-34.655v-17.328c0.01-2.888-0.051-5.776-0.119-8.664c-0.063-2.888,0.05-5.776,0.256-8.663
					l1.073-17.328l0.538-8.663c0.168-2.888,0.387-5.776,0.585-8.664l1.219-17.328
					C1106.824,169.882,1107.234,164.106,1107.739,158.33"/>
				<path style="clip-path:url(#SVGID_4_);" d="M742.109,69.136c0.288,2.475,0.523,4.951,0.785,7.426l0.697,7.426
					c0.242,2.475,0.435,4.951,0.642,7.426l0.613,7.426c0.118,1.237,0.182,2.474,0.146,3.712c-0.038,1.238-0.073,2.475-0.068,3.713
					v7.426v14.852l-2.815-2.815h80.886l-2.815,2.815v-10.608l2.914,2.813c-0.654,0.012-1.159,0.006-1.714-0.013
					c-0.546-0.013-1.079-0.048-1.617-0.075c-1.068-0.07-2.128-0.165-3.182-0.28c-2.11-0.227-4.193-0.567-6.265-0.957
					c-2.071-0.392-4.12-0.87-6.153-1.405c-2.033-0.533-4.041-1.148-6.036-1.805l-2.968-1.048c-0.983-0.366-1.954-0.762-2.931-1.141
					c-1.937-0.803-3.862-1.635-5.747-2.551c-0.953-0.435-1.882-0.919-2.812-1.402c-0.931-0.479-1.865-0.954-2.77-1.481
					c-0.909-0.519-1.834-1.013-2.728-1.555l-2.678-1.639c-0.89-0.551-1.748-1.149-2.623-1.722l-1.306-0.87l-1.272-0.916
					c-0.845-0.616-1.705-1.212-2.535-1.845l-2.471-1.929c-0.833-0.633-1.63-1.305-2.453-1.95c-0.807-0.663-1.612-1.332-2.314-2.113
					c-1.418-1.543-2.876-3.034-4.209-4.641l-2.029-2.37l-1.935-2.442c-1.309-1.606-2.47-3.332-3.681-5.002
					c-0.613-0.828-1.169-1.702-1.737-2.562l-1.683-2.59C744.169,72.685,743.136,70.906,742.109,69.136 M742.109,69.136
					c1.399,1.508,2.741,3.047,4.134,4.537c1.448,1.446,2.797,2.961,4.268,4.366c1.47,1.403,2.894,2.837,4.422,4.164l2.24,2.03
					l2.313,1.939c1.515,1.315,3.141,2.501,4.713,3.729l1.19,0.906c0.392,0.306,0.761,0.641,1.14,0.964
					c0.74,0.664,1.47,1.346,2.267,1.94l2.351,1.836c0.791,0.604,1.609,1.168,2.411,1.754l1.209,0.872l1.241,0.826
					c0.831,0.543,1.646,1.114,2.49,1.635l2.541,1.555c0.848,0.515,1.725,0.98,2.587,1.474c0.858,0.5,1.742,0.95,2.624,1.403
					c0.88,0.458,1.76,0.916,2.662,1.328c1.784,0.867,3.604,1.654,5.434,2.412c0.923,0.358,1.841,0.732,2.769,1.079l2.801,0.989
					c1.88,0.618,3.772,1.199,5.685,1.7c1.911,0.503,3.836,0.952,5.773,1.318c1.935,0.364,3.881,0.682,5.827,0.892
					c0.972,0.106,1.944,0.193,2.911,0.256c0.48,0.024,0.965,0.056,1.439,0.067c0.463,0.019,0.978,0.02,1.344,0.014l2.914-0.039
					v2.853v10.608v2.815h-2.815h-80.886h-2.815v-2.815V113.69v-7.426c0.005-1.238-0.03-2.475-0.068-3.713
					c-0.036-1.238,0.028-2.475,0.146-3.712l0.613-7.426c0.207-2.475,0.399-4.951,0.642-7.426l0.697-7.426
					C741.586,74.087,741.821,71.611,742.109,69.136"/>
				<path style="clip-path:url(#SVGID_4_);" d="M890.638,84.363c0,0,0.407,0.072,1.196,0.211c0.785,0.152,1.96,0.365,3.471,0.725
					c3.025,0.707,7.451,1.858,12.955,3.837c2.756,0.98,5.78,2.171,9.015,3.643c1.617,0.736,3.298,1.525,5.017,2.406
					c1.712,0.891,3.472,1.857,5.269,2.912c3.602,2.098,7.318,4.606,11.042,7.621c3.736,2.999,7.434,6.573,10.836,10.855
					c1.698,2.141,3.328,4.455,4.797,6.972c1.457,2.519,2.77,5.229,3.864,8.111c1.095,2.881,1.969,5.933,2.566,9.1
					c0.125,0.796,0.25,1.595,0.376,2.396c0.089,0.807,0.179,1.617,0.27,2.429l0.085,1.224l0.042,0.615l0.021,0.308l0.009,0.155
					c-0.001,0.454,0.003,0.201,0.004,0.336l0.019,0.524c0.005,0.183,0.017,0.306,0.006,0.641l-0.024,0.862l-0.018,0.429
					l-0.028,0.377c-0.257,4.035-1.476,8.139-3.344,11.671c-1.871,3.551-4.287,6.567-6.835,9.172
					c-5.137,5.209-10.807,9.013-16.545,12.371c-5.752,3.337-11.624,6.202-17.531,8.891c-2.95,1.354-5.913,2.648-8.876,3.921
					c-2.945,1.254-5.904,2.514-8.875,3.778c-5.898,2.504-11.771,4.965-17.485,7.562c-5.721,2.571-11.293,5.278-16.514,8.198
					c-2.605,1.47-5.114,2.996-7.494,4.583c-2.373,1.59-4.586,3.277-6.614,5.004c-2.025,1.733-3.829,3.546-5.347,5.411
					c-1.533,1.856-2.78,3.764-3.725,5.721c-0.944,1.957-1.624,3.956-2.007,6.067c-0.196,1.055-0.313,2.135-0.381,3.242l-0.023,0.416
					l-0.006,0.104c0.001,0.29-0.009-0.283-0.008-0.165v0.297v1.188l0.002,1.167l0.043,0.818l0.031,0.818
					c0.002,0.264,0.053,0.619,0.076,0.923c0.069,0.634,0.087,1.264,0.193,1.902c0.088,0.638,0.155,1.274,0.254,1.913l0.332,1.919
					c0.503,2.561,1.188,5.125,1.987,7.678c0.792,2.554,1.789,5.075,2.834,7.577c1.041,2.505,2.242,4.953,3.472,7.381
					c2.456,4.861,5.287,9.509,8.214,13.972c2.921,4.478,5.977,8.756,9.098,12.809c3.081,4.088,6.208,7.963,9.311,11.623
					c3.069,3.694,6.127,7.16,9.08,10.433c2.93,3.299,5.809,6.35,8.522,9.226c5.43,5.752,10.323,10.665,14.383,14.704
					c4.07,4.03,7.323,7.168,9.549,9.311c2.241,2.135,3.436,3.273,3.436,3.273s-0.373-0.179-1.096-0.526
					c-0.719-0.354-1.794-0.871-3.167-1.594c-2.756-1.429-6.757-3.604-11.729-6.59c-4.977-2.978-10.913-6.781-17.538-11.457
					c-3.311-2.34-6.77-4.925-10.383-7.718c-3.591-2.817-7.297-5.882-11.109-9.179c-3.783-3.324-7.625-6.926-11.515-10.79
					c-3.857-3.892-7.697-8.107-11.505-12.631c-7.458-9.149-14.844-19.632-20.021-32.48c-1.288-3.211-2.411-6.568-3.326-10.07
					c-0.211-0.885-0.422-1.77-0.635-2.658c-0.197-0.893-0.361-1.806-0.539-2.713c-0.188-0.902-0.286-1.841-0.429-2.765
					c-0.062-0.477-0.14-0.899-0.186-1.422l-0.144-1.539l-0.133-1.544l-0.063-1.204l-0.06-1.186l-0.014-0.297l-0.008-0.655
					l-0.002-0.773c0.002-2.065,0.155-4.16,0.446-6.258c0.583-4.194,1.766-8.393,3.508-12.285c1.735-3.899,3.971-7.49,6.471-10.704
					c2.515-3.211,5.289-6.052,8.165-8.605c5.782-5.092,11.944-9.092,18.144-12.536c12.415-6.864,25.008-11.721,37.111-16.298
					c3.006-1.122,6.001-2.241,8.981-3.354c2.927-1.107,5.84-2.208,8.735-3.304c5.716-2.214,11.235-4.449,16.301-6.884
					c5.044-2.432,9.706-5.061,13.188-7.947c1.744-1.437,3.134-2.928,4.145-4.377c1.037-1.448,1.674-2.858,2.018-4.413l0.056-0.242
					l0.049-0.187c0.021-0.014,0.034-0.241,0.049-0.407l0.043-0.523c0.002,0.048,0.011-0.292,0.007,0.075l0.004-0.107l0.009-0.215
					l0.019-0.429l0.04-0.856c0.002-0.57,0.004-1.137,0.005-1.703c-0.023-0.565-0.046-1.129-0.069-1.689
					c-0.118-2.246-0.44-4.458-0.946-6.616c-0.505-2.159-1.194-4.264-2.036-6.297c-0.832-2.039-1.796-4.02-2.886-5.913
					c-1.087-1.895-2.287-3.708-3.563-5.435c-1.272-1.729-2.598-3.393-3.984-4.958c-1.381-1.568-2.806-3.052-4.246-4.456
					c-1.438-1.407-2.874-2.759-4.324-4.014c-2.894-2.517-5.763-4.748-8.487-6.747c-1.362-0.999-2.7-1.921-3.991-2.793
					c-1.283-0.883-2.53-1.699-3.724-2.462c-4.785-3.037-8.716-5.234-11.428-6.681C892.134,85.068,890.638,84.363,890.638,84.363"/>
			</g>
		</g>
	</g>
	<g>
		<path d="M74.879,121.389c2.031,0,3.759-0.712,5.186-2.139c1.425-1.425,2.139-3.154,2.139-5.186c0-2.031-0.713-3.759-2.139-5.186
			c-1.426-1.425-3.155-2.139-5.186-2.139H35.328v17.578c0,31.251-5.859,46.875-17.578,46.875V89.162h57.129
			c6.875,0,12.744,2.432,17.607,7.295s7.295,10.733,7.295,17.607c0,6.172-1.973,11.543-5.918,16.113
			c3.945,4.57,5.918,9.941,5.918,16.113c0,6.876-2.432,12.744-7.295,17.607s-10.733,7.295-17.607,7.295H35.328
			c0-11.719,7.812-17.578,23.438-17.578h16.113c2.031,0,3.759-0.712,5.186-2.139c1.425-1.426,2.139-3.154,2.139-5.186
			c0-2.03-0.713-3.759-2.139-5.186c-1.426-1.426-3.155-2.139-5.186-2.139H35.328c0-11.719,7.812-17.578,23.438-17.578H74.879z"/>
		<path d="M175.52,101.174c8.007,8.008,12.012,17.676,12.012,29.004c0,11.329-4.004,20.997-12.012,29.004
			c-8.008,8.008-17.676,12.012-29.004,12.012c-11.329,0-20.997-4.004-29.004-12.012c-8.008-8.007-12.012-17.675-12.012-29.004
			c0-11.328,4.003-20.996,12.012-29.004c8.007-8.007,17.675-12.012,29.004-12.012C157.843,89.162,167.511,93.167,175.52,101.174z
			 M146.516,106.74c-6.485,0-12.012,2.285-16.582,6.855s-6.855,10.098-6.855,16.582c0,6.485,2.285,12.012,6.855,16.582
			s10.097,6.855,16.582,6.855c6.484,0,12.012-2.285,16.582-6.855s6.855-10.097,6.855-16.582c0-6.484-2.285-12.012-6.855-16.582
			S153,106.74,146.516,106.74z"/>
		<path d="M257.527,127.248c-0.586-5.234-2.812-9.785-6.68-13.652c-4.57-4.57-10.098-6.855-16.582-6.855
			c-6.485,0-12.012,2.285-16.582,6.855s-6.855,10.098-6.855,16.582v14.648c0,17.578-5.859,26.367-17.578,26.367v-41.016
			c0-11.328,4.003-20.996,12.012-29.004c8.007-8.007,17.675-12.012,29.004-12.012c11.328,0,20.996,4.004,29.004,12.012
			c8.007,8.008,12.012,17.676,12.012,29.004v41.016c-11.719,0-17.578-8.789-17.578-26.367v-0.762
			c-19.532-1.953-29.297-7.559-29.297-16.816H257.527z"/>
		<path d="M318.383,138.967h-19.805c0-11.719,7.812-17.578,23.438-17.578h16.113c2.031,0,3.759-0.712,5.186-2.139
			c1.425-1.425,2.139-3.154,2.139-5.186c0-2.031-0.713-3.759-2.139-5.186c-1.426-1.425-3.155-2.139-5.186-2.139h-39.551v17.578
			c0,31.251-5.859,46.875-17.578,46.875V89.162h57.129c6.875,0,12.744,2.432,17.607,7.295s7.295,10.733,7.295,17.607
			c0,6.875-2.422,12.735-7.266,17.578c-3.75,3.75-8.067,6.055-12.949,6.914c13.477,13.477,20.215,28.497,20.215,45.059
			L318.383,138.967z"/>
		<path d="M409.766,171.193h-23.438c0-11.719,7.812-17.578,23.438-17.578c6.484,0,12.012-2.285,16.582-6.855
			s6.855-10.097,6.855-16.582c0-6.484-2.285-12.012-6.855-16.582s-10.098-6.855-16.582-6.855h-23.438v43.945
			c0,13.673-5.859,20.508-17.578,20.508V89.162h41.016c11.328,0,20.996,4.004,29.004,12.012
			c8.007,8.008,12.012,17.676,12.012,29.004c0,11.329-4.004,20.997-12.012,29.004C430.761,167.189,421.093,171.193,409.766,171.193z
			"/>
		<path d="M526.812,89.162c0,11.719-15.625,17.578-46.875,17.578H456.5V89.162H526.812z M532.672,121.389
			c0,11.719-15.625,17.578-46.875,17.578H456.5v-17.578H532.672z M538.531,153.615c0,11.719-15.625,17.578-46.875,17.578H456.5
			v-17.578H538.531z"/>
		<path d="M581.633,138.967h-19.805c0-11.719,7.812-17.578,23.438-17.578h16.113c2.03,0,3.759-0.712,5.186-2.139
			c1.425-1.425,2.139-3.154,2.139-5.186c0-2.031-0.714-3.759-2.139-5.186c-1.427-1.425-3.155-2.139-5.186-2.139h-39.551v17.578
			c0,31.251-5.859,46.875-17.578,46.875V89.162h57.129c6.874,0,12.744,2.432,17.607,7.295s7.295,10.733,7.295,17.607
			c0,6.875-2.423,12.735-7.266,17.578c-3.75,3.75-8.067,6.055-12.949,6.914c13.477,13.477,20.215,28.497,20.215,45.059
			L581.633,138.967z"/>
		<path d="M133.332,207.654h51.27c0,14.648-10.986,21.973-32.959,21.973h-18.311c-8.106,0-15.015,2.856-20.728,8.569
			s-8.569,12.623-8.569,20.728c0,8.105,2.856,15.015,8.569,20.728s12.622,8.569,20.728,8.569h18.311
			c21.973,0,32.959,7.324,32.959,21.973h-51.27c-14.161,0-26.246-5.005-36.255-15.015c-10.01-10.009-15.015-22.094-15.015-36.255
			c0-14.16,5.004-26.245,15.015-36.255C107.086,212.66,119.171,207.654,133.332,207.654z"/>
		<path d="M238.479,269.91h-24.756c0-14.648,9.765-21.973,29.297-21.973h20.142c2.538,0,4.699-0.891,6.482-2.674
			c1.782-1.781,2.673-3.942,2.673-6.481c0-2.538-0.892-4.699-2.673-6.481c-1.783-1.782-3.944-2.674-6.482-2.674h-49.438V251.6
			c0,39.063-7.324,58.594-21.973,58.594V207.654h71.411c8.593,0,15.93,3.039,22.009,9.119c6.079,6.078,9.119,13.415,9.119,22.009
			c0,8.595-3.028,15.919-9.082,21.973c-4.688,4.688-10.083,7.569-16.187,8.643c16.846,16.846,25.269,35.621,25.269,56.323
			L238.479,269.91z"/>
		<path d="M388.962,222.669c10.009,10.01,15.015,22.095,15.015,36.255c0,14.161-5.006,26.246-15.015,36.255
			c-10.01,10.01-22.095,15.015-36.255,15.015c-14.161,0-26.246-5.005-36.255-15.015c-10.01-10.009-15.015-22.094-15.015-36.255
			c0-14.16,5.004-26.245,15.015-36.255c10.009-10.009,22.094-15.015,36.255-15.015C366.867,207.654,378.952,212.66,388.962,222.669z
			 M352.707,229.627c-8.106,0-15.015,2.856-20.728,8.569s-8.569,12.623-8.569,20.728c0,8.105,2.856,15.015,8.569,20.728
			s12.622,8.569,20.728,8.569c8.104,0,15.015-2.856,20.728-8.569s8.569-12.622,8.569-20.728c0-8.104-2.856-15.015-8.569-20.728
			S360.812,229.627,352.707,229.627z"/>
		<path d="M482.536,247.938c8.593,0,15.93,3.039,22.009,9.119c6.079,6.078,9.119,13.415,9.119,22.009
			c0,8.595-3.04,15.931-9.119,22.009c-6.079,6.08-13.416,9.119-22.009,9.119h-71.411c0-14.648,13.427-21.973,40.283-21.973h31.128
			c2.538,0,4.699-0.891,6.482-2.674c1.782-1.781,2.673-3.942,2.673-6.481c0-2.538-0.892-4.699-2.673-6.481
			c-1.783-1.782-3.944-2.674-6.482-2.674h-40.283c-8.595,0-15.93-3.039-22.009-9.119c-6.079-6.078-9.119-13.414-9.119-22.009
			c0-8.594,3.04-15.931,9.119-22.009c6.079-6.08,13.415-9.119,22.009-9.119h71.411c0,14.648-13.429,21.973-40.283,21.973h-31.128
			c-2.54,0-4.7,0.892-6.482,2.674c-1.783,1.782-2.673,3.943-2.673,6.481c0,2.539,0.89,4.7,2.673,6.481
			c1.782,1.783,3.942,2.674,6.482,2.674H482.536z"/>
		<path d="M592.224,247.938c8.593,0,15.93,3.039,22.009,9.119c6.079,6.078,9.119,13.415,9.119,22.009
			c0,8.595-3.04,15.931-9.119,22.009c-6.079,6.08-13.416,9.119-22.009,9.119h-71.411c0-14.648,13.427-21.973,40.283-21.973h31.128
			c2.538,0,4.699-0.891,6.482-2.674c1.782-1.781,2.673-3.942,2.673-6.481c0-2.538-0.892-4.699-2.673-6.481
			c-1.783-1.782-3.944-2.674-6.482-2.674H551.94c-8.595,0-15.93-3.039-22.009-9.119c-6.079-6.078-9.119-13.414-9.119-22.009
			c0-8.594,3.04-15.931,9.119-22.009c6.079-6.08,13.415-9.119,22.009-9.119h71.411c0,14.648-13.429,21.973-40.283,21.973H551.94
			c-2.54,0-4.7,0.892-6.482,2.674c-1.783,1.782-2.673,3.943-2.673,6.481c0,2.539,0.89,4.7,2.673,6.481
			c1.782,1.783,3.942,2.674,6.482,2.674H592.224z"/>
	</g>
</g>
</svg>
