<?xml version="1.0" encoding="iso-8859-1"?>
<!-- Generator: Adobe Illustrator 19.1.0, SVG Export Plug-In . SVG Version: 6.00 Build 0)  -->
<svg version="1.1" id="Calque_2" xmlns="http://www.w3.org/2000/svg" xmlns:xlink="http://www.w3.org/1999/xlink" x="0px" y="0px"
	 viewBox="0 0 1200 400" style="enable-background:new 0 0 1200 400;" xml:space="preserve">
<g>
	<g>
		<g>
			<defs>
				<rect id="SVGID_1_" x="785.602" y="58.242" width="283.516" height="283.516"/>
			</defs>
			<clipPath id="SVGID_2_">
				<use xlink:href="#SVGID_1_"  style="overflow:visible;"/>
			</clipPath>
			<g style="clip-path:url(#SVGID_2_);">
				<defs>
					<rect id="SVGID_3_" x="785.602" y="58.242" width="283.516" height="283.516"/>
				</defs>
				<clipPath id="SVGID_4_">
					<use xlink:href="#SVGID_3_"  style="overflow:visible;"/>
				</clipPath>
				<path style="clip-path:url(#SVGID_4_);" d="M805.456,237.71c0,0-0.164-0.62-0.481-1.822c-0.307-1.204-0.781-2.989-1.322-5.334
					c-0.547-2.344-1.204-5.241-1.911-8.666c-0.709-3.427-1.457-7.38-2.069-11.876c-0.14-1.127-0.312-2.279-0.422-3.479
					c-0.06-0.599-0.12-1.206-0.182-1.82c-0.04-0.62-0.081-1.249-0.122-1.884l-0.031-0.479l-0.008-0.12l-0.002-0.17l-0.005-0.234
					c-0.006-0.314-0.012-0.628-0.018-0.945c-0.012-0.634-0.024-1.275-0.036-1.922c-0.012-0.648-0.024-1.303-0.037-1.965
					c-0.016-0.66-0.031-1.328,0.008-2.028c0.106-2.771,0.141-5.696,0.486-8.646c0.07-0.743,0.139-1.493,0.21-2.249
					c0.037-0.378,0.074-0.758,0.112-1.14c0.056-0.379,0.111-0.76,0.167-1.143c0.225-1.532,0.454-3.09,0.686-4.673
					c1.111-6.307,2.802-12.948,5.186-19.768c2.372-6.825,5.57-13.77,9.542-20.668c7.959-13.769,19.249-27.329,33.874-38.535
					c7.294-5.612,15.427-10.577,24.206-14.735c8.773-4.174,18.265-7.414,28.217-9.459c1.246-0.247,2.494-0.496,3.746-0.744
					c1.251-0.247,2.524-0.39,3.791-0.589c1.27-0.172,2.537-0.4,3.818-0.525c1.283-0.117,2.569-0.234,3.856-0.35l1.934-0.171
					l1.944-0.077c1.299-0.048,2.599-0.095,3.902-0.143l0.488-0.017c0.163-0.002-0.018-0.009,0.426-0.006l0.23,0.003l0.922,0.013
					l1.845,0.025l1.849,0.026c0.627,0.015,1.204-0.001,1.9,0.055c1.344,0.085,2.69,0.17,4.038,0.255l2.023,0.135l1.962,0.223
					c1.309,0.15,2.62,0.301,3.933,0.452c1.31,0.17,2.611,0.416,3.92,0.622c5.239,0.827,10.411,2.153,15.553,3.626
					c1.272,0.413,2.546,0.826,3.821,1.239l1.912,0.625l1.884,0.711c1.255,0.476,2.513,0.953,3.77,1.431
					c1.243,0.513,2.472,1.064,3.71,1.597c2.495,1.025,4.882,2.291,7.314,3.47c1.214,0.595,2.371,1.298,3.56,1.944
					c1.172,0.675,2.384,1.286,3.519,2.026c9.251,5.628,17.961,12.286,25.603,20.049l2.852,2.922l2.709,3.055l1.352,1.529
					c0.441,0.518,0.857,1.057,1.287,1.584l2.554,3.183c3.26,4.353,6.389,8.811,9.084,13.523c2.805,4.647,5.148,9.544,7.324,14.481
					c2.024,5.003,3.923,10.048,5.317,15.223c0.351,1.292,0.756,2.568,1.057,3.869c0.297,1.302,0.594,2.603,0.891,3.902l0.442,1.948
					l0.345,1.964c0.229,1.309,0.456,2.616,0.684,3.921c0.229,1.305,0.333,2.626,0.504,3.935c0.146,1.312,0.327,2.619,0.441,3.93
					c0.087,1.312,0.175,2.623,0.262,3.932c0.083,1.309,0.193,2.614,0.187,3.92c0.019,1.306,0.039,2.609,0.058,3.911l0.014,0.975
					l0.006,0.488l-0.002,0.413l-0.008,0.231l-0.065,1.841c-0.043,1.227-0.086,2.451-0.129,3.674
					c-0.015,0.311-0.014,0.599-0.04,0.929l-0.078,0.986l-0.158,1.97c-0.109,1.31-0.219,2.619-0.328,3.924
					c-0.17,1.268-0.34,2.535-0.51,3.799l-0.257,1.892l-0.13,0.944l-0.173,0.938c-0.231,1.249-0.462,2.495-0.692,3.738l-0.347,1.862
					l-0.433,1.842c-0.29,1.226-0.578,2.448-0.867,3.669l-0.218,0.914l-0.259,0.903l-0.518,1.802
					c-0.348,1.198-0.693,2.394-1.039,3.587c-0.401,1.176-0.802,2.349-1.202,3.519c-0.416,1.165-0.764,2.348-1.245,3.482
					c-0.46,1.141-0.918,2.279-1.375,3.414l-0.691,1.696l-0.764,1.661c-4.009,8.866-8.888,17.096-14.48,24.45
					c-5.581,7.364-11.836,13.868-18.456,19.435c-6.626,5.562-13.571,10.243-20.587,14.033c-0.883,0.462-1.762,0.92-2.636,1.377
					c-0.872,0.459-1.738,0.916-2.632,1.308c-1.777,0.802-3.504,1.654-5.26,2.383c-1.764,0.706-3.508,1.404-5.23,2.094
					c-1.753,0.6-3.484,1.194-5.193,1.78c-6.891,2.168-13.568,3.656-19.886,4.621c-1.584,0.204-3.143,0.404-4.675,0.6
					c-0.763,0.112-1.526,0.172-2.283,0.229c-0.755,0.06-1.504,0.119-2.247,0.178c-2.962,0.3-5.834,0.301-8.579,0.386
					c-0.686,0.029-1.366,0.02-2.039,0c-0.672-0.015-1.338-0.029-1.996-0.043c-1.327-0.034-2.577-0.044-3.88-0.097
					c-1.242-0.083-2.432-0.132-3.636-0.246c-1.2-0.12-2.381-0.204-3.505-0.346c-4.512-0.507-8.494-1.185-11.93-1.884
					c-3.437-0.691-6.33-1.394-8.665-1.993c-2.336-0.596-4.105-1.127-5.296-1.488c-1.185-0.375-1.797-0.569-1.797-0.569
					s2.519,0.506,7.269,1.172c4.742,0.671,11.749,1.464,20.617,1.612c1.11,0.029,2.231-0.006,3.386-0.006
					c1.153-0.01,2.382-0.07,3.615-0.1c1.171-0.062,2.453-0.168,3.715-0.253c0.636-0.045,1.279-0.09,1.928-0.136
					c0.65-0.04,1.305-0.091,1.965-0.182c2.639-0.335,5.388-0.578,8.204-1.099c0.705-0.116,1.416-0.232,2.133-0.35
					c0.718-0.114,1.441-0.231,2.161-0.401c1.444-0.31,2.912-0.625,4.404-0.946c5.927-1.435,12.14-3.276,18.443-5.809
					c6.305-2.518,12.689-5.725,18.95-9.659c6.259-3.932,12.412-8.58,18.163-14.025c5.756-5.431,11.177-11.595,15.884-18.519
					c4.721-6.907,8.86-14.473,12.124-22.598l0.629-1.517l0.556-1.552c0.369-1.036,0.74-2.074,1.111-3.115
					c0.403-1.029,0.676-2.108,1.017-3.164c0.326-1.061,0.653-2.125,0.982-3.191c0.275-1.082,0.551-2.167,0.827-3.253l0.416-1.631
					l0.208-0.817l0.168-0.828c0.223-1.104,0.447-2.21,0.671-3.319l0.339-1.663l0.256-1.684c0.171-1.123,0.343-2.248,0.516-3.376
					l0.13-0.845l0.088-0.853l0.175-1.708c0.119-1.139,0.239-2.28,0.358-3.423c0.066-1.117,0.134-2.236,0.201-3.357l0.103-1.681
					l0.053-0.841c0.019-0.28,0.011-0.604,0.019-0.904c0.015-1.224,0.03-2.449,0.045-3.676l0.023-1.843l0.003-0.23
					c0.003-0.117-0.007,0.18-0.007-0.048l-0.017-0.435l-0.033-0.87c-0.044-1.16-0.087-2.323-0.131-3.487
					c-0.016-1.165-0.146-2.324-0.247-3.486c-0.103-1.162-0.206-2.325-0.309-3.49c-0.127-1.161-0.319-2.317-0.475-3.477
					c-0.179-1.157-0.291-2.327-0.523-3.477c-0.218-1.152-0.437-2.306-0.656-3.461l-0.326-1.733l-0.418-1.715
					c-0.277-1.144-0.555-2.29-0.832-3.436c-0.279-1.146-0.66-2.265-0.983-3.402c-1.285-4.55-3.032-8.968-4.865-13.35
					c-2.001-4.309-4.065-8.613-6.557-12.691c-2.384-4.14-5.167-8.045-8.048-11.869l-2.265-2.791
					c-0.38-0.463-0.746-0.938-1.137-1.392l-1.199-1.34l-2.396-2.683l-2.521-2.568c-6.698-6.877-14.366-12.779-22.508-17.791
					c-8.174-4.972-16.918-8.925-25.923-11.825c-1.128-0.354-2.27-0.657-3.403-0.989c-1.136-0.318-2.261-0.68-3.414-0.921
					c-1.147-0.269-2.292-0.539-3.437-0.807c-0.57-0.142-1.144-0.269-1.723-0.363l-1.729-0.324c-1.154-0.208-2.3-0.457-3.457-0.633
					c-1.16-0.159-2.317-0.318-3.473-0.477l-1.734-0.241l-1.685-0.147c-1.123-0.101-2.244-0.202-3.364-0.302
					c-0.534-0.066-1.193-0.066-1.799-0.094l-1.847-0.067l-1.844-0.067l-0.921-0.033l-0.23-0.009
					c0.291,0.005-0.043,0.003-0.034,0.006l-0.431,0.007c-1.151,0.016-2.3,0.033-3.448,0.05l-1.72,0.026l-1.714,0.116
					c-1.143,0.075-2.283,0.149-3.422,0.223c-1.139,0.073-2.268,0.246-3.399,0.361c-1.128,0.143-2.264,0.227-3.383,0.414
					c-1.119,0.187-2.236,0.373-3.351,0.558l-1.673,0.276l-1.653,0.36c-1.102,0.24-2.201,0.48-3.297,0.72
					c-1.101,0.226-2.17,0.57-3.254,0.848c-1.078,0.3-2.163,0.567-3.23,0.891c-4.248,1.35-8.441,2.777-12.465,4.523
					c-8.081,3.412-15.611,7.673-22.529,12.442c-6.931,4.765-13.129,10.193-18.674,15.884c-5.547,5.698-10.343,11.761-14.459,17.919
					c-8.288,12.318-13.433,25.171-16.527,36.925c-0.346,1.483-0.686,2.942-1.02,4.377c-0.084,0.359-0.167,0.717-0.251,1.073
					c-0.074,0.358-0.13,0.717-0.196,1.074c-0.127,0.714-0.253,1.422-0.378,2.124c-0.562,2.815-0.832,5.508-1.185,8.118
					c-0.099,0.644-0.146,1.312-0.19,1.974c-0.048,0.661-0.096,1.314-0.143,1.96c-0.047,0.646-0.094,1.285-0.139,1.917
					c-0.023,0.316-0.046,0.631-0.069,0.943l-0.017,0.234c-0.002,0.015-0.007,0.13-0.007,0.064l-0.003,0.113l-0.012,0.452
					c-0.095,2.397-0.045,4.732,0.024,6.945c0.382,8.873,1.185,15.896,1.738,20.657C805.105,235.167,805.456,237.71,805.456,237.71"
					/>
				<path style="clip-path:url(#SVGID_4_);" d="M810.063,161.399c0,0,0.091-0.188,0.267-0.553c0.186-0.359,0.413-0.919,0.803-1.598
					c0.849-1.331,2.143-3.339,4.238-5.447c0.995-1.124,2.244-2.185,3.567-3.411c1.377-1.138,2.873-2.39,4.557-3.587
					c0.831-0.619,1.694-1.255,2.617-1.845c0.917-0.602,1.853-1.242,2.832-1.864c1.972-1.212,4.066-2.471,6.299-3.677
					c0.557-0.307,1.119-0.617,1.688-0.93c0.577-0.293,1.16-0.589,1.748-0.887c1.181-0.587,2.375-1.217,3.611-1.801
					c1.241-0.573,2.503-1.157,3.784-1.749c1.283-0.593,2.609-1.125,3.943-1.703c0.669-0.284,1.342-0.57,2.02-0.858
					c0.685-0.266,1.374-0.534,2.068-0.803c1.39-0.531,2.792-1.09,4.22-1.618c2.863-1.033,5.8-2.07,8.816-3.015
					c6.014-1.96,12.315-3.689,18.762-5.23c1.614-0.375,3.235-0.751,4.861-1.128c1.626-0.375,3.267-0.693,4.91-1.026
					c3.281-0.691,6.596-1.253,9.906-1.852c3.315-0.562,6.645-1.019,9.955-1.52c1.66-0.208,3.317-0.416,4.968-0.624
					c1.654-0.194,3.3-0.412,4.945-0.562c3.289-0.32,6.547-0.695,9.78-0.886c3.23-0.222,6.416-0.499,9.56-0.597
					c6.279-0.322,12.355-0.417,18.11-0.408c2.879,0.045,5.677,0.045,8.382,0.125c2.704,0.109,5.316,0.216,7.823,0.318
					c1.253,0.05,2.479,0.132,3.677,0.215c1.198,0.083,2.367,0.165,3.508,0.244c2.279,0.185,4.441,0.298,6.469,0.529
					c4.055,0.423,7.585,0.76,10.483,1.168c2.9,0.387,5.171,0.752,6.72,0.975c1.547,0.245,2.372,0.376,2.372,0.376
					s-0.835,0.057-2.399,0.165c-1.563,0.084-3.855,0.248-6.764,0.377c-2.905,0.16-6.433,0.356-10.48,0.58
					c-2.02,0.091-4.168,0.251-6.43,0.391c-2.262,0.158-4.639,0.236-7.116,0.441c-2.476,0.171-5.054,0.349-7.722,0.534
					c-2.663,0.211-5.417,0.428-8.247,0.652c-2.829,0.198-5.728,0.505-8.693,0.762c-2.964,0.255-5.986,0.575-9.058,0.89
					c-3.074,0.298-6.189,0.682-9.344,1.034c-0.789,0.09-1.579,0.18-2.372,0.27c-0.791,0.105-1.584,0.211-2.38,0.317
					c-1.591,0.2-3.191,0.401-4.797,0.604c-3.212,0.399-6.428,0.939-9.674,1.357c-3.23,0.514-6.479,0.996-9.712,1.561
					c-3.234,0.557-6.476,1.078-9.677,1.725c-1.605,0.306-3.206,0.612-4.803,0.916c-1.591,0.328-3.178,0.654-4.758,0.979
					c-1.585,0.308-3.146,0.684-4.706,1.031c-1.559,0.35-3.12,0.669-4.655,1.039c-3.068,0.753-6.111,1.465-9.076,2.255
					c-2.984,0.735-5.868,1.61-8.723,2.38c-1.419,0.407-2.811,0.845-4.194,1.259c-1.386,0.407-2.742,0.844-4.077,1.28
					c-5.364,1.697-10.356,3.522-14.902,5.356c-4.56,1.809-8.639,3.699-12.161,5.547c-1.791,0.887-3.361,1.866-4.87,2.716
					c-1.432,0.936-2.805,1.756-3.931,2.625c-0.568,0.429-1.147,0.802-1.624,1.218c-0.489,0.409-0.949,0.792-1.376,1.148
					c-0.448,0.348-0.784,0.718-1.119,1.048c-0.335,0.335-0.638,0.64-0.911,0.912c-0.512,0.587-0.875,1.072-1.135,1.381
					C810.194,161.236,810.063,161.399,810.063,161.399"/>
				<path style="clip-path:url(#SVGID_4_);" d="M802.525,184.106c0,0,0.075-0.222,0.22-0.652c0.083-0.211,0.213-0.465,0.359-0.779
					c0.162-0.299,0.362-0.639,0.606-1.014c0.996-1.478,2.698-3.504,5.193-5.7c2.478-2.213,5.654-4.713,9.493-7.273
					c3.831-2.573,8.299-5.25,13.307-7.91c5.005-2.667,10.553-5.309,16.524-7.858c5.977-2.534,12.374-4.986,19.091-7.226
					c1.675-0.573,3.374-1.119,5.087-1.665c1.72-0.522,3.448-1.064,5.197-1.57c3.491-1.04,7.048-2.013,10.651-2.925
					c7.198-1.853,14.588-3.414,22.009-4.788c7.43-1.325,14.898-2.423,22.279-3.226c3.687-0.429,7.355-0.764,10.982-1.031
					c3.626-0.281,7.21-0.515,10.74-0.653c7.057-0.318,13.885-0.379,20.351-0.268c6.466,0.12,12.572,0.416,18.192,0.853
					c1.405,0.101,2.78,0.218,4.122,0.345c1.343,0.125,2.654,0.231,3.931,0.368c2.552,0.298,4.973,0.52,7.24,0.84
					c4.537,0.569,8.473,1.21,11.707,1.756c3.236,0.523,5.761,1.057,7.483,1.4c1.719,0.359,2.636,0.551,2.636,0.551
					s-0.937-0.004-2.693-0.012c-0.877-0.011-1.957-0.026-3.228-0.042c-1.272,0.005-2.731-0.006-4.363-0.029
					c-1.631-0.03-3.44-0.016-5.405-0.013c-1.964,0.008-4.087,0.016-6.356,0.025c-4.533,0.028-9.642,0.103-15.203,0.272
					c-5.561,0.146-11.575,0.407-17.922,0.781c-6.347,0.366-13.025,0.868-19.916,1.512c-3.444,0.338-6.944,0.677-10.479,1.088
					c-1.768,0.201-3.546,0.408-5.328,0.646c-1.787,0.209-3.579,0.438-5.377,0.685c-7.188,0.992-14.477,2.08-21.72,3.423
					c-7.252,1.289-14.465,2.784-21.534,4.389c-1.763,0.419-3.519,0.836-5.266,1.252c-1.749,0.41-3.483,0.843-5.204,1.28
					c-3.442,0.877-6.831,1.794-10.157,2.719c-6.647,1.869-13.028,3.839-19.027,5.866c-5.996,2.032-11.621,4.101-16.743,6.181
					c-2.57,1.023-5.002,2.072-7.307,3.093c-2.311,1.009-4.465,2.043-6.485,3.027c-4.028,1.989-7.471,3.872-10.177,5.62
					c-1.36,0.868-2.517,1.714-3.52,2.464c-0.992,0.763-1.779,1.477-2.385,2.092c-0.295,0.312-0.545,0.601-0.761,0.849
					c-0.193,0.26-0.37,0.476-0.495,0.666C802.644,183.904,802.525,184.106,802.525,184.106"/>
				<path style="clip-path:url(#SVGID_4_);" d="M840.424,295.083c0,0,0.649-0.372,1.896-1.009c1.253-0.62,3.082-1.568,5.467-2.634
					c2.379-1.085,5.295-2.342,8.682-3.678c3.383-1.35,7.243-2.757,11.49-4.197c4.25-1.431,8.894-2.858,13.846-4.241
					c4.957-1.355,10.214-2.7,15.701-3.872c1.371-0.293,2.75-0.615,4.148-0.891c1.399-0.268,2.809-0.539,4.227-0.811
					c2.832-0.573,5.721-1.023,8.629-1.508c1.454-0.239,2.92-0.437,4.388-0.658c1.469-0.214,2.94-0.445,4.421-0.617
					c2.964-0.337,5.932-0.743,8.915-1.025c2.983-0.27,5.963-0.568,8.943-0.755c2.975-0.232,5.943-0.392,8.891-0.496
					c1.473-0.061,2.94-0.121,4.4-0.181c1.461-0.018,2.915-0.035,4.36-0.052c1.445-0.016,2.88-0.031,4.306-0.046
					c1.426,0.004,2.842,0.048,4.245,0.071c1.403,0.029,2.794,0.057,4.173,0.085c1.378,0.034,2.742,0.114,4.092,0.184
					c2.698,0.153,5.336,0.24,7.9,0.487c2.563,0.233,5.056,0.395,7.461,0.669c2.401,0.288,4.721,0.566,6.948,0.832
					c1.112,0.13,2.198,0.307,3.258,0.469c1.06,0.166,2.096,0.327,3.105,0.485c2.015,0.343,3.931,0.6,5.715,0.982
					c1.787,0.359,3.458,0.677,4.999,1.004c1.541,0.322,2.956,0.598,4.224,0.93c2.541,0.61,4.524,1.149,5.878,1.491
					c1.35,0.364,2.07,0.559,2.07,0.559s-0.747-0.008-2.147-0.022c-1.397-0.037-3.448-0.052-6.041-0.149
					c-2.593-0.093-5.751-0.086-9.349-0.191c-1.798-0.06-3.717-0.044-5.735-0.061c-2.019,0.003-4.133-0.083-6.345-0.048
					c-2.207,0.008-4.507,0.017-6.887,0.026c-2.378,0.012-4.836,0.078-7.358,0.116c-2.523,0.02-5.114,0.117-7.76,0.202
					c-1.322,0.04-2.659,0.08-4.008,0.12c-1.349,0.062-2.71,0.124-4.083,0.187c-1.372,0.06-2.756,0.12-4.15,0.181
					c-1.393,0.081-2.795,0.162-4.206,0.244c-2.822,0.151-5.675,0.345-8.55,0.552c-1.437,0.107-2.881,0.187-4.326,0.316
					c-1.445,0.136-2.896,0.252-4.349,0.367c-2.908,0.207-5.818,0.535-8.732,0.815c-2.917,0.247-5.822,0.618-8.723,0.92
					c-2.896,0.349-5.781,0.697-8.643,1.042c-5.715,0.768-11.346,1.512-16.778,2.367c-5.438,0.823-10.685,1.706-15.662,2.573
					c-2.487,0.441-4.908,0.873-7.244,1.315c-2.345,0.413-4.596,0.876-6.769,1.287c-8.675,1.695-15.902,3.261-20.965,4.406
					c-2.531,0.575-4.527,1.023-5.882,1.356C841.149,294.908,840.424,295.083,840.424,295.083"/>
				<path style="clip-path:url(#SVGID_4_);" d="M857.385,307.647c0,0,0.134-0.079,0.393-0.231c0.259-0.154,0.645-0.376,1.16-0.65
					c1.025-0.56,2.537-1.354,4.494-2.31c0.98-0.471,2.076-0.962,3.27-1.507c1.188-0.562,2.498-1.096,3.896-1.675
					c1.399-0.578,2.892-1.193,4.478-1.796c1.596-0.582,3.273-1.195,5.023-1.833c1.749-0.659,3.607-1.2,5.516-1.831
					c0.959-0.301,1.934-0.608,2.924-0.919c0.99-0.314,1.999-0.619,3.028-0.896c4.116-1.126,8.459-2.353,13.016-3.312
					c2.272-0.513,4.583-1.045,6.938-1.494c2.357-0.437,4.745-0.87,7.158-1.274c1.206-0.207,2.417-0.415,3.631-0.623
					c1.217-0.188,2.443-0.343,3.67-0.498c2.456-0.312,4.921-0.626,7.387-0.94c1.233-0.155,2.468-0.29,3.707-0.377
					c1.237-0.101,2.473-0.202,3.707-0.303c2.465-0.215,4.927-0.365,7.365-0.542c2.439-0.175,4.868-0.187,7.264-0.252
					c2.396-0.055,4.761-0.121,7.088-0.138c1.162-0.03,2.317-0.004,3.461,0.031c1.143,0.024,2.276,0.059,3.395,0.104
					c2.24,0.086,4.429,0.147,6.558,0.25c1.064,0.05,2.114,0.1,3.148,0.149c1.034,0.059,2.05,0.161,3.05,0.256
					c1.997,0.197,3.926,0.388,5.778,0.571c1.848,0.203,3.618,0.398,5.302,0.583c0.84,0.1,1.659,0.198,2.455,0.293
					c0.793,0.131,1.564,0.258,2.311,0.381c2.984,0.505,5.577,0.972,7.708,1.385c2.131,0.399,3.796,0.775,4.933,1.004
					c1.134,0.252,1.739,0.386,1.739,0.386s-0.62,0.053-1.783,0.154c-1.16,0.077-2.864,0.23-5.021,0.346
					c-2.158,0.129-4.772,0.252-7.76,0.363c-0.747,0.024-1.517,0.049-2.31,0.075c-0.794,0.056-1.61,0.112-2.448,0.171
					c-1.672,0.101-3.431,0.208-5.265,0.319c-1.83,0.091-3.736,0.186-5.709,0.284c-0.985,0.06-1.987,0.065-3.004,0.138
					c-1.016,0.078-2.048,0.157-3.094,0.238c-2.091,0.162-4.237,0.285-6.428,0.434c-2.191,0.181-4.432,0.196-6.703,0.438
					c-4.543,0.422-9.236,0.76-13.998,1.154c-2.378,0.244-4.771,0.518-7.179,0.729c-2.404,0.243-4.828,0.399-7.231,0.74
					c-2.41,0.279-4.82,0.558-7.221,0.836c-1.201,0.134-2.4,0.268-3.596,0.401c-1.191,0.163-2.379,0.325-3.562,0.487
					c-2.365,0.333-4.717,0.631-7.044,0.917c-1.166,0.129-2.309,0.346-3.453,0.513c-1.144,0.168-2.28,0.335-3.406,0.501
					c-4.519,0.612-8.854,1.377-12.993,2.015c-2.078,0.287-4.062,0.72-6.012,1.029c-1.943,0.334-3.832,0.626-5.626,0.98
					c-1.804,0.329-3.533,0.644-5.176,0.944c-1.651,0.284-3.194,0.635-4.667,0.898c-2.946,0.532-5.485,1.103-7.611,1.499
					c-2.099,0.463-3.783,0.759-4.906,1.03C857.992,307.515,857.385,307.647,857.385,307.647"/>
				<path style="clip-path:url(#SVGID_4_);" d="M976.319,89.88c0,0-0.229,0.066-0.661,0.22c-0.42,0.168-1.027,0.46-1.738,0.953
					c-0.709,0.494-1.505,1.211-2.319,2.159c-0.81,0.952-1.653,2.118-2.499,3.491c-1.678,2.76-3.305,6.362-4.879,10.605
					c-1.573,4.245-3.074,9.147-4.479,14.56c-2.817,10.825-5.276,23.685-7.201,37.554c-0.467,3.47-0.929,6.998-1.337,10.577
					c-0.403,3.58-0.767,7.207-1.11,10.864c-0.64,7.319-1.169,14.763-1.433,22.213c-0.324,7.448-0.376,14.899-0.265,22.223
					c0.039,1.83,0.087,3.653,0.158,5.466c0.055,1.813,0.128,3.615,0.221,5.406c0.179,3.581,0.445,7.111,0.738,10.577
					c0.62,6.931,1.477,13.6,2.614,19.86c1.123,6.262,2.506,12.119,4.122,17.42c1.602,5.306,3.436,10.057,5.353,14.142
					c1.913,4.088,3.903,7.51,5.734,10.216c1.852,2.687,3.467,4.716,4.641,6.038c0.583,0.666,1.041,1.171,1.355,1.505
					c0.312,0.337,0.474,0.512,0.474,0.512s-0.193-0.138-0.568-0.405c-0.376-0.267-0.939-0.658-1.634-1.219
					c-1.392-1.114-3.437-2.792-5.731-5.259c-2.292-2.46-4.923-5.64-7.456-9.622c-2.551-3.968-5.051-8.696-7.303-14.049
					c-2.253-5.354-4.249-11.33-5.915-17.753c-1.665-6.424-3.005-13.292-3.988-20.439c-0.513-3.572-0.9-7.217-1.225-10.909
					c-0.164-1.846-0.309-3.705-0.435-5.574c-0.117-1.869-0.207-3.749-0.289-5.635c-0.33-7.548-0.293-15.219-0.011-22.872
					c0.326-7.653,0.898-15.289,1.766-22.771c0.416-3.743,0.918-7.445,1.475-11.093c0.548-3.649,1.15-7.246,1.83-10.767
					c1.323-7.049,2.889-13.811,4.604-20.164c1.727-6.351,3.622-12.29,5.638-17.684c2.02-5.392,4.154-10.242,6.355-14.399
					c2.184-4.163,4.481-7.611,6.674-10.216c2.182-2.618,4.396-4.273,6.06-5.025c0.83-0.384,1.517-0.539,1.973-0.624
					C976.083,89.899,976.319,89.88,976.319,89.88"/>
				<path style="clip-path:url(#SVGID_4_);" d="M964.016,82.593c0,0-0.214,0.141-0.628,0.414c-0.404,0.284-1.049,0.654-1.81,1.228
					c-1.536,1.103-3.643,2.932-5.99,5.525c-2.339,2.606-4.804,6.08-7.2,10.302c-2.406,4.217-4.691,9.219-6.766,14.837
					c-2.1,5.607-3.977,11.838-5.611,18.521c-1.662,6.675-3.039,13.815-4.197,21.242c-0.566,3.716-1.084,7.505-1.53,11.35
					c-0.216,1.924-0.434,3.858-0.606,5.809c-0.201,1.947-0.366,3.908-0.531,5.876c-0.163,1.968-0.286,3.949-0.418,5.933
					c-0.093,1.987-0.233,3.978-0.311,5.976c-0.205,3.993-0.281,8.008-0.326,12.021c-0.108,8.027,0.136,16.055,0.575,23.941
					c0.267,3.939,0.547,7.848,0.925,11.698c0.352,3.854,0.848,7.641,1.322,11.37c1.025,7.444,2.323,14.593,3.854,21.302
					c1.516,6.714,3.306,12.975,5.263,18.651c1.945,5.681,4.07,10.772,6.214,15.168c2.155,4.388,4.271,8.12,6.229,11.063
					c0.47,0.751,0.978,1.413,1.424,2.065c0.456,0.642,0.852,1.275,1.282,1.812c0.843,1.088,1.525,2.055,2.148,2.776
					c1.225,1.473,1.879,2.258,1.879,2.258s-0.789-0.654-2.269-1.881c-1.44-1.273-3.542-3.182-5.95-5.885
					c-2.414-2.694-5.153-6.162-7.911-10.41c-2.761-4.244-5.534-9.264-8.12-14.941c-1.306-2.835-2.513-5.85-3.721-8.989
					c-0.585-1.575-1.15-3.188-1.714-4.829c-0.526-1.651-1.111-3.317-1.61-5.029c-2.061-6.834-3.852-14.155-5.25-21.804
					c-0.697-3.824-1.323-7.728-1.826-11.694c-0.278-1.981-0.493-3.979-0.725-5.987c-0.213-2.01-0.38-4.033-0.562-6.064
					c-0.669-8.126-0.936-16.409-0.877-24.686c0.129-8.276,0.533-16.551,1.386-24.658c0.402-4.055,0.91-8.068,1.511-12.019
					c0.286-1.977,0.627-3.935,0.942-5.881c0.359-1.941,0.695-3.869,1.1-5.771c1.532-7.619,3.404-14.914,5.602-21.711
					c1.082-3.401,2.273-6.673,3.492-9.807c1.276-3.117,2.529-6.118,3.921-8.923c1.351-2.818,2.797-5.454,4.237-7.916
					c1.493-2.437,2.95-4.722,4.49-6.758c3.024-4.106,6.141-7.324,8.939-9.665c0.675-0.611,1.387-1.11,2.031-1.602
					c0.326-0.241,0.637-0.479,0.951-0.691c0.321-0.204,0.632-0.4,0.93-0.589c1.168-0.784,2.261-1.318,3.111-1.773
					c0.421-0.241,0.818-0.385,1.155-0.529c0.338-0.141,0.622-0.259,0.851-0.354C963.779,82.691,964.016,82.593,964.016,82.593"/>
			</g>
		</g>
	</g>
	<g>
		<path d="M28.127,179.012v15.527c0,27.605-5.176,41.407-15.527,41.407v-72.461h50.464c6.073,0,11.257,2.148,15.553,6.444
			s6.444,9.48,6.444,15.553c0,6.073-2.148,11.257-6.444,15.553s-9.48,6.444-15.553,6.444H28.127
			c0-10.352,6.901-15.528,20.703-15.528h14.233c1.794,0,3.321-0.629,4.581-1.889c1.259-1.259,1.889-2.786,1.889-4.581
			c0-1.794-0.63-3.321-1.889-4.581c-1.26-1.259-2.787-1.889-4.581-1.889H28.127z"/>
		<path d="M152.222,163.485c0,10.352-13.802,15.527-41.406,15.527H90.113v-15.527H152.222z M157.398,191.952
			c0,10.352-13.802,15.528-41.406,15.528H90.113v-15.528H157.398z M162.574,220.419c0,10.352-13.802,15.527-41.406,15.527H90.113
			v-15.527H162.574z"/>
		<path d="M211.619,178.546v15.993c0,27.605-5.176,41.407-15.527,41.407v-56.934h-28.467v-15.527h72.461
			C240.086,172.077,230.597,177.097,211.619,178.546z"/>
		<path d="M301.916,197.127c-0.518-4.624-2.484-8.644-5.9-12.06c-4.037-4.037-8.92-6.056-14.647-6.056
			c-5.728,0-10.61,2.019-14.647,6.056s-6.056,8.92-6.056,14.647v12.94c0,15.527-5.176,23.291-15.527,23.291v-36.231
			c0-10.006,3.537-18.546,10.61-25.62c7.073-7.073,15.613-10.61,25.62-10.61c10.006,0,18.546,3.537,25.62,10.61
			c7.073,7.074,10.61,15.614,10.61,25.62v36.231c-10.352,0-15.527-7.764-15.527-23.291v-0.673
			c-17.253-1.725-25.879-6.677-25.879-14.855H301.916z"/>
		<path d="M379.583,209.446v-4.555c0-27.604,5.176-41.407,15.527-41.407v83.434l-56.934-56.934v4.555
			c0,27.605-5.176,41.407-15.527,41.407v-83.434L379.583,209.446z"/>
		<path d="M454.457,231.236c-5.383,3.141-11.404,4.71-18.063,4.71c-10.007,0-18.547-3.536-25.62-10.61
			c-7.074-7.073-10.61-15.613-10.61-25.621c0-10.006,3.537-18.546,10.61-25.62c7.073-7.073,15.613-10.61,25.62-10.61
			c10.006,0,18.546,3.537,25.62,10.61c7.073,7.074,10.61,15.614,10.61,25.62c0,8.041-2.277,15.131-6.832,21.273
			c14.112,15.734,17.977,26.793,11.594,33.177L454.457,231.236z M454.715,209.55c1.587-2.933,2.381-6.211,2.381-9.834
			c0-5.728-2.019-10.61-6.056-14.647s-8.92-6.056-14.647-6.056c-5.728,0-10.61,2.019-14.647,6.056s-6.056,8.92-6.056,14.647
			c0,5.729,2.019,10.611,6.056,14.648s8.919,6.056,14.647,6.056c2.243,0,4.348-0.311,6.314-0.932l-16.562-16.562l10.973-10.973
			L454.715,209.55z"/>
		<path d="M477.675,199.715v-36.23c10.352,0,15.527,7.764,15.527,23.291v12.939c0,5.729,2.019,10.611,6.056,14.648
			s8.919,6.056,14.647,6.056c5.728,0,10.61-2.019,14.647-6.056s6.056-8.919,6.056-14.648v-12.939
			c0-15.527,5.176-23.291,15.527-23.291v36.23c0,10.007-3.537,18.547-10.61,25.621c-7.074,7.074-15.614,10.61-25.62,10.61
			c-10.007,0-18.547-3.536-25.62-10.61C481.212,218.263,477.675,209.723,477.675,199.715z"/>
		<path d="M617.297,163.485c0,10.352-13.803,15.527-41.406,15.527h-20.703v-15.527H617.297z M622.473,191.952
			c0,10.352-13.803,15.528-41.406,15.528h-25.879v-15.528H622.473z M627.648,220.419c0,10.352-13.803,15.527-41.406,15.527h-31.055
			v-15.527H627.648z"/>
	</g>
</g>
</svg>
