<?xml version="1.0" encoding="iso-8859-1"?>
<!-- Generator: Adobe Illustrator 19.1.0, SVG Export Plug-In . SVG Version: 6.00 Build 0)  -->
<svg version="1.1" id="Calque_2" xmlns="http://www.w3.org/2000/svg" xmlns:xlink="http://www.w3.org/1999/xlink" x="0px" y="0px"
	 viewBox="0 0 1200 400" style="enable-background:new 0 0 1200 400;" xml:space="preserve">
<g>
	<g>
		<g>
			<defs>
				<rect id="SVGID_1_" x="773.107" y="51.658" width="297.684" height="297.684"/>
			</defs>
			<clipPath id="SVGID_2_">
				<use xlink:href="#SVGID_1_"  style="overflow:visible;"/>
			</clipPath>
			<g style="clip-path:url(#SVGID_2_);">
				<defs>
					<rect id="SVGID_3_" x="773.107" y="51.658" width="297.684" height="297.684"/>
				</defs>
				<clipPath id="SVGID_4_">
					<use xlink:href="#SVGID_3_"  style="overflow:visible;"/>
				</clipPath>
				<path style="clip-path:url(#SVGID_4_);" d="M923.202,332.043c0,0-0.587,0.166-1.76,0.347c-1.171,0.177-2.929,0.397-5.232,0.432
					c-4.6,0.106-11.408-0.254-19.892-1.866c-4.237-0.804-8.91-1.847-13.912-3.266c-0.628-0.171-1.262-0.345-1.902-0.52
					c-0.651-0.202-1.31-0.407-1.974-0.614c-1.269-0.407-2.563-0.822-3.881-1.244c-1.316-0.42-2.708-1.006-4.1-1.519
					c-1.393-0.54-2.848-1.055-4.222-1.697c-11.216-4.809-23.365-11.965-34.649-22.284c-5.658-5.126-11.069-11.03-16.08-17.622
					c-5.008-6.597-9.506-13.954-13.381-21.911c-7.704-15.917-12.639-34.453-13.195-53.994c-0.299-9.76,0.572-19.737,2.559-29.623
					c0.254-1.235,0.508-2.473,0.763-3.712c0.292-1.23,0.623-2.453,0.935-3.682c0.327-1.226,0.614-2.466,0.978-3.684
					c0.379-1.215,0.759-2.431,1.14-3.648l0.575-1.828l0.146-0.456l0.073-0.228l0.171-0.46l0.314-0.832l1.256-3.334l1.259-3.342
					l1.58-3.614l1.598-3.62c0.26-0.615,0.544-1.196,0.841-1.762l0.874-1.72c1.189-2.284,2.276-4.623,3.637-6.836
					c2.54-4.515,5.38-8.902,8.501-13.108c6.221-8.428,13.529-16.177,21.705-22.887c8.207-6.67,17.245-12.313,26.766-16.71
					c9.52-4.412,19.516-7.528,29.571-9.613c10.06-2.121,20.237-2.948,30.247-2.854c10.015,0.068,19.889,1.224,29.419,3.372
					c1.196,0.237,2.376,0.564,3.556,0.866c1.179,0.315,2.36,0.589,3.526,0.939c2.33,0.717,4.655,1.377,6.931,2.23l1.71,0.607
					l0.853,0.304c0.531,0.201,0.258,0.102,0.426,0.167l0.192,0.08l0.385,0.16c1.027,0.426,2.052,0.851,3.073,1.276
					c1.952,0.767,4.298,1.965,6.462,3.002l1.642,0.801l1.541,0.85c1.022,0.568,2.04,1.134,3.055,1.699
					c1.025,0.547,2.006,1.16,2.979,1.778c0.976,0.612,1.948,1.223,2.918,1.831c0.982,0.588,1.897,1.269,2.831,1.914
					c0.928,0.651,1.854,1.301,2.777,1.949c1.83,1.312,3.545,2.749,5.296,4.106c6.851,5.626,12.93,11.715,18.205,18.057
					c5.264,6.351,9.805,12.883,13.627,19.439c7.623,13.127,12.63,26.159,15.402,38.054c1.381,5.947,2.38,11.572,2.786,16.83
					c0.062,0.654,0.124,1.301,0.185,1.943c0.032,0.644,0.063,1.282,0.094,1.913c0.055,1.261,0.136,2.489,0.163,3.692
					c-0.021,2.415,0.042,4.702-0.142,6.878c-0.439,8.702-2.121,15.355-3.524,19.721c-0.371,1.09-0.626,2.069-0.984,2.873
					c-0.336,0.808-0.619,1.487-0.847,2.035c-0.453,1.088-0.687,1.65-0.687,1.65s0.132-0.595,0.388-1.747
					c0.127-0.573,0.284-1.285,0.471-2.131c0.201-0.839,0.303-1.846,0.497-2.957c0.088-0.557,0.182-1.147,0.279-1.768
					c0.105-0.619,0.13-1.287,0.202-1.975c0.106-1.384,0.312-2.873,0.312-4.509c0.041-1.629,0.125-3.367,0.029-5.231
					c-0.022-0.928-0.045-1.884-0.069-2.868c-0.079-0.982-0.16-1.993-0.244-3.032c-0.108-2.073-0.501-4.245-0.759-6.514
					c-0.173-1.133-0.402-2.287-0.606-3.465c-0.105-0.589-0.211-1.183-0.318-1.784c-0.136-0.597-0.274-1.2-0.413-1.809
					c-1.046-4.875-2.553-10.062-4.512-15.456c-0.953-2.706-2.105-5.437-3.27-8.242c-0.635-1.381-1.28-2.782-1.934-4.203
					c-0.66-1.415-1.419-2.809-2.135-4.24c-2.976-5.673-6.426-11.454-10.492-17.133c-4.051-5.685-8.636-11.323-13.858-16.65
					c-5.209-5.333-10.98-10.428-17.371-14.951c-1.626-1.087-3.226-2.233-4.889-3.298c-0.839-0.519-1.681-1.04-2.525-1.562
					c-0.847-0.517-1.675-1.07-2.561-1.528c-0.872-0.48-1.747-0.961-2.624-1.444c-0.873-0.489-1.75-0.975-2.666-1.392
					c-0.904-0.437-1.81-0.875-2.719-1.315l-1.362-0.657l-1.343-0.557c-1.836-0.741-3.435-1.514-5.649-2.25
					c-1.039-0.378-2.082-0.758-3.127-1.138l-0.392-0.143l-0.197-0.071c0.039,0.015-0.363-0.135,0.038,0.016l-0.733-0.222
					l-1.467-0.447c-1.94-0.637-3.963-1.104-5.969-1.632c-1.006-0.256-2.039-0.441-3.06-0.668c-1.025-0.214-2.044-0.454-3.09-0.608
					c-8.303-1.435-16.924-2.223-25.64-1.992c-1.088,0.03-2.178,0.061-3.27,0.091c-1.09,0.049-2.18,0.145-3.272,0.214
					c-2.187,0.11-4.364,0.389-6.548,0.628c-1.095,0.093-2.181,0.27-3.269,0.43l-3.268,0.48l-3.247,0.623
					c-1.081,0.216-2.174,0.388-3.242,0.669c-8.617,1.939-17.031,4.846-25.055,8.564c-8.011,3.756-15.515,8.545-22.345,14.136
					c-6.86,5.559-13.014,11.99-18.317,19.078l-1.015,1.313l-0.938,1.372l-1.873,2.745l-0.947,1.364
					c-0.302,0.464-0.579,0.947-0.871,1.418l-1.731,2.842c-1.209,1.859-2.171,3.873-3.238,5.819l-0.785,1.468
					c-0.271,0.489-0.523,0.978-0.734,1.463l-1.354,2.916l-1.365,2.909l-1.322,3.317l-1.319,3.31l-0.33,0.826
					c0.015-0.043-0.149,0.389,0.012-0.045l-0.066,0.194l-0.131,0.388l-0.536,1.547l-1.078,3.088
					c-0.347,1.032-0.619,2.085-0.933,3.124c-0.299,1.044-0.621,2.081-0.906,3.126c-0.25,1.054-0.5,2.106-0.75,3.157
					c-1.962,8.416-2.979,16.952-3.139,25.388c-0.204,16.883,3.142,33.282,9.049,47.791c5.877,14.542,14.26,27.177,23.657,37.36
					c4.685,5.114,9.624,9.643,14.664,13.539c1.219,1.034,2.529,1.905,3.777,2.833c0.63,0.458,1.256,0.913,1.877,1.364
					c0.622,0.452,1.276,0.843,1.906,1.264c1.273,0.82,2.515,1.659,3.769,2.435c1.273,0.748,2.527,1.485,3.76,2.21
					c1.231,0.763,2.467,1.362,3.679,2.004c1.232,0.625,2.367,1.285,3.629,1.857c1.259,0.575,2.495,1.138,3.709,1.691
					c0.579,0.266,1.153,0.53,1.722,0.791c0.594,0.248,1.182,0.493,1.765,0.735c4.651,1.992,9.019,3.554,12.988,4.925
					c0.998,0.324,1.969,0.64,2.914,0.947c0.947,0.297,1.874,0.553,2.771,0.819c0.897,0.273,1.769,0.517,2.617,0.735
					c0.848,0.218,1.664,0.461,2.459,0.638c3.174,0.784,5.917,1.254,8.155,1.563c2.24,0.299,3.976,0.422,5.148,0.442
					C922.595,332.104,923.202,332.043,923.202,332.043"/>
				<path style="clip-path:url(#SVGID_4_);" d="M894.364,202.519c-0.642,0.28-1.29,0.523-1.935,0.78
					c-0.645,0.261-1.296,0.489-1.943,0.731c-1.3,0.466-2.603,0.907-3.909,1.335l1.141-0.863c-0.398,1.313-0.799,2.625-1.227,3.924
					c-0.411,1.307-0.873,2.59-1.308,3.886l-1.603,4.775l-2.989-4.685c-0.734-1.149-1.488-2.287-2.203-3.446
					c-0.713-1.16-1.449-2.308-2.137-3.481l2.464,1.718c-1.357-0.091-2.716-0.163-4.07-0.284c-1.353-0.117-2.711-0.205-4.061-0.35
					l-7.165-0.769l5.043-5.348c0.932-0.988,1.849-1.991,2.793-2.967l2.836-2.925l-1.011,3.332l-0.735-4.007
					c-0.25-1.335-0.45-2.679-0.677-4.018l-1.234-7.271l6.404,3.357c1.203,0.63,2.384,1.305,3.573,1.963
					c1.192,0.653,2.365,1.343,3.542,2.024l-3.012,0.059c1.224-0.592,2.471-1.142,3.71-1.707c1.237-0.569,2.499-1.093,3.747-1.641
					l5.095-2.238l-1.312,4.874c-0.355,1.32-0.69,2.642-1.072,3.958c-0.367,1.318-0.761,2.632-1.163,3.944l-0.47-1.358
					c0.847,1.081,1.684,2.174,2.505,3.283c0.404,0.563,0.818,1.113,1.209,1.689C893.584,201.366,893.987,201.928,894.364,202.519
					 M894.364,202.519c-0.614-0.338-1.201-0.704-1.798-1.06c-0.6-0.352-1.177-0.731-1.764-1.097
					c-1.16-0.748-2.305-1.512-3.439-2.288l-0.474-0.324l0.004-1.034c0.005-1.373,0.018-2.744,0.057-4.112
					c0.025-1.369,0.096-2.732,0.148-4.097l3.782,2.636c-1.13,0.762-2.247,1.549-3.388,2.291c-1.14,0.745-2.271,1.506-3.425,2.224
					l-1.284,0.799l-1.729-0.739c-1.251-0.535-2.506-1.062-3.742-1.625c-1.239-0.558-2.486-1.1-3.712-1.686l5.17-3.913
					c0.285,1.328,0.597,2.651,0.857,3.984l0.8,3.994l0.388,1.938l-1.398,1.394l-2.886,2.875c-0.963,0.957-1.953,1.888-2.929,2.833
					l-2.121-6.117c1.344,0.193,2.682,0.442,4.022,0.663c1.341,0.217,2.676,0.483,4.014,0.729l1.84,0.339l0.625,1.378
					c0.561,1.238,1.075,2.502,1.611,3.753c0.533,1.253,1.029,2.526,1.544,3.788l-4.591,0.09c0.719-1.163,1.411-2.337,2.154-3.489
					c0.726-1.16,1.478-2.306,2.234-3.451l0.566-0.857l0.575-0.007c1.374-0.015,2.749-0.017,4.129,0.006
					c0.692,0.02,1.381,0.027,2.076,0.065C892.974,202.439,893.666,202.46,894.364,202.519"/>
				<path style="clip-path:url(#SVGID_4_);" d="M919.115,180.325c-0.682,0.161-1.363,0.283-2.044,0.419
					c-0.681,0.141-1.362,0.248-2.043,0.369c-1.362,0.224-2.723,0.424-4.085,0.61l1.278-0.644c-0.628,1.22-1.259,2.438-1.914,3.639
					c-0.639,1.212-1.325,2.391-1.986,3.587l-2.437,4.408l-2.096-5.146c-0.514-1.263-1.051-2.518-1.547-3.787
					c-0.493-1.269-1.01-2.531-1.475-3.809l2.114,2.134c-1.318-0.334-2.642-0.65-3.952-1.012c-1.31-0.359-2.63-0.691-3.932-1.076
					l-6.909-2.046l5.924-4.353c1.094-0.804,2.177-1.625,3.282-2.415l3.316-2.367l-1.594,3.095l-0.001-4.074
					c-0.006-1.357,0.041-2.716,0.058-4.074l0.095-7.374l5.695,4.455c1.069,0.837,2.109,1.713,3.16,2.575
					c1.055,0.856,2.084,1.747,3.12,2.629l-2.974-0.484c1.311-0.362,2.637-0.679,3.957-1.012c1.319-0.336,2.654-0.625,3.981-0.939
					l5.414-1.284l-2.168,4.559c-0.588,1.234-1.155,2.474-1.767,3.7c-0.599,1.23-1.222,2.452-1.854,3.67l-0.218-1.421
					c0.639,1.216,1.266,2.442,1.874,3.681c0.295,0.626,0.604,1.243,0.884,1.879C918.556,179.05,918.851,179.676,919.115,180.325
					 M919.115,180.325c-0.543-0.443-1.055-0.909-1.578-1.366c-0.527-0.455-1.026-0.93-1.538-1.396
					c-1.007-0.944-1.995-1.903-2.97-2.87l-0.408-0.405l0.19-1.016c0.252-1.349,0.511-2.696,0.796-4.034
					c0.271-1.343,0.588-2.67,0.883-4.004l3.246,3.275c-1.249,0.547-2.489,1.119-3.745,1.644c-1.256,0.527-2.505,1.072-3.77,1.571
					l-1.407,0.554l-1.567-1.039c-1.134-0.752-2.274-1.495-3.388-2.273c-1.119-0.772-2.247-1.53-3.348-2.327l5.791-2.918
					c0.04,1.358,0.109,2.715,0.126,4.073l0.067,4.073l0.033,1.977l-1.627,1.119l-3.357,2.308c-1.12,0.768-2.261,1.505-3.391,2.259
					l-0.984-6.399c1.287,0.432,2.558,0.918,3.837,1.377c1.281,0.455,2.546,0.957,3.817,1.441l1.748,0.665l0.367,1.468
					c0.329,1.319,0.607,2.654,0.909,3.982c0.299,1.328,0.557,2.67,0.837,4.004l-4.533-0.738c0.917-1.014,1.809-2.045,2.747-3.044
					c0.923-1.01,1.869-2.002,2.82-2.992l0.711-0.741l0.566,0.098c1.354,0.232,2.708,0.479,4.061,0.75
					c0.677,0.145,1.354,0.274,2.03,0.438C917.763,179.995,918.44,180.141,919.115,180.325"/>
				<path style="clip-path:url(#SVGID_4_);" d="M954.962,173.933c-0.7-0.02-1.39-0.077-2.083-0.121
					c-0.695-0.039-1.38-0.111-2.07-0.169c-1.374-0.133-2.74-0.291-4.104-0.461l1.4-0.294c-0.92,1.018-1.843,2.033-2.785,3.024
					c-0.93,1.006-1.895,1.969-2.842,2.955l-3.488,3.633l-0.703-5.513c-0.172-1.352-0.368-2.704-0.521-4.057
					c-0.149-1.353-0.324-2.706-0.446-4.06l1.495,2.605c-1.188-0.662-2.387-1.307-3.559-1.994c-1.175-0.684-2.364-1.343-3.523-2.051
					l-6.15-3.755l6.844-2.682c1.265-0.495,2.522-1.011,3.792-1.49l3.813-1.434l-2.336,2.581l1.047-3.937
					c0.344-1.313,0.738-2.614,1.104-3.922l1.989-7.102l4.357,5.77c0.819,1.084,1.598,2.198,2.392,3.301
					c0.8,1.099,1.565,2.224,2.339,3.342l-2.749-1.232c1.36-0.013,2.723,0.023,4.084,0.04c1.361,0.014,2.726,0.08,4.089,0.117
					l5.562,0.152l-3.267,3.847c-0.885,1.042-1.752,2.094-2.659,3.122c-0.894,1.035-1.812,2.055-2.735,3.07l0.154-1.429
					c0.305,1.34,0.595,2.685,0.864,4.039c0.124,0.681,0.264,1.356,0.372,2.043C954.749,172.557,954.873,173.238,954.962,173.933
					 M954.962,173.933c-0.411-0.567-0.786-1.15-1.173-1.726c-0.392-0.575-0.752-1.163-1.126-1.745
					c-0.731-1.171-1.439-2.352-2.133-3.537l-0.291-0.497l0.445-0.933c0.591-1.239,1.188-2.474,1.807-3.693
					c0.607-1.228,1.254-2.429,1.884-3.642l2.295,3.999c-1.348,0.207-2.694,0.441-4.043,0.625c-1.349,0.187-2.697,0.392-4.047,0.548
					l-1.502,0.174l-1.247-1.407c-0.902-1.018-1.813-2.03-2.689-3.068c-0.882-1.034-1.779-2.056-2.636-3.109l6.345-1.331
					c-0.31,1.322-0.592,2.652-0.925,3.968l-0.982,3.954l-0.476,1.918l-1.861,0.663l-3.837,1.368
					c-1.279,0.454-2.573,0.873-3.858,1.311l0.694-6.437c1.133,0.748,2.236,1.544,3.354,2.317c1.12,0.769,2.214,1.58,3.318,2.374
					l1.519,1.092l-0.024,1.513c-0.021,1.359-0.096,2.721-0.145,4.082c-0.052,1.36-0.148,2.723-0.221,4.084l-4.191-1.88
					c1.147-0.744,2.274-1.511,3.438-2.235c1.151-0.738,2.321-1.454,3.494-2.167l0.878-0.533l0.522,0.239
					c1.248,0.573,2.494,1.159,3.732,1.769c0.616,0.314,1.237,0.614,1.848,0.946C953.74,173.267,954.356,173.582,954.962,173.933"/>
			</g>
		</g>
	</g>
	<g>
		<path d="M167.478,104.896v20.369c0,35.157-6.592,52.734-19.775,52.734v-72.51h-36.255V85.714h92.285
			C203.732,96.656,191.647,103.05,167.478,104.896z"/>
		<path d="M289.268,85.714c0,13.184-17.579,19.775-52.734,19.775h-26.367V85.714H289.268z M295.859,121.969
			c0,13.184-17.579,19.775-52.734,19.775h-32.959v-19.775H295.859z M302.451,158.224c0,13.184-17.579,19.775-52.734,19.775h-39.551
			v-19.775H302.451z"/>
		<path d="M381.395,144.249v-5.801c0-35.156,6.592-52.734,19.775-52.734v106.26l-72.51-72.51v5.801
			c0,35.157-6.592,52.734-19.775,52.734V71.739L381.395,144.249z"/>
		<path d="M480.113,144.249v-5.801c0-35.156,6.592-52.734,19.775-52.734v106.26l-72.51-72.51v5.801
			c0,35.157-6.592,52.734-19.775,52.734V71.739L480.113,144.249z"/>
		<path d="M506.322,85.714h19.775v39.551c0,35.157-6.592,52.734-19.775,52.734V85.714z"/>
		<path d="M596.801,121.969c7.734,0,14.337,2.735,19.808,8.207c5.472,5.471,8.207,12.074,8.207,19.808
			c0,7.735-2.735,14.338-8.207,19.809c-5.471,5.472-12.074,8.207-19.808,8.207h-64.27c0-13.184,12.084-19.775,36.255-19.775h28.015
			c2.285,0,4.229-0.802,5.833-2.406c1.604-1.604,2.406-3.548,2.406-5.834c0-2.284-0.803-4.229-2.406-5.833
			c-1.604-1.604-3.549-2.406-5.833-2.406h-36.255c-7.735,0-14.337-2.735-19.808-8.207c-5.472-5.471-8.207-12.073-8.207-19.809
			c0-7.733,2.735-14.337,8.207-19.808c5.471-5.472,12.073-8.207,19.808-8.207h64.27c0,13.184-12.086,19.775-36.255,19.775h-28.015
			c-2.286,0-4.23,0.802-5.833,2.406c-1.605,1.604-2.406,3.549-2.406,5.833c0,2.286,0.801,4.23,2.406,5.834
			c1.604,1.604,3.548,2.406,5.833,2.406H596.801z"/>
		<path d="M60.125,316.999H37.664c0-11.23,7.487-16.846,22.461-16.846c6.213,0,11.511-2.189,15.891-6.57
			c4.38-4.379,6.57-9.676,6.57-15.891c0-6.214-2.19-11.512-6.57-15.891c-4.38-4.381-9.678-6.57-15.891-6.57H37.664v42.114
			c0,13.103-5.615,19.653-16.846,19.653v-78.613h39.307c10.856,0,20.121,3.838,27.795,11.512
			c7.673,7.674,11.511,16.939,11.511,27.795c0,10.856-3.838,20.122-11.511,27.795C80.246,313.162,70.981,316.999,60.125,316.999z"/>
		<path d="M172.295,238.386c0,11.23-14.974,16.846-44.922,16.846h-22.461v-16.846H172.295z M177.91,269.27
			c0,11.23-14.974,16.846-44.922,16.846h-28.076V269.27H177.91z M183.525,300.153c0,11.23-14.974,16.846-44.922,16.846h-33.691
			v-16.846H183.525z"/>
		<path d="M259.511,254.726v17.352c0,29.948-5.615,44.922-16.846,44.922v-61.768h-30.884v-16.846h78.613
			C290.395,247.707,280.099,253.153,259.511,254.726z"/>
		<path d="M357.474,274.885c-0.562-5.016-2.695-9.378-6.401-13.083c-4.38-4.381-9.678-6.57-15.891-6.57
			c-6.214,0-11.511,2.189-15.891,6.57c-4.38,4.379-6.57,9.677-6.57,15.891v14.038c0,16.846-5.615,25.269-16.846,25.269v-39.307
			c0-10.855,3.837-20.121,11.511-27.795c7.673-7.674,16.938-11.512,27.795-11.512c10.856,0,20.121,3.838,27.795,11.512
			c7.673,7.674,11.511,16.939,11.511,27.795v39.307c-11.23,0-16.846-8.423-16.846-25.269v-0.729
			c-18.718-1.872-28.076-7.244-28.076-16.116H357.474z"/>
		<path d="M434.717,269.27c1.946,0,3.603-0.683,4.969-2.05c1.366-1.366,2.05-3.022,2.05-4.969s-0.684-3.603-2.05-4.97
			c-1.367-1.366-3.023-2.05-4.969-2.05h-37.903v16.846c0,29.948-5.615,44.922-16.846,44.922v-78.613h54.749
			c6.588,0,12.213,2.33,16.874,6.991c4.661,4.66,6.991,10.285,6.991,16.874c0,5.915-1.891,11.062-5.671,15.441
			c3.781,4.38,5.671,9.527,5.671,15.441c0,6.59-2.33,12.214-6.991,16.874c-4.66,4.661-10.285,6.991-16.874,6.991h-37.903
			c0-11.23,7.487-16.846,22.461-16.846h15.442c1.946,0,3.603-0.683,4.969-2.05c1.366-1.366,2.05-3.022,2.05-4.97
			c0-1.945-0.684-3.602-2.05-4.969c-1.367-1.366-3.023-2.05-4.969-2.05h-37.903c0-11.23,7.487-16.846,22.461-16.846H434.717z"/>
		<path d="M480.908,300.153h61.768c0,11.23-14.974,16.846-44.922,16.846h-33.691v-78.613c11.23,0,16.846,14.975,16.846,44.922
			V300.153z"/>
		<path d="M615.539,238.386c0,11.23-14.974,16.846-44.922,16.846h-22.461v-16.846H615.539z M621.154,269.27
			c0,11.23-14.975,16.846-44.922,16.846h-28.076V269.27H621.154z M626.77,300.153c0,11.23-14.975,16.846-44.922,16.846h-33.691
			v-16.846H626.77z"/>
	</g>
</g>
</svg>
