<?xml version="1.0" encoding="iso-8859-1"?>
<!-- Generator: Adobe Illustrator 19.1.0, SVG Export Plug-In . SVG Version: 6.00 Build 0)  -->
<svg version="1.1" id="Calque_2" xmlns="http://www.w3.org/2000/svg" xmlns:xlink="http://www.w3.org/1999/xlink" x="0px" y="0px"
	 viewBox="0 0 1200 400" style="enable-background:new 0 0 1200 400;" xml:space="preserve">
<g>
	<g>
		<g>
			<defs>
				<rect id="SVGID_1_" x="728.984" y="11.67" width="388.33" height="388.33"/>
			</defs>
			<clipPath id="SVGID_2_">
				<use xlink:href="#SVGID_1_"  style="overflow:visible;"/>
			</clipPath>
			<polygon style="clip-path:url(#SVGID_2_);" points="851.589,218.864 820.918,200.403 853.803,213.548 			"/>
			<polygon style="clip-path:url(#SVGID_2_);" points="839.499,223.326 808.828,204.865 841.712,218.011 			"/>
			<polygon style="clip-path:url(#SVGID_2_);" points="825.173,226.454 797.075,209.633 829.959,222.778 			"/>
			<polygon style="clip-path:url(#SVGID_2_);" points="812.748,230.63 784.844,214.542 817.728,227.688 			"/>
			<g style="clip-path:url(#SVGID_2_);">
				<defs>
					<rect id="SVGID_3_" x="728.984" y="11.67" width="388.33" height="388.33"/>
				</defs>
				<clipPath id="SVGID_4_">
					<use xlink:href="#SVGID_3_"  style="overflow:visible;"/>
				</clipPath>
				<path style="clip-path:url(#SVGID_4_);" d="M1016.919,147.215c-3.038-1.839-6.021-3.753-9.034-5.627
					c-2.992-1.901-5.979-3.809-8.949-5.739l-5.99-3.892l7.275,0.965c4.019,0.532,8.031,1.103,12.044,1.661l12.033,1.725
					l12.021,1.782c4.008,0.592,8.01,1.208,12.013,1.831l12.684,1.975l-12.083,5.149c-5.002,2.131-10.021,4.215-15.042,6.295
					c-5.016,2.095-10.06,4.112-15.088,6.171l-15.132,6.054l-15.173,5.943l-15.212,5.839l-15.248,5.74
					c-5.079,1.925-10.187,3.77-15.282,5.649l-7.649,2.803l-7.667,2.755l-7.667,2.755l-7.686,2.704l-7.687,2.701l-7.705,2.652
					l-7.708,2.645l-7.726,2.596c-5.145,1.746-10.316,3.424-15.478,5.124c-5.168,1.684-10.344,3.345-15.529,4.985l-7.783,2.441
					l-7.802,2.392c-5.206,1.581-10.424,3.132-15.653,4.65c-5.235,1.506-10.482,2.977-15.757,4.373
					c4.908-2.384,9.843-4.695,14.792-6.971c4.953-2.262,9.919-4.494,14.895-6.693l7.472-3.28l7.491-3.23
					c4.998-2.141,10.004-4.261,15.019-6.359c5.02-2.082,10.033-4.185,15.07-6.219l7.548-3.076l7.567-3.026l7.569-3.02l7.587-2.97
					l7.588-2.968l7.607-2.917l7.607-2.916l7.624-2.869c5.088-1.9,10.162-3.837,15.266-5.693l15.299-5.603l15.336-5.505l15.376-5.4
					l15.416-5.289c5.154-1.721,10.292-3.486,15.459-5.172c5.162-1.701,10.325-3.399,15.505-5.048l0.602,7.124
					c-3.952-0.882-7.904-1.772-11.85-2.685l-11.842-2.735l-11.83-2.791c-3.941-0.948-7.883-1.882-11.818-2.855l1.285-2.927
					c2.697,2.297,5.378,4.616,8.053,6.942C1011.605,142.514,1014.29,144.827,1016.919,147.215"/>
				<path style="clip-path:url(#SVGID_4_);" d="M819.024,17.153c0,0,0.205,0.385,0.602,1.132c0.369,0.761,1.018,1.838,1.824,3.201
					c1.703,2.727,4.42,6.524,8.452,10.789c2.025,2.126,4.327,4.405,6.968,6.755c2.654,2.336,5.565,4.815,8.806,7.334
					c6.438,5.083,14.04,10.468,22.432,16.363c8.392,5.896,17.6,12.277,27.22,19.437c9.615,7.156,19.647,15.099,29.528,24.179
					c9.864,9.079,19.595,19.321,28.238,31.014c8.646,11.659,16.179,24.806,21.51,38.969c0.349,0.878,0.669,1.766,0.973,2.662
					l0.927,2.681c0.307,0.894,0.573,1.803,0.861,2.704l0.423,1.354l0.21,0.677l0.156,0.53l0.086,0.31l0.693,2.481l0.346,1.257
					l0.353,1.442l0.697,2.884c0.213,0.944,0.394,1.854,0.59,2.782c1.564,7.387,2.453,14.875,2.814,22.287
					c0.74,14.847-0.934,29.327-3.902,42.72c-3.003,13.408-7.277,25.773-11.892,37.042c-4.625,11.276-9.578,21.488-14.193,30.755
					c-4.613,9.268-8.92,17.588-12.373,25.057c-3.477,7.454-6.088,14.058-7.684,19.67c-0.406,1.402-0.728,2.741-1.01,4.011
					c-0.133,0.638-0.26,1.255-0.384,1.852c-0.099,0.602-0.196,1.184-0.289,1.744c-0.104,0.565-0.139,1.106-0.209,1.632
					c-0.068,0.526-0.117,1.031-0.147,1.514c-0.036,0.487-0.072,0.951-0.105,1.393c-0.01,0.443-0.019,0.864-0.028,1.261
					c-0.033,0.802,0.013,1.504,0.026,2.12c0.006,0.618,0.05,1.134,0.095,1.55c0.073,0.84,0.11,1.274,0.11,1.274
					s-0.182-0.397-0.535-1.166c-0.18-0.387-0.395-0.871-0.605-1.465c-0.224-0.59-0.492-1.278-0.712-2.078
					c-0.993-3.17-1.934-8.112-1.819-14.43c0.052-6.316,1.1-13.921,2.965-22.35c1.88-8.425,4.508-17.709,7.499-27.616
					c2.979-9.912,6.276-20.481,9.283-31.582c3.004-11.098,5.693-22.741,7.368-34.704c0.802-5.982,1.407-12.037,1.615-18.126
					c0.047-1.521,0.109-3.046,0.102-4.57c0.028-1.526-0.009-3.051-0.037-4.578c-0.023-1.527-0.099-3.051-0.161-4.579
					c-0.112-1.522-0.171-3.053-0.334-4.574c-0.245-3.051-0.64-6.087-1.087-9.121c-0.506-3.024-1.035-6.05-1.734-9.046l-0.516-2.237
					l-0.551-2.107l-0.271-1.055l-0.347-1.222l-0.708-2.477l-0.089-0.31l-0.044-0.155c0.106,0.366,0.004,0.023,0.016,0.068
					l-0.177-0.551l-0.353-1.104c-0.241-0.734-0.458-1.476-0.715-2.205c-0.53-1.454-1.001-2.926-1.577-4.366
					c-4.349-11.602-10.346-22.671-17.42-33.039c-7.065-10.378-15.161-20.076-23.563-29.181
					c-8.412-9.103-17.128-17.625-25.571-25.717c-8.44-8.093-16.61-15.769-24.022-23.134c-7.419-7.354-14.065-14.426-19.571-21.11
					c-5.507-6.677-9.826-13.002-12.764-18.547c-0.753-1.372-1.389-2.72-1.991-3.972c-0.567-1.279-1.083-2.474-1.505-3.615
					c-0.453-1.121-0.791-2.196-1.114-3.163c-0.304-0.978-0.529-1.883-0.753-2.676c-0.389-1.63-0.628-2.86-0.738-3.695
					C819.087,17.585,819.024,17.153,819.024,17.153"/>
			</g>
		</g>
	</g>
	<g>
		<path d="M446.843,100.546v22.33c0,38.542-7.227,57.812-21.68,57.812v-79.492h-39.746v-21.68h101.172
			C486.589,91.513,473.339,98.522,446.843,100.546z"/>
		<path d="M493.642,79.517h21.68v43.359c0,38.542-7.227,57.812-21.68,57.812V79.517z"/>
		<path d="M568.48,140.942h-24.426c0-14.453,9.635-21.68,28.906-21.68h19.873c2.504,0,4.636-0.878,6.396-2.638
			c1.758-1.758,2.638-3.89,2.638-6.396c0-2.504-0.879-4.636-2.638-6.396c-1.759-1.758-3.891-2.638-6.396-2.638h-48.779v21.68
			c0,38.542-7.227,57.812-21.68,57.812V79.517h70.459c8.479,0,15.718,2.999,21.716,8.997s8.997,13.237,8.997,21.716
			c0,8.48-2.988,15.707-8.961,21.68c-4.625,4.625-9.949,7.469-15.971,8.527c16.621,16.621,24.932,35.146,24.932,55.572
			L568.48,140.942z"/>
		<path d="M110.707,265.489c-0.723-6.455-3.469-12.068-8.238-16.838c-5.637-5.637-12.455-8.455-20.451-8.455
			c-7.998,0-14.814,2.818-20.451,8.455s-8.455,12.454-8.455,20.451v18.066c0,21.68-7.227,32.52-21.68,32.52v-50.586
			c0-13.971,4.938-25.895,14.814-35.771c9.875-9.876,21.799-14.814,35.771-14.814c13.971,0,25.895,4.938,35.771,14.814
			c9.875,9.877,14.814,21.801,14.814,35.771v50.586c-14.453,0-21.68-10.84-21.68-32.52v-0.939
			c-24.089-2.408-36.133-9.322-36.133-20.74H110.707z"/>
		<path d="M190.647,298.009h79.492c0,14.453-19.271,21.68-57.812,21.68h-43.359V218.517c14.453,0,21.68,19.271,21.68,57.812V298.009
			z"/>
		<path d="M277.192,218.517h21.68v39.746C284.418,258.263,277.192,245.015,277.192,218.517z"/>
		<path d="M385.2,265.489c-0.723-6.455-3.469-12.068-8.238-16.838c-5.637-5.637-12.455-8.455-20.451-8.455
			c-7.998,0-14.814,2.818-20.451,8.455s-8.455,12.454-8.455,20.451v18.066c0,21.68-7.227,32.52-21.68,32.52v-50.586
			c0-13.971,4.938-25.895,14.814-35.771c9.875-9.876,21.799-14.814,35.771-14.814c13.971,0,25.895,4.938,35.771,14.814
			c9.875,9.877,14.814,21.801,14.814,35.771v50.586c-14.453,0-21.68-10.84-21.68-32.52v-0.939
			c-24.089-2.408-36.133-9.322-36.133-20.74H385.2z"/>
		<path d="M460.255,279.942H435.83c0-14.453,9.635-21.68,28.906-21.68h19.873c2.504,0,4.636-0.879,6.396-2.638
			c1.758-1.758,2.638-3.89,2.638-6.396c0-2.505-0.879-4.637-2.638-6.396c-1.759-1.758-3.891-2.638-6.396-2.638H435.83v21.68
			c0,38.542-7.227,57.812-21.68,57.812V218.517h70.459c8.479,0,15.718,2.999,21.716,8.997s8.997,13.237,8.997,21.716
			c0,8.479-2.988,15.706-8.961,21.68c-4.625,4.625-9.949,7.468-15.971,8.527c16.621,16.621,24.932,35.146,24.932,55.572
			L460.255,279.942z"/>
		<path d="M572.961,218.517h50.586c0,14.453-10.84,21.68-32.52,21.68h-18.066c-7.998,0-14.814,2.818-20.451,8.455
			s-8.455,12.454-8.455,20.451c0,7.998,2.818,14.814,8.455,20.451s12.454,8.455,20.451,8.455h18.066
			c21.68,0,32.52,7.227,32.52,21.68h-50.586c-13.972,0-25.896-4.938-35.771-14.814c-9.876-9.876-14.814-21.8-14.814-35.771
			c0-13.971,4.938-25.895,14.814-35.771C547.065,223.455,558.989,218.517,572.961,218.517z"/>
	</g>
</g>
</svg>
