<?xml version="1.0" encoding="iso-8859-1"?>
<!-- Generator: Adobe Illustrator 19.1.0, SVG Export Plug-In . SVG Version: 6.00 Build 0)  -->
<svg version="1.1" id="Calque_2" xmlns="http://www.w3.org/2000/svg" xmlns:xlink="http://www.w3.org/1999/xlink" x="0px" y="0px"
	 viewBox="0 0 1200 400" style="enable-background:new 0 0 1200 400;" xml:space="preserve">
<g>
	<g>
		<g>
			<defs>
				<rect id="SVGID_1_" x="693.632" y="-15.494" width="443.173" height="443.173"/>
			</defs>
			<clipPath id="SVGID_2_">
				<use xlink:href="#SVGID_1_"  style="overflow:visible;"/>
			</clipPath>
			<g style="clip-path:url(#SVGID_2_);">
				<defs>
					<rect id="SVGID_3_" x="693.632" y="-15.494" width="443.173" height="443.173"/>
				</defs>
				<clipPath id="SVGID_4_">
					<use xlink:href="#SVGID_3_"  style="overflow:visible;"/>
				</clipPath>
				<path style="clip-path:url(#SVGID_4_);" d="M1128.014,111.282c0.042,0.202,0.064,0.511,0.07,0.915
					c-0.005,0.807-0.172,2.017-0.736,3.482c-1.089,2.947-3.61,6.861-7.391,11.326c-7.565,8.954-20.04,20.236-35.928,32.516
					c-15.896,12.282-35.228,25.591-56.659,38.648c-21.433,13.048-44.972,25.863-69.26,36.979
					c-12.14,5.558-24.469,10.682-36.788,15.159c-12.316,4.472-24.638,8.296-36.698,11.183c-1.477,0.355-3.031,0.71-4.519,1.041
					c-1.519,0.321-3.032,0.64-4.537,0.958c-3.01,0.635-5.992,1.265-8.941,1.888c-5.889,1.302-11.693,2.313-17.324,3.398
					c-5.627,1.123-11.134,1.954-16.448,2.848c-1.329,0.219-2.646,0.437-3.951,0.652c-1.306,0.211-2.606,0.37-3.89,0.555
					c-2.57,0.358-5.091,0.708-7.561,1.052c-2.468,0.372-4.891,0.619-7.257,0.881c-2.366,0.261-4.676,0.518-6.929,0.767
					c-2.253,0.213-4.448,0.363-6.58,0.54c-2.133,0.156-4.206,0.374-6.207,0.431c-2.002,0.091-3.94,0.179-5.811,0.263
					c-0.937,0.056-1.852,0.071-2.747,0.069c-0.896,0.006-1.775,0.013-2.637,0.02c-3.458,0.087-6.577-0.099-9.409-0.181
					c-5.611-0.347-9.886-0.984-12.549-1.624l-3.617-1.298l-6.077,0.045l-2.775,8.926c0,0-0.201,0.135,2.398,0.987
					c0.327,0.147,1.627,0.506,2.286,0.761c0.485,0.153,1.087,0.344,1.802,0.571c0.692,0.191,2.198,0.606,3.083,0.819
					c3.474,0.742,8.893,0.873,15.007,1.097c3.037,0.018,6.414,0.124,10.029-0.055c0.907-0.029,1.831-0.06,2.774-0.09
					c0.945-0.023,1.904-0.063,2.873-0.144c1.942-0.137,3.954-0.278,6.032-0.425c2.085-0.114,4.203-0.388,6.398-0.604
					c2.19-0.238,4.449-0.449,6.755-0.726c2.297-0.312,4.654-0.633,7.067-0.961c2.412-0.329,4.883-0.644,7.381-1.085
					c2.504-0.412,5.059-0.833,7.664-1.262c1.3-0.221,2.619-0.417,3.938-0.663c1.318-0.252,2.648-0.506,3.989-0.761
					c5.36-1.04,10.922-2.023,16.573-3.299c5.661-1.237,11.499-2.408,17.399-3.868c2.956-0.702,5.944-1.412,8.961-2.128
					c3.022-0.713,6.048-1.422,9.152-2.263c12.328-3.279,24.768-7.491,37.159-12.343c12.388-4.857,24.723-10.352,36.833-16.268
					c24.227-11.832,47.567-25.311,68.767-38.957c21.198-13.654,40.258-27.494,55.897-40.216
					c15.632-12.719,27.865-24.351,35.241-33.538c3.686-4.58,6.125-8.582,7.147-11.578c0.531-1.488,0.668-2.712,0.653-3.523
					c-0.017-0.406-0.046-0.714-0.093-0.915"/>
				<path style="clip-path:url(#SVGID_4_);" d="M775.201,246.082c1.004,0.308,1.419,3.428,3.443,3.841
					c0.995,0.251,2.138,0.417,3.374,0.621c0.619,0.102,1.262,0.208,1.93,0.318c0.67,0.102,1.376,0.158,2.099,0.243
					c0.724,0.08,1.472,0.161,2.242,0.246c0.77,0.082,1.56,0.187,2.382,0.215c1.64,0.094,3.365,0.192,5.164,0.295
					c1.801,0.097,3.689,0.052,5.637,0.086c0.975,0.008,1.967,0.016,2.974,0.024c1.008-0.004,2.031-0.069,3.069-0.101
					c2.077-0.081,4.209-0.162,6.389-0.246c2.179-0.143,4.402-0.355,6.665-0.534c4.535-0.29,9.188-0.964,13.93-1.54
					c1.184-0.154,2.377-0.282,3.567-0.459c1.187-0.196,2.378-0.392,3.571-0.588c2.387-0.394,4.784-0.788,7.18-1.182
					c1.197-0.209,2.402-0.367,3.59-0.619c1.19-0.241,2.379-0.481,3.565-0.721c2.374-0.481,4.737-0.96,7.083-1.435
					c1.174-0.238,2.342-0.473,3.505-0.709c1.164-0.229,2.305-0.536,3.448-0.799c2.283-0.545,4.538-1.083,6.757-1.612
					c2.219-0.53,4.401-1.05,6.537-1.56c2.138-0.503,4.196-1.124,6.218-1.658c4.036-1.103,7.853-2.145,11.375-3.107
					c0.881-0.241,1.743-0.477,2.586-0.707c0.836-0.256,1.652-0.506,2.447-0.75c1.592-0.487,3.102-0.949,4.52-1.384
					c2.839-0.869,5.313-1.626,7.351-2.25c4.076-1.248,6.406-1.961,6.406-1.961s-2.308,0.777-6.349,2.137
					c-2.02,0.68-4.474,1.506-7.288,2.453c-1.407,0.474-2.905,0.979-4.484,1.509c-0.79,0.266-1.6,0.538-2.429,0.817
					c-0.837,0.254-1.693,0.514-2.568,0.779c-3.499,1.061-7.29,2.21-11.3,3.425c-2.009,0.59-4.055,1.27-6.182,1.832
					c-2.125,0.57-4.297,1.151-6.505,1.743c-2.21,0.592-4.456,1.194-6.729,1.804c-1.139,0.294-2.275,0.635-3.436,0.896
					c-1.159,0.269-2.325,0.538-3.496,0.809c-2.341,0.542-4.7,1.088-7.069,1.635c-1.185,0.275-2.372,0.549-3.56,0.824
					c-1.186,0.285-2.393,0.478-3.59,0.721c-2.399,0.463-4.799,0.926-7.188,1.387c-1.195,0.231-2.388,0.461-3.577,0.691
					c-1.193,0.211-2.391,0.373-3.58,0.562c-4.762,0.712-9.436,1.52-14.013,1.941c-2.284,0.245-4.527,0.52-6.73,0.725
					c-2.21,0.147-4.371,0.29-6.477,0.43c-1.053,0.061-2.09,0.155-3.115,0.188c-1.026,0.02-2.038,0.041-3.032,0.06
					c-1.99,0.02-3.911,0.118-5.76,0.071c-1.851-0.055-3.624-0.107-5.312-0.157c-0.844-0.007-1.666-0.093-2.466-0.155
					c-0.8-0.066-1.578-0.129-2.33-0.19c-0.753-0.068-1.483-0.106-2.187-0.193c-0.704-0.096-1.382-0.188-2.033-0.277
					c-1.304-0.179-2.502-0.322-3.583-0.559c-2.167-0.382-3.856-0.826-5.043-1.158c-0.615-0.199-2.297-1.457-2.615-1.56
					L775.201,246.082z"/>
				<path style="clip-path:url(#SVGID_4_);" d="M713.82,253.49c0,0,0.12,1.136,0.33,3.124c0.105,0.985,0.234,2.18,0.382,3.552
					c0.152,1.361,0.324,2.895,0.511,4.569c0.183,1.667,0.416,3.466,0.657,5.358c0.254,1.892,0.533,3.879,0.859,5.919
					c0.322,2.041,0.697,4.136,1.112,6.247c0.425,2.11,0.895,4.237,1.446,6.334c0.549,2.094,1.146,4.175,1.844,6.168
					c0.673,2.009,1.452,3.927,2.266,5.757c0.391,0.925,0.885,1.767,1.286,2.649c0.451,0.846,0.94,1.647,1.378,2.458
					c0.5,0.768,0.986,1.517,1.457,2.24c0.517,0.696,1.017,1.369,1.496,2.014c0.527,0.614,1.033,1.202,1.513,1.761
					c0.481,0.57,1.017,1.022,1.475,1.513c0.237,0.239,0.466,0.47,0.687,0.693c0.24,0.199,0.469,0.395,0.688,0.589
					c0.443,0.387,0.851,0.744,1.22,1.064c0.79,0.593,1.41,1.059,1.833,1.377c0.429,0.331,0.658,0.507,0.658,0.507
					s-0.277-0.073-0.797-0.208c-0.511-0.16-1.301-0.328-2.255-0.682c-0.47-0.199-0.99-0.419-1.556-0.659
					c-0.286-0.121-0.583-0.249-0.888-0.39c-0.292-0.163-0.593-0.332-0.905-0.507c-0.615-0.364-1.304-0.725-1.965-1.189
					c-0.655-0.483-1.343-0.991-2.061-1.521c-0.664-0.6-1.355-1.225-2.071-1.872c-0.669-0.691-1.33-1.439-2.029-2.2
					c-0.632-0.803-1.279-1.639-1.914-2.511c-0.589-0.894-1.213-1.81-1.763-2.778c-0.538-0.972-1.119-1.957-1.582-2.999
					c-0.245-0.518-0.49-1.038-0.737-1.561c-0.236-0.527-0.433-1.071-0.651-1.61c-0.893-2.151-1.554-4.409-2.178-6.666
					c-0.281-1.135-0.532-2.276-0.78-3.412c-0.214-1.14-0.432-2.278-0.588-3.41c-0.172-1.13-0.323-2.254-0.419-3.367
					c-0.123-1.111-0.208-2.21-0.262-3.293c-0.135-2.162-0.146-4.253-0.111-6.229c0.055-1.977,0.16-3.841,0.33-5.557
					c0.159-1.714,0.375-3.279,0.593-4.66c0.22-1.381,0.475-2.576,0.689-3.557c0.204-0.981,0.429-1.744,0.565-2.265
					C713.726,253.763,713.82,253.49,713.82,253.49"/>
				<path style="clip-path:url(#SVGID_4_);" d="M697.802,301.359c0,0,0.357,0.388,0.91,1.07c0.548,0.684,1.282,1.665,2.073,2.85
					c0.794,1.184,1.645,2.574,2.492,4.065c0.847,1.492,1.698,3.081,2.507,4.671c0.815,1.586,1.593,3.17,2.328,4.647
					c0.366,0.741,0.72,1.455,1.067,2.128c0.16,0.35,0.343,0.665,0.505,0.987c0.155,0.331,0.329,0.626,0.486,0.924
					c0.15,0.308,0.313,0.583,0.464,0.854c0.146,0.277,0.294,0.537,0.439,0.776c0.279,0.495,0.548,0.916,0.774,1.278
					c0.222,0.37,0.421,0.644,0.554,0.846c0.132,0.207,0.203,0.318,0.203,0.318s-0.13-0.004-0.371-0.035
					c-0.231-0.043-0.617-0.054-1.046-0.185c-0.444-0.111-0.978-0.28-1.557-0.541c-0.584-0.253-1.222-0.593-1.869-1.021
					c-0.654-0.425-1.32-0.938-1.972-1.526c-0.653-0.589-1.303-1.248-1.905-1.974c-0.319-0.354-0.6-0.738-0.89-1.125
					c-0.3-0.382-0.568-0.784-0.84-1.193c-0.536-0.818-1.026-1.677-1.478-2.551c-0.441-0.877-0.846-1.771-1.192-2.667
					c-0.178-0.446-0.336-0.896-0.481-1.343c-0.153-0.445-0.294-0.886-0.411-1.329c-0.503-1.755-0.794-3.443-0.93-4.912
					c-0.137-1.47-0.117-2.722-0.046-3.608C697.69,301.876,697.802,301.359,697.802,301.359"/>
				<path style="clip-path:url(#SVGID_4_);" d="M744.881,282.747c-1.103-4.85-2.04-9.55-2.907-14.37
					c-0.857-4.803-1.613-9.641-2.18-14.587c-0.281-2.476-0.513-4.979-0.656-7.548c-0.068-1.287-0.123-2.582-0.128-3.92
					c-0.012-0.659,0.001-1.345,0.013-2.026c0.002-0.337,0.019-0.688,0.035-1.04l0.025-0.526l0.013-0.263l0.006-0.131l0.04-0.505
					l0.052-0.442l0.027-0.222l0.013-0.112l0.037-0.23l0.169-0.918l0.096-0.457c0.034-0.157,0.069-0.309,0.098-0.4l0.371-1.286
					l0.412-1.164c0.571-1.49,1.191-2.841,1.852-4.078c1.313-2.501,2.739-4.731,4.225-6.867c2.98-4.25,6.185-8.121,9.525-11.818
					c3.339-3.693,6.808-7.205,10.378-10.579c7.135-6.752,14.638-12.999,22.383-18.878c7.748-5.872,15.73-11.392,23.907-16.57
					c8.169-5.191,16.524-10.06,25.022-14.638c8.489-4.597,17.142-8.862,25.887-12.907c8.757-4.016,17.623-7.776,26.579-11.292
					c17.922-7.003,36.197-13.022,54.696-18.144l6.949-1.878l6.951-1.769l6.921-1.746l7-1.673c9.329-2.237,18.674-4.246,28.076-6.125
					c9.406-1.841,18.863-3.471,28.373-4.846c9.516-1.347,19.096-2.384,28.745-2.96c9.646-0.576,19.381-0.629,29.17,0.294
					c4.894,0.479,9.806,1.239,14.704,2.57c2.448,0.641,4.892,1.482,7.317,2.559c1.212,0.526,2.419,1.174,3.619,1.892
					c0.603,0.394,1.2,0.778,1.804,1.254c0.296,0.213,0.613,0.505,0.915,0.76l0.482,0.464c0.073,0.068,0.181,0.191,0.269,0.285
					l0.138,0.153l0.233,0.286l-0.236-0.282l11.758,13.031l4.818,5.338l-7.087,0.866c-8.729,1.066-17.508,2.253-26.253,3.494
					c-8.752,1.235-17.496,2.542-26.231,3.903c-17.471,2.726-34.908,5.681-52.297,8.892l-13.032,2.458l-13.012,2.562l-12.985,2.69
					c-4.33,0.892-8.638,1.877-12.958,2.811c-4.333,0.937-8.614,1.896-12.867,2.995c-4.259,1.091-8.498,2.266-12.712,3.533
					c-8.429,2.531-16.763,5.398-24.995,8.545c-16.463,6.303-32.511,13.726-48.106,22.01c-15.591,8.292-30.735,17.449-45.342,27.405
					c-14.588,9.975-28.689,20.711-41.844,32.536c-6.558,5.925-12.898,12.115-18.665,18.821c-2.869,3.359-5.604,6.848-7.948,10.596
					c-1.166,1.875-2.231,3.821-3.041,5.877c-0.4,1.028-0.743,2.084-0.935,3.172c-0.199,1.085-0.253,2.208-0.018,3.294
					L744.881,282.747z M757.481,266.651c2.024-3.134,4.285-6.113,6.656-8.99c5.668-6.828,11.919-13.147,18.393-19.205
					c12.987-12.09,26.943-23.107,41.412-33.375c14.487-10.249,29.538-19.713,45.073-28.327
					c15.539-8.605,31.569-16.364,48.076-23.017c8.255-3.322,16.628-6.368,25.116-9.079c4.244-1.358,8.52-2.623,12.819-3.805
					c4.301-1.191,8.646-2.245,12.951-3.256c4.318-1.013,8.626-2.078,12.953-3.049l12.981-2.928l13.008-2.8l13.028-2.695
					c17.387-3.528,34.823-6.798,52.301-9.842c8.739-1.519,17.489-2.984,26.251-4.379c8.768-1.401,17.52-2.742,26.351-3.979
					l-2.269,6.204l-11.986-12.822l-0.236-0.283l0.09,0.116l-0.014-0.011c-0.014-0.012,0-0.005-0.038-0.036l-0.165-0.15
					c-0.161-0.12-0.275-0.239-0.467-0.366c-0.334-0.256-0.745-0.503-1.14-0.756c-0.853-0.479-1.749-0.949-2.727-1.347
					c-1.937-0.811-4.014-1.494-6.176-2.01c-4.304-1.08-8.836-1.704-13.41-2.055c-9.165-0.681-18.505-0.458-27.822,0.289
					c-9.323,0.744-18.644,1.938-27.93,3.444c-9.284,1.532-18.539,3.318-27.759,5.315c-9.208,2.033-18.417,4.207-27.536,6.587
					l-6.839,1.78l-6.873,1.88l-6.836,1.885l-6.79,1.953c-18.073,5.315-35.874,11.498-53.268,18.617
					c-8.692,3.575-17.28,7.38-25.746,11.427c-8.451,4.075-16.797,8.356-24.96,12.947c-8.173,4.572-16.183,9.415-23.984,14.548
					c-7.809,5.121-15.396,10.553-22.714,16.285c-7.312,5.735-14.346,11.792-20.921,18.219c-3.29,3.21-6.454,6.522-9.438,9.931
					c-2.982,3.404-5.785,6.926-8.208,10.503c-1.203,1.783-2.303,3.594-3.169,5.318c-0.449,0.866-0.792,1.693-1.064,2.425
					l-0.176,0.519c-0.034,0.144-0.071,0.287-0.113,0.429c-0.017,0.051-0.012,0.044-0.006,0.034c0.004-0.006,0.006-0.013,0.007-0.02
					c0.002-0.014-0.001-0.029-0.01-0.045l-0.007-0.012l-0.012,0.11l-0.023,0.222l-0.045,0.443c-0.012,0.122,0.055-0.653,0.026-0.282
					l-0.002,0.091l-0.005,0.182l-0.01,0.365c-0.008,0.242-0.017,0.485-0.012,0.742c0.001,0.507-0.003,1.011,0.019,1.54
					c0.021,1.039,0.086,2.119,0.164,3.204c0.159,2.176,0.403,4.405,0.699,6.648c0.595,4.491,1.385,9.04,2.28,13.582
					C757.305,265.894,757.404,266.269,757.481,266.651"/>
			</g>
		</g>
	</g>
	<g>
		<path d="M21.268,142.06v-39.307c11.23,0,16.846,8.423,16.846,25.269v14.038c0,6.214,2.19,11.512,6.57,15.891
			c4.38,4.381,9.677,6.57,15.891,6.57c6.213,0,11.511-2.189,15.891-6.57c4.38-4.379,6.57-9.677,6.57-15.891v-14.038
			c0-16.846,5.615-25.269,16.846-25.269v39.307c0,10.856-3.838,20.122-11.511,27.795c-7.674,7.675-16.939,11.512-27.795,11.512
			c-10.857,0-20.122-3.837-27.795-11.512C25.104,162.182,21.268,152.917,21.268,142.06z"/>
		<path d="M153.091,119.094v17.351c0,29.948-5.615,44.922-16.846,44.922v-61.768h-30.884v-16.846h78.613
			C183.975,112.075,173.679,117.521,153.091,119.094z"/>
		<path d="M206.301,164.521h61.768c0,11.23-14.974,16.846-44.922,16.846h-33.691v-78.613c11.23,0,16.846,14.974,16.846,44.922
			V164.521z"/>
		<path d="M273.549,102.753h16.846v33.691c0,29.948-5.615,44.922-16.846,44.922V102.753z"/>
		<path d="M312.721,119.599v16.846c0,29.948-5.615,44.922-16.846,44.922v-78.613h78.613v33.691c0,29.948-5.615,44.922-16.846,44.922
			v-61.768h-14.038v11.23c0,29.948-5.615,44.922-16.846,44.922v-56.152H312.721z"/>
		<path d="M441.568,139.252c-0.562-5.016-2.695-9.377-6.401-13.083c-4.38-4.38-9.678-6.57-15.891-6.57
			c-6.214,0-11.511,2.19-15.891,6.57s-6.57,9.678-6.57,15.891v14.038c0,16.846-5.615,25.269-16.846,25.269V142.06
			c0-10.856,3.837-20.121,11.511-27.795c7.673-7.673,16.938-11.511,27.795-11.511c10.856,0,20.121,3.838,27.795,11.511
			c7.673,7.674,11.511,16.939,11.511,27.795v39.307c-11.23,0-16.846-8.423-16.846-25.269v-0.729
			c-18.718-1.872-28.076-7.244-28.076-16.116H441.568z"/>
		<path d="M511.792,119.094v17.351c0,29.948-5.615,44.922-16.846,44.922v-61.768h-30.884v-16.846h78.613
			C542.676,112.075,532.38,117.521,511.792,119.094z"/>
		<path d="M615.539,102.753c0,11.23-14.974,16.846-44.922,16.846h-22.461v-16.846H615.539z M621.154,133.637
			c0,11.23-14.975,16.846-44.922,16.846h-28.076v-16.846H621.154z M626.77,164.521c0,11.23-14.975,16.846-44.922,16.846h-33.691
			v-16.846H626.77z"/>
		<path d="M105.361,241.754h78.613c0,11.23-14.974,16.846-44.922,16.846h-16.846v14.038h56.152c0,11.23-14.974,16.846-44.922,16.846
			h-11.736c-1.572,20.59-7.019,30.884-16.34,30.884V241.754z"/>
		<path d="M225.28,289.483h-18.979c0-11.23,7.487-16.846,22.461-16.846h15.442c1.946,0,3.603-0.683,4.969-2.05
			c1.366-1.366,2.05-3.022,2.05-4.969s-0.684-3.603-2.05-4.97c-1.367-1.366-3.023-2.05-4.969-2.05h-37.903v16.846
			c0,29.948-5.615,44.922-16.846,44.922v-78.613h54.749c6.588,0,12.213,2.33,16.874,6.991c4.661,4.66,6.991,10.285,6.991,16.874
			s-2.322,12.204-6.963,16.846c-3.594,3.594-7.73,5.803-12.41,6.625c12.915,12.916,19.373,27.31,19.373,43.182L225.28,289.483z"/>
		<path d="M273.549,241.754h16.846v33.691c0,29.948-5.615,44.922-16.846,44.922V241.754z"/>
		<path d="M350.624,272.638c6.588,0,12.213,2.33,16.874,6.991c4.661,4.66,6.991,10.285,6.991,16.873
			c0,6.59-2.33,12.214-6.991,16.874c-4.66,4.661-10.285,6.991-16.874,6.991h-54.749c0-11.23,10.294-16.846,30.884-16.846h23.865
			c1.946,0,3.603-0.683,4.969-2.05c1.366-1.366,2.05-3.022,2.05-4.97c0-1.945-0.684-3.602-2.05-4.969
			c-1.367-1.366-3.023-2.05-4.969-2.05H319.74c-6.589,0-12.213-2.33-16.874-6.991c-4.661-4.66-6.991-10.284-6.991-16.873
			s2.33-12.214,6.991-16.874c4.66-4.661,10.284-6.991,16.874-6.991h54.749c0,11.23-10.295,16.846-30.884,16.846H319.74
			c-1.947,0-3.604,0.684-4.969,2.05c-1.367,1.367-2.05,3.023-2.05,4.97s0.683,3.603,2.05,4.969c1.366,1.367,3.022,2.05,4.969,2.05
			H350.624z"/>
		<path d="M434.717,272.638c1.946,0,3.603-0.683,4.969-2.05c1.366-1.366,2.05-3.022,2.05-4.969s-0.684-3.603-2.05-4.97
			c-1.367-1.366-3.023-2.05-4.969-2.05h-37.903v16.846c0,29.948-5.615,44.922-16.846,44.922v-78.613h54.749
			c6.588,0,12.213,2.33,16.874,6.991c4.661,4.66,6.991,10.285,6.991,16.874c0,5.915-1.891,11.062-5.671,15.441
			c3.781,4.38,5.671,9.527,5.671,15.441c0,6.59-2.33,12.214-6.991,16.874c-4.66,4.661-10.285,6.991-16.874,6.991h-37.903
			c0-11.23,7.487-16.846,22.461-16.846h15.442c1.946,0,3.603-0.683,4.969-2.05c1.366-1.366,2.05-3.022,2.05-4.97
			c0-1.945-0.684-3.602-2.05-4.969c-1.367-1.366-3.023-2.05-4.969-2.05h-37.903c0-11.23,7.487-16.846,22.461-16.846H434.717z"/>
		<path d="M531.445,241.754c0,11.23-14.974,16.846-44.922,16.846h-22.461v-16.846H531.445z M537.061,272.638
			c0,11.23-14.974,16.846-44.922,16.846h-28.076v-16.846H537.061z M542.676,303.521c0,11.23-14.974,16.846-44.922,16.846h-33.691
			v-16.846H542.676z"/>
		<path d="M615.539,241.754c0,11.23-14.974,16.846-44.922,16.846h-22.461v-16.846H615.539z M621.154,272.638
			c0,11.23-14.975,16.846-44.922,16.846h-28.076v-16.846H621.154z M626.77,303.521c0,11.23-14.975,16.846-44.922,16.846h-33.691
			v-16.846H626.77z"/>
	</g>
</g>
</svg>
